<?xml version="1.0" encoding="iso-8859-1"?>
<!-- Generator: Adobe Illustrator 23.0.1, SVG Export Plug-In . SVG Version: 6.00 Build 0)  -->
<svg version="1.1"
	 id="svg8" inkscape:version="0.92.3 (2405546, 2018-03-11)" sodipodi:docname="basf.svg" xmlns:cc="http://creativecommons.org/ns#" xmlns:dc="http://purl.org/dc/elements/1.1/" xmlns:inkscape="http://www.inkscape.org/namespaces/inkscape" xmlns:rdf="http://www.w3.org/1999/02/22-rdf-syntax-ns#" xmlns:sodipodi="http://sodipodi.sourceforge.net/DTD/sodipodi-0.dtd" xmlns:svg="http://www.w3.org/2000/svg"
	 xmlns="http://www.w3.org/2000/svg" xmlns:xlink="http://www.w3.org/1999/xlink" x="0px" y="0px" viewBox="0 0 229.005 82.653"
	 style="enable-background:new 0 0 229.005 82.653;" xml:space="preserve">
<sodipodi:namedview  bordercolor="#666666" borderopacity="1.0" fit-margin-bottom="0.5" fit-margin-left="0.5" fit-margin-right="0.5" fit-margin-top="0.5" id="base" inkscape:current-layer="layer1" inkscape:cx="20.37634" inkscape:cy="-9.8246854" inkscape:document-units="px" inkscape:pageopacity="0" inkscape:pageshadow="2" inkscape:window-height="1001" inkscape:window-maximized="1" inkscape:window-width="1920" inkscape:window-x="-9" inkscape:window-y="-9" inkscape:zoom="3.959798" pagecolor="#00ffff" showgrid="false" units="px">
	</sodipodi:namedview>
<g id="layer1-7_9_" transform="matrix(1.5368952,0,0,1.5368952,-2.814093,-204.61736)" inkscape:label="Layer 1">
	<g id="g1072_9_" transform="matrix(0.26458333,0,0,0.26458333,70.501272,161.44891)">
		<g id="g3049_9_">
			<g id="text3111_9_">
				<g id="g3366_9_" transform="matrix(0.45619558,0,0,0.45619558,-124.51183,-24.971668)">
					<path id="path3368_9_" inkscape:connector-curvature="0" style="fill:#131720;" d="M-212.72,237.565l-22.178-81.638h-0.272
						l-22.45,81.638h-13.47l-24.9-97.149h13.198l19.049,80.821h0.272l21.77-80.821h14.015l21.498,80.821h0.272l19.729-80.821h12.926
						l-25.988,97.149H-212.72z"/>
					<path id="path3370_9_" inkscape:connector-curvature="0" style="fill:#131720;" d="M-120.877,233.074
						c-5.261,3.991-11.887,5.987-19.865,5.987c-5.624,0-10.5-0.907-14.627-2.721c-4.127-1.81-7.597-4.354-10.409-7.62
						c-2.812-3.266-4.921-7.166-6.327-11.701c-1.406-4.535-2.2-9.479-2.381-14.831c0-5.352,0.816-10.25,2.449-14.695
						c1.633-4.445,3.923-8.3,6.871-11.565c2.944-3.266,6.44-5.805,10.477-7.62c4.033-1.81,8.455-2.721,13.266-2.721
						c6.259,0,11.452,1.293,15.579,3.878c4.127,2.585,7.438,5.873,9.933,9.865c2.494,3.995,4.218,8.345,5.17,13.062
						c0.952,4.721,1.338,9.211,1.157,13.47h-52.656c-0.091,3.084,0.272,6.009,1.088,8.776c0.816,2.767,2.128,5.216,3.946,7.347
						c1.81,2.132,4.127,3.832,6.939,5.102c2.812,1.27,6.123,1.905,9.933,1.905c4.898,0,8.912-1.134,12.042-3.402
						c3.129-2.268,5.193-5.715,6.191-10.341h11.429C-112.215,223.142-115.616,229.083-120.877,233.074L-120.877,233.074z
						 M-123.663,187.902c-1.043-2.449-2.449-4.558-4.218-6.327c-1.769-1.769-3.859-3.175-6.259-4.218
						c-2.404-1.039-5.057-1.565-7.96-1.565c-2.993,0-5.692,0.525-8.096,1.565c-2.404,1.043-4.471,2.472-6.191,4.286
						c-1.723,1.814-3.084,3.923-4.082,6.327c-0.998,2.404-1.587,4.966-1.769,7.688h40.411
						C-122.011,192.936-122.623,190.351-123.663,187.902L-123.663,187.902z"/>
					<path id="path3372_9_" inkscape:connector-curvature="0" style="fill:#131720;" d="M-17.741,179.466
						c-2.907-2.449-6.803-3.674-11.701-3.674c-4.173,0-7.665,0.775-10.477,2.313c-2.812,1.542-5.057,3.583-6.735,6.123
						c-1.678,2.54-2.88,5.465-3.606,8.776c-0.726,3.311-1.088,6.735-1.088,10.273c0,3.266,0.385,6.44,1.157,9.524
						c0.771,3.084,1.973,5.828,3.606,8.232c1.633,2.404,3.764,4.331,6.395,5.783c2.631,1.451,5.76,2.177,9.388,2.177
						c5.715,0,10.182-1.497,13.402-4.49c3.22-2.993,5.193-7.211,5.919-12.654H0.355c-1.27,8.708-4.513,15.424-9.729,20.137
						c-5.216,4.717-12.314,7.075-21.294,7.075c-5.352,0-10.091-0.866-14.219-2.585c-4.127-1.723-7.574-4.173-10.341-7.347
						s-4.853-6.962-6.259-11.361c-1.41-4.399-2.109-9.23-2.109-14.491c0-5.261,0.68-10.182,2.041-14.763
						c1.361-4.577,3.424-8.572,6.191-11.974s6.236-6.074,10.409-8.028c4.173-1.95,9.026-2.925,14.559-2.925
						c3.991,0,7.733,0.476,11.225,1.429s6.576,2.43,9.252,4.422c2.676,1.996,4.876,4.513,6.599,7.551s2.812,6.644,3.266,10.817
						h-11.974C-12.934,185.362-14.839,181.915-17.741,179.466L-17.741,179.466z"/>
					<path id="path3374_9_" inkscape:connector-curvature="0" style="fill:#131720;" d="M23.758,167.22v14.831h0.272
						c2.812-5.715,6.259-9.933,10.341-12.654s9.252-3.991,15.511-3.81v12.246c-4.626,0-8.572,0.635-11.837,1.905
						c-3.266,1.27-5.9,3.129-7.892,5.579c-1.996,2.449-3.451,5.424-4.354,8.912c-0.907,3.492-1.361,7.506-1.361,12.042v31.294
						H12.873V167.22H23.758z"/>
					<path id="path3376_9_" inkscape:connector-curvature="0" style="fill:#131720;" d="M105.94,233.074
						c-5.261,3.991-11.887,5.987-19.865,5.987c-5.624,0-10.5-0.907-14.627-2.721c-4.127-1.81-7.597-4.354-10.409-7.62
						c-2.812-3.266-4.921-7.166-6.327-11.701c-1.406-4.535-2.2-9.479-2.381-14.831c0-5.352,0.816-10.25,2.449-14.695
						c1.633-4.445,3.923-8.3,6.871-11.565c2.944-3.266,6.44-5.805,10.477-7.62c4.033-1.81,8.455-2.721,13.266-2.721
						c6.259,0,11.452,1.293,15.579,3.878c4.127,2.585,7.438,5.873,9.933,9.865c2.495,3.995,4.218,8.345,5.17,13.062
						c0.952,4.721,1.338,9.211,1.157,13.47H64.577c-0.091,3.084,0.272,6.009,1.088,8.776c0.816,2.767,2.128,5.216,3.946,7.347
						c1.81,2.132,4.127,3.832,6.939,5.102c2.812,1.27,6.123,1.905,9.933,1.905c4.898,0,8.912-1.134,12.042-3.402
						c3.129-2.268,5.193-5.715,6.191-10.341h11.429C114.599,223.142,111.197,229.083,105.94,233.074L105.94,233.074z
						 M103.151,187.902c-1.043-2.449-2.449-4.558-4.218-6.327c-1.769-1.769-3.859-3.175-6.259-4.218
						c-2.404-1.039-5.057-1.565-7.96-1.565c-2.993,0-5.692,0.525-8.096,1.565c-2.404,1.043-4.471,2.472-6.191,4.286
						c-1.723,1.814-3.084,3.923-4.082,6.327c-0.998,2.404-1.587,4.966-1.769,7.688h40.411
						C104.802,192.936,104.19,190.351,103.151,187.902L103.151,187.902z"/>
					<path id="path3378_9_" inkscape:connector-curvature="0" style="fill:#131720;" d="M191.52,237.292
						c-1.996,1.179-4.762,1.769-8.3,1.769c-2.993,0-5.374-0.839-7.143-2.517c-1.769-1.678-2.653-4.422-2.653-8.232
						c-3.175,3.81-6.871,6.554-11.089,8.232c-4.218,1.678-8.776,2.517-13.674,2.517c-3.175,0-6.191-0.363-9.048-1.088
						c-2.857-0.726-5.329-1.86-7.415-3.402c-2.09-1.542-3.742-3.557-4.966-6.055c-1.225-2.495-1.837-5.511-1.837-9.048
						c0-3.991,0.68-7.257,2.041-9.797c1.361-2.54,3.148-4.603,5.374-6.191c2.222-1.584,4.762-2.789,7.62-3.606
						c2.857-0.816,5.783-1.497,8.776-2.041c3.175-0.631,6.191-1.107,9.048-1.429c2.857-0.314,5.374-0.771,7.551-1.361
						c2.177-0.59,3.901-1.451,5.17-2.585c1.27-1.134,1.905-2.789,1.905-4.966c0-2.536-0.476-4.577-1.429-6.123
						c-0.952-1.542-2.177-2.721-3.674-3.538s-3.175-1.361-5.034-1.633s-3.7-0.408-5.511-0.408c-4.898,0-8.98,0.934-12.246,2.789
						c-3.266,1.86-5.034,5.374-5.306,10.545h-11.565c0.181-4.354,1.088-8.028,2.721-11.021c1.633-2.993,3.81-5.42,6.531-7.279
						c2.721-1.856,5.828-3.197,9.32-4.014c3.489-0.816,7.234-1.225,11.225-1.225c3.175,0,6.327,0.227,9.456,0.68
						c3.129,0.454,5.964,1.38,8.504,2.782c2.54,1.406,4.581,3.375,6.123,5.907c1.542,2.532,2.313,5.836,2.313,9.91v36.117
						c0,2.717,0.159,4.709,0.476,5.975c0.318,1.266,1.383,1.897,3.198,1.897c0.998,0,2.177-0.181,3.538-0.544L191.52,237.292z
						 M172.743,201.236c-1.451,1.085-3.356,1.875-5.715,2.37c-2.362,0.499-4.83,0.903-7.415,1.217
						c-2.585,0.317-5.197,0.68-7.824,1.085c-2.631,0.404-4.989,1.062-7.075,1.962c-2.09,0.9-3.787,2.188-5.102,3.859
						c-1.315,1.671-1.973,3.95-1.973,6.837c0,1.894,0.385,3.496,1.157,4.804c0.771,1.312,1.769,2.37,2.993,3.182
						c1.225,0.813,2.653,1.398,4.286,1.761c1.633,0.363,3.356,0.54,5.17,0.54c3.81,0,7.075-0.518,9.797-1.557
						c2.721-1.039,4.944-2.347,6.667-3.927c1.723-1.58,2.993-3.296,3.81-5.144c0.816-1.852,1.225-3.591,1.225-5.212V201.236z"/>
					<path id="path3380_9_" inkscape:connector-curvature="0" style="fill:#131720;" d="M232.339,167.22v10.205h-14.015v43.676
						c0,1.361,0.113,2.449,0.34,3.266c0.227,0.816,0.658,1.451,1.293,1.905c0.635,0.454,1.519,0.748,2.653,0.884
						c1.134,0.136,2.604,0.204,4.422,0.204h5.306v10.205h-8.844c-2.993,0-5.556-0.204-7.688-0.612
						c-2.132-0.408-3.859-1.157-5.17-2.245c-1.315-1.088-2.29-2.631-2.925-4.626c-0.635-1.996-0.952-4.626-0.952-7.892v-44.765
						h-11.974V167.22h11.974v-21.09h11.565v21.09H232.339z"/>
					<path id="path3382_9_" inkscape:connector-curvature="0" style="fill:#131720;" d="M294.924,233.074
						c-5.265,3.991-11.887,5.987-19.865,5.987c-5.624,0-10.5-0.907-14.627-2.721c-4.127-1.81-7.597-4.354-10.409-7.62
						c-2.812-3.266-4.921-7.166-6.327-11.701c-1.406-4.535-2.2-9.479-2.381-14.831c0-5.352,0.816-10.25,2.449-14.695
						c1.633-4.445,3.923-8.3,6.871-11.565c2.944-3.266,6.44-5.805,10.477-7.62c4.033-1.81,8.455-2.721,13.266-2.721
						c6.259,0,11.452,1.293,15.579,3.878s7.442,5.873,9.936,9.865c2.491,3.995,4.214,8.345,5.167,13.062
						c0.952,4.721,1.338,9.211,1.16,13.47h-52.656c-0.091,3.084,0.272,6.009,1.088,8.776c0.816,2.767,2.128,5.216,3.946,7.347
						c1.81,2.132,4.127,3.832,6.939,5.102s6.123,1.905,9.933,1.905c4.898,0,8.912-1.134,12.042-3.402
						c3.129-2.268,5.193-5.715,6.191-10.341h11.429C303.583,223.142,300.185,229.083,294.924,233.074L294.924,233.074z
						 M292.135,187.902c-1.039-2.449-2.445-4.558-4.214-6.327c-1.773-1.769-3.859-3.175-6.259-4.218
						c-2.404-1.039-5.057-1.565-7.96-1.565c-2.993,0-5.692,0.525-8.096,1.565c-2.404,1.043-4.471,2.472-6.191,4.286
						c-1.723,1.814-3.084,3.923-4.082,6.327c-0.998,2.404-1.587,4.966-1.769,7.688h40.411
						C293.786,192.936,293.174,190.351,292.135,187.902L292.135,187.902z"/>
					<path id="path3384_9_" inkscape:connector-curvature="0" style="fill:#131720;" d="M398.056,179.466
						c-2.903-2.449-6.803-3.674-11.701-3.674c-4.173,0-7.665,0.775-10.473,2.313c-2.812,1.542-5.061,3.583-6.739,6.123
						c-1.674,2.54-2.88,5.465-3.602,8.776c-0.726,3.311-1.088,6.735-1.088,10.273c0,3.266,0.385,6.44,1.157,9.524
						c0.767,3.084,1.969,5.828,3.606,8.232c1.637,2.404,3.761,4.331,6.395,5.783c2.627,1.451,5.756,2.177,9.388,2.177
						c5.715,0,10.178-1.497,13.398-4.49c3.22-2.993,5.193-7.211,5.919-12.654h11.838c-1.274,8.708-4.513,15.424-9.725,20.137
						c-5.22,4.717-12.318,7.075-21.298,7.075c-5.352,0-10.091-0.866-14.219-2.585c-4.127-1.72-7.574-4.173-10.341-7.347
						s-4.853-6.962-6.259-11.361c-1.406-4.399-2.109-9.23-2.109-14.491c0-5.261,0.684-10.182,2.041-14.763
						c1.357-4.577,3.424-8.572,6.195-11.974c2.763-3.402,6.232-6.074,10.409-8.028c4.173-1.95,9.022-2.925,14.559-2.925
						c3.991,0,7.733,0.476,11.225,1.429c3.492,0.952,6.576,2.43,9.252,4.422c2.672,1.996,4.872,4.513,6.599,7.551
						c1.72,3.039,2.812,6.644,3.262,10.817h-11.974C402.864,185.362,400.959,181.915,398.056,179.466L398.056,179.466z"/>
					<path id="path3386_9_" inkscape:connector-curvature="0" style="fill:#131720;" d="M440.644,140.416v37.145h0.272
						c0.907-2.177,2.177-4.014,3.81-5.511c1.636-1.497,3.47-2.721,5.514-3.674c2.037-0.952,4.173-1.655,6.391-2.109
						c2.219-0.454,4.377-0.68,6.467-0.68c4.622,0,8.477,0.635,11.562,1.905c3.084,1.27,5.582,3.039,7.483,5.306
						c1.905,2.271,3.239,4.966,4.014,8.096c0.767,3.129,1.157,6.599,1.157,10.409v46.261h-11.565v-47.622
						c0-4.354-1.274-7.797-3.81-10.341c-2.544-2.54-6.036-3.81-10.477-3.81c-3.541,0-6.599,0.544-9.188,1.633
						c-2.585,1.088-4.74,2.631-6.459,4.626c-1.727,1.996-3.02,4.331-3.878,7.007c-0.866,2.676-1.296,5.601-1.296,8.776v39.73
						h-11.562v-97.149H440.644z"/>
					<path id="path3388_9_" inkscape:connector-curvature="0" style="fill:#131720;" d="M554.532,233.074
						c-5.265,3.991-11.887,5.987-19.865,5.987c-5.624,0-10.503-0.907-14.63-2.721c-4.127-1.81-7.597-4.354-10.409-7.62
						c-2.812-3.266-4.921-7.166-6.327-11.701c-1.406-4.535-2.2-9.479-2.381-14.831c0-5.352,0.816-10.25,2.445-14.695
						c1.636-4.445,3.927-8.3,6.871-11.565c2.944-3.266,6.44-5.805,10.477-7.62c4.033-1.81,8.455-2.721,13.266-2.721
						c6.259,0,11.452,1.293,15.579,3.878c4.127,2.585,7.438,5.873,9.933,9.865c2.491,3.995,4.218,8.345,5.17,13.062
						c0.953,4.721,1.338,9.211,1.157,13.47h-52.656c-0.091,3.084,0.268,6.009,1.089,8.776c0.816,2.767,2.128,5.216,3.946,7.347
						c1.81,2.132,4.127,3.832,6.939,5.102c2.808,1.27,6.123,1.905,9.933,1.905c4.898,0,8.908-1.134,12.042-3.402
						c3.129-2.268,5.193-5.715,6.195-10.341h11.426C563.191,223.142,559.786,229.083,554.532,233.074L554.532,233.074z
						 M551.739,187.902c-1.043-2.449-2.449-4.558-4.218-6.327c-1.769-1.769-3.859-3.175-6.255-4.218
						c-2.408-1.039-5.061-1.565-7.964-1.565c-2.99,0-5.692,0.525-8.092,1.565c-2.408,1.043-4.475,2.472-6.195,4.286
						c-1.723,1.814-3.084,3.923-4.082,6.327c-0.998,2.404-1.587,4.966-1.769,7.688h40.411
						C553.395,192.936,552.782,190.351,551.739,187.902L551.739,187.902z"/>
					<path id="path3390_9_" inkscape:connector-curvature="0" style="fill:#131720;" d="M588.68,167.22v10.341h0.272
						c5.257-7.982,12.835-11.974,22.723-11.974c4.354,0,8.296,0.907,11.838,2.721c3.542,1.814,6.032,4.898,7.48,9.252
						c2.362-3.81,5.465-6.758,9.324-8.844c3.855-2.086,8.096-3.129,12.718-3.129c3.541,0,6.739,0.389,9.596,1.157
						c2.857,0.771,5.303,1.973,7.344,3.606c2.041,1.633,3.628,3.742,4.762,6.327c1.138,2.585,1.701,5.692,1.701,9.32v51.568h-11.565
						v-46.125c0-2.177-0.185-4.218-0.548-6.123s-1.039-3.557-2.037-4.966c-1.005-1.406-2.385-2.517-4.154-3.334
						c-1.769-0.816-4.059-1.225-6.867-1.225c-5.718,0-10.208,1.633-13.47,4.898c-3.266,3.266-4.902,7.62-4.902,13.062v43.812
						h-11.562v-46.125c0-2.268-0.208-4.354-0.612-6.259c-0.408-1.905-1.115-3.56-2.113-4.966c-0.998-1.406-2.336-2.495-4.014-3.266
						c-1.674-0.771-3.832-1.157-6.459-1.157c-3.36,0-6.236,0.68-8.644,2.041c-2.404,1.361-4.35,2.993-5.847,4.898
						c-1.497,1.905-2.589,3.878-3.269,5.919s-1.021,3.742-1.021,5.102v43.812h-11.565V167.22H588.68z"/>
					<path id="path3392_9_" inkscape:connector-curvature="0" style="fill:#131720;" d="M694.537,154.566v-14.151h11.569v14.151
						H694.537z M706.103,167.22v70.345h-11.569V167.22H706.103z"/>
					<path id="path3394_9_" inkscape:connector-curvature="0" style="fill:#131720;" d="M732.907,221.845
						c1.085,1.769,2.517,3.179,4.282,4.218c1.773,1.043,3.764,1.791,5.987,2.245c2.222,0.457,4.513,0.68,6.871,0.68
						c1.814,0,3.719-0.136,5.715-0.408s3.832-0.771,5.514-1.497c1.674-0.726,3.061-1.792,4.15-3.197
						c1.089-1.406,1.633-3.197,1.633-5.374c0-2.993-1.138-5.261-3.402-6.803c-2.264-1.542-5.102-2.789-8.504-3.742
						c-3.398-0.952-7.094-1.81-11.089-2.585c-3.995-0.771-7.684-1.86-11.089-3.266c-3.405-1.406-6.236-3.379-8.504-5.919
						c-2.268-2.54-3.402-6.077-3.402-10.613c0-3.538,0.794-6.576,2.385-9.116c1.584-2.536,3.625-4.603,6.119-6.191
						c2.494-1.587,5.306-2.767,8.436-3.538c3.129-0.771,6.236-1.157,9.32-1.157c3.991,0,7.665,0.34,11.021,1.02
						c3.356,0.68,6.327,1.86,8.912,3.538c2.585,1.678,4.645,3.946,6.191,6.803c1.538,2.857,2.445,6.418,2.721,10.681h-11.565
						c-0.185-2.268-0.771-4.15-1.769-5.647c-1.002-1.497-2.272-2.699-3.81-3.606c-1.546-0.903-3.247-1.565-5.106-1.973
						c-1.86-0.408-3.742-0.612-5.647-0.612c-1.723,0-3.47,0.136-5.238,0.408c-1.773,0.272-3.383,0.748-4.83,1.429
						c-1.451,0.68-2.63,1.587-3.542,2.721c-0.907,1.138-1.357,2.608-1.357,4.422c0,1.996,0.703,3.651,2.113,4.966
						c1.402,1.315,3.198,2.404,5.374,3.266c2.177,0.866,4.626,1.587,7.344,2.177c2.725,0.59,5.443,1.202,8.164,1.837
						c2.903,0.635,5.737,1.41,8.504,2.313c2.767,0.907,5.216,2.109,7.344,3.606c2.132,1.497,3.859,3.383,5.174,5.647
						c1.315,2.268,1.969,5.08,1.969,8.436c0,4.263-0.884,7.801-2.653,10.613c-1.769,2.812-4.078,5.08-6.939,6.803
						c-2.857,1.727-6.077,2.925-9.661,3.606c-3.587,0.68-7.147,1.02-10.681,1.02c-3.9,0-7.619-0.408-11.157-1.225
						c-3.542-0.816-6.667-2.154-9.384-4.014c-2.725-1.856-4.902-4.305-6.535-7.347c-1.633-3.039-2.54-6.735-2.721-11.089h11.565
						C731.225,217.926,731.814,220.08,732.907,221.845L732.907,221.845z"/>
					<path id="path3396_9_" inkscape:connector-curvature="0" style="fill:#131720;" d="M822.161,167.22v10.205h-14.015v43.676
						c0,1.361,0.114,2.449,0.344,3.266c0.223,0.816,0.658,1.451,1.293,1.905c0.635,0.454,1.516,0.748,2.649,0.884
						c1.138,0.136,2.604,0.204,4.422,0.204h5.306v10.205h-8.844c-2.993,0-5.56-0.204-7.684-0.612
						c-2.132-0.408-3.859-1.157-5.174-2.245c-1.315-1.088-2.287-2.631-2.922-4.626s-0.953-4.626-0.953-7.892v-44.765h-11.974V167.22
						h11.974v-21.09h11.565v21.09H822.161z"/>
					<path id="path3398_9_" inkscape:connector-curvature="0" style="fill:#131720;" d="M845.428,167.22v14.831h0.268
						c2.808-5.715,6.259-9.933,10.337-12.654c4.082-2.721,9.256-3.991,15.511-3.81v12.246c-4.626,0-8.572,0.635-11.838,1.905
						c-3.262,1.27-5.9,3.129-7.892,5.579c-1.996,2.449-3.447,5.424-4.354,8.912c-0.907,3.489-1.357,7.506-1.357,12.042v31.294
						h-11.569V167.22H845.428z"/>
					<path id="path3400_9_" inkscape:connector-curvature="0" style="fill:#131720;" d="M907.881,246.953
						c-1.361,3.447-2.703,6.35-4.014,8.708c-1.315,2.358-2.767,4.286-4.354,5.783s-3.356,2.585-5.303,3.266
						c-1.954,0.68-4.195,1.021-6.735,1.021c-1.357,0-2.721-0.091-4.082-0.272c-1.357-0.181-2.676-0.499-3.946-0.952v-10.613
						c1.002,0.454,2.15,0.839,3.47,1.157c1.315,0.317,2.427,0.476,3.334,0.476c2.359,0,4.331-0.567,5.919-1.701
						c1.587-1.134,2.789-2.744,3.606-4.83l4.762-11.838l-27.893-69.936h13.062l20.549,57.555h0.268l19.729-57.555h12.246
						L907.881,246.953z"/>
				</g>
			</g>
		</g>
		<g id="g3087_9_">
			<g id="g3089_9_">
				<g id="g3091_9_">
					<path id="path3093_9_" inkscape:connector-curvature="0" style="fill:#131720;" d="M-57.78-103.99c0,0,46.764,0,56.149,0
						c20.61,0,30.025,13.742,30.025,26.302c0,9.048-3.477,14.888-12.809,20.319c11.769,4.35,18.168,12.2,18.168,24.306
						c0,14.479-10.515,29.843-35.308,29.843c-13.746,0-56.251,0-56.251,0L-57.78-103.99z M-27.117-25.973c0,0,13.073,0,20.319,0
						c7.238,0,10.492-5.174,10.492-9.751c0,2.12,0.93-8.349-9.464-8.349c-5.461,0-21.347,0-21.347,0V-25.973z M-27.045-64.313
						c0,0,9.456,0,16.328,0c7.465,0,10.439-3.477,10.439-8.576c0-1.179-0.367-7.756-8.296-7.756c3.621,0-18.471,0-18.471,0V-64.313z
						"/>
					<path id="path3095_9_" inkscape:connector-curvature="0" style="fill:#131720;" d="M65.69-103.99h32.466L135.131-3.338h-33.32
						L96.931-18.41H65.826L61.691-3.413H28.62L65.69-103.99z M80.6-74.121l-8.572,33.615h18.323L80.6-74.121z"/>
					<path id="path3097_9_" inkscape:connector-curvature="0" style="fill:#131720;" d="M186.915-74.056h30.958
						c0-17.087-12.858-32.95-43.37-32.95c-33.468,0-43.835,18.471-43.835,31.99c0,21.8,26.68,27.594,27.504,27.851
						c3.987,1.255,20.546,5.692,24.677,7.166c3.579,1.281,7.007,4.15,7.007,7.979c0,5.885-7.007,8.712-12.843,8.712
						c-3.742,0-16.335-1.24-16.335-14.585h-31.986c0,17.722,12.197,37.561,46.401,37.561c37.75,0,45.649-22.522,45.649-34.492
						c0-9.774-5.537-20.614-18.316-25.773c-7.684-3.103-20.425-5.824-26.82-7.691c-3.228-0.945-13.973-3.122-13.973-9.679
						c0-8.402,13.848-7.317,11.826-7.317C179.726-85.285,186.915-81.763,186.915-74.056L186.915-74.056z"/>
					<polygon id="polygon3099_9_" style="fill:#131720;" points="303.275,-104.013 303.275,-77.416 256.881,-77.416 
						256.881,-59.687 298.248,-59.687 298.248,-34.269 256.734,-34.269 256.734,-3.239 225.855,-3.239 226.002,-104.013 					"/>
				</g>
				<path id="path3101_9_" inkscape:connector-curvature="0" style="opacity:0.6;fill:#131720;enable-background:new    ;" d="
					M-259.339-103.99V-3.209h100.781V-103.99H-259.339z M-189.568-34.22h-38.763v-38.763h38.763V-34.22z"/>
				
					<rect id="rect3103_9_" x="-127.55" y="-72.983" style="opacity:0.6;fill:#131720;enable-background:new    ;" width="38.763" height="38.763"/>
			</g>
		</g>
	</g>
</g>
</svg>
