<?xml version="1.0" encoding="UTF-8"?>
<svg xmlns="http://www.w3.org/2000/svg" version="1.1" viewBox="0 0 1059.12 184.92">
  <!-- Generator: Adobe Illustrator 29.7.1, SVG Export Plug-In . SVG Version: 2.1.1 Build 8)  -->
  <defs>
    <style>
      .st0 {
        fill: #0081c6;
      }

      .st1 {
        fill: #f59fb4;
      }

      .st1, .st2 {
        fill-rule: evenodd;
      }

      .st3 {
        fill: #fff;
      }

      .st4 {
        fill: none;
      }

      .st5 {
        fill: #043673;
      }

      .st6 {
        fill: #fdb913;
      }

      .st7 {
        fill: #8dc63f;
      }

      .st8, .st2 {
        fill: #ee307b;
      }
    </style>
  </defs>
  <g id="Protective_space">
    <rect class="st4" x="0" width="1498" height="185.58"/>
  </g>
  <g id="Layer_1">
    <g>
      <path class="st3" d="M480.3,57.4c-16.09.03-28.38,7.09-36.47,14.63-8.09,7.54-14.41,21.48-15.26,26.49-.85,5,.26,19.26.26,19.26,0,0,6.69-1.75,15.75-1.38,9.06.38,20.51,3.38,31.57,5.94,11.07,2.56,19.76,5.31,33.26,3,13.5-2.31,22.04-7.25,22.04-7.25,0,0,2.12-12.22,0-20.66-2.28-9.1-12.41-22.98-15.22-25.29-2.81-2.31-15.59-14.77-35.93-14.73Z"/>
      <g>
        <rect class="st6" x="558.31" y="126.46" width="119.24" height="1.45"/>
        <g>
          <path class="st5" d="M561.36,74.8c0-2.42-.17-3.06-1.81-3.19l-1.14-.08c-.18-.15-.13-.8.04-.82,1.96-.18,4.43-.26,7.81-.26,2.29,0,4.46.16,6.1.92,1.56.69,2.76,2,2.76,4.09,0,2.36-1.53,3.57-3.7,4.48,0,.33.29.43.69.49,1.96.33,4.86,1.96,4.86,5.46,0,3.79-3.12,6.34-9.65,6.34-1.05,0-2.83-.1-4.36-.1s-2.83.07-4.18.1c-.22-.1-.29-.62-.07-.82l.65-.1c1.92-.29,2-.65,2-4.09v-12.43ZM564.34,79.15c0,.92.04.98,1.89.92,3.7-.13,5.7-1.11,5.7-4.19s-2.65-4.42-5.41-4.42c-.8,0-1.35.07-1.67.2-.36.1-.51.26-.51.85v6.64ZM564.34,86.74c0,1.18.07,2.85.76,3.57.69.75,1.78.92,2.87.92,3.23,0,5.7-1.31,5.7-4.58,0-2.59-1.45-5.59-7.22-5.59-1.96,0-2.11.2-2.11.85v4.84Z"/>
          <path class="st5" d="M602.21,78.02c0-2.96-.06-3.44-1.89-3.58l-.78-.06c-.19-.11-.12-.61.06-.7,1.55.06,2.61.09,3.91.09s2.29-.03,3.84-.09c.19.09.25.59.06.7l-.78.06c-1.83.14-1.89.62-1.89,3.58v9.95c0,2.96.06,3.35,1.89,3.55l.78.08c.19.11.12.61-.06.7-1.55-.06-2.6-.08-3.84-.08-1.3,0-2.36.03-3.91.08-.19-.08-.25-.53-.06-.7l.78-.08c1.83-.2,1.89-.59,1.89-3.55v-9.95Z"/>
          <path class="st5" d="M619.41,88.02c0,2.93.06,3.35,1.74,3.49l.93.08c.17.11.12.61-.06.7-1.66-.06-2.64-.08-3.81-.08s-2.18.03-4.04.08c-.17-.08-.23-.56,0-.7l1.05-.08c1.66-.14,1.8-.56,1.8-3.49v-12.49c0-.86,0-.89-.87-.89h-1.6c-1.25,0-2.85.06-3.57.7-.7.62-.99,1.23-1.31,1.93-.23.17-.64.03-.76-.2.46-1.26.9-3.04,1.1-4.16.09-.06.47-.08.55,0,.18.89,1.13.87,2.47.87h11.77c1.57,0,1.83-.06,2.27-.78.15-.06.46-.03.52.08-.32,1.15-.52,3.41-.44,4.25-.12.22-.61.22-.76.06-.09-.7-.29-1.73-.73-2.04-.67-.47-1.77-.7-3.37-.7h-2.06c-.87,0-.84.03-.84.95v12.43Z"/>
          <path class="st5" d="M631.87,78.02c0-2.96-.06-3.44-1.89-3.58l-.78-.06c-.19-.11-.12-.61.06-.7,1.55.06,2.6.09,3.91.09s2.3-.03,3.85-.09c.18.09.25.59.06.7l-.78.06c-1.83.14-1.89.62-1.89,3.58v9.95c0,2.96.06,3.35,1.89,3.55l.78.08c.19.11.12.61-.06.7-1.55-.06-2.61-.08-3.85-.08-1.3,0-2.36.03-3.91.08-.19-.08-.25-.53-.06-.7l.78-.08c1.83-.2,1.89-.59,1.89-3.55v-9.95Z"/>
          <path class="st5" d="M645.77,92.58c-2.77,0-4.52-.73-5.14-1.03-.4-.61-.83-2.6-.89-3.91.17-.2.66-.25.79-.08.5,1.43,1.85,4.16,5.67,4.16,2.77,0,4.12-1.54,4.12-3.21,0-1.23-.3-2.6-2.7-3.91l-3.13-1.73c-1.65-.92-3.56-2.51-3.56-4.8,0-2.65,2.44-4.81,6.73-4.81,1.02,0,2.21.17,3.07.36.43.11.89.17,1.15.17.3.67.59,2.23.59,3.41-.13.17-.66.25-.82.09-.43-1.34-1.32-3.16-4.48-3.16s-3.92,1.81-3.92,3.1c0,1.62,1.58,2.79,2.8,3.44l2.64,1.4c2.08,1.09,4.12,2.71,4.12,5.36,0,3.07-2.74,5.17-7.02,5.17Z"/>
          <path class="st5" d="M662.36,83.19c-1.44,0-1.5.06-1.5.9v3.94c0,2.93.15,3.32,1.83,3.49l.87.08c.18.11.12.61-.06.7-1.62-.06-2.65-.08-3.82-.08-1.29,0-2.31.05-3.49.08-.18-.08-.24-.53-.06-.7l.51-.08c1.68-.28,1.74-.56,1.74-3.49v-10.06c0-2.93-.21-3.41-1.77-3.52l-.78-.06c-.18-.11-.12-.61.06-.7,1.47.03,2.5.09,3.79.09,1.17,0,2.2-.03,3.49-.09.18.09.24.59.06.7l-.57.06c-1.74.17-1.8.59-1.8,3.52v3.21c0,.86.06.89,1.5.89h8.6c1.44,0,1.5-.03,1.5-.89v-3.21c0-2.93-.06-3.35-1.83-3.52l-.57-.06c-.18-.11-.12-.61.06-.7,1.38.06,2.41.09,3.64.09s2.19-.03,3.55-.09c.18.09.24.59.06.7l-.63.06c-1.74.17-1.8.59-1.8,3.52v10.06c0,2.93.06,3.3,1.8,3.49l.72.08c.18.11.12.61-.06.7-1.44-.06-2.47-.08-3.64-.08-1.23,0-2.31.03-3.64.08-.18-.08-.24-.53-.06-.7l.57-.08c1.83-.28,1.83-.56,1.83-3.49v-3.94c0-.84-.06-.9-1.5-.9h-8.6Z"/>
          <path class="st5" d="M544.16,98.44c2.47-1.92,5.62-2.87,9.14-2.87,1.83,0,4.4.37,5.99.81.41.1.64.17.95.13.03.78.2,2.9.47,4.96-.17.23-.68.27-.91.07-.51-2.29-2.03-4.92-6.94-4.92-5.18,0-9.58,3.27-9.58,10.25s4.5,11,10.05,11c4.37,0,6.3-2.83,7.07-4.82.24-.17.75-.1.88.14-.24,1.75-1.12,3.98-1.62,4.62-.41.07-.81.2-1.18.34-.75.27-3.18.77-5.35.77-3.05,0-5.96-.61-8.43-2.26-2.71-1.85-4.81-4.92-4.81-9.27,0-3.75,1.69-6.95,4.26-8.94Z"/>
          <path class="st5" d="M562.67,109.35c0-5.59,4.4-9.86,10.45-9.86,6.78,0,10.18,4.67,10.18,9.58,0,5.64-4.52,9.75-10.18,9.75-6.51,0-10.45-4.44-10.45-9.47ZM580.36,109.93c0-4.61-2.14-9.58-7.74-9.58-3.05,0-7.01,1.98-7.01,8.1,0,4.13,2.11,9.5,7.89,9.5,3.52,0,6.86-2.52,6.86-8.02Z"/>
          <path class="st5" d="M616.39,106.94c0-1.73-.06-4.94-.56-5.78-.21-.33-.74-.53-1.48-.59l-.74-.06c-.17-.2-.12-.56.06-.67,1.13.06,2.22.09,3.38.09,1.24,0,2.04-.03,3.11-.08.24.14.21.5.06.67l-.71.06c-.74.05-1.3.31-1.48.67-.42.92-.42,4.14-.42,5.7v3.16c0,2.43-.42,5-2.07,6.68-1.27,1.31-3.47,2.04-5.66,2.04-2.04,0-4.09-.36-5.54-1.54-1.57-1.23-2.31-3.27-2.31-6.59v-6.59c0-2.91-.06-3.38-1.78-3.52l-.74-.06c-.18-.11-.12-.59.06-.67,1.48.06,2.49.09,3.67.09s2.19-.03,3.64-.08c.18.08.24.56.06.67l-.71.06c-1.72.14-1.78.61-1.78,3.52v6.03c0,4.5,1.48,7.46,6.01,7.46,4.29,0,5.92-3.19,5.92-7.43v-3.21Z"/>
          <path class="st5" d="M650.81,103.45c0-2.09-.13-2.63-1.6-2.74l-1.05-.1c-.12-.11-.18-.67.03-.69,1.77-.13,3.99-.22,7.04-.22,2.06,0,4.03.14,5.5.79,1.41.59,2.49,1.72,2.49,3.53,0,2.03-1.37,3.08-3.34,3.87,0,.28.26.37.62.42,1.77.28,4.39,1.69,4.39,4.71,0,3.27-2.82,5.47-8.71,5.47-.95,0-2.55-.08-3.93-.08s-2.55.06-3.76.08c-.2-.08-.26-.53-.07-.7l.59-.08c1.73-.25,1.8-.57,1.8-3.53v-10.72ZM653.5,107.2c0,.79.03.85,1.7.79,3.34-.11,5.14-.96,5.14-3.61s-2.39-3.81-4.88-3.81c-.72,0-1.21.06-1.51.17-.33.08-.46.22-.46.73v5.73ZM653.5,113.75c0,1.02.07,2.46.69,3.08.62.65,1.6.79,2.59.79,2.91,0,5.14-1.13,5.14-3.95,0-2.23-1.31-4.83-6.51-4.83-1.77,0-1.9.17-1.9.73v4.17Z"/>
          <path class="st5" d="M597.47,91.6l-.77-.07c-.16-.02-.3-.04-.43-.06-1.13-.2-1.59-1.21-2.12-2.15l-2.68-4.67c-.46-.78-.96-1.83-2.02-1.98,2.75-.33,5.23-1.92,5.23-4.64,0-3.15-3.11-4.55-6.26-4.55-1.89,0-3.61.05-5.53.05-1.06,0-2.32-.05-3.38-.05-.59,0-.59.12-.59.45,0,.49.21.35.83.38,2.24.13,2.15.54,2.15,2.46v12.25c0,1.75.15,2.27-1.69,2.44,0,0-.28.03-.44.05l-.78.08c-.19.17-.12.62.06.7.42-.01,1.15-.04,1.15-.04,1.02-.03,2.04-.11,3.06-.11s2,.08,3.01.11h0c.36.01.74.03,1.15.04.19-.09.25-.53.06-.7l-.79-.07c-.16-.02-.43-.04-.43-.04-1.86-.13-1.75-.65-1.75-2.45v-4.61c0-.27-.03-.99.16-1.2.17-.18.46-.15.73-.15,2.52,0,2.49.24,3.68,2.33l3.24,5.84c.26.45.47,1.02,1.13,1.02h2.82c.36.01.73.02,1.14.04.19-.08.25-.53.06-.7ZM586.17,82.42c-.56,0-1.69.21-1.69-.54v-5.36c0-2.1.07-2.4,2.58-2.4,2.95,0,4.77,1.5,4.77,4.25,0,1.2-.43,2.31-1.52,3.05-1.26.87-2.62.99-4.14.99Z"/>
          <g>
            <path class="st5" d="M586.77,104.19c0-2.93-.06-3.38-1.99-3.52l-.77-.05c-.18-.11-.12-.61.06-.7,1.72.05,2.77.08,4,.08s2.25-.03,3.78-.08c.18.08.24.58.06.7l-.74.05c-1.81.14-1.88.59-1.88,3.52v9.72c0,1.76.09,2.48.65,3.02.34.31.92.64,3.35.64,2.61,0,3.26-.11,3.75-.36.61-.34,1.41-1.34,2.03-2.77.19-.14.77-.03.77.17,0,.31-.86,3.16-1.29,3.91-1.57-.05-4.49-.08-7.65-.08h-2.83c-1.29,0-2.27.03-4,.08-.19-.08-.24-.53-.06-.7l.92-.08c1.78-.17,1.84-.56,1.84-3.49v-10.06Z"/>
            <path class="st5" d="M669.1,104.24c0-2.96-.06-3.44-1.84-3.58l-.75-.05c-.18-.11-.12-.61.06-.7,1.51.05,2.53.08,3.8.08s2.23-.03,3.74-.08c.18.08.24.58.06.7l-.75.05c-1.78.14-1.84.62-1.84,3.58v9.95c0,2.96.06,3.35,1.84,3.55l.75.08c.18.11.12.61-.06.7-1.51-.05-2.53-.08-3.74-.08s-2.29.03-3.8.08c-.18-.08-.24-.53-.06-.7l.75-.08c1.78-.2,1.84-.59,1.84-3.55v-9.95Z"/>
            <path class="st5" d="M644.99,117.73c-.15-.02-.44-.04-.44-.04-.32-.03-.6-.08-.83-.32-.39-.42-.36-1.6-.36-2.08v-12.24c0-.53-.13-1.69.26-2.1.2-.22.6-.26.97-.28h0c.22-.02.22-.02.42-.03l.77-.06c.19-.11.13-.62-.06-.7-.42.01-.79,0-1.15.02h0s-3.3,0-3.3,0c-.36,0-.69,0-.88.39l-6.72,13.99-5.93-13.52c-.2-.47-.23-.86-.85-.86h-3.43c-.36-.01-.75,0-1.17-.02-.19.08-.25.58-.06.7l.77.06c.16.01.45.03.45.03,1.29.08,1.37.37,1.25,1.72l-1.01,13.13c-.09,1.32-.16,2.02-1.54,2.14,0,0-.29.04-.45.05l-.78.08c-.18.17-.12.61.06.7.41-.02,1.14-.04,1.14-.04.7-.04,1.41-.1,2.13-.1.77,0,1.54.07,2.31.1h0c.35.01.73.02,1.15.04.19-.08.25-.53.06-.7l-.78-.08c-.2-.02-.43-.04-.43-.04-1.99-.14-1.95-1.54-1.83-3.26l.95-12.21h.23l6.42,15.03c.06.21.16.56.49.56.29,0,.39-.33.49-.53l7.24-15.41h.23v13.43c0,.53.07,1.63-.49,2.05-.29.21-1.23.35-1.23.35-.13.02-.27.04-.42.06l-.78.08c-.18.17-.12.61.06.7.41-.01,1.13-.04,1.13-.04,1.05-.03,2.12-.11,3.19-.11.77,0,2.27.07,2.27.07.36.01.77.05,1.18.07.19-.08.25-.53.06-.7l-.78-.08Z"/>
            <path class="st5" d="M695.38,117.81l-.1-.08c-.15-.02-.29-.04-.42-.06-1.21-.27-1.68-1.72-2.12-2.76l-6.22-14.72c-.06-.18-.19-.56-.43-.56-.34,0-.43.41-.52.64l-5.94,14.69c-.22.55-.77,1.9-1.17,2.32-.31.32-.71.37-1.13.42,0,0-.34.03-.49.05l-.73.08c-.19.17-.12.61.06.7.41-.01,1.15-.04,1.15-.04.81-.01,1.63-.11,2.44-.11.68,0,1.37.07,2.05.1,0,0,.74.03,1.15.04.19-.09.25-.53.06-.7l-.77-.08c-.15-.02-.42-.04-.42-.04-.71-.08-1.6-.21-1.6-.99,0-.53.25-1.14.43-1.61l.92-2.2c.46-1.05.28-1.17,1.51-1.17h4.19c1.48,0,1.26,0,1.91,1.5l.98,2.23c.15.38.43,1.03.43,1.44,0,.74-.81.78-1.56.85,0,0-.25.02-.46.04l-.75.05c-.19.17-.12.62.06.7.41-.02,1.15-.04,1.15-.04.87-.03,1.76-.1,2.6-.1,1.08,0,2.16.07,3.24.11h0c.35,0,.05.02.46.04.19-.08.25-.53.06-.7ZM687.24,110.89h-3.63c-.13,0-1.14.12-1.14-.18,0-.09.06-.27.1-.36l2.18-5.39c.06-.15.28-.89.53-.89.19,0,.44.77.5.89l2.15,5.04c0,.06.22.53.22.65,0,.32-.73.24-.92.24Z"/>
          </g>
        </g>
        <polygon class="st6" points="522.65 93.26 511.97 97.21 515.34 98.36 522.65 93.26"/>
        <g>
          <path class="st5" d="M428.18,98.5c-.44,2.09-1.25,6.03-1.25,11.3,0,3.4.35,6.27.96,9.5h0c.47-.1.66-.15,1.18-.25h0c4.79-.83,12.38-1.82,18.87-1,10.3,1.3,16.74,3.04,27.62,5.5,10.88,2.46,18.89,4.77,30.63,3.47,10.27-1.14,17.31-2.74,24.16-7.25,0,0,0,0,0,0,0,0,.55-.36.55-.36.12-.08.58-.43.73-.54.5-2.94.88-5.86.88-8.94h0c0-4.13-.56-8.6-1.45-12.5l-7.27-4.05-8.41,5.9-5.66-2.2c-1.92.97-13.73,8.87-13.73,8.87l-4.53-3.28-4.87-.96-6.49-4.72-7.44,5.11s-8.3,4.82-8.59,4.82-10.02-7.71-10.02-7.71l-4.48-4.72c-.76.48-3.81,1.88-3.81,1.88l-.16.04-2.95-.91-3.58-1.9-10.89,4.94Z"/>
          <path class="st6" d="M437.46,93.4l-6-2.21c.07-.18.14-.37.21-.55l6.59,2.3.63-.4,3.15,1.71,3.91,1.43.23-.1-13.97-6.29c.08-.18.16-.37.24-.55l15.39,6.15.22-.12-15-7.36c.08-.18.17-.35.25-.53l16.29,7.11-15.62-8.42c.08-.16.17-.32.25-.48l21.94,11.61c.32-.58.65-1.16,1.01-1.71l-17.88-13.97,19.08,12.24c.47-.62.97-1.22,1.49-1.8l-18.36-16.64c.13-.14.27-.29.4-.43l13.34,11.78-12.33-12.83c.14-.14.28-.28.42-.43l13.91,13.35-12.86-14.37c.14-.13.28-.27.43-.4l12.46,12.71-11.36-13.69c.14-.12.28-.23.42-.35l15.94,18.93c.62-.53,1.26-1.04,1.92-1.51l-11.37-19.7,13.13,18.54c.71-.43,1.44-.82,2.2-1.18l-10.75-22.23c.19-.09.37-.18.56-.26l7.96,15.95-6.64-16.54c.18-.08.37-.16.55-.23l7.91,17.62-6.54-18.16c.18-.07.36-.14.54-.21l6.8,16.47-5.41-16.96c.16-.05.32-.1.48-.16l7.67,23.45c.71-.24,1.44-.45,2.17-.63l-3.17-22.52,5.23,22.11c.87-.14,1.76-.23,2.66-.28l-1.64-24.56c.19-.01.37-.02.56-.03l1.69,17.66-.25-17.71c.2,0,.41,0,.61,0l.72,18.59.73-18.58c.2,0,.39,0,.59.02l-.16,17.69,1.62-17.63c.18.01.37.02.55.03l-1.67,24.54c.85.05,1.69.15,2.52.28l5.22-22.03-3.16,22.45c.77.19,1.53.41,2.28.67l7.64-23.35c.18.06.36.12.54.19l-5.36,16.79,6.73-16.29c.19.07.37.14.55.21l-6.48,17.98,7.82-17.43c.19.08.37.16.56.24l-6.56,16.35,7.86-15.75c.17.08.33.16.5.24l-10.69,22.1c.73.35,1.44.74,2.13,1.15l13.1-18.48-11.34,19.64c.68.49,1.33,1.01,1.96,1.56l15.81-18.76c.15.12.29.25.43.38l-11.24,13.55,12.32-12.57c.15.14.29.27.44.41l-12.73,14.22,13.76-13.21c.14.14.28.29.43.44l-12.19,12.68,13.17-11.64c.12.14.25.27.37.41l-18.18,16.47c.51.57,1.01,1.17,1.47,1.79l19.04-12.22-17.85,13.94c.36.56.69,1.14,1,1.72l21.68-11.48c.09.17.18.34.27.51l-15.36,8.27,16.01-6.98c.09.18.17.36.25.54l-17.01,8.36,17.6-7.05c.08.19.16.38.24.56l-15.95,7.15,16.48-5.83c.07.17.13.34.2.51l-3.52,1.3,5.24,3.98,1.45.81h0c-.55-2.21-1.39-4.91-2.22-7-7.86-19.93-27.69-33.52-49.18-33.52-25.19,0-46.24,17.69-51.42,41.32h0s-.04.16-.06.29l1.03-.48,8.26-4.63Z"/>
        </g>
      </g>
    </g>
    <g>
      <g>
        <path class="st8" d="M133.8,65.18c1.07-.71,2.33-1.07,3.78-1.07.8,0,1.54.11,2.23.34.69.23,1.29.55,1.82.98.53.43.96.94,1.3,1.55.34.61.56,1.29.67,2.07h5.98c-.19-1.62-.63-3.06-1.3-4.31-.68-1.26-1.55-2.32-2.63-3.19-1.07-.87-2.3-1.53-3.69-1.99-1.39-.45-2.89-.68-4.51-.68-2.46,0-4.67.56-6.63,1.68-1.96,1.12-3.52,2.75-4.67,4.89-1.15,2.14-1.72,4.73-1.72,7.78s.57,5.63,1.7,7.76c1.13,2.14,2.68,3.77,4.64,4.9,1.96,1.13,4.19,1.69,6.68,1.69,1.79,0,3.4-.27,4.82-.81,1.42-.54,2.65-1.28,3.68-2.21,1.03-.93,1.86-1.99,2.47-3.18.61-1.19,1-2.42,1.15-3.7l-5.98-.03c-.14.75-.38,1.41-.73,1.99-.35.58-.79,1.08-1.32,1.48-.53.4-1.13.71-1.81.92-.68.21-1.41.31-2.2.31-1.41,0-2.65-.35-3.72-1.04-1.07-.69-1.91-1.71-2.5-3.07-.6-1.36-.89-3.03-.89-5.02s.3-3.59.89-4.95c.59-1.36,1.42-2.4,2.5-3.11Z"/>
        <path class="st8" d="M164.14,77.3h4.31l5.29,9.91h6.52l-5.93-10.87c.09-.04.18-.06.27-.1,1.51-.71,2.67-1.73,3.47-3.06.8-1.33,1.2-2.93,1.2-4.78s-.39-3.45-1.18-4.82c-.79-1.37-1.93-2.43-3.42-3.18-1.5-.75-3.3-1.13-5.41-1.13h-11.02v27.94h5.91v-9.91ZM168.13,64.09c1.14,0,2.08.17,2.83.5.75.33,1.31.82,1.68,1.45.37.64.55,1.42.55,2.35s-.18,1.69-.55,2.31c-.37.62-.93,1.08-1.67,1.39-.75.31-1.68.46-2.81.46h-4.01v-8.46h3.98Z"/>
        <polygon class="st8" points="193.77 75.66 205.73 75.66 205.73 70.79 193.77 70.79 193.77 64.13 206.7 64.13 206.7 59.26 187.87 59.26 187.87 87.21 206.75 87.21 206.75 82.33 193.77 82.33 193.77 75.66"/>
        <path class="st8" d="M223.95,59.26l-9.65,27.94h6.33l2.07-6.37h10.09l2.07,6.37h6.33l-9.63-27.94h-7.61ZM224.21,76.22l3.44-10.57h.22l3.43,10.57h-7.09Z"/>
        <polygon class="st8" points="244.49 64.13 253.04 64.13 253.04 87.21 258.88 87.21 258.88 64.13 267.44 64.13 267.44 59.26 244.49 59.26 244.49 64.13"/>
        <rect class="st8" x="275.65" y="59.26" width="5.91" height="27.94"/>
        <polygon class="st8" points="302.91 80.49 302.65 80.49 295.9 59.26 289.33 59.26 298.98 87.21 306.59 87.21 316.22 59.26 309.68 59.26 302.91 80.49"/>
        <polygon class="st8" points="329.95 82.33 329.95 75.66 341.9 75.66 341.9 70.79 329.95 70.79 329.95 64.13 342.87 64.13 342.87 59.26 324.04 59.26 324.04 87.21 342.92 87.21 342.92 82.33 329.95 82.33"/>
        <path class="st8" d="M142.62,110.82c-.89-.55-1.79-.85-2.72-.89v-.27c.85-.22,1.64-.57,2.35-1.04.71-.48,1.28-1.11,1.71-1.91.43-.8.64-1.78.64-2.94,0-1.38-.32-2.63-.97-3.73-.65-1.11-1.62-1.98-2.92-2.63-1.3-.65-2.94-.98-4.93-.98h-10.23v27.94h10.71c2.16,0,3.94-.33,5.33-.99,1.39-.66,2.42-1.56,3.09-2.69.67-1.13,1-2.41,1-3.84s-.29-2.67-.87-3.68c-.58-1.01-1.32-1.79-2.2-2.34ZM129.78,100h5.76c1.67,0,2.92.39,3.72,1.17.81.78,1.21,1.75,1.21,2.91,0,.9-.23,1.68-.68,2.34-.45.66-1.06,1.17-1.81,1.53-.76.36-1.61.55-2.56.55h-5.65v-8.5ZM140.2,119.57c-.87.78-2.32,1.17-4.34,1.17h-6.09v-8.95h6.24c1.13,0,2.1.22,2.93.65.82.44,1.46,1.02,1.9,1.76.45.74.67,1.55.67,2.43,0,1.17-.44,2.15-1.31,2.93Z"/>
        <path class="st8" d="M164.57,101.1c1.27-.81,2.71-1.21,4.32-1.21.89,0,1.73.12,2.53.37.8.25,1.52.61,2.16,1.09.65.48,1.19,1.07,1.64,1.76.45.69.75,1.49.91,2.4h4.26c-.24-1.5-.69-2.84-1.36-4-.67-1.17-1.52-2.16-2.55-2.97-1.03-.81-2.19-1.43-3.47-1.86-1.29-.42-2.67-.63-4.15-.63-2.41,0-4.56.58-6.45,1.73-1.89,1.15-3.38,2.8-4.48,4.94-1.09,2.14-1.64,4.71-1.64,7.69s.54,5.53,1.63,7.68c1.09,2.15,2.58,3.8,4.47,4.95,1.89,1.15,4.05,1.73,6.47,1.73,1.54,0,2.96-.23,4.26-.68,1.3-.45,2.46-1.1,3.47-1.93,1.01-.83,1.85-1.82,2.5-2.97.65-1.15,1.09-2.41,1.32-3.79h-4.26c-.17.88-.48,1.67-.93,2.35-.45.69-1,1.27-1.64,1.74-.65.47-1.37.83-2.16,1.07-.8.24-1.64.36-2.52.36-1.59,0-3.02-.4-4.3-1.2-1.27-.8-2.28-1.98-3.01-3.55-.73-1.56-1.1-3.48-1.1-5.76s.37-4.17,1.1-5.73c.73-1.56,1.73-2.75,3-3.56Z"/>
      </g>
      <g>
        <path class="st1" d="M86.07,116.55c-.05-.1-.1-.21-.16-.31v-11.79c5.81-.82,10.69-3.28,14.5-7.92,1.73,3.62,3.43,7.15,5.15,10.75-.86.86-1.69,1.74-2.58,2.55-1.58,1.43-3.34,2.63-5.25,3.57-2.71,1.34-5.56,2.26-8.56,2.7-1.03.15-2.07.3-3.1.46Z"/>
        <path class="st1" d="M86.06,68.1c0-3.95.01-7.9.02-11.85,7.17.33,14.3,3.27,19.1,8.72-1.62,3.61-3.39,7.07-5.04,10.63-.51-.57-1.04-1.11-1.59-1.64-.32-.3-.65-.59-.98-.88s-.7-.58-1.07-.86-.73-.54-1.11-.79c-.46-.31-.92-.59-1.4-.86-.35-.2-.71-.39-1.07-.57-.31-.15-.63-.3-.94-.44-.29-.12-.57-.24-.86-.35-.39-.15-.78-.28-1.18-.4s-.81-.23-1.22-.32-.83-.17-1.25-.24c-.46-.07-.93-.13-1.4-.16Z"/>
        <path class="st2" d="M86.07,116.55v11.96c-56.95,9.11-56.77-81.08,0-72.25,0,3.95-.01,7.9-.02,11.85-38.01-8.01-38,56.36-.15,48.13.05.1.1.21.16.31Z"/>
      </g>
    </g>
    <path class="st0" d="M856.62,102.37l.82,1.4c-.68.45-1.47.82-2.38,1.1-.89.29-2.05.43-3.43.43-1.27,0-2.42-.24-3.44-.72-1.03-.49-1.92-1.14-2.66-2-.75-.85-1.31-1.78-1.69-2.8-.36-1.03-.55-2.08-.55-3.17s.19-2.14.55-3.17c.39-1.03.94-1.97,1.69-2.81.73-.84,1.62-1.48,2.66-1.97,1.02-.48,2.17-.72,3.44-.72.98,0,1.83.07,2.57.21.72.14,1.3.3,1.72.46.42.18.81.37,1.18.59l-.66,1.59c-.19-.1-.44-.2-.71-.31-.27-.12-.59-.24-.98-.37-.38-.12-.81-.22-1.32-.31-.49-.08-1.07-.11-1.7-.11-.83,0-1.62.17-2.35.52-.72.36-1.37.84-1.92,1.48-.56.63-.99,1.37-1.3,2.22-.32.85-.46,1.75-.46,2.7,0,1.29.28,2.46.85,3.52.56,1.05,1.32,1.88,2.3,2.5.95.62,2.01.93,3.15.93,1.23,0,2.18-.11,2.84-.35.68-.23,1.28-.51,1.78-.84Z"/>
    <path class="st0" d="M862.03,104.96h-2.21v-16.7h2.21v16.7Z"/>
    <path class="st0" d="M864.65,89.92v-1.65h12.87v1.65h-5.33v15.04h-2.2v-15.04h-5.34Z"/>
    <path class="st0" d="M889.57,88.26h2.11l-5.39,8.6v8.1h-2.22v-8.1l-5.28-8.6h2.4l4.21,6.91,4.17-6.91Z"/>
    <path class="st0" d="M907.71,87.94c1.69,0,3.15.37,4.38,1.1,1.23.71,2.16,1.73,2.8,3.05.64,1.31.96,2.83.96,4.51,0,1.28-.21,2.47-.6,3.56-.41,1.07-.98,2-1.72,2.76-.74.76-1.6,1.36-2.6,1.75-1,.41-2.07.61-3.21.61-1.21,0-2.32-.21-3.32-.62-.99-.4-1.86-1-2.58-1.76-.72-.76-1.28-1.68-1.66-2.75-.38-1.08-.57-2.27-.57-3.57s.19-2.39.57-3.45c.39-1.06.93-1.98,1.64-2.75.71-.77,1.57-1.37,2.59-1.82,1.02-.43,2.13-.65,3.33-.65ZM907.71,89.57c-1.13,0-2.14.28-3.01.88-.87.59-1.54,1.41-2.01,2.47-.47,1.07-.7,2.28-.7,3.69s.24,2.63.7,3.69c.47,1.06,1.14,1.89,2.01,2.47.87.6,1.88.89,3.01.89.85,0,1.63-.16,2.34-.5.71-.34,1.32-.81,1.83-1.45.51-.63.9-1.37,1.16-2.23.27-.86.4-1.82.4-2.88s-.13-2.01-.41-2.88c-.27-.87-.65-1.61-1.15-2.22-.49-.62-1.09-1.1-1.8-1.44-.7-.34-1.5-.49-2.38-.49Z"/>
    <path class="st0" d="M921.18,104.96h-2.22v-16.7h8.65v1.65h-6.44v5.61h4.52v1.66h-4.52v7.77Z"/>
    <path class="st7" d="M831.51,112.16l-9,24.56h-2.27l-8.04-24.56h4.29l5.37,17.16,5.93-17.16h3.72Z"/>
    <path class="st7" d="M837.12,130.47l-2.35,6.05h-3.77l9.91-24.43h2.5l8.99,24.43h-4.36l-2.18-6.05h-8.73ZM844.81,127.63l-3.19-8.77-3.4,8.77h6.6Z"/>
    <path class="st7" d="M873.4,112.16h3.67v24.35h-3.7l-13.74-17.55v17.55h-3.67v-24.35h3.54l13.9,17.82v-17.82Z"/>
    <path class="st7" d="M900.32,132.22l1.35,2.76c-1.04.61-2.24,1.11-3.57,1.47-1.33.36-3,.54-5.02.54-1.83,0-3.49-.33-5.02-.98-1.53-.65-2.86-1.58-3.99-2.78-1.13-1.18-1.99-2.55-2.59-4.08-.59-1.51-.9-3.13-.9-4.82s.3-3.3.91-4.84c.6-1.54,1.46-2.89,2.59-4.07,1.13-1.18,2.44-2.09,3.98-2.75,1.53-.66,3.19-.97,5.02-.97,1.55,0,2.85.07,3.91.27,1.06.19,1.91.43,2.54.68.62.25,1.23.53,1.79.85l-1.23,2.91c-.58-.28-1.11-.5-1.59-.69-.48-.18-1.15-.37-2.03-.55-.87-.18-1.89-.26-3.03-.26-1.43,0-2.79.4-4.09,1.22-1.31.84-2.34,1.96-3.12,3.41-.77,1.46-1.15,3.04-1.15,4.78s.39,3.35,1.18,4.77c.79,1.45,1.85,2.59,3.16,3.42,1.31.82,2.72,1.24,4.22,1.24,1.61,0,2.88-.14,3.82-.42.95-.26,1.91-.64,2.87-1.12Z"/>
    <path class="st7" d="M916.69,111.7c2.46,0,4.63.52,6.53,1.59,1.88,1.07,3.31,2.57,4.32,4.48,1.02,1.91,1.51,4.1,1.51,6.56,0,1.9-.3,3.63-.95,5.2-.64,1.57-1.55,2.91-2.7,4.01-1.12,1.12-2.45,1.98-3.96,2.57-1.49.58-3.08.88-4.76.88-2.37,0-4.5-.52-6.36-1.55-1.88-1.04-3.35-2.51-4.4-4.43-1.06-1.93-1.59-4.15-1.59-6.68,0-1.79.31-3.44.91-5,.61-1.55,1.45-2.88,2.55-4.02,1.09-1.14,2.41-2.02,3.94-2.66,1.52-.65,3.18-.95,4.95-.95ZM916.69,114.76c-1.19,0-2.27.22-3.25.71-.98.47-1.8,1.13-2.5,1.98-.69.85-1.22,1.87-1.58,3.05-.36,1.18-.54,2.46-.54,3.84s.18,2.61.54,3.78c.36,1.19.9,2.22,1.6,3.08.7.88,1.53,1.55,2.49,2.01.97.48,2.05.72,3.24.72,1.59,0,2.98-.42,4.17-1.23,1.18-.82,2.1-1.97,2.76-3.45.65-1.46.97-3.11.97-4.93,0-1.35-.19-2.6-.54-3.77-.36-1.18-.9-2.2-1.6-3.07-.7-.86-1.52-1.53-2.49-2.02-.97-.48-2.07-.71-3.27-.71Z"/>
    <path class="st7" d="M952.86,112.16v16.25c0,1.41-.35,2.76-1.06,4.08-.69,1.31-1.76,2.39-3.25,3.23-1.49.84-3.31,1.27-5.53,1.27-2.07,0-3.88-.35-5.34-1.05-1.48-.7-2.58-1.69-3.35-2.95-.74-1.27-1.11-2.76-1.11-4.46v-16.38h4.2v15.93c0,1.29.21,2.35.61,3.2.41.85,1.06,1.49,1.94,1.9.88.42,2,.63,3.34.63,1.27,0,2.33-.26,3.18-.78.83-.54,1.48-1.24,1.91-2.11.44-.88.65-1.83.65-2.84v-15.93h3.81Z"/>
    <path class="st7" d="M975.34,112.16l-9,24.56h-2.3l-8.03-24.56h4.27l5.39,17.16,5.95-17.16h3.72Z"/>
    <path class="st7" d="M993.23,133.39v3.12h-14.75v-24.35h14.33v3.12h-10.13v7.14h7.37v3.1h-7.37v7.87h10.55Z"/>
    <path class="st7" d="M1015.22,136.51l-4.7.35-6.85-11.31h-2.52v10.97h-4.2v-24.35h6.75c1.88,0,3.46.31,4.8.9,1.34.62,2.33,1.39,2.96,2.34.64.96.97,1.96.97,3.02,0,1.53-.5,2.86-1.47,3.99-.97,1.13-2.04,1.88-3.19,2.22l7.45,11.87ZM1001.14,122.68h2.23c1.59,0,2.81-.37,3.65-1.15.85-.77,1.28-1.68,1.28-2.71s-.41-1.98-1.22-2.72c-.81-.72-2.04-1.09-3.7-1.09h-2.25v7.67Z"/>
    <path class="st7" d="M849.12,47.16s-19.17,15.74-20.41,38.16c0,0-6.01-20.52-28.69-26.35,0,0-3.19,21.01,20.36,35.8,0,0-25.2-1.87-39.86,16.84,0,0,8.33-16.59,30.35-20.64,0,0-14.48-10.44-13.51-34.56,0,0,17.19.03,30.24,19.56,0,0,.44-16.12,21.52-28.82Z"/>
    <path class="st0" d="M873.68,65.62s-25.83.9-36.23,22.21c0,0,9.4-28.35-10.46-39.38,0,0-17.12,18.14-2.41,40.33,0,0-21.28-16.22-41.17-5.84,0,0,11.71,25.39,43.27,15.08,0,0-31.47,18.44-45.43-15.58,0,0,14.6-14.18,37.67-.14,0,0-12.49-17.78,7.39-36.6,0,0,21.81,8.23,15.28,31.08,0,0,7.52-11.58,32.08-11.16Z"/>
  </g>
</svg>