<?xml version="1.0" encoding="iso-8859-1"?>
<!-- Generator: Adobe Illustrator 23.0.1, SVG Export Plug-In . SVG Version: 6.00 Build 0)  -->
<svg version="1.1" id="Layer_1" xmlns="http://www.w3.org/2000/svg" xmlns:xlink="http://www.w3.org/1999/xlink" x="0px" y="0px"
	 viewBox="0 0 204.686 125.416" style="enable-background:new 0 0 204.686 125.416;" xml:space="preserve">
<g>
	<g>
		<g>
			<path style="fill:none;" d="M106.381,2.28c-0.414-0.035-0.823-0.093-1.245-0.017c-0.792,0.144-1.428,0.517-1.889,1.177
				c-0.237,0.34-0.354,0.725-0.422,1.134c-0.102,0.612-0.002,1.189,0.276,1.726c0.622,1.202,1.976,1.625,3.146,1.415
				c0.674-0.122,1.224-0.466,1.652-0.997c0.2-0.249,0.376-0.518,0.419-0.848c0.058-0.021,0.114-0.046,0.173-0.063
				c0.82-0.239,1.436-0.724,1.825-1.491c0.262-0.516,0.332-1.066,0.292-1.633c-0.042-0.602-0.243-1.15-0.637-1.607
				c-0.813-0.944-1.867-1.202-3.059-1.023c-0.181,0.027-0.368,0.047-0.532,0.159C106.381,0.907,106.381,1.593,106.381,2.28z
				 M106.371,30.516c0.004,0.098,0.01,0.196,0.01,0.294c0.001,1.179,0.001,2.357,0.001,3.537c0,0.094,0.005,0.188,0.009,0.274
				c1.191,0,2.349,0,3.511,0c0-7.947,0-15.881,0-23.823c-1.168,0-2.319,0-3.47,0c-0.99-0.002-1.98-0.005-2.971-0.006
				c-0.023,0-0.046,0.019-0.068,0.028c0,6.562,0,13.118,0,19.696C104.394,30.516,105.383,30.516,106.371,30.516z M78.184,14.598
				c0.506,0.373,0.805,0.877,0.973,1.476c0.176,0.63,0.219,1.272,0.211,1.92c-0.001,0.058-0.015,0.117-0.025,0.199
				c-0.358,0-0.703,0-1.084,0c-0.026,0.75,0.005,1.477-0.018,2.202c-0.435,0.013-0.87,0.021-1.305,0.038
				c-0.935,0.035-1.869,0.066-2.803,0.113c-0.444,0.022-0.891,0.048-1.327,0.124c-0.672,0.116-1.346,0.244-2.002,0.427
				c-1.041,0.29-2.021,0.726-2.902,1.371c-1.052,0.77-1.818,1.752-2.238,2.986c-0.309,0.909-0.424,1.846-0.352,2.809
				c0.033,0.436,0.076,0.868,0.177,1.292c0.405,1.699,1.323,3.055,2.744,4.069c1.332,0.95,2.839,1.413,4.453,1.539
				c0.675,0.053,1.356,0.037,2.03-0.051c0.832-0.108,1.638-0.322,2.41-0.649c0.382-0.162,0.747-0.368,1.1-0.544
				c0.047-0.661,0.028-2.875-0.026-3.078c-0.024,0.01-0.049,0.019-0.071,0.031c-1.28,0.724-2.646,1.005-4.11,0.828
				c-0.651-0.079-1.271-0.245-1.854-0.545c-1.562-0.804-2.335-2.307-2.11-4.111c0.155-1.236,0.843-2.124,1.94-2.707
				c0.807-0.428,1.679-0.632,2.573-0.728c0.831-0.09,1.668-0.12,2.503-0.174c0.364-0.024,0.729-0.044,1.093-0.067
				c0.024-0.002,0.046-0.021,0.079-0.037c0-0.643,0-1.285,0-1.927c0.387-0.021,0.773-0.041,1.17-0.063c0,1.177,0,2.318,0,3.458
				c-0.327,0.476-0.732,0.872-1.155,1.231c-0.047,1.37-0.025,3.263,0.047,3.48c0.422-0.256,0.785-0.576,1.181-0.948
				c0,0.68,0,1.308,0,1.935c1.511,0,2.989,0,4.49,0c0-0.109,0-0.206,0-0.301c0-3.725-0.001-7.45,0.001-11.174
				c0.001-0.659-0.02-1.314-0.099-1.97c-0.068-0.557-0.178-1.101-0.333-1.637c-0.277-0.953-0.744-1.805-1.391-2.554
				c-0.735-0.852-1.636-1.478-2.686-1.879c-0.395-0.151-0.791-0.315-1.219-0.366c-0.022-0.013-0.042-0.034-0.066-0.038
				c-0.857-0.171-1.727-0.225-2.597-0.254c-0.641-0.022-1.28,0.027-1.919,0.084c-0.745,0.067-1.48,0.188-2.207,0.356
				c-1.53,0.354-2.993,0.894-4.384,1.623c-0.212,0.111-0.42,0.229-0.65,0.355c0.493,1.08,0.951,2.152,1.451,3.216
				c0.262-0.145,0.492-0.277,0.728-0.401c1.204-0.628,2.47-1.081,3.797-1.371c0.748-0.163,1.508-0.243,2.271-0.278
				c0.551-0.025,1.102,0.022,1.651,0.088C76.983,14.079,77.608,14.263,78.184,14.598z M94.224,26.689
				c-0.004-0.241-0.013-0.481-0.013-0.722c-0.001-3.677-0.001-7.354,0-11.031c0-0.078,0.008-0.155,0.014-0.257
				c1.219,0,2.419,0,3.613,0c0-1.307,0-2.587,0-3.886c-1.257,0-2.497,0-3.736,0c-0.002-1.496-0.003-2.992-0.005-4.485
				c-1.463,0-2.889,0-4.341,0c0,1.502,0,2.991,0,4.48c-0.567,0.005-1.135,0.011-1.7,0.017c-0.048,0.66-0.027,3.671,0.032,3.898
				c0.443,0,0.893,0,1.358,0c0,0.131,0,0.237,0,0.343c0,3.518-0.002,7.036,0.002,10.552c0.001,0.704,0.031,1.408,0.039,2.112
				c0.008,0.713,0.068,1.421,0.163,2.127c0.084,0.619,0.214,1.225,0.442,1.806c0.414,1.055,1.074,1.926,2.012,2.568
				c0.971,0.664,2.075,0.908,3.229,0.948c0.47,0.016,0.944-0.011,1.413-0.047c0.369-0.029,0.733-0.102,1.092-0.154
				c0.048-0.622,0.028-3.759-0.024-3.96c-0.576,0.019-1.156,0.044-1.723-0.111c0.109-0.146,0.285-0.116,0.432-0.154
				c0.486-0.129,0.971-0.256,1.429-0.497c-0.018-0.313-0.029-0.621-0.054-0.928c-0.046-0.573-0.102-1.146-0.148-1.719
				c-0.028-0.345-0.039-0.691-0.065-1.036c-0.007-0.092-0.041-0.183-0.066-0.289c-0.179,0.09-0.336,0.171-0.495,0.248
				c-0.754,0.365-1.544,0.508-2.373,0.355C94.571,26.832,94.4,26.75,94.224,26.689z M36.181,10.4
				c-0.033-0.011-0.065-0.03-0.099-0.031c-0.452-0.016-0.901-0.057-1.358-0.019c-0.827,0.067-1.612,0.27-2.35,0.638
				c-1.351,0.676-2.299,1.745-2.955,3.09c-0.024,0.049-0.057,0.095-0.095,0.157c0-1.157,0-2.287,0-3.426c-1.589,0-3.181,0-4.765,0
				c0,7.95,0,15.882,0,23.81c1.604,0,3.189,0,4.791,0c0-0.14,0-0.265,0-0.388c-0.002-1.205-0.005-2.41-0.008-3.616
				c0.826-0.002,1.652-0.004,2.49-0.005c0-0.133,0-0.232,0-0.33c0-1.963-0.005-3.927,0.001-5.89c0.005-1.4,0.03-2.799,0.037-4.198
				c0.003-0.606,0.064-1.206,0.176-1.799c0.136-0.717,0.349-1.408,0.722-2.043c0.371-0.632,0.864-1.125,1.544-1.416
				c0.152-0.064,0.308-0.118,0.462-0.177c0.466-0.097,0.929-0.018,1.393,0.026c0.864,0.181,1.718,0.396,2.544,0.728
				c0.014-0.036,0.029-0.059,0.031-0.082c0.02-0.265,0.037-0.531,0.057-0.796c0.05-0.654,0.102-1.307,0.152-1.961
				c0.035-0.459,0.069-0.919,0.101-1.378c0.006-0.085,0.001-0.171,0.001-0.258C38.09,10.747,37.152,10.501,36.181,10.4z
				 M14.568,14.532c0.14,0.021,0.28,0.044,0.42,0.061c0.656,0.082,1.276,0.286,1.872,0.563c0.791,0.368,1.471,0.891,2.072,1.521
				c0.123,0.129,0.254,0.25,0.403,0.396c0.559-1.206,1.159-2.378,1.709-3.602c-0.275-0.272-0.527-0.532-0.79-0.782
				c-0.462-0.437-0.999-0.767-1.557-1.064c-0.7-0.372-1.446-0.631-2.211-0.821c-0.626-0.155-1.26-0.289-1.912-0.286
				c-0.728-0.134-1.466-0.159-2.202-0.192c-0.328-0.015-0.657,0.024-0.986,0.029c-0.509,0.007-1.009,0.079-1.509,0.165
				c-1.047,0.181-2.052,0.496-3.014,0.946c-1.463,0.683-2.739,1.619-3.816,2.828c-0.661,0.742-1.221,1.552-1.674,2.436
				c-0.518,1.009-0.882,2.072-1.109,3.183c-0.148,0.724-0.248,1.455-0.261,2.193c-0.011,0.614,0.02,1.229,0.042,1.844
				c0.028,0.757,0.165,1.501,0.348,2.234c0.278,1.116,0.697,2.181,1.274,3.181c0.872,1.516,2.029,2.774,3.467,3.763
				c1.776,1.22,3.757,1.882,5.902,2.032c0.872,0.06,1.747,0.031,2.619-0.049c0.299-0.028,0.595-0.076,0.918-0.118
				c0-1.36,0-2.706,0-4.052c0.35-0.052,0.7-0.103,1.049-0.155c1.016-0.15,1.981-0.463,2.899-0.916
				c0.649-0.319,1.243-0.726,1.779-1.211c0.303-0.274,0.582-0.573,0.874-0.864c-0.583-1.217-1.157-2.415-1.744-3.64
				c-1.289,1.573-2.944,2.405-4.911,2.684c0,1.339,0,2.667,0,3.995c-0.555,0.137-1.121,0.2-1.69,0.21
				c-0.4,0.007-0.801-0.02-1.201-0.043c-0.544-0.031-1.072-0.153-1.589-0.318c-1.596-0.508-2.852-1.472-3.778-2.862
				c-0.938-1.41-1.347-2.987-1.438-4.656c-0.038-0.685-0.006-1.369,0.093-2.053c0.13-0.905,0.38-1.773,0.789-2.588
				c0.812-1.618,2.036-2.819,3.704-3.549c0.772-0.338,1.582-0.537,2.421-0.59c0.775-0.048,1.55-0.02,2.319,0.102
				C14.287,14.512,14.428,14.518,14.568,14.532z M57.119,30.456c-0.042,0.014-0.085,0.025-0.126,0.042
				c-1.123,0.468-2.294,0.766-3.503,0.858c-0.958,0.072-1.92,0.071-2.875-0.131c-1.539-0.325-2.849-1.032-3.884-2.228
				c-0.717-0.828-1.193-1.785-1.504-2.829c-0.196-0.658-0.292-1.333-0.367-2.013c-0.011-0.094-0.002-0.19-0.002-0.303
				c4.132,0,8.237,0,12.369,0c0-0.597,0-1.174,0-1.752c1.606,0,3.212,0,4.814,0c0.026-0.052,0.052-0.081,0.055-0.114
				c0.04-0.361,0.105-0.723,0.106-1.084c0-0.425,0.059-0.846,0.029-1.275c-0.038-0.549-0.077-1.096-0.175-1.638
				c-0.154-0.852-0.416-1.667-0.794-2.444c-0.517-1.059-1.206-1.986-2.107-2.757c-0.605-0.518-1.258-0.955-1.98-1.289
				c-0.071-0.038-0.14-0.079-0.213-0.113c-1.508-0.692-3.1-1.012-4.752-1.059c-0.302-0.009-0.605,0.012-0.907,0.033
				c-0.39,0.029-0.78,0.059-1.168,0.109c-1.099,0.14-2.153,0.448-3.167,0.894c-1.94,0.852-3.521,2.145-4.739,3.877
				c-0.758,1.079-1.303,2.26-1.67,3.527c-0.312,1.08-0.496,2.182-0.522,3.307c-0.015,0.631-0.001,1.266,0.045,1.896
				c0.045,0.611,0.114,1.223,0.23,1.823c0.276,1.423,0.762,2.773,1.504,4.024c0.775,1.305,1.772,2.407,3.013,3.287
				c1.831,1.297,3.894,1.919,6.109,2.059c0.969,0.06,1.941,0.028,2.91-0.08c0.841-0.094,1.67-0.235,2.489-0.443
				c0.298-0.076,0.59-0.174,0.89-0.263c0-1.237,0-2.442,0-3.647c0.049-0.018,0.099-0.037,0.15-0.053
				c0.857-0.274,1.667-0.652,2.431-1.128c0.561-0.349,1.064-0.771,1.55-1.215c0.156-0.143,0.301-0.297,0.445-0.441
				c-0.243-0.43-2.032-2.895-2.197-3.023c-0.776,0.546-1.542,1.123-2.422,1.515c0,0.116,0,0.204,0,0.292c0,1.161,0,2.321,0,3.481
				C57.187,30.26,57.211,30.371,57.119,30.456z"/>
			<path style="fill-rule:evenodd;clip-rule:evenodd;fill:#707070;" d="M57.227,22.099c0,0.578,0,1.155,0,1.752
				c-4.133,0-8.238,0-12.369,0c0,0.113-0.009,0.209,0.002,0.303c0.076,0.68,0.172,1.355,0.367,2.013
				c0.311,1.045,0.787,2.001,1.504,2.829c1.035,1.196,2.345,1.903,3.884,2.228c0.955,0.202,1.917,0.203,2.875,0.131
				c1.209-0.092,2.38-0.39,3.503-0.858c0.041-0.017,0.084-0.028,0.126-0.042c0.02,0.049,0.04,0.098,0.06,0.146
				c0.017,0.042,0.034,0.084,0.051,0.126c0,1.205,0,2.41,0,3.647c-0.3,0.09-0.593,0.188-0.89,0.263
				c-0.819,0.208-1.648,0.35-2.489,0.443c-0.969,0.108-1.941,0.141-2.91,0.08c-2.215-0.141-4.278-0.763-6.109-2.059
				c-1.241-0.88-2.238-1.982-3.013-3.287c-0.743-1.251-1.228-2.601-1.504-4.024c-0.117-0.6-0.186-1.213-0.23-1.823
				c-0.046-0.63-0.06-1.265-0.045-1.896c0.026-1.124,0.21-2.226,0.522-3.307c0.366-1.266,0.911-2.447,1.67-3.527
				c1.218-1.732,2.799-3.025,4.739-3.877c1.014-0.446,2.068-0.753,3.167-0.894c0.388-0.049,0.778-0.08,1.168-0.109
				c0.302-0.021,0.605-0.042,0.907-0.033c1.652,0.047,3.244,0.367,4.752,1.059c0.073,0.034,0.142,0.075,0.213,0.113
				c0.001,1.587,0.003,3.173,0.001,4.759c0,0.054-0.033,0.108-0.051,0.162c-0.414-0.527-0.874-1.009-1.419-1.405
				c-1.14-0.831-2.434-1.184-3.826-1.208c-0.38-0.007-0.762,0.052-1.142,0.089c-0.579,0.056-1.134,0.216-1.665,0.445
				c-1.493,0.642-2.569,1.728-3.314,3.159c-0.389,0.747-0.642,1.54-0.786,2.366c-0.041,0.236-0.117,0.482-0.047,0.74
				c0.109,0,0.207,0,0.304,0c3.883,0,7.767,0,11.65,0.001c0.098,0,0.196,0.005,0.294,0.008c0.001,0.431,0,0.863,0.005,1.295
				C57.182,21.972,57.211,22.036,57.227,22.099z"/>
			<path style="fill-rule:evenodd;clip-rule:evenodd;fill:#6F6F6F;" d="M14.571,30.941c0,1.346,0,2.693,0,4.052
				c-0.323,0.042-0.619,0.091-0.918,0.118c-0.871,0.08-1.747,0.109-2.619,0.049c-2.145-0.15-4.126-0.812-5.902-2.032
				c-1.438-0.989-2.595-2.247-3.467-3.763c-0.576-1-0.996-2.064-1.274-3.181c-0.182-0.732-0.32-1.476-0.348-2.234
				c-0.022-0.615-0.053-1.23-0.042-1.844c0.013-0.738,0.112-1.469,0.261-2.193c0.227-1.111,0.591-2.174,1.109-3.183
				c0.453-0.884,1.013-1.694,1.674-2.436c1.077-1.209,2.353-2.145,3.816-2.828c0.962-0.449,1.967-0.764,3.014-0.946
				c0.5-0.086,1-0.158,1.509-0.165c0.329-0.005,0.659-0.044,0.986-0.029c0.736,0.033,1.474,0.058,2.202,0.192
				c-0.002,1.337-0.004,2.675-0.006,4.013c-0.14-0.014-0.281-0.02-0.42-0.042c-0.769-0.122-1.544-0.151-2.319-0.102
				c-0.839,0.053-1.649,0.252-2.421,0.59c-1.668,0.73-2.891,1.931-3.704,3.549c-0.409,0.815-0.658,1.683-0.789,2.588
				c-0.098,0.683-0.131,1.368-0.093,2.053c0.091,1.669,0.5,3.246,1.438,4.656c0.926,1.39,2.181,2.354,3.778,2.862
				c0.517,0.165,1.045,0.287,1.589,0.318c0.4,0.023,0.801,0.05,1.201,0.043c0.569-0.01,1.135-0.073,1.69-0.21
				C14.536,30.871,14.553,30.906,14.571,30.941z"/>
			<path style="fill-rule:evenodd;clip-rule:evenodd;fill:#707070;" d="M36.169,14.784c-0.463-0.044-0.926-0.123-1.393-0.026
				c-0.028-0.018-0.054-0.049-0.083-0.05c-0.427-0.023-0.844,0.038-1.254,0.153c-0.419,0.118-0.812,0.286-1.186,0.511
				c-0.624,0.378-1.152,0.857-1.561,1.458c-0.304,0.447-0.515,0.943-0.691,1.455c-0.213,0.624-0.398,1.254-0.479,1.911
				c-0.036,0.287-0.075,0.575-0.107,0.862c-0.039,0.35-0.1,0.701-0.101,1.051c-0.008,2.777-0.005,5.554-0.004,8.331
				c0,0.058,0.021,0.117,0.031,0.174c0.003,1.205,0.005,2.411,0.008,3.616c0,0.123,0,0.248,0,0.388c-1.603,0-3.187,0-4.791,0
				c0-7.928,0-15.86,0-23.81c1.585,0,3.176,0,4.765,0c0,1.139,0,2.268,0,3.426c0.038-0.062,0.071-0.108,0.095-0.157
				c0.656-1.345,1.604-2.414,2.955-3.09c0.738-0.368,1.522-0.571,2.35-0.638c0.457-0.037,0.906,0.003,1.358,0.019
				c0.033,0.001,0.066,0.02,0.099,0.031c-0.003,0.107-0.009,0.213-0.01,0.321C36.17,12.075,36.17,13.429,36.169,14.784z"/>
			<path style="fill-rule:evenodd;clip-rule:evenodd;fill:#707070;" d="M96.092,30.887c0.567,0.155,1.146,0.13,1.723,0.111
				c0.053,0.201,0.073,3.338,0.024,3.96c-0.358,0.052-0.723,0.125-1.092,0.154c-0.469,0.036-0.943,0.064-1.413,0.047
				c-1.154-0.04-2.258-0.283-3.229-0.948c-0.938-0.642-1.598-1.513-2.012-2.568c-0.228-0.581-0.358-1.187-0.442-1.806
				c-0.096-0.705-0.155-1.414-0.163-2.127c-0.008-0.704-0.038-1.407-0.039-2.112c-0.004-3.517-0.002-7.035-0.002-10.552
				c0-0.106,0-0.212,0-0.343c-0.465,0-0.916,0-1.358,0c-0.059-0.227-0.08-3.238-0.032-3.898c0.565-0.006,1.132-0.011,1.7-0.017
				c1.449,0.002,2.898,0.003,4.346,0.005c1.239,0,2.479,0,3.736,0c0,1.299,0,2.579,0,3.886c-1.194,0-2.394,0-3.613,0
				c-0.006,0.101-0.014,0.179-0.014,0.257c-0.001,3.677-0.001,7.354,0,11.031c0,0.241,0.009,0.481,0.013,0.722
				c-0.022,0.283,0.007,0.562,0.029,0.845c0.027,0.343,0.055,0.683,0.118,1.021c0.109,0.585,0.289,1.143,0.662,1.617
				C95.307,30.52,95.662,30.762,96.092,30.887z"/>
			<path style="fill-rule:evenodd;clip-rule:evenodd;fill:#707070;" d="M78.242,21.406c0,0.642,0,1.285,0,1.927
				c-0.033,0.016-0.055,0.035-0.079,0.037c-0.364,0.023-0.729,0.042-1.093,0.067c-0.834,0.054-1.672,0.084-2.503,0.174
				c-0.894,0.096-1.766,0.3-2.573,0.728c-1.097,0.583-1.785,1.471-1.94,2.707c-0.225,1.804,0.548,3.307,2.11,4.111
				c0.583,0.3,1.204,0.466,1.854,0.545c1.463,0.177,2.83-0.104,4.11-0.828c0.022-0.012,0.047-0.021,0.071-0.031
				c0.053,0.203,0.073,2.416,0.026,3.078c-0.353,0.176-0.717,0.381-1.1,0.544c-0.772,0.327-1.578,0.541-2.41,0.649
				c-0.674,0.088-1.355,0.104-2.03,0.051c-1.614-0.126-3.12-0.59-4.453-1.539c-1.421-1.014-2.339-2.37-2.744-4.069
				c-0.101-0.424-0.144-0.856-0.177-1.292c-0.072-0.963,0.043-1.9,0.352-2.809c0.42-1.234,1.186-2.216,2.238-2.986
				c0.881-0.645,1.861-1.08,2.902-1.371c0.656-0.184,1.33-0.311,2.002-0.427c0.436-0.076,0.883-0.102,1.327-0.124
				c0.934-0.047,1.869-0.078,2.803-0.113c0.435-0.017,0.87-0.025,1.305-0.038C78.241,20.732,78.242,21.069,78.242,21.406z"/>
			<path style="fill-rule:evenodd;clip-rule:evenodd;fill:#848484;" d="M78.242,21.406c0-0.338-0.001-0.674-0.001-1.011
				c0.023-0.725-0.008-1.452,0.018-2.202c0.382,0,0.726,0,1.084,0c0.011-0.082,0.025-0.141,0.025-0.199
				c0.008-0.648-0.035-1.29-0.211-1.92c-0.168-0.599-0.467-1.103-0.973-1.476c0.019-0.054,0.052-0.107,0.053-0.161
				c0.006-0.222,0.002-0.444,0.002-0.668c0.002-1.05,0.006-2.1,0.008-3.151c0.428,0.051,0.823,0.215,1.219,0.366
				c1.05,0.401,1.951,1.028,2.686,1.879c0.647,0.749,1.114,1.601,1.391,2.554c0.156,0.536,0.266,1.081,0.333,1.637
				c0.079,0.656,0.1,1.311,0.099,1.97c-0.002,3.724-0.001,7.449-0.001,11.174c0,0.095,0,0.192,0,0.301c-1.5,0-2.979,0-4.49,0
				c0-0.627,0-1.255,0-1.935c-0.395,0.372-0.759,0.692-1.181,0.948c-0.073-0.217-0.094-2.11-0.047-3.48
				c0.422-0.358,0.828-0.755,1.155-1.231c0-1.14,0-2.281,0-3.458C79.015,21.365,78.628,21.386,78.242,21.406z"/>
			<path style="fill-rule:evenodd;clip-rule:evenodd;fill:#6F6F6F;" d="M106.432,10.798c1.151,0,2.302,0,3.47,0
				c0,7.942,0,15.876,0,23.823c-1.162,0-2.32,0-3.511,0c-0.003-0.086-0.009-0.18-0.009-0.274c0-1.179,0-2.358-0.001-3.537
				c0-0.098-0.007-0.196-0.01-0.294c0.114-0.079,0.055-0.196,0.055-0.293c0.004-6.367,0.004-12.736,0.004-19.104
				C106.429,11.012,106.431,10.905,106.432,10.798z"/>
			<path style="fill-rule:evenodd;clip-rule:evenodd;fill:#848484;" d="M106.432,10.798c-0.001,0.107-0.002,0.215-0.002,0.321
				c0,6.368,0,12.737-0.004,19.104c0,0.097,0.058,0.215-0.055,0.293c-0.988,0-1.977,0-2.978,0c0-6.578,0-13.134,0-19.696
				c0.022-0.009,0.045-0.028,0.068-0.028C104.451,10.793,105.441,10.795,106.432,10.798z"/>
			<path style="fill-rule:evenodd;clip-rule:evenodd;fill:#707070;" d="M78.248,10.619c-0.002,1.051-0.006,2.101-0.008,3.151
				c0,0.223,0.004,0.445-0.002,0.668c-0.001,0.054-0.034,0.108-0.053,0.161c-0.577-0.336-1.201-0.52-1.862-0.6
				c-0.549-0.066-1.099-0.113-1.651-0.088c-0.763,0.034-1.523,0.115-2.271,0.278c-1.326,0.29-2.593,0.743-3.797,1.371
				c-0.235,0.123-0.465,0.256-0.728,0.401c-0.501-1.064-0.958-2.136-1.451-3.216c0.23-0.126,0.438-0.244,0.65-0.355
				c1.391-0.729,2.854-1.269,4.384-1.623c0.727-0.168,1.462-0.289,2.207-0.356c0.639-0.057,1.278-0.106,1.919-0.084
				c0.871,0.029,1.74,0.083,2.597,0.254C78.205,10.585,78.226,10.606,78.248,10.619z"/>
			<path style="fill-rule:evenodd;clip-rule:evenodd;fill:#848484;" d="M57.126,16.419c0.018-0.054,0.051-0.108,0.051-0.162
				c0.002-1.586,0-3.173-0.001-4.759c0.722,0.334,1.375,0.771,1.98,1.289c0.901,0.771,1.589,1.699,2.107,2.757
				c0.379,0.777,0.641,1.592,0.794,2.444c0.098,0.542,0.137,1.089,0.175,1.638c0.03,0.429-0.029,0.85-0.029,1.275
				c-0.001,0.361-0.066,0.723-0.106,1.084c-0.004,0.033-0.03,0.063-0.055,0.114c-1.602,0-3.208,0-4.814,0
				c-0.016-0.063-0.046-0.127-0.047-0.19c-0.005-0.432-0.004-0.864-0.005-1.295c0.018-0.083,0.049-0.165,0.05-0.248
				c0.005-0.49,0.001-0.979,0.003-1.469c0-0.068,0.011-0.136,0.02-0.227c0.181,0,0.345,0,0.526,0
				C57.794,17.832,57.568,17.095,57.126,16.419z"/>
			<path style="fill-rule:evenodd;clip-rule:evenodd;fill:#848484;" d="M29.343,30.615c-0.011-0.058-0.031-0.116-0.031-0.174
				c-0.001-2.777-0.004-5.554,0.004-8.331c0.001-0.35,0.062-0.701,0.101-1.051c0.031-0.288,0.071-0.575,0.107-0.862
				c0.081-0.657,0.266-1.287,0.479-1.911c0.175-0.512,0.387-1.009,0.691-1.455c0.408-0.602,0.937-1.08,1.561-1.458
				c0.373-0.225,0.767-0.394,1.186-0.511c0.41-0.115,0.827-0.176,1.254-0.153c0.029,0.001,0.056,0.032,0.083,0.05
				c-0.154,0.059-0.311,0.112-0.462,0.177c-0.68,0.29-1.173,0.784-1.544,1.416c-0.373,0.635-0.586,1.326-0.722,2.043
				c-0.113,0.593-0.173,1.193-0.176,1.799c-0.007,1.399-0.032,2.799-0.037,4.198c-0.007,1.963-0.001,3.927-0.001,5.89
				c0,0.098,0,0.196,0,0.33C30.995,30.611,30.169,30.613,29.343,30.615z"/>
			<path style="fill-rule:evenodd;clip-rule:evenodd;fill:#848484;" d="M14.571,30.941c-0.018-0.035-0.035-0.07-0.053-0.106
				c0-1.328,0-2.656,0-3.995c1.967-0.279,3.622-1.112,4.911-2.684c0.587,1.225,1.16,2.423,1.744,3.64
				c-0.292,0.29-0.571,0.59-0.874,0.864c-0.536,0.484-1.13,0.891-1.779,1.211c-0.918,0.453-1.883,0.766-2.899,0.916
				C15.271,30.838,14.921,30.89,14.571,30.941z"/>
			<path style="fill-rule:evenodd;clip-rule:evenodd;fill:#848484;" d="M14.568,14.532c0.002-1.337,0.004-2.675,0.006-4.013
				c0.652-0.002,1.286,0.131,1.912,0.286c0.765,0.19,1.51,0.449,2.211,0.821c0.558,0.297,1.095,0.627,1.557,1.064
				c0.263,0.25,0.516,0.51,0.79,0.782c-0.55,1.224-1.15,2.396-1.709,3.602c-0.15-0.146-0.281-0.267-0.403-0.396
				c-0.601-0.63-1.281-1.153-2.072-1.521c-0.596-0.277-1.216-0.482-1.872-0.563C14.848,14.576,14.708,14.552,14.568,14.532z"/>
			<path style="fill-rule:evenodd;clip-rule:evenodd;fill:#707070;" d="M106.381,2.28c0-0.687,0-1.373,0-2.068
				c0.163-0.112,0.351-0.132,0.532-0.159c1.192-0.178,2.246,0.079,3.059,1.023c0.394,0.458,0.595,1.005,0.637,1.607
				c0.04,0.567-0.03,1.117-0.292,1.633c-0.389,0.767-1.005,1.252-1.825,1.491c-0.059,0.017-0.115,0.042-0.173,0.063
				c-0.156,0.015-0.313,0.038-0.469,0.043c-0.397,0.013-0.793,0.006-1.179-0.104c-0.082-0.023-0.161-0.051-0.216-0.068
				c-0.028-0.35-0.071-0.665-0.074-0.981C106.372,3.933,106.38,3.106,106.381,2.28z"/>
			<path style="fill-rule:evenodd;clip-rule:evenodd;fill:#848484;" d="M94.102,10.793c-1.448-0.002-2.897-0.003-4.346-0.005
				c0-1.489,0-2.978,0-4.48c1.453,0,2.879,0,4.341,0C94.099,7.801,94.1,9.297,94.102,10.793z"/>
			<path style="fill-rule:evenodd;clip-rule:evenodd;fill:#848484;" d="M106.381,2.28c-0.001,0.827-0.009,1.653,0,2.48
				c0.004,0.316,0.047,0.631,0.074,0.981c0.055,0.017,0.135,0.045,0.216,0.068c0.386,0.11,0.782,0.117,1.179,0.104
				c0.157-0.005,0.313-0.028,0.469-0.043c-0.043,0.33-0.219,0.599-0.419,0.848c-0.428,0.531-0.978,0.875-1.652,0.997
				c-1.171,0.21-2.524-0.213-3.146-1.415c-0.278-0.537-0.378-1.115-0.276-1.726c0.068-0.41,0.185-0.794,0.422-1.134
				c0.46-0.66,1.097-1.033,1.889-1.177C105.558,2.186,105.966,2.245,106.381,2.28z"/>
			<path style="fill-rule:evenodd;clip-rule:evenodd;fill:#848484;" d="M57.23,30.728c-0.017-0.042-0.034-0.084-0.051-0.126
				c-0.02-0.048-0.04-0.098-0.06-0.146c0.092-0.084,0.068-0.195,0.068-0.3c0-1.16,0-2.32,0-3.481c0-0.089,0-0.177,0-0.292
				c0.879-0.393,1.645-0.969,2.422-1.515c0.166,0.129,1.954,2.594,2.197,3.023c-0.144,0.143-0.289,0.298-0.445,0.441
				c-0.486,0.444-0.99,0.866-1.55,1.215c-0.764,0.476-1.574,0.854-2.431,1.128C57.329,30.692,57.279,30.71,57.23,30.728z"/>
			<path style="fill-rule:evenodd;clip-rule:evenodd;fill:#848484;" d="M96.092,30.887c-0.43-0.125-0.785-0.367-1.058-0.715
				c-0.373-0.474-0.552-1.032-0.662-1.617c-0.063-0.338-0.091-0.678-0.118-1.021c-0.022-0.282-0.051-0.562-0.029-0.845
				c0.175,0.06,0.347,0.143,0.526,0.177c0.83,0.154,1.619,0.01,2.373-0.355c0.159-0.077,0.316-0.157,0.495-0.248
				c0.025,0.106,0.058,0.197,0.066,0.289c0.026,0.344,0.037,0.69,0.065,1.036c0.046,0.573,0.102,1.146,0.148,1.719
				c0.025,0.307,0.036,0.616,0.054,0.928c-0.458,0.241-0.943,0.368-1.429,0.497C96.377,30.771,96.201,30.741,96.092,30.887z"/>
			<path style="fill-rule:evenodd;clip-rule:evenodd;fill:#848484;" d="M36.169,14.784c0.001-1.354,0.001-2.709,0.002-4.063
				c0-0.107,0.007-0.214,0.01-0.321c0.971,0.101,1.909,0.347,2.874,0.637c0,0.088,0.005,0.174-0.001,0.258
				c-0.032,0.459-0.066,0.919-0.101,1.378c-0.05,0.653-0.102,1.307-0.152,1.961c-0.02,0.265-0.037,0.53-0.057,0.796
				c-0.002,0.024-0.017,0.047-0.031,0.082C37.887,15.18,37.033,14.964,36.169,14.784z"/>
			<path style="fill-rule:evenodd;clip-rule:evenodd;fill:none;" d="M57.126,16.419c0.442,0.676,0.669,1.413,0.648,2.251
				c-0.18,0-0.345,0-0.526,0c-0.008,0.091-0.02,0.159-0.02,0.227c-0.002,0.489,0.002,0.979-0.003,1.469
				c-0.001,0.083-0.032,0.165-0.05,0.248c-0.098-0.003-0.196-0.008-0.294-0.008c-3.883-0.001-7.767-0.001-11.65-0.001
				c-0.098,0-0.195,0-0.304,0c-0.07-0.258,0.006-0.504,0.047-0.74c0.143-0.826,0.396-1.62,0.786-2.366
				c0.745-1.431,1.821-2.517,3.314-3.159c0.532-0.229,1.086-0.389,1.665-0.445c0.38-0.037,0.762-0.096,1.142-0.089
				c1.392,0.024,2.686,0.377,3.826,1.208C56.251,15.411,56.711,15.892,57.126,16.419z"/>
		</g>
		<g>
			<path style="fill:none;" d="M108.319,5.875c0.058-0.021,0.114-0.045,0.173-0.062c0.819-0.24,1.437-0.723,1.826-1.491
				c0.262-0.517,0.331-1.066,0.291-1.634c-0.042-0.602-0.245-1.149-0.637-1.607c-0.813-0.948-1.866-1.203-3.059-1.024
				c-0.181,0.027-0.368,0.047-0.532,0.159c0,0.695,0,1.382,0,2.068c-0.414-0.035-0.823-0.094-1.245-0.017
				c-0.792,0.144-1.428,0.516-1.889,1.177c-0.237,0.34-0.354,0.724-0.422,1.134c-0.102,0.611-0.002,1.189,0.276,1.726
				c0.622,1.203,1.976,1.625,3.146,1.415c0.674-0.122,1.224-0.466,1.652-0.997C108.1,6.474,108.276,6.205,108.319,5.875z
				 M106.371,30.522c0.004,0.098,0.01,0.196,0.01,0.293c0.001,1.179,0.001,2.358,0.001,3.537c0,0.094,0.005,0.187,0.009,0.274
				c1.191,0,2.349,0,3.511,0c0-7.948,0-15.882,0-23.823c-1.168,0-2.319,0-3.47,0c-0.99-0.002-2.971-0.006-2.971-0.006l-0.068,0.029
				c0,0,0,13.118,0,19.696C104.394,30.522,105.383,30.522,106.371,30.522z M124.703,26.872c-0.036-0.029-0.088-0.049-0.104-0.087
				c-0.353-0.814-0.702-1.628-1.051-2.445c-0.31-0.725-0.619-1.451-0.927-2.178c-0.384-0.905-0.765-1.813-1.151-2.719
				c-0.344-0.807-0.697-1.611-1.042-2.419c-0.394-0.921-0.783-1.844-1.174-2.767c-0.328-0.776-0.655-1.553-0.984-2.328
				c-0.159-0.375-0.322-0.747-0.481-1.115c-0.402-0.049-4.631-0.032-4.833,0.024c2.807,6.563,5.613,13.124,8.419,19.684
				c0.128,0,0.226,0,0.323,0c0.983,0.002,1.965,0.005,2.947,0.007c0,1.363,0,2.726,0,4.11c0.255,0,0.476,0,0.697,0
				c0.221,0,0.442,0,0.669,0c3.273-7.953,6.536-15.884,9.807-23.83c-1.662,0-3.293,0-4.923,0c-0.577,1.492-1.15,2.974-1.723,4.456
				c-0.56,1.449-1.12,2.898-1.679,4.348c-0.684,1.773-1.369,3.545-2.05,5.318C125.194,25.578,124.95,26.226,124.703,26.872z
				 M144.329,31c0,1.336,0,2.671,0,4.027c0.476,0.052,0.916,0.124,1.358,0.142c1.195,0.051,2.388,0.012,3.572-0.161
				c1.189-0.174,2.35-0.464,3.47-0.903c1.38-0.54,2.64-1.279,3.744-2.273c0.144-0.13,0.278-0.272,0.424-0.416
				c-0.669-0.931-1.322-1.839-1.968-2.737c-0.046,0.009-0.066,0.008-0.08,0.017c-0.061,0.036-0.123,0.072-0.18,0.113
				c-0.885,0.635-1.827,1.167-2.837,1.578c-0.816,0.332-1.654,0.592-2.526,0.728c-0.473,0.073-0.952,0.114-1.428,0.171
				c-0.802,0.096-1.598,0.024-2.391-0.096c-0.368-0.056-0.733-0.131-1.1-0.198c-0.004-0.106-0.012-0.213-0.012-0.319
				c-0.001-1.222,0-2.444,0-3.664c0-0.088,0-0.176,0-0.253c-2.351-0.897-3.268-3.145-3.349-4.805c0.088,0,0.175,0,0.263,0
				c0.803,0,1.604-0.001,2.407,0c0.223,0,0.445,0.008,0.668,0.013c0.003,0.629,0.007,1.258,0.011,1.883
				c0.788,0.058,13.104,0.031,13.322-0.031c0.039-0.399,0.093-0.803,0.115-1.209c0.055-1.061,0.026-2.122-0.16-3.169
				c-0.23-1.293-0.637-2.528-1.28-3.68c-0.777-1.393-1.814-2.552-3.123-3.464c-1.889-1.318-4.014-1.898-6.292-1.957
				c-0.62-0.016-1.243,0.05-1.864,0.097c-0.244,0.019-0.483,0.091-0.724,0.14c-0.818,0.134-1.605,0.372-2.358,0.714
				c-1.206,0.547-2.255,1.305-3.142,2.297c-0.751,0.838-1.329,1.78-1.758,2.813c-0.559,1.343-0.777,2.756-0.816,4.202
				c-0.005,0.185,0.025,0.37,0.038,0.557c0.019,0.301,0.037,0.603,0.055,0.904c0.033,0.558,0.142,1.105,0.271,1.648
				c0.341,1.437,0.938,2.751,1.878,3.898c0.795,0.968,1.741,1.75,2.853,2.334C142.32,30.431,143.305,30.767,144.329,31z
				 M164.267,10.851c-0.057,0.714-0.03,23.577,0.028,23.789c0.094,0,0.191,0,0.289,0c2.724,0,5.448,0.003,8.171-0.002
				c0.713-0.001,1.425-0.023,2.138-0.042c0.704-0.018,1.399-0.122,2.084-0.279c1.203-0.276,2.307-0.75,3.26-1.564
				c1.276-1.091,1.942-2.476,2.069-4.13c0.041-0.54,0.045-1.085-0.041-1.627c-0.095-0.603-0.275-1.176-0.569-1.71
				c-0.541-0.983-1.342-1.696-2.327-2.215c-0.77-0.405-1.594-0.647-2.445-0.806c-0.144-0.027-0.286-0.063-0.429-0.093
				c0.263-0.119,0.518-0.209,0.78-0.272c0.652-0.158,1.199-0.498,1.669-0.96c1.07-1.05,1.552-2.362,1.646-3.83
				c0.025-0.398-0.012-0.802-0.045-1.2c-0.043-0.526-0.183-1.032-0.399-1.512c-0.631-1.403-1.724-2.304-3.132-2.856
				c-0.994-0.39-2.04-0.541-3.095-0.628c-0.586-0.047-1.175-0.061-1.763-0.063c-2.536-0.007-5.072-0.002-7.609-0.002
				C164.461,10.851,164.373,10.851,164.267,10.851z M204.268,13.057c-0.082-0.077-0.136-0.135-0.197-0.187
				c-0.69-0.576-1.467-1.011-2.289-1.358c-1.66-0.701-3.408-0.978-5.199-1.02c-0.346-0.008-0.694,0.012-1.04,0.035
				c-0.453,0.031-0.907,0.056-1.355,0.122c-0.871,0.127-1.724,0.336-2.553,0.639c-1.342,0.491-2.571,1.183-3.646,2.128
				c-1.178,1.038-2.107,2.265-2.78,3.689c-0.809,1.718-1.167,3.535-1.212,5.419c-0.014,0.595,0.04,1.191,0.088,1.785
				c0.036,0.442,0.09,0.886,0.178,1.321c0.267,1.332,0.718,2.599,1.409,3.777c0.76,1.295,1.75,2.38,2.952,3.275
				c0.811,0.604,1.696,1.075,2.635,1.449c1.486,0.592,3.036,0.868,4.627,0.928c0.444,0.016,0.89-0.02,1.335-0.031
				c0.722-0.018,1.432-0.122,2.139-0.267c1.722-0.352,3.277-1.058,4.637-2.175c0.239-0.197,0.458-0.417,0.69-0.627
				c-0.559-1.316-1.1-2.614-1.664-3.923c-0.064,0.053-0.098,0.081-0.13,0.11c-0.548,0.503-1.16,0.917-1.824,1.248
				c-1.631,0.812-3.358,1.125-5.172,0.977c-0.588-0.049-1.161-0.156-1.721-0.335c-1.263-0.4-2.34-1.093-3.195-2.102
				c-1.191-1.407-1.709-3.074-1.792-4.889c-0.017-0.364,0.015-0.73,0.032-1.094c0.04-0.887,0.229-1.742,0.549-2.569
				c0.492-1.269,1.276-2.319,2.382-3.121c1.126-0.817,2.403-1.219,3.774-1.329c0.747-0.06,1.498-0.036,2.237,0.108
				c1.442,0.281,2.767,0.843,3.962,1.704c0.2,0.144,0.393,0.298,0.617,0.468C203.253,15.817,203.757,14.446,204.268,13.057z"/>
			<path style="fill-rule:evenodd;clip-rule:evenodd;fill:#707070;" d="M164.267,10.851h0.282c0,0,5.073-0.004,7.609,0.002
				c0.588,0.002,1.177,0.015,1.763,0.063c1.055,0.086,2.101,0.238,3.095,0.628c1.407,0.552,2.5,1.453,3.132,2.856
				c0.217,0.48,0.356,0.985,0.399,1.512c0.032,0.398,0.07,0.802,0.045,1.2c-0.094,1.467-0.576,2.78-1.646,3.83
				c-0.47,0.462-1.018,0.802-1.669,0.96c-0.261,0.063-0.517,0.153-0.78,0.272c0.143,0.031,0.285,0.066,0.429,0.093
				c0.851,0.159,1.674,0.402,2.445,0.806c0.985,0.518,1.787,1.232,2.327,2.215c0.293,0.533,0.474,1.106,0.569,1.71
				c0.085,0.542,0.082,1.087,0.041,1.627c-0.126,1.654-0.793,3.039-2.069,4.13c-0.953,0.814-2.058,1.288-3.26,1.564
				c-0.685,0.157-1.38,0.262-2.084,0.279c-0.713,0.018-1.426,0.041-2.138,0.042c-2.724,0.005-5.447,0.002-8.171,0.002
				c-0.097,0-0.289,0-0.289,0L164.267,10.851z M169.361,24.107c-0.052,0.355-0.036,6.529,0.018,6.72
				c0.032,0.003,0.067,0.008,0.102,0.008c1.435-0.014,2.871-0.018,4.306-0.049c0.638-0.014,1.245-0.185,1.798-0.519
				c0.48-0.29,0.89-0.651,1.165-1.149c0.463-0.84,0.505-1.734,0.273-2.636c-0.266-1.039-1.002-1.671-1.961-2.071
				c-0.645-0.27-1.334-0.297-2.016-0.311c-1.16-0.024-2.32-0.007-3.48-0.006C169.497,24.095,169.427,24.103,169.361,24.107z
				 M169.346,20.671c0.253,0,0.477,0.004,0.699,0c1.052-0.022,2.105,0.057,3.154-0.062c0.869-0.099,1.574-0.501,2.096-1.193
				c0.638-0.846,0.687-1.813,0.439-2.794c-0.264-1.043-1.036-1.601-2.015-1.908c-0.383-0.121-0.786-0.15-1.185-0.155
				c-1-0.014-1.999-0.009-2.999-0.01c-0.06,0-0.121,0.008-0.19,0.012C169.346,16.598,169.346,18.619,169.346,20.671z"/>
			<path style="fill-rule:evenodd;clip-rule:evenodd;fill:#717171;" d="M204.268,13.057c-0.511,1.39-1.015,2.76-1.527,4.154
				c-0.224-0.17-0.417-0.324-0.617-0.468c-1.194-0.861-2.519-1.423-3.962-1.704c-0.74-0.143-1.49-0.168-2.237-0.108
				c-1.371,0.111-2.648,0.512-3.774,1.329c-1.106,0.802-1.891,1.852-2.382,3.121c-0.32,0.827-0.51,1.682-0.549,2.569
				c-0.017,0.365-0.048,0.731-0.032,1.094c0.084,1.815,0.602,3.482,1.792,4.889c0.855,1.009,1.933,1.702,3.195,2.102
				c0.561,0.178,1.134,0.286,1.721,0.335c1.814,0.148,3.541-0.165,5.172-0.977c0.664-0.331,1.276-0.745,1.824-1.248
				c0.032-0.03,0.067-0.057,0.13-0.11c0.564,1.309,1.105,2.607,1.664,3.923c-0.231,0.21-0.451,0.43-0.69,0.627
				c-1.36,1.117-2.915,1.823-4.637,2.175c-0.707,0.145-1.417,0.249-2.139,0.267c-0.445,0.011-0.891,0.046-1.335,0.031
				c-1.591-0.06-3.141-0.335-4.627-0.928c-0.939-0.374-1.824-0.844-2.635-1.449c-1.202-0.895-2.192-1.98-2.952-3.275
				c-0.691-1.178-1.142-2.445-1.409-3.777c-0.087-0.434-0.142-0.878-0.178-1.321c-0.048-0.594-0.102-1.19-0.088-1.785
				c0.044-1.884,0.402-3.701,1.212-5.419c0.673-1.424,1.601-2.651,2.78-3.689c1.074-0.945,2.304-1.637,3.646-2.128
				c0.828-0.304,1.682-0.513,2.553-0.639c0.449-0.065,0.903-0.091,1.355-0.122c0.346-0.023,0.693-0.044,1.04-0.035
				c1.791,0.042,3.539,0.319,5.199,1.02c0.822,0.347,1.599,0.782,2.289,1.358C204.132,12.922,204.186,12.979,204.268,13.057z"/>
			<path style="fill-rule:evenodd;clip-rule:evenodd;fill:#707070;" d="M144.367,10.573c0.241-0.049,0.48-0.121,0.724-0.14
				c0.62-0.047,1.244-0.113,1.864-0.097c2.279,0.059,4.404,0.639,6.292,1.957c1.308,0.913,2.346,2.071,3.123,3.464
				c0.643,1.152,1.05,2.387,1.28,3.68c0.186,1.048,0.215,2.108,0.16,3.169c-0.021,0.405-0.076,0.81-0.115,1.209
				c-0.218,0.062-12.533,0.089-13.322,0.031c-0.004-0.625-0.007-1.254-0.011-1.883c0.004-0.452,0.007-0.904,0.011-1.357
				c0.018,0.002,0.036,0.005,0.053,0.005c2.91,0,5.82,0.001,8.73-0.001c0.051,0,0.101-0.013,0.168-0.023
				c-0.041-0.348-0.059-0.687-0.123-1.017c-0.181-0.922-0.507-1.792-0.999-2.597c-0.513-0.841-1.165-1.55-1.985-2.099
				c-1.097-0.736-2.327-1.038-3.631-1.064c-0.48-0.01-0.954,0.082-1.419,0.208c-0.265,0.073-0.529,0.152-0.793,0.227
				c-0.001-0.133-0.002-0.266-0.002-0.399C144.371,12.755,144.369,11.664,144.367,10.573z"/>
			<path style="fill-rule:evenodd;clip-rule:evenodd;fill:#848484;" d="M144.367,10.573c0.002,1.091,0.004,2.182,0.006,3.273
				c0.001,0.133,0.001,0.266,0.002,0.399c-0.109,0.056-0.217,0.118-0.33,0.165c-0.533,0.22-0.999,0.542-1.408,0.943
				c-0.735,0.721-1.196,1.601-1.472,2.583c-0.056,0.198-0.081,0.406-0.127,0.64c1.134,0,2.227,0,3.335,0c0,0.693,0,1.361,0,2.029
				c-0.004,0.453-0.008,0.905-0.011,1.357c-0.223-0.005-0.445-0.013-0.668-0.013c-0.803-0.002-1.605,0-2.407,0
				c-0.087,0-0.174,0-0.263,0c0.081,1.659,0.998,3.907,3.349,4.805c0,0.078,0,0.166,0,0.253c0,1.22-0.001,2.443,0,3.664
				c0,0.106,0.008,0.214,0.012,0.319c-0.019,0.004-0.038,0.007-0.058,0.01c-1.024-0.233-2.009-0.569-2.942-1.061
				c-1.112-0.585-2.058-1.366-2.853-2.334c-0.941-1.147-1.538-2.461-1.878-3.898c-0.129-0.543-0.238-1.09-0.271-1.648
				c-0.018-0.302-0.036-0.603-0.055-0.904c-0.012-0.186-0.043-0.372-0.038-0.557c0.039-1.446,0.257-2.859,0.816-4.202
				c0.43-1.033,1.008-1.975,1.758-2.813c0.887-0.991,1.937-1.75,3.142-2.297C142.762,10.945,143.549,10.706,144.367,10.573z"/>
			<path style="fill-rule:evenodd;clip-rule:evenodd;fill:#707070;" d="M124.703,26.872c0.246-0.646,0.491-1.294,0.739-1.94
				c0.682-1.773,1.366-3.545,2.05-5.318c0.559-1.45,1.119-2.899,1.679-4.348c0.573-1.482,1.146-2.964,1.723-4.456
				c1.63,0,3.261,0,4.923,0c-3.271,7.947-6.534,15.877-9.807,23.83c-0.227,0-0.448,0-0.669,0c-0.221,0-0.442,0-0.697,0
				c0-1.384,0-2.747,0-4.11c0.002-1.072,0.003-2.143,0.009-3.214C124.655,27.167,124.686,27.02,124.703,26.872z"/>
			<path style="fill-rule:evenodd;clip-rule:evenodd;fill:#848484;" d="M124.703,26.872c-0.017,0.148-0.048,0.295-0.049,0.444
				c-0.006,1.072-0.007,2.143-0.009,3.214c-0.982-0.002-1.964-0.005-2.947-0.007c-0.097,0-0.195,0-0.323,0
				c-2.806-6.561-8.419-19.684-8.419-19.684l4.833-0.024c0,0,0.322,0.74,0.481,1.115c0.329,0.775,0.655,1.552,0.984,2.328
				c0.391,0.923,0.78,1.846,1.174,2.767c0.345,0.808,0.698,1.612,1.042,2.419c0.387,0.905,0.767,1.813,1.151,2.719
				c0.308,0.727,0.617,1.453,0.927,2.178c0.348,0.816,0.698,1.631,1.051,2.445C124.615,26.823,124.667,26.843,124.703,26.872z"/>
			<path style="fill-rule:evenodd;clip-rule:evenodd;fill:#707070;" d="M144.329,31c0.02-0.003,0.038-0.006,0.058-0.01
				c0.367,0.066,0.732,0.142,1.1,0.198c0.793,0.121,1.589,0.193,2.391,0.096c0.476-0.057,0.954-0.098,1.428-0.171
				c0.872-0.135,1.71-0.395,2.526-0.728c1.01-0.411,1.952-0.943,2.837-1.578c0.058-0.041,0.12-0.077,0.18-0.113
				c0.014-0.008,0.034-0.008,0.08-0.017c0.646,0.899,1.3,1.807,1.968,2.737c-0.147,0.144-0.28,0.286-0.424,0.416
				c-1.104,0.995-2.364,1.733-3.744,2.273c-1.121,0.439-2.282,0.73-3.47,0.903c-1.184,0.173-2.377,0.212-3.572,0.161
				c-0.442-0.018-0.882-0.091-1.358-0.142C144.329,33.671,144.329,32.336,144.329,31z"/>
			<path style="fill-rule:evenodd;clip-rule:evenodd;fill:none;" d="M169.361,24.107c0.066-0.004,0.136-0.012,0.205-0.012
				c1.16-0.001,2.32-0.018,3.48,0.006c0.681,0.014,1.371,0.041,2.016,0.311c0.959,0.4,1.695,1.032,1.961,2.071
				c0.231,0.902,0.19,1.796-0.273,2.636c-0.275,0.498-0.685,0.859-1.165,1.149c-0.553,0.334-1.16,0.506-1.798,0.519
				c-1.435,0.031-2.871,0.034-4.306,0.049c-0.035,0-0.07-0.005-0.102-0.008C169.325,30.636,169.309,24.462,169.361,24.107z"/>
			<path style="fill-rule:evenodd;clip-rule:evenodd;fill:none;" d="M169.346,20.671c0-2.052,0-4.073,0-6.109
				c0.069-0.004,0.13-0.012,0.19-0.012c1,0,1.999-0.005,2.999,0.01c0.398,0.005,0.802,0.034,1.185,0.155
				c0.979,0.307,1.75,0.865,2.015,1.908c0.249,0.981,0.2,1.948-0.439,2.794c-0.522,0.692-1.227,1.094-2.096,1.193
				c-1.049,0.119-2.103,0.04-3.154,0.062C169.823,20.675,169.6,20.671,169.346,20.671z"/>
			<path style="fill-rule:evenodd;clip-rule:evenodd;fill:none;" d="M144.374,20.605c0-0.668,0-1.336,0-2.029
				c-1.108,0-2.201,0-3.335,0c0.046-0.234,0.071-0.441,0.127-0.64c0.276-0.983,0.737-1.862,1.472-2.583
				c0.409-0.401,0.875-0.723,1.408-0.943c0.113-0.047,0.22-0.109,0.33-0.165c0.264-0.076,0.527-0.155,0.793-0.227
				c0.464-0.126,0.938-0.218,1.419-0.208c1.304,0.025,2.533,0.328,3.631,1.064c0.82,0.55,1.472,1.259,1.985,2.099
				c0.492,0.805,0.818,1.675,0.999,2.597c0.064,0.33,0.082,0.668,0.123,1.017c-0.067,0.01-0.117,0.023-0.168,0.023
				c-2.909,0.001-5.82,0.001-8.73,0.001C144.409,20.609,144.391,20.606,144.374,20.605z"/>
		</g>
	</g>
	
		<line style="fill:none;stroke:#989898;stroke-width:0.9672;stroke-miterlimit:10;" x1="204.117" y1="48.277" x2="0.569" y2="48.277"/>
	<g>
		<g>
			<path style="fill:#FFFFFF;" d="M19.099,101.231c11.846,0,28.232,6.67,40.123,6.67c8.483,0,16.763-2.264,21.476-5.6
				c0.328-1.956,0.502-3.967,0.502-6.019c0-19.909-16.139-36.049-36.048-36.049c-19.91,0-36.049,16.14-36.049,36.049
				c0,2.028,0.17,4.015,0.492,5.952C10.894,101.994,15.313,101.231,19.099,101.231z"/>
			<g>
				<g>
					<rect x="100.11" y="108.301" style="fill:#B5B5B5;" width="83.384" height="1.011"/>
					<path style="fill:#2F2F2F;" d="M102.249,72.173c0-1.693-0.119-2.141-1.262-2.233l-0.794-0.055
						c-0.13-0.103-0.093-0.561,0.026-0.572c1.37-0.122,3.097-0.183,5.458-0.183c1.6,0,3.123,0.115,4.266,0.641
						c1.092,0.48,1.93,1.395,1.93,2.859c0,1.646-1.067,2.493-2.591,3.133c0,0.229,0.203,0.298,0.483,0.343
						c1.37,0.229,3.401,1.373,3.401,3.82c0,2.654-2.183,4.438-6.753,4.438c-0.736,0-1.981-0.069-3.046-0.069
						c-1.118,0-1.981,0.046-2.92,0.069c-0.152-0.069-0.204-0.434-0.05-0.571l0.457-0.068c1.345-0.206,1.396-0.458,1.396-2.86V72.173
						z M104.33,75.214c0,0.641,0.026,0.686,1.321,0.641c2.589-0.092,3.985-0.778,3.985-2.928c0-2.242-1.853-3.089-3.782-3.089
						c-0.56,0-0.941,0.046-1.169,0.138c-0.254,0.069-0.356,0.183-0.356,0.594V75.214z M104.33,80.521
						c0,0.824,0.051,1.991,0.533,2.493c0.483,0.527,1.245,0.64,2.006,0.64c2.26,0,3.986-0.914,3.986-3.202
						c0-1.806-1.015-3.911-5.052-3.911c-1.372,0-1.474,0.136-1.474,0.594V80.521z"/>
					<path style="fill:#2F2F2F;" d="M130.813,74.424c0-2.071-0.043-2.403-1.323-2.5l-0.542-0.04c-0.13-0.078-0.086-0.43,0.044-0.489
						c1.085,0.039,1.822,0.059,2.733,0.059c0.867,0,1.604-0.02,2.689-0.059c0.13,0.059,0.173,0.411,0.043,0.489l-0.541,0.04
						c-1.28,0.097-1.323,0.429-1.323,2.5v6.956c0,2.071,0.043,2.345,1.323,2.481l0.541,0.059c0.131,0.078,0.088,0.429-0.043,0.488
						c-1.085-0.039-1.822-0.059-2.689-0.059c-0.911,0-1.648,0.02-2.733,0.059c-0.13-0.059-0.174-0.371-0.044-0.488l0.542-0.059
						c1.28-0.136,1.323-0.41,1.323-2.481V74.424z"/>
					<path style="fill:#2F2F2F;" d="M142.844,81.419c0,2.051,0.04,2.344,1.219,2.442l0.65,0.059
						c0.122,0.078,0.081,0.429-0.041,0.488c-1.158-0.039-1.849-0.059-2.662-0.059c-0.813,0-1.524,0.02-2.825,0.059
						c-0.121-0.059-0.162-0.39,0-0.488l0.732-0.059c1.158-0.098,1.259-0.391,1.259-2.442v-8.734c0-0.605,0-0.624-0.609-0.624h-1.118
						c-0.873,0-1.991,0.038-2.499,0.488c-0.487,0.43-0.691,0.86-0.913,1.348c-0.163,0.118-0.447,0.02-0.529-0.136
						c0.324-0.88,0.63-2.13,0.771-2.911c0.062-0.039,0.326-0.059,0.386,0c0.122,0.624,0.793,0.606,1.727,0.606h8.229
						c1.098,0,1.28-0.039,1.585-0.547c0.102-0.039,0.327-0.02,0.367,0.059c-0.224,0.801-0.367,2.384-0.305,2.97
						c-0.082,0.156-0.427,0.156-0.528,0.039c-0.061-0.488-0.204-1.211-0.508-1.426c-0.468-0.332-1.239-0.488-2.358-0.488h-1.442
						c-0.61,0-0.59,0.019-0.59,0.664V81.419z"/>
					<path style="fill:#2F2F2F;" d="M151.554,74.424c0-2.071-0.044-2.403-1.323-2.5l-0.543-0.04c-0.13-0.078-0.086-0.43,0.044-0.489
						c1.084,0.039,1.822,0.059,2.733,0.059c0.867,0,1.604-0.02,2.688-0.059c0.131,0.059,0.174,0.411,0.045,0.489l-0.543,0.04
						c-1.28,0.097-1.322,0.429-1.322,2.5v6.956c0,2.071,0.042,2.345,1.322,2.481l0.543,0.059c0.13,0.078,0.086,0.429-0.045,0.488
						c-1.084-0.039-1.821-0.059-2.688-0.059c-0.911,0-1.649,0.02-2.733,0.059c-0.13-0.059-0.174-0.371-0.044-0.488l0.543-0.059
						c1.279-0.136,1.323-0.41,1.323-2.481V74.424z"/>
					<path style="fill:#2F2F2F;" d="M161.272,84.608c-1.936,0-3.159-0.509-3.597-0.723c-0.277-0.43-0.576-1.817-0.622-2.735
						c0.115-0.137,0.461-0.176,0.554-0.058c0.345,0.996,1.29,2.91,3.965,2.91c1.937,0,2.883-1.075,2.883-2.247
						c0-0.859-0.208-1.816-1.891-2.735l-2.19-1.212c-1.152-0.645-2.49-1.758-2.49-3.361c0-1.856,1.705-3.361,4.702-3.361
						c0.715,0,1.545,0.118,2.144,0.255c0.3,0.078,0.624,0.117,0.807,0.117c0.208,0.469,0.416,1.563,0.416,2.384
						c-0.093,0.117-0.462,0.175-0.576,0.059c-0.3-0.938-0.922-2.208-3.136-2.208c-2.26,0-2.743,1.27-2.743,2.168
						c0,1.134,1.106,1.955,1.959,2.404l1.844,0.977c1.453,0.762,2.882,1.895,2.882,3.751
						C166.183,83.143,164.269,84.608,161.272,84.608z"/>
					<path style="fill:#2F2F2F;" d="M172.876,78.039c-1.009,0-1.051,0.038-1.051,0.624v2.756c0,2.051,0.106,2.325,1.283,2.442
						l0.609,0.059c0.126,0.078,0.084,0.429-0.042,0.488c-1.134-0.039-1.85-0.059-2.67-0.059c-0.904,0-1.619,0.039-2.439,0.059
						c-0.126-0.059-0.168-0.371-0.042-0.488l0.357-0.059c1.178-0.195,1.219-0.391,1.219-2.442v-7.034
						c0-2.051-0.146-2.383-1.241-2.461l-0.547-0.04c-0.125-0.078-0.084-0.43,0.042-0.489c1.03,0.02,1.745,0.059,2.65,0.059
						c0.82,0,1.536-0.02,2.438-0.059c0.127,0.059,0.169,0.411,0.042,0.489l-0.4,0.04c-1.219,0.116-1.261,0.41-1.261,2.461v2.246
						c0,0.606,0.042,0.626,1.051,0.626h6.013c1.009,0,1.05-0.02,1.05-0.626v-2.246c0-2.051-0.041-2.345-1.281-2.461l-0.4-0.04
						c-0.126-0.078-0.085-0.43,0.042-0.489c0.968,0.039,1.682,0.059,2.545,0.059c0.818,0,1.534-0.02,2.479-0.059
						c0.127,0.059,0.169,0.411,0.042,0.489l-0.441,0.04c-1.219,0.116-1.262,0.41-1.262,2.461v7.034c0,2.051,0.043,2.305,1.262,2.442
						l0.505,0.059c0.126,0.078,0.084,0.429-0.042,0.488c-1.009-0.039-1.725-0.059-2.543-0.059c-0.863,0-1.62,0.02-2.545,0.059
						c-0.127-0.059-0.168-0.371-0.042-0.488l0.4-0.059c1.281-0.195,1.281-0.391,1.281-2.442v-2.756c0-0.586-0.041-0.624-1.05-0.624
						H172.876z"/>
					<path style="fill:#2F2F2F;" d="M90.216,88.701c1.729-1.345,3.93-2.005,6.392-2.005c1.278,0,3.077,0.259,4.19,0.565
						c0.284,0.071,0.45,0.119,0.663,0.095c0.024,0.543,0.142,2.029,0.331,3.468c-0.118,0.165-0.473,0.189-0.638,0.048
						c-0.356-1.605-1.421-3.445-4.854-3.445c-3.621,0-6.699,2.289-6.699,7.171c0,4.954,3.149,7.691,7.031,7.691
						c3.054,0,4.403-1.982,4.948-3.374c0.166-0.118,0.521-0.072,0.615,0.094c-0.165,1.226-0.781,2.783-1.136,3.231
						c-0.284,0.048-0.569,0.142-0.829,0.236c-0.52,0.189-2.226,0.543-3.741,0.543c-2.13,0-4.166-0.425-5.894-1.58
						c-1.894-1.299-3.362-3.444-3.362-6.487C87.233,92.334,88.417,90.093,90.216,88.701z"/>
					<path style="fill:#2F2F2F;" d="M103.163,96.331c0-3.907,3.077-6.896,7.304-6.896c4.739,0,7.118,3.262,7.118,6.702
						c0,3.947-3.159,6.818-7.118,6.818C105.912,102.954,103.163,99.848,103.163,96.331z M115.533,96.742
						c0-3.224-1.497-6.702-5.415-6.702c-2.134,0-4.903,1.387-4.903,5.666c0,2.891,1.477,6.642,5.517,6.642
						C113.195,102.349,115.533,100.591,115.533,96.742z"/>
					<path style="fill:#2F2F2F;" d="M140.729,94.651c0-1.212-0.041-3.459-0.394-4.044c-0.145-0.235-0.518-0.372-1.036-0.41
						l-0.517-0.04c-0.124-0.136-0.083-0.39,0.041-0.469c0.787,0.039,1.554,0.059,2.361,0.059c0.87,0,1.429-0.02,2.174-0.059
						c0.166,0.098,0.145,0.352,0.041,0.468l-0.497,0.04c-0.517,0.038-0.91,0.214-1.035,0.468c-0.29,0.645-0.29,2.892-0.29,3.986
						v2.208c0,1.701-0.29,3.498-1.45,4.669c-0.89,0.919-2.423,1.426-3.955,1.426c-1.429,0-2.858-0.254-3.874-1.074
						c-1.097-0.86-1.615-2.286-1.615-4.611v-4.612c0-2.032-0.041-2.364-1.241-2.461l-0.518-0.04
						c-0.124-0.078-0.083-0.41,0.042-0.469c1.036,0.039,1.739,0.059,2.568,0.059c0.848,0,1.533-0.02,2.546-0.059
						c0.125,0.059,0.167,0.391,0.043,0.468l-0.498,0.04c-1.201,0.097-1.243,0.429-1.243,2.461v4.221
						c0,3.145,1.036,5.217,4.205,5.217c3.002,0,4.142-2.228,4.142-5.197V94.651z"/>
					<path style="fill:#2F2F2F;" d="M164.8,92.211c0-1.46-0.091-1.835-1.121-1.915l-0.733-0.071
						c-0.083-0.075-0.128-0.47,0.023-0.481c1.236-0.093,2.792-0.158,4.921-0.158c1.442,0,2.816,0.099,3.846,0.552
						c0.984,0.415,1.74,1.204,1.74,2.467c0,1.42-0.962,2.151-2.334,2.704c0,0.197,0.182,0.256,0.434,0.296
						c1.237,0.197,3.068,1.185,3.068,3.295c0,2.29-1.969,3.828-6.09,3.828c-0.664,0-1.785-0.058-2.747-0.058
						c-1.008,0-1.784,0.038-2.632,0.058c-0.138-0.058-0.184-0.375-0.046-0.493l0.412-0.059c1.214-0.177,1.259-0.395,1.259-2.466
						V92.211z M166.678,94.834c0,0.553,0.023,0.593,1.189,0.553c2.336-0.078,3.594-0.67,3.594-2.526
						c0-1.934-1.671-2.665-3.411-2.665c-0.504,0-0.847,0.04-1.053,0.119c-0.229,0.06-0.32,0.158-0.32,0.513V94.834z M166.678,99.413
						c0,0.71,0.045,1.717,0.48,2.151c0.435,0.454,1.122,0.552,1.808,0.552c2.038,0,3.595-0.789,3.595-2.762
						c0-1.56-0.916-3.374-4.556-3.374c-1.236,0-1.327,0.118-1.327,0.513V99.413z"/>
					<g>
						<g>
							<path style="fill:#2F2F2F;" d="M127.498,83.92l-0.542-0.047c-0.11-0.012-0.207-0.026-0.3-0.041
								c-0.793-0.141-1.111-0.847-1.485-1.502l-1.874-3.266c-0.324-0.544-0.672-1.277-1.413-1.381
								c1.922-0.231,3.659-1.34,3.659-3.245c0-2.199-2.177-3.183-4.376-3.183c-1.32,0-2.523,0.036-3.866,0.036
								c-0.741,0-1.622-0.036-2.363-0.036c-0.411,0-0.416,0.084-0.416,0.314c0,0.34,0.143,0.245,0.579,0.269
								c1.565,0.088,1.505,0.38,1.505,1.72v8.563c0,1.226,0.106,1.592-1.18,1.707c0,0-0.197,0.02-0.309,0.032l-0.545,0.056
								c-0.131,0.116-0.087,0.43,0.043,0.488c0.29-0.011,0.804-0.031,0.804-0.031c0.712-0.021,1.424-0.075,2.137-0.075
								c0.716,0,1.401,0.055,2.106,0.076c0.25,0.008,0.514,0.017,0.803,0.027c0.13-0.058,0.174-0.371,0.043-0.488l-0.547-0.053
								c-0.113-0.012-0.305-0.029-0.305-0.029c-1.299-0.088-1.22-0.454-1.22-1.711v-3.224c0-0.189-0.024-0.691,0.115-0.838
								c0.116-0.126,0.325-0.105,0.509-0.105c1.761,0,1.738,0.168,2.571,1.633l2.269,4.082c0.186,0.315,0.324,0.712,0.787,0.712
								h1.971c0.248,0.008,0.51,0.016,0.798,0.027C127.585,84.349,127.628,84.037,127.498,83.92z M119.594,77.5
								c-0.394,0-1.181,0.147-1.181-0.376v-3.748c0-1.465,0.046-1.675,1.806-1.675c2.061,0,3.334,1.047,3.334,2.972
								c0,0.838-0.301,1.612-1.065,2.136C121.608,77.416,120.658,77.5,119.594,77.5z"/>
						</g>
					</g>
					<g>
						<path style="fill:#2F2F2F;" d="M120.019,92.724c0-2.051-0.043-2.364-1.396-2.462l-0.538-0.038
							c-0.129-0.078-0.085-0.43,0.043-0.489c1.204,0.04,1.935,0.058,2.794,0.058c0.839,0,1.568-0.019,2.644-0.057
							c0.129,0.058,0.172,0.41,0.044,0.488l-0.517,0.038c-1.268,0.097-1.311,0.41-1.311,2.462v6.8c0,1.231,0.065,1.738,0.451,2.11
							c0.236,0.214,0.645,0.449,2.343,0.449c1.827,0,2.278-0.078,2.623-0.253c0.429-0.235,0.988-0.938,1.417-1.935
							c0.13-0.097,0.538-0.02,0.538,0.117c0,0.216-0.602,2.208-0.903,2.735c-1.096-0.039-3.138-0.058-5.352-0.058h-1.977
							c-0.903,0-1.59,0.02-2.794,0.058c-0.128-0.058-0.172-0.37-0.043-0.488l0.646-0.058c1.246-0.118,1.289-0.391,1.289-2.442
							V92.724z"/>
						<path style="fill:#2F2F2F;" d="M177.593,92.763c0-2.071-0.042-2.404-1.287-2.501l-0.528-0.038
							c-0.127-0.078-0.084-0.43,0.043-0.489c1.055,0.04,1.772,0.058,2.659,0.058c0.844,0,1.561-0.019,2.616-0.057
							c0.127,0.058,0.169,0.41,0.042,0.488l-0.528,0.038c-1.245,0.097-1.287,0.43-1.287,2.501v6.955
							c0,2.071,0.041,2.345,1.287,2.482l0.528,0.058c0.127,0.078,0.084,0.43-0.042,0.488c-1.055-0.039-1.772-0.058-2.616-0.058
							c-0.887,0-1.604,0.02-2.659,0.058c-0.127-0.058-0.17-0.37-0.043-0.488l0.528-0.058c1.245-0.137,1.287-0.411,1.287-2.482
							V92.763z"/>
						<path style="fill:#2F2F2F;" d="M160.731,102.196c-0.108-0.012-0.311-0.028-0.311-0.028c-0.222-0.022-0.422-0.054-0.58-0.226
							c-0.273-0.291-0.25-1.12-0.25-1.452v-8.561c0-0.374-0.091-1.182,0.182-1.472c0.137-0.153,0.422-0.179,0.675-0.194v-0.001
							c0.155-0.011,0.158-0.011,0.293-0.019l0.542-0.038c0.13-0.078,0.087-0.43-0.043-0.488c-0.29,0.01-0.554,0.006-0.804,0.014
							v0.001h-2.306c-0.251,0-0.479,0-0.615,0.27l-4.698,9.784l-4.15-9.452c-0.137-0.332-0.158-0.602-0.593-0.602h-2.399
							c-0.25-0.008-0.525-0.004-0.816-0.014c-0.129,0.058-0.173,0.41-0.043,0.488l0.543,0.038c0.111,0.01,0.314,0.023,0.314,0.023
							c0.9,0.057,0.956,0.258,0.873,1.206l-0.707,9.183c-0.061,0.922-0.112,1.409-1.078,1.499c0,0-0.204,0.026-0.316,0.038
							l-0.542,0.059c-0.131,0.117-0.087,0.43,0.042,0.488c0.287-0.011,0.794-0.026,0.794-0.026c0.49-0.024,0.989-0.067,1.487-0.067
							c0.538,0,1.076,0.05,1.615,0.072l0,0c0.249,0.008,0.514,0.017,0.803,0.027c0.131-0.058,0.175-0.371,0.044-0.488l-0.542-0.059
							c-0.143-0.011-0.302-0.027-0.302-0.027c-1.394-0.096-1.363-1.079-1.276-2.282l0.661-8.541h0.159l4.493,10.509
							c0.045,0.146,0.113,0.394,0.342,0.394c0.205,0,0.274-0.228,0.342-0.373l5.062-10.78h0.159v9.392
							c0,0.373,0.046,1.14-0.342,1.43c-0.202,0.152-0.861,0.241-0.861,0.241c-0.09,0.014-0.186,0.027-0.294,0.039l-0.542,0.058
							c-0.131,0.118-0.087,0.43,0.044,0.488c0.286-0.01,0.792-0.026,0.792-0.026c0.735-0.021,1.481-0.075,2.229-0.075
							c0.538,0,1.589,0.05,1.589,0.05c0.25,0.007,0.536,0.035,0.827,0.045c0.13-0.058,0.173-0.37,0.043-0.488L160.731,102.196z"/>
						<g>
							<g>
								<path style="fill:#2F2F2F;" d="M195.969,102.25l-0.073-0.059c-0.108-0.012-0.204-0.025-0.295-0.04
									c-0.845-0.188-1.174-1.206-1.487-1.932l-4.347-10.29c-0.044-0.124-0.129-0.39-0.302-0.39c-0.237,0-0.301,0.287-0.366,0.451
									l-4.154,10.27c-0.151,0.39-0.539,1.333-0.818,1.62c-0.214,0.219-0.494,0.262-0.791,0.292c0,0-0.234,0.023-0.346,0.035
									l-0.511,0.051c-0.13,0.118-0.087,0.43,0.044,0.488c0.29-0.01,0.803-0.028,0.803-0.028c0.569-0.008,1.138-0.08,1.706-0.08
									c0.479,0,0.957,0.05,1.435,0.072c0,0,0.514,0.018,0.804,0.029c0.131-0.059,0.174-0.371,0.044-0.488l-0.543-0.059
									c-0.107-0.011-0.294-0.029-0.294-0.029c-0.501-0.055-1.122-0.144-1.122-0.694c0-0.369,0.172-0.799,0.301-1.128l0.646-1.537
									c0.323-0.738,0.193-0.821,1.054-0.821h2.928c1.033,0,0.882,0,1.335,1.046l0.689,1.557c0.109,0.267,0.302,0.719,0.302,1.005
									c0,0.515-0.563,0.549-1.088,0.593c0,0-0.174,0.016-0.325,0.027l-0.522,0.038c-0.13,0.118-0.087,0.43,0.044,0.489
									c0.289-0.01,0.803-0.032,0.803-0.032c0.612-0.023,1.229-0.069,1.82-0.069c0.754,0,1.508,0.051,2.262,0.072
									c0.247,0.007,0.039,0.016,0.324,0.026C196.056,102.678,196.099,102.366,195.969,102.25z M190.273,97.412h-2.537
									c-0.088,0-0.794,0.084-0.794-0.124c0-0.062,0.044-0.186,0.066-0.248l1.523-3.77c0.044-0.103,0.198-0.622,0.375-0.622
									c0.132,0,0.309,0.539,0.353,0.622l1.501,3.521c0,0.042,0.155,0.373,0.155,0.456
									C190.913,97.476,190.405,97.412,190.273,97.412z"/>
							</g>
						</g>
					</g>
				</g>
				<g>
					<polygon style="fill:#B5B5B5;" points="68.441,87.948 69.866,88.539 73.027,86.334 					"/>
					<path style="fill:#B5B5B5;" d="M15.327,85.486l-3.746-1.318l0.188-0.459l4.22,1.407l0.019-0.01l0.556-0.316l0.222-0.139
						l-4.601-1.958l0.193-0.48l10.27,4.153l0.339-0.141l-10.184-4.964l0.226-0.466l10.794,5.023l0.149-0.075l-10.465-5.936
						l0.215-0.446l15.113,8.223c0.123-0.228,0.382-0.645,0.515-0.87c-5.745-5.402-11.29-9.457-11.29-9.457s5.702,3.818,12.739,7.368
						c0.233-0.29,0.423-0.523,0.672-0.799L18.578,72.477l0.346-0.356L29.33,80.99l-9.64-9.654l0.361-0.374l10.823,10.46
						L20.798,70.239l0.385-0.347l9.312,9.971l-8.5-10.709l0.367-0.333L33.256,82.08c0.283-0.244,0.516-0.426,0.811-0.652
						c-3.295-7.132-6.894-12.933-6.894-12.933s3.831,5.638,8.999,11.544c0.315-0.178,0.636-0.349,0.963-0.509l-0.055-0.035
						l-7.635-15.237l0.454-0.2l6.325,12.121l-5.321-12.563l0.474-0.211l6.117,13.753L32.34,63.015l0.487-0.178l4.899,12.734
						l-3.869-13.113l0.464-0.171l5.093,16.264l-0.009,0.043l0.013-0.005c0.338-0.113,0.682-0.214,1.029-0.308
						c-0.388-7.813-1.543-14.495-1.543-14.495s1.431,6.624,3.996,14.009c0.358-0.044,0.717-0.081,1.08-0.106l-0.011-0.017h0.044
						l-0.026-0.037l-1.371-16.988l0.495-0.016l1.324,13.608L44.21,60.599l0.518-0.018l0.52,15.043l0.519-15.043l0.52,0.018
						L46.058,74.24l1.325-13.607l0.495,0.015l-1.37,16.988l-0.026,0.037h0.007l-0.004,0.005h0.023
						c0.354,0.022,0.706,0.058,1.056,0.1c2.561-7.378,3.99-13.992,3.99-13.992s-1.152,6.662-1.541,14.461
						c0.349,0.092,0.695,0.194,1.037,0.306l5.075-16.208l0.465,0.171l-3.87,13.114l4.899-12.733l0.487,0.178l-5.153,14.142
						l6.117-13.753l0.475,0.211l-5.322,12.563l6.326-12.121l0.454,0.2l-7.608,15.183l0.013,0.005
						c0.314,0.152,0.621,0.316,0.924,0.484c5.147-5.886,8.955-11.492,8.955-11.492s-3.574,5.761-6.86,12.858
						c0.294,0.222,0.582,0.451,0.86,0.689l10.766-13.114l0.367,0.333l-8.5,10.709l9.313-9.971l0.385,0.348L59.541,81.529
						l10.823-10.46l0.361,0.374l-9.64,9.654l10.406-8.868l0.345,0.354L59.102,83.806l0.007,0.007
						c0.222,0.248,0.436,0.504,0.646,0.764c6.993-3.536,12.644-7.32,12.644-7.32s-5.491,4.017-11.206,9.379
						c0.157,0.262,0.41,0.708,0.554,0.977l14.898-8.112l0.216,0.447l-11.893,6.745l12.37-5.756l0.228,0.466l-11.522,5.614
						l0.22,0.077l11.724-4.742l0.195,0.482l-10.897,4.635l0.204,0.085l7.261-2.42l1.095-0.764l0.364,0.278l2.389-0.797l0.188,0.459
						l-2.068,0.727l2.987,2.279l0.957,0.534c-3.84-16.053-18.28-27.988-35.509-27.988c-17.532,0-32.176,12.358-35.702,28.837
						c0.045-0.022,0.09-0.043,0.134-0.065l0.438-0.198l0.269-0.126L15.327,85.486z"/>
				</g>
				<path style="fill:#2F2F2F;" d="M9.244,103.013c0,0,5.386-1.076,9.882-1.076c11.845,0,28.232,6.67,40.122,6.67
					c8.722,0,17.229-2.393,21.865-5.881c0.362-2.064,0.551-4.186,0.551-6.354c0-2.936-0.348-5.789-1.003-8.525l-4.956-2.764
					l-5.816,4.078l-3.913-1.524c-1.324,0.669-9.495,6.134-9.495,6.134l-3.136-2.27l-3.365-0.666l-4.487-3.267l-5.148,3.533
					c0,0-5.742,3.334-5.939,3.334c-0.198,0-6.928-5.335-6.928-5.335l-3.101-3.267c-0.529,0.333-2.637,1.301-2.637,1.301
					l-0.108,0.029l-2.041-0.632l-2.478-1.315l-7.529,3.414c-0.045,0.023-0.089,0.043-0.134,0.065
					c-0.529,2.475-0.811,5.042-0.811,7.675C8.639,98.641,8.847,100.86,9.244,103.013z"/>
			</g>
		</g>
		<g>
			<path style="fill:#2F2F2F;" d="M10.701,122.913c-0.869,0-1.417-0.27-1.614-0.383c-0.124-0.228-0.259-0.962-0.279-1.448
				c0.052-0.073,0.207-0.094,0.248-0.031c0.155,0.527,0.58,1.541,1.779,1.541c0.869,0,1.294-0.568,1.294-1.19
				c0-0.455-0.093-0.962-0.848-1.448l-0.983-0.642c-0.518-0.341-1.118-0.931-1.118-1.779c0-0.982,0.766-1.779,2.111-1.779
				c0.321,0,0.693,0.062,0.962,0.135c0.135,0.041,0.279,0.062,0.362,0.062c0.093,0.248,0.186,0.828,0.186,1.263
				c-0.042,0.062-0.207,0.093-0.259,0.03c-0.134-0.496-0.413-1.169-1.407-1.169c-1.014,0-1.231,0.673-1.231,1.148
				c0,0.601,0.497,1.035,0.879,1.272l0.828,0.518c0.651,0.403,1.293,1.003,1.293,1.986
				C12.904,122.137,12.045,122.913,10.701,122.913z"/>
			<path style="fill:#2F2F2F;" d="M14.841,121.227c0,0.714,0.176,1.189,0.962,1.189c0.279,0,0.61-0.113,0.838-0.311
				c0.135-0.124,0.207-0.279,0.207-0.6v-1.696c0-0.673-0.072-0.693-0.383-0.817l-0.134-0.052c-0.072-0.042-0.072-0.187,0.01-0.228
				c0.413-0.011,0.983-0.083,1.21-0.187c0.052,0.011,0.083,0.031,0.093,0.072c-0.021,0.196-0.031,0.518-0.031,0.9v1.738
				c0,0.816,0.031,1.127,0.321,1.127c0.124,0,0.259-0.021,0.403-0.052c0.062,0.052,0.072,0.259-0.01,0.301
				c-0.403,0.082-1.003,0.185-1.355,0.382c-0.051,0-0.103-0.03-0.124-0.072v-0.424c0-0.093-0.031-0.145-0.093-0.145
				c-0.31,0.196-0.817,0.538-1.427,0.538c-0.911,0-1.252-0.456-1.252-1.294v-1.728c0-0.651,0-0.745-0.311-0.879l-0.124-0.052
				c-0.062-0.052-0.052-0.197,0.02-0.228c0.476-0.011,0.879-0.104,1.107-0.187c0.063,0.011,0.093,0.031,0.104,0.072
				c-0.021,0.176-0.031,0.394-0.031,0.9V121.227z"/>
			<path style="fill:#2F2F2F;" d="M19.374,119.778c0-0.403,0-0.455-0.279-0.642l-0.093-0.063c-0.041-0.041-0.041-0.154,0.01-0.186
				c0.269-0.114,0.755-0.362,1.024-0.559c0.062,0,0.103,0.021,0.124,0.072c-0.021,0.187-0.042,0.341-0.042,0.476
				c0,0.072,0.021,0.135,0.093,0.135c0.135-0.063,0.786-0.486,1.448-0.486c1.045,0,1.717,0.849,1.717,1.894
				c0,1.438-1.055,2.473-2.524,2.473c-0.187,0-0.476-0.021-0.569-0.042c-0.093,0.021-0.145,0.072-0.145,0.29v1.086
				c0,0.734,0.021,0.828,0.393,0.88l0.403,0.052c0.073,0.052,0.052,0.228-0.021,0.258c-0.497-0.021-0.797-0.03-1.159-0.03
				c-0.373,0-0.683,0.01-0.973,0.03c-0.072-0.03-0.093-0.206-0.021-0.258l0.217-0.031c0.383-0.052,0.393-0.155,0.393-0.9V119.778z
				 M20.14,121.702c0,0.331,0.104,0.455,0.31,0.621c0.207,0.155,0.528,0.228,0.745,0.228c0.848,0,1.345-0.786,1.345-1.862
				c0-0.827-0.465-1.666-1.396-1.666c-0.445,0-0.766,0.166-0.879,0.29c-0.093,0.114-0.124,0.27-0.124,0.61V121.702z"/>
			<path style="fill:#2F2F2F;" d="M24.622,119.778c0-0.403,0-0.455-0.279-0.642l-0.093-0.063c-0.041-0.041-0.041-0.154,0.01-0.186
				c0.269-0.114,0.755-0.362,1.024-0.559c0.062,0,0.104,0.021,0.124,0.072c-0.021,0.187-0.042,0.341-0.042,0.476
				c0,0.072,0.021,0.135,0.093,0.135c0.135-0.063,0.786-0.486,1.448-0.486c1.045,0,1.718,0.849,1.718,1.894
				c0,1.438-1.056,2.473-2.524,2.473c-0.187,0-0.476-0.021-0.569-0.042c-0.093,0.021-0.145,0.072-0.145,0.29v1.086
				c0,0.734,0.021,0.828,0.393,0.88l0.403,0.052c0.073,0.052,0.052,0.228-0.021,0.258c-0.497-0.021-0.797-0.03-1.159-0.03
				c-0.372,0-0.683,0.01-0.973,0.03c-0.072-0.03-0.093-0.206-0.021-0.258l0.217-0.031c0.383-0.052,0.393-0.155,0.393-0.9V119.778z
				 M25.388,121.702c0,0.331,0.104,0.455,0.31,0.621c0.207,0.155,0.528,0.228,0.745,0.228c0.848,0,1.345-0.786,1.345-1.862
				c0-0.827-0.465-1.666-1.396-1.666c-0.445,0-0.766,0.166-0.879,0.29c-0.093,0.114-0.124,0.27-0.124,0.61V121.702z"/>
			<path style="fill:#2F2F2F;" d="M33.656,120.668c0,1.293-0.89,2.225-2.183,2.225c-1.19,0-2.121-0.839-2.121-2.132
				c0-1.304,0.982-2.234,2.204-2.234C32.714,118.527,33.656,119.396,33.656,120.668z M31.431,118.837
				c-0.683,0-1.189,0.651-1.189,1.79c0,0.941,0.424,1.955,1.334,1.955c0.91,0,1.189-0.952,1.189-1.749
				C32.766,119.954,32.414,118.837,31.431,118.837z"/>
			<path style="fill:#2F2F2F;" d="M35.034,119.778c0-0.403,0-0.455-0.279-0.642l-0.093-0.063c-0.042-0.041-0.042-0.154,0.01-0.186
				c0.238-0.083,0.786-0.352,1.045-0.507c0.052,0.01,0.082,0.03,0.082,0.072v0.6c0,0.052,0.01,0.083,0.031,0.094
				c0.362-0.301,0.755-0.621,1.138-0.621c0.259,0,0.466,0.165,0.466,0.414c0,0.341-0.279,0.476-0.445,0.476
				c-0.104,0-0.155-0.031-0.228-0.072c-0.155-0.104-0.311-0.166-0.456-0.166c-0.166,0-0.29,0.094-0.372,0.207
				c-0.104,0.146-0.135,0.445-0.135,0.797v1.407c0,0.744,0.021,0.869,0.414,0.899l0.373,0.031c0.072,0.052,0.051,0.228-0.021,0.259
				c-0.486-0.021-0.786-0.031-1.148-0.031c-0.372,0-0.683,0.011-0.952,0.031c-0.072-0.031-0.093-0.207-0.021-0.259l0.196-0.031
				c0.383-0.062,0.393-0.155,0.393-0.899V119.778z"/>
			<path style="fill:#2F2F2F;" d="M39.401,119.106c-0.176,0-0.187,0.031-0.187,0.248v1.936c0,0.6,0.073,1.147,0.755,1.147
				c0.104,0,0.197-0.021,0.279-0.052c0.093-0.03,0.227-0.145,0.259-0.145c0.083,0,0.124,0.114,0.104,0.176
				c-0.187,0.218-0.559,0.477-1.086,0.477c-0.89,0-1.076-0.497-1.076-1.118v-2.369c0-0.279-0.011-0.3-0.217-0.3h-0.29
				c-0.062-0.041-0.072-0.155-0.031-0.217c0.3-0.094,0.559-0.228,0.662-0.321c0.134-0.124,0.331-0.403,0.435-0.61
				c0.052-0.021,0.176-0.021,0.217,0.052v0.466c0,0.187,0.01,0.196,0.186,0.196h1.148c0.124,0.094,0.104,0.373,0.01,0.435H39.401z"
				/>
			<path style="fill:#2F2F2F;" d="M42.061,120.099c-0.269,0-0.279,0.021-0.279,0.279c0,1.045,0.61,1.935,1.717,1.935
				c0.342,0,0.631-0.104,0.952-0.507c0.104-0.031,0.176,0.031,0.186,0.124c-0.341,0.704-1.087,0.963-1.624,0.963
				c-0.673,0-1.2-0.29-1.5-0.684c-0.31-0.403-0.434-0.89-0.434-1.345c0-1.272,0.838-2.338,2.079-2.338
				c0.89,0,1.469,0.61,1.469,1.231c0,0.145-0.02,0.228-0.041,0.269c-0.031,0.063-0.176,0.072-0.61,0.072H42.061z M42.703,119.788
				c0.766,0,0.993-0.041,1.076-0.104c0.031-0.021,0.063-0.062,0.063-0.196c0-0.289-0.197-0.651-0.797-0.651
				c-0.61,0-1.138,0.559-1.148,0.899c0,0.021,0,0.052,0.073,0.052H42.703z"/>
			<path style="fill:#2F2F2F;" d="M49.201,121.237c0,0.816,0.01,1.199,0.3,1.199c0.114,0,0.29-0.052,0.445-0.104
				c0.072,0.021,0.083,0.28-0.01,0.331c-0.435,0.063-1.076,0.218-1.366,0.331c-0.062,0-0.114-0.03-0.114-0.082v-0.176
				c0-0.155,0-0.279-0.021-0.321h-0.042c-0.455,0.311-0.807,0.477-1.304,0.477c-1.148,0-1.914-0.9-1.914-1.986
				c0-1.449,1.096-2.38,2.503-2.38c0.352,0,0.579,0.052,0.693,0.093c0.052,0,0.063-0.062,0.063-0.145v-1.563
				c0-0.61-0.011-0.672-0.321-0.858l-0.104-0.062c-0.052-0.031-0.052-0.177,0-0.207c0.259-0.083,0.745-0.238,1.117-0.435
				c0.041,0,0.083,0.021,0.103,0.062c-0.01,0.311-0.031,0.828-0.031,1.283V121.237z M48.435,119.685c0-0.206-0.042-0.3-0.114-0.403
				c-0.155-0.217-0.466-0.435-0.869-0.435c-0.941,0-1.428,0.817-1.428,1.718c0,0.941,0.528,1.831,1.542,1.831
				c0.279,0,0.631-0.124,0.796-0.29c0.062-0.062,0.073-0.217,0.073-0.383V119.685z"/>
			<path style="fill:#2F2F2F;" d="M53.446,116.912c0-0.61-0.01-0.672-0.321-0.858l-0.104-0.062c-0.052-0.031-0.052-0.177,0-0.207
				c0.238-0.094,0.735-0.228,1.128-0.435c0.042,0,0.083,0.021,0.104,0.062c-0.021,0.362-0.042,0.828-0.042,1.283v1.955
				c0,0.176,0.042,0.218,0.104,0.218c0.269-0.155,0.683-0.342,1.189-0.342c1.18,0,1.976,0.89,1.976,2.027
				c0,1.376-0.993,2.339-2.379,2.339c-0.383,0-0.672-0.073-0.879-0.135c-0.217-0.072-0.352-0.135-0.435-0.135
				c-0.083,0-0.166,0.083-0.217,0.155c-0.01,0.011-0.021,0.011-0.041,0.011c-0.042,0-0.083-0.021-0.104-0.063
				c0.01-0.145,0.021-0.342,0.021-0.879V116.912z M54.212,121.34c0,0.362,0.083,0.684,0.259,0.9
				c0.176,0.218,0.455,0.342,0.786,0.342c0.973,0,1.355-0.828,1.355-1.718c0-1.066-0.548-1.893-1.572-1.893
				c-0.31,0-0.559,0.072-0.704,0.165c-0.103,0.072-0.124,0.187-0.124,0.59V121.34z"/>
			<path style="fill:#2F2F2F;" d="M58.031,124.879c0-0.279,0.187-0.414,0.414-0.414h0.197c0.166,0,0.269-0.072,0.341-0.187
				c0.3-0.466,0.507-0.9,0.6-1.148c0.031-0.083,0.103-0.3,0.103-0.444c0-0.207-0.041-0.331-0.176-0.714l-0.807-2.214
				c-0.176-0.486-0.249-0.735-0.61-0.808l-0.259-0.052c-0.062-0.052-0.052-0.228,0.031-0.258c0.331,0.021,0.641,0.03,0.982,0.03
				c0.279,0,0.569-0.01,0.9-0.03c0.083,0.03,0.093,0.206,0.021,0.258l-0.259,0.052c-0.145,0.031-0.228,0.063-0.228,0.135
				c0,0.124,0.238,0.797,0.3,0.973l0.331,0.951c0.062,0.166,0.258,0.714,0.3,0.735c0.031-0.021,0.197-0.342,0.383-0.766l0.352-0.817
				c0.228-0.538,0.362-0.921,0.362-1.035c0-0.072-0.062-0.145-0.248-0.176l-0.32-0.052c-0.073-0.052-0.063-0.228,0.021-0.258
				c0.331,0.021,0.642,0.03,0.91,0.03c0.259,0,0.497-0.01,0.787-0.03c0.082,0.041,0.093,0.196,0.02,0.258l-0.176,0.031
				c-0.341,0.063-0.528,0.362-0.879,1.097l-0.579,1.189c-0.342,0.693-1.19,2.493-1.697,3.621c-0.176,0.394-0.424,0.486-0.662,0.486
				C58.186,125.323,58.031,125.137,58.031,124.879z"/>
			<path style="fill:#2F2F2F;" d="M66.766,119.106c-0.176,0-0.187,0.031-0.187,0.248v1.936c0,0.6,0.073,1.147,0.755,1.147
				c0.104,0,0.197-0.021,0.279-0.052c0.093-0.03,0.228-0.145,0.259-0.145c0.082,0,0.124,0.114,0.104,0.176
				c-0.187,0.218-0.559,0.477-1.086,0.477c-0.89,0-1.076-0.497-1.076-1.118v-2.369c0-0.279-0.011-0.3-0.217-0.3h-0.29
				c-0.062-0.041-0.072-0.155-0.031-0.217c0.3-0.094,0.559-0.228,0.662-0.321c0.134-0.124,0.331-0.403,0.435-0.61
				c0.052-0.021,0.176-0.021,0.217,0.052v0.466c0,0.187,0.01,0.196,0.186,0.196h1.148c0.124,0.094,0.104,0.373,0.01,0.435H66.766z"
				/>
			<path style="fill:#2F2F2F;" d="M68.991,116.912c0-0.61-0.01-0.672-0.32-0.858l-0.104-0.062c-0.052-0.031-0.052-0.177,0-0.207
				c0.259-0.083,0.745-0.238,1.117-0.435c0.041,0,0.083,0.021,0.103,0.062c-0.01,0.311-0.031,0.828-0.031,1.283v2.173
				c0,0.093,0.011,0.176,0.042,0.196c0.373-0.29,0.869-0.538,1.396-0.538c0.983,0,1.335,0.61,1.335,1.335v1.728
				c0,0.744,0.021,0.858,0.393,0.899l0.279,0.031c0.072,0.052,0.052,0.228-0.021,0.259c-0.372-0.021-0.672-0.031-1.034-0.031
				c-0.372,0-0.683,0.011-0.962,0.031c-0.072-0.031-0.093-0.207-0.021-0.259l0.207-0.031c0.383-0.062,0.393-0.155,0.393-0.899
				v-1.479c0-0.662-0.321-1.107-0.983-1.107c-0.352,0-0.621,0.124-0.807,0.279c-0.186,0.155-0.217,0.207-0.217,0.569v1.738
				c0,0.744,0.021,0.848,0.394,0.899l0.217,0.031c0.073,0.042,0.052,0.228-0.021,0.259c-0.311-0.021-0.61-0.031-0.973-0.031
				c-0.372,0-0.683,0.011-1.014,0.031c-0.072-0.031-0.093-0.207-0.021-0.259l0.258-0.031c0.383-0.041,0.393-0.155,0.393-0.899
				V116.912z"/>
			<path style="fill:#2F2F2F;" d="M74.756,120.099c-0.269,0-0.279,0.021-0.279,0.279c0,1.045,0.61,1.935,1.717,1.935
				c0.342,0,0.631-0.104,0.952-0.507c0.104-0.031,0.176,0.031,0.186,0.124c-0.341,0.704-1.087,0.963-1.624,0.963
				c-0.673,0-1.2-0.29-1.5-0.684c-0.31-0.403-0.434-0.89-0.434-1.345c0-1.272,0.838-2.338,2.079-2.338
				c0.89,0,1.469,0.61,1.469,1.231c0,0.145-0.021,0.228-0.041,0.269c-0.031,0.063-0.176,0.072-0.61,0.072H74.756z M75.398,119.788
				c0.766,0,0.993-0.041,1.076-0.104c0.031-0.021,0.063-0.062,0.063-0.196c0-0.289-0.197-0.651-0.797-0.651
				c-0.61,0-1.138,0.559-1.148,0.899c0,0.021,0,0.052,0.073,0.052H75.398z"/>
			<path style="fill:#2F2F2F;" d="M82.27,121.195c0,1.087,0.021,1.221,0.683,1.293l0.279,0.031c0.062,0.052,0.041,0.228-0.021,0.259
				c-0.589-0.021-0.931-0.031-1.345-0.031c-0.435,0-0.807,0.011-1.262,0.031c-0.062-0.031-0.083-0.196-0.021-0.259l0.217-0.031
				c0.6-0.082,0.621-0.206,0.621-1.293v-3.817c0-0.879-0.021-1.055-0.486-1.106l-0.373-0.042c-0.072-0.062-0.062-0.217,0.021-0.259
				c0.548-0.072,1.19-0.082,2.048-0.082s1.5,0.113,1.986,0.413c0.476,0.301,0.828,0.838,0.828,1.552c0,0.952-0.59,1.428-1.035,1.646
				c-0.455,0.217-1.003,0.311-1.428,0.311c-0.072-0.031-0.072-0.187-0.01-0.207c1.117-0.207,1.521-0.838,1.521-1.738
				c0-1.004-0.59-1.655-1.665-1.655c-0.548,0-0.559,0.041-0.559,0.372V121.195z"/>
			<path style="fill:#2F2F2F;" d="M86.483,119.778c0-0.403,0-0.455-0.279-0.642l-0.093-0.063c-0.041-0.041-0.041-0.154,0.01-0.186
				c0.238-0.083,0.786-0.352,1.045-0.507c0.052,0.01,0.082,0.03,0.082,0.072v0.6c0,0.052,0.01,0.083,0.031,0.094
				c0.362-0.301,0.755-0.621,1.138-0.621c0.259,0,0.466,0.165,0.466,0.414c0,0.341-0.279,0.476-0.445,0.476
				c-0.104,0-0.155-0.031-0.228-0.072c-0.155-0.104-0.311-0.166-0.456-0.166c-0.165,0-0.289,0.094-0.372,0.207
				c-0.104,0.146-0.135,0.445-0.135,0.797v1.407c0,0.744,0.021,0.869,0.414,0.899l0.372,0.031c0.072,0.052,0.051,0.228-0.021,0.259
				c-0.486-0.021-0.786-0.031-1.148-0.031c-0.372,0-0.683,0.011-0.952,0.031c-0.072-0.031-0.093-0.207-0.021-0.259l0.196-0.031
				c0.383-0.062,0.393-0.155,0.393-0.899V119.778z"/>
			<path style="fill:#2F2F2F;" d="M93.509,120.668c0,1.293-0.89,2.225-2.183,2.225c-1.19,0-2.121-0.839-2.121-2.132
				c0-1.304,0.982-2.234,2.204-2.234C92.567,118.527,93.509,119.396,93.509,120.668z M91.285,118.837
				c-0.683,0-1.189,0.651-1.189,1.79c0,0.941,0.424,1.955,1.334,1.955c0.91,0,1.189-0.952,1.189-1.749
				C92.619,119.954,92.267,118.837,91.285,118.837z"/>
			<path style="fill:#2F2F2F;" d="M94.556,119.695c-0.155-0.383-0.248-0.714-0.621-0.766l-0.207-0.031
				c-0.062-0.082-0.052-0.228,0.031-0.258c0.259,0.021,0.621,0.03,0.973,0.03c0.279,0,0.486-0.01,0.838-0.03
				c0.072,0.041,0.083,0.206,0.01,0.258l-0.124,0.021c-0.321,0.052-0.331,0.103-0.228,0.413c0.238,0.714,0.538,1.438,0.776,1.977
				c0.093,0.207,0.134,0.3,0.166,0.331c0.041-0.031,0.114-0.176,0.196-0.394l0.59-1.521c0.145-0.362,0.186-0.579,0.186-0.642
				c0-0.093-0.062-0.135-0.186-0.155l-0.238-0.031c-0.063-0.072-0.052-0.217,0.021-0.258c0.321,0.021,0.579,0.03,0.776,0.03
				c0.259,0,0.435-0.01,0.724-0.03c0.072,0.041,0.083,0.196,0.021,0.258l-0.155,0.021c-0.362,0.052-0.456,0.32-0.755,0.899
				c-0.145,0.279-0.786,1.779-0.952,2.204c-0.104,0.259-0.207,0.496-0.341,0.848c-0.021,0.031-0.063,0.042-0.104,0.042
				c-0.052,0-0.104-0.011-0.135-0.042c-0.082-0.289-0.238-0.692-0.393-1.075L94.556,119.695z"/>
			<path style="fill:#2F2F2F;" d="M99.192,119.778c0-0.403,0-0.455-0.279-0.642l-0.093-0.063c-0.041-0.041-0.041-0.154,0.01-0.186
				c0.238-0.083,0.828-0.352,1.065-0.507c0.052,0,0.093,0.021,0.104,0.062c-0.021,0.362-0.041,0.859-0.041,1.283v1.862
				c0,0.744,0.021,0.848,0.393,0.899l0.217,0.031c0.073,0.052,0.052,0.228-0.021,0.259c-0.311-0.021-0.61-0.031-0.973-0.031
				c-0.372,0-0.683,0.011-0.972,0.031c-0.073-0.031-0.093-0.207-0.021-0.259l0.217-0.031c0.383-0.052,0.393-0.155,0.393-0.899
				V119.778z M100.051,116.83c0,0.372-0.259,0.537-0.548,0.537c-0.321,0-0.528-0.237-0.528-0.517c0-0.342,0.248-0.559,0.559-0.559
				C99.844,116.292,100.051,116.54,100.051,116.83z"/>
			<path style="fill:#2F2F2F;" d="M101.852,119.778c0-0.403,0-0.455-0.279-0.642l-0.093-0.063c-0.041-0.041-0.041-0.154,0.01-0.186
				c0.238-0.083,0.828-0.352,1.035-0.507c0.041,0,0.093,0.021,0.114,0.072c-0.021,0.237-0.021,0.393-0.021,0.486
				c0,0.062,0.041,0.113,0.114,0.113c0.435-0.269,0.921-0.527,1.448-0.527c0.858,0,1.211,0.59,1.211,1.283v1.779
				c0,0.744,0.021,0.848,0.393,0.899l0.228,0.031c0.072,0.052,0.052,0.228-0.021,0.259c-0.311-0.021-0.61-0.031-0.973-0.031
				c-0.372,0-0.683,0.011-0.962,0.031c-0.072-0.031-0.093-0.207-0.021-0.259l0.196-0.031c0.383-0.062,0.394-0.155,0.394-0.899
				v-1.542c0-0.59-0.27-1.024-0.973-1.024c-0.393,0-0.734,0.166-0.879,0.362c-0.134,0.176-0.155,0.321-0.155,0.621v1.583
				c0,0.744,0.021,0.838,0.393,0.899l0.187,0.031c0.072,0.052,0.052,0.228-0.021,0.259c-0.279-0.021-0.579-0.031-0.941-0.031
				c-0.372,0-0.683,0.011-0.972,0.031c-0.073-0.031-0.093-0.207-0.021-0.259l0.217-0.031c0.383-0.052,0.393-0.155,0.393-0.899
				V119.778z"/>
			<path style="fill:#2F2F2F;" d="M110.068,118.702c0.083,0.072,0.155,0.238,0.155,0.414c0,0.187-0.104,0.383-0.228,0.383
				c-0.052,0-0.104-0.021-0.145-0.072c-0.227-0.279-0.61-0.549-1.035-0.549c-0.724,0-1.428,0.569-1.428,1.666
				c0,0.807,0.559,1.769,1.666,1.769c0.6,0,0.91-0.269,1.148-0.62c0.083-0.021,0.176,0.052,0.187,0.145
				c-0.353,0.766-1.128,1.056-1.729,1.056c-0.548,0-1.055-0.177-1.417-0.528c-0.362-0.352-0.6-0.858-0.6-1.531
				c0-1.117,0.786-2.307,2.503-2.307C109.386,118.527,109.789,118.578,110.068,118.702z"/>
			<path style="fill:#2F2F2F;" d="M111.757,120.099c-0.269,0-0.279,0.021-0.279,0.279c0,1.045,0.61,1.935,1.717,1.935
				c0.342,0,0.632-0.104,0.952-0.507c0.104-0.031,0.176,0.031,0.187,0.124c-0.342,0.704-1.087,0.963-1.624,0.963
				c-0.673,0-1.2-0.29-1.501-0.684c-0.31-0.403-0.434-0.89-0.434-1.345c0-1.272,0.838-2.338,2.079-2.338
				c0.89,0,1.469,0.61,1.469,1.231c0,0.145-0.021,0.228-0.041,0.269c-0.031,0.063-0.176,0.072-0.61,0.072H111.757z M112.398,119.788
				c0.766,0,0.993-0.041,1.076-0.104c0.03-0.021,0.062-0.062,0.062-0.196c0-0.289-0.196-0.651-0.797-0.651
				c-0.61,0-1.138,0.559-1.148,0.899c0,0.021,0,0.052,0.073,0.052H112.398z"/>
			<path style="fill:#2F2F2F;" d="M121.764,120.668c0,1.293-0.89,2.225-2.183,2.225c-1.19,0-2.121-0.839-2.121-2.132
				c0-1.304,0.982-2.234,2.204-2.234C120.822,118.527,121.764,119.396,121.764,120.668z M119.539,118.837
				c-0.683,0-1.189,0.651-1.189,1.79c0,0.941,0.424,1.955,1.335,1.955c0.91,0,1.19-0.952,1.19-1.749
				C120.874,119.954,120.522,118.837,119.539,118.837z"/>
			<path style="fill:#2F2F2F;" d="M124.053,119.106c-0.176,0-0.176,0.021-0.176,0.3v2.184c0,0.744,0.021,0.869,0.393,0.899
				l0.373,0.031c0.072,0.052,0.052,0.228-0.021,0.259c-0.465-0.021-0.766-0.031-1.127-0.031c-0.373,0-0.684,0.011-0.993,0.031
				c-0.073-0.031-0.094-0.207-0.021-0.259l0.238-0.031c0.383-0.052,0.394-0.155,0.394-0.899v-2.184c0-0.279,0-0.3-0.207-0.3h-0.362
				c-0.062-0.041-0.072-0.134-0.031-0.196l0.445-0.218c0.083-0.041,0.155-0.103,0.155-0.206c0-0.601,0.072-1.242,0.32-1.821
				c0.259-0.59,0.838-1.313,1.862-1.313c0.548,0,1.014,0.248,1.014,0.62c0,0.207-0.196,0.373-0.393,0.373
				c-0.114,0-0.177-0.042-0.249-0.124c-0.196-0.228-0.486-0.456-0.827-0.456c-0.321,0-0.579,0.197-0.734,0.569
				c-0.187,0.476-0.228,1.231-0.228,1.748v0.301c0,0.279,0,0.289,0.176,0.289h1.179c0.114,0.104,0.042,0.394-0.072,0.435H124.053z"
				/>
			<path style="fill:#2F2F2F;" d="M129.041,117.265c0-0.766-0.041-0.963-0.507-1.004l-0.331-0.031
				c-0.083-0.062-0.072-0.217,0.011-0.259c0.559-0.052,1.262-0.082,2.224-0.082c0.652,0,1.272,0.052,1.738,0.289
				c0.445,0.218,0.786,0.631,0.786,1.293c0,0.745-0.435,1.128-1.055,1.418c0,0.104,0.082,0.134,0.196,0.155
				c0.559,0.104,1.387,0.62,1.387,1.728c0,1.2-0.89,2.007-2.752,2.007c-0.301,0-0.808-0.031-1.242-0.031
				c-0.455,0-0.807,0.021-1.189,0.031c-0.061-0.031-0.083-0.196-0.02-0.259l0.186-0.031c0.548-0.093,0.568-0.206,0.568-1.293
				V117.265z M129.89,118.641c0,0.289,0.011,0.31,0.538,0.289c1.055-0.041,1.624-0.352,1.624-1.324c0-1.014-0.755-1.396-1.541-1.396
				c-0.227,0-0.383,0.021-0.477,0.063c-0.104,0.03-0.145,0.082-0.145,0.269V118.641z M129.89,121.04c0,0.373,0.02,0.9,0.217,1.128
				c0.197,0.238,0.508,0.29,0.817,0.29c0.921,0,1.625-0.414,1.625-1.449c0-0.816-0.414-1.769-2.06-1.769
				c-0.559,0-0.6,0.063-0.6,0.269V121.04z"/>
			<path style="fill:#2F2F2F;" d="M134.868,119.778c0-0.403,0-0.455-0.279-0.642l-0.093-0.063c-0.042-0.041-0.042-0.154,0.01-0.186
				c0.238-0.083,0.786-0.352,1.045-0.507c0.052,0.01,0.083,0.03,0.083,0.072v0.6c0,0.052,0.01,0.083,0.031,0.094
				c0.361-0.301,0.755-0.621,1.138-0.621c0.259,0,0.466,0.165,0.466,0.414c0,0.341-0.279,0.476-0.445,0.476
				c-0.104,0-0.155-0.031-0.227-0.072c-0.155-0.104-0.311-0.166-0.455-0.166c-0.166,0-0.29,0.094-0.372,0.207
				c-0.104,0.146-0.135,0.445-0.135,0.797v1.407c0,0.744,0.021,0.869,0.414,0.899l0.372,0.031c0.072,0.052,0.052,0.228-0.02,0.259
				c-0.486-0.021-0.786-0.031-1.149-0.031c-0.372,0-0.683,0.011-0.952,0.031c-0.072-0.031-0.093-0.207-0.021-0.259l0.196-0.031
				c0.383-0.062,0.394-0.155,0.394-0.899V119.778z"/>
			<path style="fill:#2F2F2F;" d="M138.304,119.778c0-0.403,0-0.455-0.279-0.642l-0.093-0.063c-0.041-0.041-0.041-0.154,0.011-0.186
				c0.237-0.083,0.827-0.352,1.066-0.507c0.052,0,0.093,0.021,0.104,0.062c-0.021,0.362-0.042,0.859-0.042,1.283v1.862
				c0,0.744,0.021,0.848,0.394,0.899l0.217,0.031c0.073,0.052,0.052,0.228-0.02,0.259c-0.311-0.021-0.61-0.031-0.973-0.031
				c-0.372,0-0.683,0.011-0.972,0.031c-0.073-0.031-0.094-0.207-0.021-0.259l0.218-0.031c0.383-0.052,0.393-0.155,0.393-0.899
				V119.778z M139.163,116.83c0,0.372-0.259,0.537-0.549,0.537c-0.32,0-0.527-0.237-0.527-0.517c0-0.342,0.248-0.559,0.559-0.559
				C138.956,116.292,139.163,116.54,139.163,116.83z"/>
			<path style="fill:#2F2F2F;" d="M141.812,119.106c-0.176,0-0.187,0.031-0.187,0.248v1.936c0,0.6,0.073,1.147,0.756,1.147
				c0.104,0,0.196-0.021,0.279-0.052c0.093-0.03,0.227-0.145,0.259-0.145c0.082,0,0.124,0.114,0.104,0.176
				c-0.187,0.218-0.559,0.477-1.087,0.477c-0.89,0-1.075-0.497-1.075-1.118v-2.369c0-0.279-0.011-0.3-0.218-0.3h-0.29
				c-0.062-0.041-0.072-0.155-0.03-0.217c0.3-0.094,0.559-0.228,0.662-0.321c0.134-0.124,0.331-0.403,0.435-0.61
				c0.052-0.021,0.176-0.021,0.217,0.052v0.466c0,0.187,0.011,0.196,0.186,0.196h1.148c0.124,0.094,0.104,0.373,0.01,0.435H141.812z
				"/>
			<path style="fill:#2F2F2F;" d="M144.142,119.778c0-0.403,0-0.455-0.279-0.642l-0.093-0.063c-0.042-0.041-0.042-0.154,0.01-0.186
				c0.238-0.083,0.828-0.352,1.065-0.507c0.052,0,0.094,0.021,0.104,0.062c-0.02,0.362-0.041,0.859-0.041,1.283v1.862
				c0,0.744,0.021,0.848,0.393,0.899l0.218,0.031c0.072,0.052,0.052,0.228-0.021,0.259c-0.311-0.021-0.61-0.031-0.973-0.031
				c-0.372,0-0.683,0.011-0.973,0.031c-0.072-0.031-0.093-0.207-0.021-0.259l0.217-0.031c0.383-0.052,0.394-0.155,0.394-0.899
				V119.778z M145,116.83c0,0.372-0.259,0.537-0.548,0.537c-0.321,0-0.528-0.237-0.528-0.517c0-0.342,0.249-0.559,0.56-0.559
				C144.793,116.292,145,116.54,145,116.83z"/>
			<path style="fill:#2F2F2F;" d="M148.622,118.713c0.093,0.228,0.165,0.559,0.165,0.838c-0.041,0.072-0.196,0.093-0.248,0.031
				c-0.176-0.456-0.486-0.756-0.91-0.756c-0.403,0-0.662,0.259-0.662,0.631c0,0.425,0.434,0.652,0.797,0.859
				c0.548,0.311,1.055,0.662,1.055,1.396c0,0.786-0.724,1.18-1.489,1.18c-0.486,0-0.849-0.104-1.107-0.311
				c-0.083-0.197-0.145-0.704-0.124-1.045c0.052-0.063,0.187-0.072,0.238-0.011c0.176,0.569,0.507,1.065,1.097,1.065
				c0.372,0,0.692-0.217,0.692-0.662c0-0.476-0.413-0.734-0.796-0.951c-0.601-0.342-1.025-0.704-1.025-1.272
				c0-0.756,0.621-1.18,1.407-1.18C148.146,118.527,148.529,118.63,148.622,118.713z"/>
			<path style="fill:#2F2F2F;" d="M150.041,116.912c0-0.61-0.011-0.672-0.32-0.858l-0.104-0.062c-0.052-0.031-0.052-0.177,0-0.207
				c0.259-0.083,0.744-0.238,1.117-0.435c0.041,0,0.083,0.021,0.104,0.062c-0.011,0.311-0.031,0.828-0.031,1.283v2.173
				c0,0.093,0.011,0.176,0.041,0.196c0.373-0.29,0.869-0.538,1.396-0.538c0.983,0,1.335,0.61,1.335,1.335v1.728
				c0,0.744,0.02,0.858,0.393,0.899l0.279,0.031c0.072,0.052,0.052,0.228-0.021,0.259c-0.372-0.021-0.672-0.031-1.034-0.031
				c-0.372,0-0.683,0.011-0.962,0.031c-0.072-0.031-0.093-0.207-0.021-0.259l0.207-0.031c0.383-0.062,0.393-0.155,0.393-0.899
				v-1.479c0-0.662-0.32-1.107-0.982-1.107c-0.352,0-0.621,0.124-0.808,0.279c-0.186,0.155-0.217,0.207-0.217,0.569v1.738
				c0,0.744,0.021,0.848,0.394,0.899l0.217,0.031c0.072,0.042,0.052,0.228-0.02,0.259c-0.311-0.021-0.61-0.031-0.973-0.031
				c-0.372,0-0.683,0.011-1.014,0.031c-0.072-0.031-0.094-0.207-0.02-0.259l0.258-0.031c0.383-0.041,0.394-0.155,0.394-0.899
				V116.912z"/>
			<path style="fill:#2F2F2F;" d="M158.807,116.633c0.756-0.59,1.718-0.879,2.794-0.879c0.559,0,1.345,0.113,1.831,0.248
				c0.124,0.031,0.196,0.052,0.289,0.041c0.011,0.238,0.063,0.891,0.145,1.521c-0.052,0.072-0.207,0.083-0.279,0.021
				c-0.155-0.703-0.621-1.511-2.121-1.511c-1.583,0-2.928,1.004-2.928,3.146c0,2.172,1.376,3.372,3.072,3.372
				c1.335,0,1.925-0.869,2.162-1.48c0.072-0.052,0.228-0.03,0.27,0.042c-0.073,0.538-0.342,1.221-0.497,1.417
				c-0.124,0.021-0.248,0.063-0.362,0.103c-0.228,0.083-0.972,0.238-1.634,0.238c-0.932,0-1.821-0.187-2.576-0.693
				c-0.828-0.569-1.47-1.511-1.47-2.845C157.503,118.227,158.02,117.243,158.807,116.633z"/>
			<path style="fill:#2F2F2F;" d="M168.918,120.668c0,1.293-0.891,2.225-2.184,2.225c-1.189,0-2.12-0.839-2.12-2.132
				c0-1.304,0.982-2.234,2.203-2.234C167.976,118.527,168.918,119.396,168.918,120.668z M166.693,118.837
				c-0.683,0-1.189,0.651-1.189,1.79c0,0.941,0.424,1.955,1.334,1.955c0.91,0,1.189-0.952,1.189-1.749
				C168.027,119.954,167.676,118.837,166.693,118.837z"/>
			<path style="fill:#2F2F2F;" d="M170.958,121.589c0,0.744,0.021,0.848,0.394,0.899l0.248,0.031
				c0.072,0.052,0.052,0.228-0.02,0.259c-0.342-0.021-0.642-0.031-1.004-0.031c-0.372,0-0.683,0.011-0.993,0.031
				c-0.072-0.031-0.093-0.207-0.021-0.259l0.237-0.031c0.383-0.052,0.393-0.155,0.393-0.899v-4.677c0-0.61-0.011-0.672-0.32-0.858
				l-0.104-0.062c-0.052-0.031-0.052-0.177,0-0.207c0.259-0.083,0.744-0.238,1.117-0.435c0.041,0,0.083,0.021,0.104,0.062
				c-0.011,0.311-0.031,0.828-0.031,1.283V121.589z"/>
			<path style="fill:#2F2F2F;" d="M173.483,121.227c0,0.714,0.176,1.189,0.962,1.189c0.279,0,0.61-0.113,0.838-0.311
				c0.135-0.124,0.207-0.279,0.207-0.6v-1.696c0-0.673-0.072-0.693-0.383-0.817l-0.135-0.052c-0.072-0.042-0.072-0.187,0.011-0.228
				c0.414-0.011,0.982-0.083,1.21-0.187c0.052,0.011,0.083,0.031,0.094,0.072c-0.021,0.196-0.031,0.518-0.031,0.9v1.738
				c0,0.816,0.031,1.127,0.32,1.127c0.124,0,0.259-0.021,0.403-0.052c0.063,0.052,0.073,0.259-0.01,0.301
				c-0.403,0.082-1.004,0.185-1.355,0.382c-0.052,0-0.104-0.03-0.124-0.072v-0.424c0-0.093-0.031-0.145-0.093-0.145
				c-0.311,0.196-0.817,0.538-1.428,0.538c-0.911,0-1.252-0.456-1.252-1.294v-1.728c0-0.651,0-0.745-0.311-0.879l-0.124-0.052
				c-0.063-0.052-0.052-0.197,0.02-0.228c0.476-0.011,0.879-0.104,1.107-0.187c0.061,0.011,0.093,0.031,0.102,0.072
				c-0.02,0.176-0.03,0.394-0.03,0.9V121.227z"/>
			<path style="fill:#2F2F2F;" d="M183.635,120.089c0-0.704-0.311-1.066-0.963-1.066c-0.393,0-0.714,0.177-0.858,0.362
				c-0.124,0.155-0.155,0.259-0.155,0.621v1.583c0,0.744,0.021,0.848,0.394,0.899l0.217,0.031c0.072,0.052,0.052,0.228-0.02,0.259
				c-0.311-0.021-0.61-0.031-0.973-0.031c-0.372,0-0.651,0.011-0.941,0.031c-0.072-0.031-0.093-0.207-0.02-0.259l0.187-0.031
				c0.383-0.062,0.393-0.155,0.393-0.899v-1.5c0-0.693-0.311-1.066-0.951-1.066c-0.425,0-0.714,0.187-0.869,0.373
				c-0.104,0.124-0.155,0.259-0.155,0.59v1.604c0,0.744,0.021,0.838,0.393,0.899l0.187,0.031c0.072,0.052,0.052,0.228-0.021,0.259
				c-0.279-0.021-0.579-0.031-0.941-0.031c-0.372,0-0.683,0.011-1.004,0.031c-0.072-0.031-0.093-0.207-0.021-0.259l0.248-0.031
				c0.383-0.052,0.393-0.155,0.393-0.899v-1.811c0-0.403,0-0.455-0.279-0.642l-0.093-0.063c-0.042-0.041-0.042-0.154,0.01-0.186
				c0.238-0.083,0.828-0.352,1.035-0.507c0.041,0,0.093,0.021,0.113,0.072c-0.021,0.237-0.021,0.393-0.021,0.486
				c0,0.062,0.041,0.113,0.113,0.113c0.394-0.279,0.88-0.527,1.376-0.527c0.518,0,0.808,0.187,1.097,0.61
				c0.094,0.021,0.166-0.021,0.259-0.083c0.414-0.289,0.921-0.527,1.407-0.527c0.827,0,1.231,0.569,1.231,1.283v1.779
				c0,0.744,0.021,0.848,0.393,0.899l0.248,0.031c0.073,0.052,0.052,0.228-0.021,0.259c-0.341-0.021-0.642-0.031-1.003-0.031
				c-0.373,0-0.652,0.011-0.941,0.031c-0.073-0.031-0.094-0.207-0.021-0.259l0.187-0.031c0.383-0.062,0.393-0.155,0.393-0.899
				V120.089z"/>
			<path style="fill:#2F2F2F;" d="M186.058,116.912c0-0.61-0.011-0.672-0.321-0.858l-0.104-0.062c-0.052-0.031-0.052-0.177,0-0.207
				c0.238-0.094,0.735-0.228,1.128-0.435c0.042,0,0.083,0.021,0.104,0.062c-0.02,0.362-0.041,0.828-0.041,1.283v1.955
				c0,0.176,0.041,0.218,0.104,0.218c0.269-0.155,0.683-0.342,1.189-0.342c1.18,0,1.976,0.89,1.976,2.027
				c0,1.376-0.993,2.339-2.379,2.339c-0.383,0-0.673-0.073-0.88-0.135c-0.217-0.072-0.351-0.135-0.434-0.135
				c-0.082,0-0.165,0.083-0.217,0.155c-0.011,0.011-0.021,0.011-0.041,0.011c-0.042,0-0.083-0.021-0.104-0.063
				c0.01-0.145,0.021-0.342,0.021-0.879V116.912z M186.824,121.34c0,0.362,0.082,0.684,0.259,0.9
				c0.176,0.218,0.455,0.342,0.786,0.342c0.973,0,1.355-0.828,1.355-1.718c0-1.066-0.548-1.893-1.572-1.893
				c-0.311,0-0.559,0.072-0.703,0.165c-0.104,0.072-0.124,0.187-0.124,0.59V121.34z"/>
			<path style="fill:#2F2F2F;" d="M191.472,119.778c0-0.403,0-0.455-0.279-0.642l-0.093-0.063c-0.042-0.041-0.042-0.154,0.01-0.186
				c0.238-0.083,0.828-0.352,1.065-0.507c0.052,0,0.094,0.021,0.104,0.062c-0.02,0.362-0.041,0.859-0.041,1.283v1.862
				c0,0.744,0.021,0.848,0.393,0.899l0.218,0.031c0.072,0.052,0.052,0.228-0.02,0.259c-0.311-0.021-0.61-0.031-0.973-0.031
				c-0.372,0-0.683,0.011-0.973,0.031c-0.072-0.031-0.093-0.207-0.02-0.259l0.217-0.031c0.383-0.052,0.393-0.155,0.393-0.899
				V119.778z M192.33,116.83c0,0.372-0.259,0.537-0.548,0.537c-0.321,0-0.528-0.237-0.528-0.517c0-0.342,0.249-0.559,0.56-0.559
				C192.123,116.292,192.33,116.54,192.33,116.83z"/>
			<path style="fill:#2F2F2F;" d="M195.569,120.606c0.155-0.052,0.176-0.145,0.176-0.3l0.011-0.476c0.01-0.383-0.114-0.9-0.756-0.9
				c-0.289,0-0.641,0.145-0.662,0.466c-0.01,0.165-0.021,0.289-0.104,0.352c-0.155,0.124-0.435,0.196-0.589,0.196
				c-0.094,0-0.145-0.052-0.145-0.145c0-0.538,1.169-1.272,1.925-1.272c0.744,0,1.106,0.435,1.075,1.21l-0.062,1.801
				c-0.021,0.476,0.072,0.899,0.476,0.899c0.104,0,0.196-0.03,0.259-0.062c0.052-0.031,0.104-0.072,0.135-0.072
				c0.041,0,0.072,0.062,0.072,0.134c0,0.052-0.362,0.456-0.869,0.456c-0.248,0-0.496-0.094-0.673-0.321
				c-0.041-0.062-0.104-0.145-0.165-0.145c-0.072,0-0.196,0.093-0.403,0.207c-0.228,0.124-0.455,0.259-0.745,0.259
				c-0.3,0-0.548-0.083-0.725-0.238c-0.196-0.176-0.32-0.435-0.32-0.725c0-0.403,0.196-0.641,0.858-0.879L195.569,120.606z
				 M194.928,122.427c0.207,0,0.527-0.155,0.631-0.259c0.125-0.124,0.125-0.269,0.135-0.486l0.02-0.61
				c0-0.113-0.041-0.135-0.104-0.135c-0.061,0-0.237,0.042-0.424,0.104c-0.61,0.207-0.91,0.362-0.91,0.766
				C194.276,121.982,194.4,122.427,194.928,122.427z"/>
		</g>
	</g>
</g>
<g>
</g>
<g>
</g>
<g>
</g>
<g>
</g>
<g>
</g>
<g>
</g>
</svg>
