<?xml version="1.0" encoding="iso-8859-1"?>
<!-- Generator: Adobe Illustrator 23.0.1, SVG Export Plug-In . SVG Version: 6.00 Build 0)  -->
<svg version="1.1" id="Layer_1" xmlns="http://www.w3.org/2000/svg" xmlns:xlink="http://www.w3.org/1999/xlink" x="0px" y="0px"
	 viewBox="0 0 389.61 60" style="enable-background:new 0 0 389.61 60;" xml:space="preserve">
<title>Asset 2</title>
<g>
	<path style="fill:#231F20;" d="M72.351,53.61L37.558,36.857V0L72.351,53.61z M75.117,60L37.558,44.143V60H75.117z"/>
	<polyline style="fill:#4F494B;" points="2.766,53.61 37.558,0 37.558,36.857 2.766,53.61 	"/>
	<polyline style="fill:#4F494B;" points="0,60 37.558,60 37.558,44.143 0,60 	"/>
	<path style="fill:#231F20;" d="M78.156,49.013c1.364,0,2.494,1.091,2.494,2.455c0,1.364-1.091,2.494-2.455,2.494
		c-1.364,0-2.493-1.091-2.493-2.455l0,0C75.701,50.104,76.792,49.013,78.156,49.013z M78.156,53.571
		c1.169,0,2.104-0.935,2.104-2.104c0-1.169-0.935-2.104-2.104-2.104s-2.104,0.935-2.104,2.104l0,0l0,0
		C76.052,52.636,76.987,53.571,78.156,53.571L78.156,53.571L78.156,53.571z M77.61,52.909H77.26v-2.844h1.091
		c0.662,0,0.896,0.273,0.896,0.779c0.039,0.429-0.312,0.779-0.701,0.818l0.857,1.247h-0.39l-0.857-1.247h-0.506L77.61,52.909z
		 M77.61,51.312h0.468c0.39,0,0.818-0.039,0.818-0.506c0-0.351-0.351-0.468-0.623-0.468h-0.623v0.974H77.61z"/>
	<g>
		<path style="fill:#231F20;" d="M104.455,53.61h16.87c17.377,0,27.701-9,27.701-23.922S138.701,5.805,121.325,5.805h-16.87V53.61z
			 M115.13,14.104h6.195c11.26,0,16.909,5.571,16.909,15.584s-5.649,15.584-16.909,15.584h-6.195V14.104z"/>
		<polygon style="fill:#231F20;" points="185.338,32.883 205.636,32.883 205.636,24.584 185.338,24.584 185.338,14.104 
			208.286,14.104 208.286,5.805 174.623,5.805 174.623,53.61 209.026,53.61 209.026,45.312 185.338,45.312 		"/>
		<polygon style="fill:#231F20;" points="269.883,45.312 249.273,45.312 249.273,5.805 238.558,5.805 238.558,53.61 269.883,53.61 
					"/>
		<polygon style="fill:#231F20;" points="327.545,5.805 284.649,5.805 284.649,14.104 300.701,14.104 300.701,53.61 311.455,53.61 
			311.455,14.104 327.545,14.104 		"/>
		<path style="fill:#231F20;" d="M389.61,53.61h-11.182l-4.675-11.961h-19.442l-4.675,11.961h-10.442l19.987-48h10.792L389.61,53.61
			z M370.714,33.623l-6.662-16.987l-6.701,16.987H370.714z"/>
	</g>
</g>
</svg>
