<?xml version="1.0" encoding="iso-8859-1"?>
<!-- Generator: Adobe Illustrator 23.0.1, SVG Export Plug-In . SVG Version: 6.00 Build 0)  -->
<svg version="1.1" id="Layer_1" xmlns="http://www.w3.org/2000/svg" xmlns:xlink="http://www.w3.org/1999/xlink" x="0px" y="0px"
	 viewBox="0 0 136.204 95.701" style="enable-background:new 0 0 136.204 95.701;" xml:space="preserve">
<g>
	<g>
		<g>
			<g>
				
					<linearGradient id="SVGID_1_" gradientUnits="userSpaceOnUse" x1="35.3027" y1="40.7804" x2="94.8742" y2="-18.7912" gradientTransform="matrix(1 0 0 -1 0 40.8511)">
					<stop  offset="0" style="stop-color:#C5C5C5"/>
					<stop  offset="1" style="stop-color:#535353"/>
				</linearGradient>
				<path style="fill:url(#SVGID_1_);" d="M94.173,0H36.004h-0.631v0.631v58.451v0.631h0.631h58.168h0.631v-0.631V0.631V0H94.173z
					 M94.174,59.082H36.004V0.631h58.169L94.174,59.082L94.174,59.082z"/>
				
					<linearGradient id="SVGID_2_" gradientUnits="userSpaceOnUse" x1="35.9339" y1="40.1497" x2="94.2442" y2="-18.1605" gradientTransform="matrix(1 0 0 -1 0 40.8511)">
					<stop  offset="0" style="stop-color:#A1A1A1"/>
					<stop  offset="1" style="stop-color:#7B7B7B"/>
				</linearGradient>
				<rect x="36.004" y="0.631" style="fill:url(#SVGID_2_);" width="58.169" height="58.451"/>
				<g>
					<path style="fill:#828282;" d="M48.394,32.844c0.847-0.069,1.563-0.153,2.156-0.243c0.061-0.316,0.123-0.637,0.19-0.966
						C50.2,31.889,49.349,32.33,48.394,32.844z"/>
					<path style="fill:#575757;" d="M48.394,32.844c-2.638,1.413-6.087,3.362-6.087,3.362c-0.09-0.111-0.165-0.224-0.229-0.336
						c0.07,0.166,0.18,0.352,0.348,0.56c0,0,4.352,0.079,7.478-0.16c0.173-1.094,0.388-2.325,0.647-3.67
						C49.957,32.691,49.241,32.775,48.394,32.844z"/>
					<path style="fill:#575757;" d="M58.864,30.683c0.302-1.08,0.611-2.144,0.919-3.188c-0.922,0.376-1.79,0.742-2.589,1.089
						c-1.399,5.847-2.614,12.613-3.181,19.904c0,0-1.354,1.001-3.545-0.059c0,0-0.113-0.026-0.276-0.145
						c-0.004,0.023-0.006,0.04-0.006,0.04c-0.495,3.462,1.802,4.734,1.802,4.734c2.013,1.342,3.463,0.671,3.463,0.671
						c0.564-7.292,1.519-13.072,2.579-18.654c2.079-0.45,4.873-1.246,6.978-1.872c0.322-1.488,0.683-3.077,1.089-4.751
						C63.777,29.175,61.334,29.903,58.864,30.683z"/>
					<path style="fill:#575757;" d="M61.412,22.242c1.85-5.745,3.387-9.834,3.387-9.834c-0.925-0.221-1.846-0.17-2.666-0.012
						c-1.028,2.724-2.338,6.508-3.617,11.086C59.49,23.046,60.454,22.634,61.412,22.242z"/>
					<path style="fill:#575757;" d="M78.82,16.758c1.488-4.052,2.559-6.447,2.559-6.447c-1.469-0.132-2.701-0.019-3.645,0.156
						c-0.715,1.983-1.536,4.379-2.4,7.127C76.541,17.283,77.702,17.006,78.82,16.758z"/>
					<path style="fill:#575757;" d="M76.325,24.094c0.239-0.758,0.474-1.492,0.706-2.198c-1.089,0.263-2.167,0.539-3.227,0.828
						c-2.477,8.736-4.971,19.885-6.038,31.982c0,0-1.739,0.836-3.525,0.104c-0.255,2.67-0.353,4.324-0.353,4.324h5.844
						c1.067-12.097,2.388-20.373,4.862-29.11c8.479-2.732,18.135-8.856,20.208-10.362v-0.165c-3.568,0.045-7.078,0.39-10.489,0.931
						C81.981,21.575,79.304,22.82,76.325,24.094z"/>
					<path style="fill:#FFFFFF;" d="M78.82,16.758c-1.117,0.248-2.278,0.525-3.485,0.836c0.864-2.748,1.686-5.144,2.4-7.127
						c1.456-4.04,2.467-6.35,2.467-6.35c-2.638-1.225-4.945,0.047-4.945,0.047c-2.78,1.696-4.57,8.339-4.57,8.339
						c-0.822,2.44-1.565,4.825-2.238,7.122c-2.262,0.752-4.617,1.62-7.037,2.617c-0.957,0.393-1.921,0.805-2.895,1.239
						c1.279-4.578,2.589-8.361,3.617-11.086c1.158-3.068,1.96-4.793,1.96-4.793c-0.59-0.754-3.063-0.471-3.063-0.471
						c-2.472,0.212-3.815,3.296-3.815,3.296c-2.454,5.784-4.177,11.439-5.38,16.32c-0.841,0.447-1.684,0.911-2.533,1.393
						c0,0-3.638,1.813-6.642,4.604c0,0-1.494,1.542-0.582,3.127c0.065,0.112,0.14,0.224,0.229,0.336c0,0,3.449-1.949,6.087-3.362
						c0.955-0.513,1.806-0.956,2.345-1.209c-0.066,0.329-0.129,0.65-0.19,0.966c-0.26,1.344-0.474,2.576-0.647,3.67
						c-0.549,3.46-0.706,5.553-0.706,5.553c-0.596,4.703,0.464,6.077,0.994,6.461c0.163,0.118,0.276,0.145,0.276,0.145
						c2.191,1.06,3.545,0.059,3.545,0.059c0.567-7.291,1.782-14.057,3.181-19.904c0.799-0.347,1.667-0.713,2.589-1.089
						c2.127-0.867,4.563-1.792,7.232-2.696c-0.33,1.256-0.636,2.474-0.921,3.653c-0.406,1.674-0.767,3.262-1.089,4.751
						c-1.694,7.853-2.279,12.931-2.279,12.931c-1.236,6.359,0,7.595,0,7.595c0.483,0.529,1.001,0.87,1.515,1.081
						c1.787,0.732,3.525-0.104,3.525-0.104c1.067-12.097,3.561-23.245,6.038-31.982c1.06-0.288,2.137-0.565,3.227-0.828
						c2.366-0.571,4.798-1.072,7.284-1.468c3.411-0.542,6.921-0.887,10.489-0.931V14.67C94.804,14.669,88.578,14.585,78.82,16.758z"
						/>
					
						<linearGradient id="SVGID_3_" gradientUnits="userSpaceOnUse" x1="72.26" y1="8.7295" x2="66.3234" y2="19.4395" gradientTransform="matrix(1 0 0 -1 0 40.8511)">
						<stop  offset="0" style="stop-color:#FFFFFF"/>
						<stop  offset="0.3297" style="stop-color:#FDFDFD"/>
						<stop  offset="0.5252" style="stop-color:#F8F8F8"/>
						<stop  offset="0.6858" style="stop-color:#F0F0F0"/>
						<stop  offset="0.8273" style="stop-color:#E4E4E4"/>
						<stop  offset="0.9551" style="stop-color:#D4D4D4"/>
						<stop  offset="1" style="stop-color:#CECECE"/>
					</linearGradient>
					<path style="fill:url(#SVGID_3_);" d="M88.598,19.865c0,0,3.073-0.369,6.206-0.369v-2.049v-2.778
						c-0.884-0.025-3.179,0.341-3.179,0.341c-34.904,7.206-49.318,21.196-49.318,21.196s6.403-3.619,8.433-4.571
						c-0.877,4.348-1.286,7.644-1.45,9.2c1.71-0.089,3.648-0.516,5.742-1.2c0.598-3.942,1.348-7.653,2.161-11.051
						c2.645-1.148,5.993-2.489,9.822-3.784c-1.045,3.976-1.857,7.587-2.483,10.662c2.322-1.22,4.684-2.579,7.016-4
						c0.726-3.113,1.492-6.042,2.257-8.738C78.469,21.453,83.445,20.398,88.598,19.865z"/>
				</g>
			</g>
			<g>
				<path style="fill:#FFFFFF;" d="M75.093,50.818h-0.568v-0.206h1.383v0.206h-0.571v1.663h-0.244V50.818z"/>
				<path style="fill:#FFFFFF;" d="M77.69,51.66c-0.013-0.26-0.03-0.576-0.03-0.806h-0.006c-0.066,0.217-0.141,0.452-0.236,0.71
					l-0.33,0.906h-0.183l-0.304-0.89c-0.089-0.266-0.161-0.504-0.214-0.726h-0.006c-0.006,0.233-0.019,0.543-0.036,0.826
					l-0.05,0.801h-0.23l0.13-1.868h0.308l0.319,0.904c0.078,0.229,0.139,0.435,0.189,0.629h0.006
					c0.049-0.189,0.116-0.394,0.199-0.629l0.332-0.904h0.308l0.116,1.868h-0.238L77.69,51.66z"/>
			</g>
		</g>
		<g>
			<g>
				<g>
					<path style="fill-rule:evenodd;clip-rule:evenodd;fill:#4B4B4B;" d="M5.781,67.69L3.588,78.858
						c-1.593,0.684-3.746,1.679-3.214,3.65l2.738-0.955c0,0-1.106,3.792-1.106,5.8c0.118,1.133,0.378,2.606,3.122,2.391
						c0.661-3.112,1.306-6.237,1.948-9.368l7.037-1.458l-0.904,3.89c-0.417,1.746-1.015,4.115-0.745,5.355
						c0.326,1.094,0.965,1.66,3.151,1.582l4.591-22.054c-1.302,0-2.562,0-3.864,0l-1.726,8.139l-6.82,1.42l1.983-9.559L5.781,67.69
						L5.781,67.69z"/>
					<path style="fill-rule:evenodd;clip-rule:evenodd;fill:#4B4B4B;" d="M36.587,70.995l-2.658,12.864c0,0-0.683,2.257-0.683,3.857
						c0.228,2.121,1.927,2.261,3.137,2.223l3.924-18.944C40.307,70.995,36.587,70.995,36.587,70.995z"/>
					<path style="fill-rule:evenodd;clip-rule:evenodd;fill:#4B4B4B;" d="M99.811,67.698L96.406,83.86c0,0-0.682,2.257-0.682,3.857
						c0.228,2.121,2.029,2.261,3.24,2.223l4.693-22.242H99.811z"/>
					<path style="fill-rule:evenodd;clip-rule:evenodd;fill:#4B4B4B;" d="M42.887,75.753l-1.676,8.107c0,0-0.682,2.257-0.682,3.857
						c0.228,2.121,1.928,2.261,3.138,2.223l2.939-14.186H42.887z"/>
					<path style="fill-rule:evenodd;clip-rule:evenodd;fill:#4B4B4B;" d="M130.827,84.64c0.579-2.731,1.401-5.23,0.799-6.727
						c-1.365-3.404-6.276-3.004-8.437-0.68c-0.156-1.305-0.241-1.54-0.241-1.54h-2.909c0,0-0.073,1.305-0.254,2.388
						c-0.279,2.315-1.387,7.505-2.237,11.468c1.236,0,2.362,0,3.597,0c0.715-2.547,1.537-7.956,2.67-9.974
						c0.773-1.239,3.391-2.137,4.068-0.069c0.34,0.745-0.836,4.099-1.153,6.424c-0.286,2.093-0.542,3.892,2.999,3.815L130.827,84.64
						z"/>
					<path style="fill-rule:evenodd;clip-rule:evenodd;fill:#4B4B4B;" d="M115.58,84.64c0.579-2.731,1.401-5.23,0.799-6.727
						c-1.366-3.404-6.277-3.004-8.437-0.68c-0.157-1.305-0.242-1.54-0.242-1.54h-2.909c0,0-0.074,1.305-0.253,2.388
						c-0.281,2.315-1.388,7.505-2.238,11.468c1.235,0,2.361,0,3.597,0c0.715-2.547,1.537-7.956,2.67-9.974
						c0.773-1.239,3.391-2.137,4.068-0.069c0.339,0.745-0.836,4.099-1.153,6.424c-0.286,2.093-0.542,3.892,2.998,3.815L115.58,84.64
						z"/>
					<path style="fill:#4B4B4B;" d="M88.154,75.845c0,0-1.456,8.132-2.082,9.098c-0.842,1.829-1.977,2.242-3.542,1.999
						c-1.55-0.38-0.71-3.352-0.71-3.352c0.387-1.829,1.574-7.734,1.574-7.734h-3.658l-1.537,7.015
						c-0.768,3.394-0.584,4.629,0.402,5.614c-2,0.463-3.062,1.325-3.202,3.018c-0.217,2.637,2.487,4.236,5.268,4.198
						c6.675-0.082,8.42-4.37,9.283-10.265l1.965-9.589L88.154,75.845L88.154,75.845z M80.723,93.452
						c-0.948-0.065-2.187-0.617-2.105-1.802c0.168-2.461,4.573-1.254,6.742-3.049C85.359,90.262,84.023,93.676,80.723,93.452z"/>
					<path style="fill:#4B4B4B;" d="M55.9,88.378c0.373,1.058,1.354,1.503,2.921,1.366l4.523-21.389h-3.869l-1.493,7.227
						c-6.42-0.617-10.723,3.721-10.8,9.478C47.12,89.942,52.488,91.279,55.9,88.378z M57.418,78.117l-1.112,5.191
						c-0.458,2.821-1.872,4.455-3.963,3.786C49.136,86.07,52.08,76.655,57.418,78.117z"/>
					<path style="fill:#4B4B4B;" d="M70.632,88.27c0.373,1.059,1.461,1.611,3.03,1.474l2.565-12.745
						c-0.804-1.093-3.417-1.355-3.417-1.355c-5.888-0.679-10.643,3.543-10.786,9.416C61.904,89.941,67.416,91.367,70.632,88.27z
						 M66.387,82.24c0.9-2.528,2.998-4.91,5.871-4.123l-1.112,5.191c-0.458,2.821-1.872,4.524-3.964,3.856
						C65.7,86.689,65.613,84.41,66.387,82.24z"/>
					<path style="fill:#4B4B4B;" d="M25.971,75.604c-2.527,0.332-4.407,1.797-5.507,3.47c-1.276,1.94-2.146,5.138-1.386,7.652
						c0.679,2.247,3.032,3.278,5.137,3.289c2.852,0.018,5.734-1.946,7.026-4.069c0.604-0.991,1.852-4.057,1.366-6.44
						C32.014,76.608,29.588,75.126,25.971,75.604z M28.192,83.798c-0.532,1.569-1.377,2.814-2.359,3.295
						c-0.911,0.413-2.595,0.44-3.097-1.193c-0.221-1.534-0.099-2.781,0.41-4.246c0.699-1.799,2.002-3.613,3.566-3.586
						c0.913,0,1.87,0.55,2.007,1.488C28.951,80.44,28.869,82.12,28.192,83.798z"/>
					<path style="fill-rule:evenodd;clip-rule:evenodd;fill:#4B4B4B;" d="M47.239,70.387c0.742,0.74,0.604,2.084-0.312,3.007
						c-0.914,0.92-2.261,1.067-3.005,0.326c-0.742-0.74-0.604-2.086,0.312-3.005C45.151,69.793,46.494,69.646,47.239,70.387z"/>
				</g>
				<g>
					<path style="fill-rule:evenodd;clip-rule:evenodd;fill:#828282;" d="M5.49,67.369L3.296,78.536
						c-1.593,0.684-3.746,1.679-3.213,3.65l2.737-0.953c0,0-1.105,3.789-1.105,5.799c0.118,1.133,0.378,2.606,3.122,2.392
						c0.662-3.112,1.307-6.237,1.948-9.368l7.038-1.459l-0.906,3.891c-0.417,1.745-1.015,4.114-0.745,5.355
						c0.327,1.092,0.965,1.659,3.151,1.582l4.591-22.054c-1.302,0-2.562,0-3.863,0l-1.728,8.137l-6.819,1.42l1.983-9.558H5.49
						V67.369z"/>
					<path style="fill-rule:evenodd;clip-rule:evenodd;fill:#828282;" d="M36.296,70.674l-2.659,12.864c0,0-0.682,2.257-0.682,3.857
						c0.228,2.123,1.927,2.263,3.137,2.224l3.924-18.945L36.296,70.674L36.296,70.674z"/>
					<path style="fill-rule:evenodd;clip-rule:evenodd;fill:#828282;" d="M99.519,67.376l-3.404,16.162c0,0-0.683,2.257-0.683,3.857
						c0.228,2.123,2.029,2.263,3.239,2.224l4.694-22.243C103.365,67.376,99.519,67.376,99.519,67.376z"/>
					<path style="fill-rule:evenodd;clip-rule:evenodd;fill:#828282;" d="M42.596,75.43l-1.676,8.107c0,0-0.683,2.257-0.683,3.857
						c0.228,2.123,1.927,2.263,3.139,2.224l2.939-14.188H42.596z"/>
					<path style="fill-rule:evenodd;clip-rule:evenodd;fill:#828282;" d="M130.535,84.32c0.579-2.733,1.401-5.231,0.8-6.728
						c-1.366-3.404-6.276-3.004-8.437-0.68c-0.156-1.305-0.241-1.54-0.241-1.54h-2.909c0,0-0.075,1.305-0.255,2.388
						c-0.28,2.315-1.386,7.505-2.236,11.468c1.236,0,2.361,0,3.597,0c0.715-2.545,1.537-7.956,2.67-9.975
						c0.773-1.239,3.39-2.137,4.067-0.07c0.339,0.746-0.836,4.101-1.153,6.425c-0.285,2.095-0.542,3.892,2.998,3.816L130.535,84.32z
						"/>
					<path style="fill-rule:evenodd;clip-rule:evenodd;fill:#828282;" d="M115.288,84.32c0.579-2.733,1.401-5.231,0.8-6.728
						c-1.366-3.404-6.277-3.004-8.438-0.68c-0.155-1.305-0.241-1.54-0.241-1.54h-2.909c0,0-0.073,1.305-0.253,2.388
						c-0.28,2.315-1.386,7.505-2.238,11.468c1.236,0,2.362,0,3.598,0c0.714-2.545,1.536-7.956,2.668-9.975
						c0.773-1.239,3.391-2.137,4.068-0.07c0.339,0.746-0.836,4.101-1.151,6.425c-0.287,2.095-0.543,3.892,2.998,3.816L115.288,84.32
						z"/>
					<path style="fill:#828282;" d="M87.863,75.523c0,0-1.456,8.131-2.082,9.097c-0.842,1.829-1.977,2.242-3.541,2
						c-1.55-0.381-0.711-3.354-0.711-3.354c0.387-1.829,1.575-7.735,1.575-7.735h-3.658l-1.538,7.018
						c-0.768,3.394-0.584,4.627,0.4,5.614c-1.999,0.464-3.06,1.325-3.2,3.017c-0.216,2.636,2.487,4.235,5.268,4.2
						c6.676-0.084,8.42-4.372,9.283-10.267l1.965-9.588L87.863,75.523L87.863,75.523z M80.431,93.13
						c-0.946-0.064-2.186-0.616-2.105-1.801c0.169-2.461,4.573-1.255,6.743-3.051C85.069,89.941,83.73,93.354,80.431,93.13z"/>
					<path style="fill:#828282;" d="M55.608,88.056c0.374,1.058,1.354,1.503,2.922,1.368l4.523-21.391h-3.869l-1.492,7.229
						c-6.421-0.619-10.724,3.719-10.801,9.477C46.827,89.619,52.197,90.959,55.608,88.056z M57.125,77.795l-1.11,5.191
						c-0.458,2.821-1.872,4.455-3.965,3.787C48.843,85.748,51.788,76.334,57.125,77.795z"/>
					<path style="fill:#828282;" d="M70.34,87.948c0.373,1.059,1.462,1.611,3.03,1.476l2.567-12.747
						c-0.805-1.092-3.418-1.355-3.418-1.355c-5.887-0.679-10.643,3.543-10.786,9.418C61.613,89.619,67.124,91.045,70.34,87.948z
						 M66.094,81.918c0.901-2.528,3-4.909,5.871-4.123l-1.11,5.191c-0.458,2.821-1.872,4.524-3.963,3.856
						C65.409,86.366,65.321,84.088,66.094,81.918z"/>
					<path style="fill:#828282;" d="M25.679,75.282c-2.526,0.331-4.407,1.797-5.505,3.47c-1.278,1.94-2.147,5.139-1.386,7.654
						c0.678,2.246,3.031,3.276,5.137,3.288c2.851,0.018,5.734-1.946,7.025-4.069c0.604-0.99,1.853-4.057,1.366-6.44
						C31.723,76.288,29.297,74.805,25.679,75.282z M27.901,83.476c-0.532,1.571-1.378,2.815-2.361,3.296
						c-0.909,0.413-2.595,0.439-3.096-1.195c-0.222-1.533-0.099-2.782,0.41-4.246c0.698-1.797,2.002-3.613,3.565-3.586
						c0.914,0,1.869,0.551,2.007,1.489C28.66,80.119,28.578,81.799,27.901,83.476z"/>
					<path style="fill-rule:evenodd;clip-rule:evenodd;fill:#828282;" d="M46.948,70.065c0.742,0.74,0.602,2.084-0.312,3.007
						c-0.915,0.921-2.261,1.067-3.005,0.326c-0.742-0.74-0.604-2.085,0.312-3.003C44.86,69.471,46.203,69.324,46.948,70.065z"/>
				</g>
			</g>
			<g>
				<path style="fill:#838383;" d="M134.583,75.921c0.913,0,1.621,0.71,1.621,1.593c0,0.903-0.708,1.601-1.632,1.601
					c-0.913,0-1.641-0.698-1.641-1.601c0-0.884,0.728-1.593,1.641-1.593H134.583z M134.563,76.242c-0.698,0-1.223,0.573-1.223,1.272
					c0,0.708,0.525,1.271,1.243,1.271c0.699,0.01,1.214-0.563,1.214-1.271c0-0.699-0.514-1.272-1.224-1.272H134.563z
					 M134.321,78.338h-0.37v-1.582c0.146-0.029,0.351-0.058,0.612-0.058c0.301,0,0.437,0.048,0.554,0.126
					c0.087,0.069,0.156,0.195,0.156,0.34c0,0.185-0.137,0.321-0.33,0.379v0.019c0.156,0.049,0.242,0.175,0.291,0.388
					c0.049,0.244,0.078,0.34,0.117,0.388h-0.398c-0.048-0.058-0.077-0.194-0.126-0.379c-0.03-0.175-0.126-0.252-0.33-0.252h-0.174
					v0.632H134.321z M134.33,77.445h0.175c0.204,0,0.37-0.067,0.37-0.233c0-0.145-0.107-0.243-0.34-0.243
					c-0.097,0-0.166,0.01-0.205,0.019V77.445z"/>
			</g>
		</g>
	</g>
</g>
</svg>
