<?xml version="1.0" encoding="iso-8859-1"?>
<!-- Generator: Adobe Illustrator 23.0.1, SVG Export Plug-In . SVG Version: 6.00 Build 0)  -->
<svg version="1.1" id="Lager_1" xmlns="http://www.w3.org/2000/svg" xmlns:xlink="http://www.w3.org/1999/xlink" x="0px" y="0px"
	 viewBox="0 0 370.075 150.3" style="enable-background:new 0 0 370.075 150.3;" xml:space="preserve">
<title>IKEA_2018_sRGB_25</title>
<path style="fill:#202020;" d="M370.022,150.3H0V0h370.075v150.3H370.022z"/>
<path style="fill:#CECECE;" d="M7.213,75.15c0,36.329,74.514,66.505,177.825,66.505S362.81,111.479,362.81,75.15
	S288.296,8.645,185.038,8.645S7.213,38.821,7.213,75.15z"/>
<path style="fill:#202020;" d="M125.109,46.246c-0.796,1.591-0.796,3.129-0.796,4.72v19.888c0,0,10.66-13.842,13.1-17.13
	c1.856-2.44,4.137-5.887,4.137-7.478h34.791c-2.387,1.591-5.038,4.455-7.213,7.107c-1.909,2.334-12.728,15.539-12.728,15.539
	s16.069,24.449,18.138,27.578c1.167,1.697,2.44,3.288,3.925,4.72H138.42c0-1.591-1.538-4.826-3.235-7.372
	s-10.872-16.494-10.872-16.494V96.47c0,1.591,0,3.129,0.796,4.72H91.75c0.796-1.591,0.796-3.129,0.796-4.72V50.966
	c0-1.591,0-3.129-0.796-4.72H125.109z M248.626,46.246h-64.384c0.796,1.591,0.796,3.129,0.796,4.72V96.47
	c0,1.591,0,3.129-0.796,4.72h64.384V85.969c-1.591,0.796-3.129,0.796-4.72,0.796h-27.101v-7.213h26.04V67.937h-26.04v-7.266h27.101
	c1.591,0,3.129,0,4.72,0.742V46.246z M337.83,96.47c0.53,1.75,1.432,3.341,2.599,4.72h-34.897c0.159-1.591-0.424-3.129-1.061-4.72
	c0,0-0.53-1.273-1.273-3.129l-0.318-0.796h-20.1l-0.318,0.849c0,0-0.583,1.538-1.114,3.129c-0.53,1.591-1.114,3.129-0.902,4.72
	h-27.525c1.114-1.379,1.962-2.97,2.493-4.72l16.494-45.504c0.583-1.591,1.167-3.129,0.955-4.72h46.511
	c-0.424,1.591,0.424,3.129,1.008,4.72C321.761,54.467,336.664,93.394,337.83,96.47 M298.479,80.931l-4.879-12.728
	c-0.424-1.167-0.796-2.387-1.061-3.606c-0.212,1.22-0.53,2.44-0.955,3.606c-0.159,0.53-2.227,6.099-4.614,12.728H298.479z
	 M75.15,50.966c0-1.591,0-3.129,0.796-4.72H39.67c0.796,1.591,0.796,3.129,0.796,4.72V96.47c0,1.591,0,3.129-0.796,4.72h36.276
	c-0.796-1.591-0.796-3.129-0.796-4.72V50.966z M326.693,50.595c-0.106,3.978,3.023,7.319,7.054,7.425
	c3.978,0.106,7.319-3.023,7.425-7.054c0-0.106,0-0.265,0-0.371c0.053-3.925-3.023-7.16-6.948-7.213c-0.106,0-0.159,0-0.265,0
	c-3.872-0.159-7.107,2.864-7.213,6.735C326.64,50.277,326.64,50.436,326.693,50.595 M339.686,50.595
	c0.106,3.182-2.44,5.887-5.622,5.94c-3.182,0.106-5.887-2.44-5.94-5.622c0-0.106,0-0.212,0-0.371
	c-0.106-3.076,2.28-5.675,5.356-5.781c0.159,0,0.265,0,0.424,0c3.129-0.053,5.728,2.44,5.781,5.569
	C339.686,50.436,339.686,50.542,339.686,50.595 M337.459,54.944h-1.432l-1.697-3.076h-1.856v3.076h-1.273v-8.698h3.235
	c1.538,0.053,2.705,1.273,2.705,2.811c0,1.061-0.583,2.015-1.538,2.546L337.459,54.944z M334.224,50.595
	c0.849,0.053,1.591-0.583,1.591-1.432s-0.583-1.591-1.432-1.591c-0.053,0-0.106,0-0.159,0h-1.75v3.076h1.75"/>
</svg>
