<?xml version="1.0" encoding="iso-8859-1"?>
<!-- Generator: Adobe Illustrator 23.0.1, SVG Export Plug-In . SVG Version: 6.00 Build 0)  -->
<svg version="1.1" id="svg4419" xmlns:svg="http://www.w3.org/2000/svg"
	 xmlns="http://www.w3.org/2000/svg" xmlns:xlink="http://www.w3.org/1999/xlink" x="0px" y="0px" viewBox="0 0 300 198.513"
	 style="enable-background:new 0 0 300 198.513;" xml:space="preserve">
<path id="path4423" style="fill:#131720;" d="M88.799,84.354v48.122H73.48V71.989l31.625,0.031c13.433,0,18.008,9.473,18.008,18.077
	v42.379h-15.291v-42.3c0-3.604-1.866-5.822-6.366-5.822L88.799,84.354L88.799,84.354z M192.963,83.631
	c-5.236,0-9.288,2.692-10.981,6.346c-1.003,2.194-1.348,3.875-1.466,6.561h23.567C203.781,89.977,200.806,83.631,192.963,83.631
	 M180.517,106.964c0,7.835,4.871,13.602,13.567,13.602c6.766,0,10.129-1.875,14.041-5.767l9.461,9.034
	c-6.058,5.981-12.415,9.613-23.615,9.613c-14.664,0-28.698-7.996-28.698-31.299c0-19.911,12.253-31.183,28.353-31.183
	c16.32,0,25.748,13.197,25.748,30.482v5.518L180.517,106.964 M152.343,132.4c-12.479,0-17.774-8.687-17.774-17.267V55.508h15.295
	v16.48h11.53v12.365h-11.53v29.821c0,3.514,1.659,5.464,5.308,5.464h6.222V132.4L152.343,132.4 M59.85,63.63H44.426V48.978H59.85
	C59.85,48.978,59.85,63.63,59.85,63.63z M59.889,133.112c-11.55-1.11-15.479-8.116-15.479-16.2l0.017-44.923h15.462L59.889,133.112
	L59.889,133.112z M243.718,131.82c-11.526-1.112-15.437-8.106-15.437-16.18V46.893h15.437V131.82z M297.683,56.828
	C283.693-11.376,151.297-15.694,65.96,36.257v5.736C151.211-1.819,272.117-1.561,283.133,61.259
	c3.685,20.772-8.02,42.429-28.925,54.877v16.287C279.37,123.217,305.175,93.367,297.683,56.828 M142.559,176.16
	c-58.896,5.444-120.27-3.105-128.858-49.127c-4.203-22.688,6.132-46.738,19.843-61.676v-7.988
	C8.861,79.013-4.535,106.414,3.177,138.792c9.843,41.518,62.517,65.047,142.916,57.233c31.81-3.105,73.444-13.333,102.389-29.22
	v-22.57C222.218,159.876,178.756,172.809,142.559,176.16"/>
<path id="path4425" style="fill:#131720;" d="M261.562,51.458c0-0.749-0.437-0.986-1.436-0.986h-0.964v2.118
	c0.14,0,0.841,0.026,0.964,0.026c0.999,0,1.436-0.334,1.436-1.034V51.458L261.562,51.458z M263.066,56.711h-1.143
	c-0.103,0-0.194-0.065-0.238-0.151l-1.56-2.644c-0.028-0.053-0.162-0.118-0.216-0.118h-0.701v2.622c0,0.14-0.096,0.291-0.28,0.291
	h-1.034c-0.129,0-0.258-0.151-0.258-0.291v-6.632c0-0.383,0.149-0.544,0.474-0.594c0.365-0.048,1.357-0.081,1.892-0.081
	c1.899,0,3.047,0.56,3.047,2.345v0.123c0,1.104-0.549,1.687-1.401,1.973l1.617,2.734c0.01,0.055,0.048,0.131,0.048,0.195
	C263.313,56.591,263.249,56.711,263.066,56.711 M260.352,47.917c-2.813,0-5.088,2.323-5.088,5.12c0,2.8,2.275,5.087,5.088,5.087
	c2.799,0,5.096-2.286,5.096-5.087C265.448,50.239,263.151,47.917,260.352,47.917 M260.352,59.177c-3.418,0-6.145-2.758-6.145-6.141
	c0-3.378,2.727-6.143,6.145-6.143c3.381,0,6.16,2.765,6.16,6.143C266.512,56.419,263.733,59.177,260.352,59.177"/>
</svg>
