<?xml version="1.0" encoding="iso-8859-1"?>
<!-- Generator: Adobe Illustrator 23.0.1, SVG Export Plug-In . SVG Version: 6.00 Build 0)  -->
<svg version="1.1" id="Layer_1" xmlns="http://www.w3.org/2000/svg" xmlns:xlink="http://www.w3.org/1999/xlink" x="0px" y="0px"
	 viewBox="0 0 219.038 45.534" style="enable-background:new 0 0 219.038 45.534;" xml:space="preserve">
<rect x="-18.918" y="-23.31" style="fill:none;" width="258.934" height="93"/>
<g>
	<path style="fill:#231F20;" d="M58.687,12.007h1.712V1.079h-1.712V0h5.957c0.8,0,1.62,0.074,2.234,0.372
		c1.284,0.577,2.104,1.88,2.104,3.556c0,1.806-0.931,3.202-2.383,3.724c-0.614,0.204-1.229,0.26-1.936,0.26h-2.96v4.096h1.712v1.08
		h-4.728V12.007z M64.532,6.795c0.614,0,1.136-0.075,1.583-0.261c0.968-0.392,1.545-1.322,1.545-2.606
		c0-1.191-0.502-2.048-1.359-2.494c-0.465-0.205-1.08-0.316-1.769-0.316h-2.83v5.678H64.532z"/>
	<path style="fill:#231F20;" d="M75.217,3.5c2.736,0,4.952,2.085,4.952,4.858c0,2.829-2.215,4.952-4.952,4.952
		c-2.718,0-4.933-2.123-4.933-4.952C70.284,5.585,72.499,3.5,75.217,3.5z M75.217,12.175c2.01,0,3.648-1.639,3.648-3.816
		c0-2.122-1.638-3.724-3.648-3.724c-1.992,0-3.63,1.602-3.63,3.724C71.586,10.536,73.225,12.175,75.217,12.175z"/>
	<path style="fill:#231F20;" d="M81.08,3.723h3.872v1.043h-1.396l1.955,6.292c0.112,0.335,0.149,0.726,0.149,0.726h0.037
		c0,0,0.056-0.391,0.149-0.726l2.346-7.298h1.247l2.346,7.298c0.093,0.335,0.149,0.726,0.149,0.726h0.037
		c0,0,0.038-0.391,0.13-0.726l1.974-6.292h-1.396V3.723h3.872v1.043h-1.21l-2.662,8.321h-1.358L89.01,6.068
		c-0.111-0.335-0.167-0.744-0.167-0.744h-0.056c0,0-0.056,0.409-0.167,0.744l-2.309,7.019h-1.377l-2.662-8.321H81.08V3.723z"/>
	<path style="fill:#231F20;" d="M102.133,3.5c2.588,0,3.928,1.991,3.928,4.318c0,0.224-0.056,0.596-0.056,0.596h-7.186
		c0.056,2.401,1.694,3.761,3.63,3.761c1.713,0,2.849-1.117,2.849-1.117l0.577,0.949c0,0-1.341,1.304-3.463,1.304
		c-2.792,0-4.896-2.011-4.896-4.896C97.517,5.343,99.602,3.5,102.133,3.5z M104.739,7.483c-0.074-1.974-1.266-2.923-2.644-2.923
		c-1.563,0-2.923,1.024-3.221,2.923H104.739z"/>
	<path style="fill:#231F20;" d="M107.865,12.044h1.452V5.175c0-0.279-0.148-0.409-0.409-0.409h-1.266V3.723h1.769
		c0.781,0,1.135,0.316,1.135,1.062v0.633c0,0.391-0.037,0.707-0.037,0.707h0.037c0.466-1.414,1.509-2.494,2.96-2.494
		c0.261,0,0.521,0.056,0.521,0.056v1.247c0,0-0.242-0.037-0.483-0.037c-2.104,0-2.96,2.364-2.96,4.226v2.923h1.451v1.043h-4.17
		V12.044z"/>
	<path style="fill:#231F20;" d="M119.724,3.5c2.587,0,3.928,1.991,3.928,4.318c0,0.224-0.056,0.596-0.056,0.596h-7.186
		c0.056,2.401,1.693,3.761,3.63,3.761c1.713,0,2.848-1.117,2.848-1.117l0.577,0.949c0,0-1.34,1.304-3.462,1.304
		c-2.793,0-4.896-2.011-4.896-4.896C115.106,5.343,117.191,3.5,119.724,3.5z M122.329,7.483c-0.074-1.974-1.266-2.923-2.643-2.923
		c-1.564,0-2.923,1.024-3.221,2.923H122.329z"/>
	<path style="fill:#231F20;" d="M129.626,3.5c2.233,0,3.053,1.824,3.053,1.824h0.037c0,0-0.056-0.316-0.056-0.727V1.042h-1.675V0
		h2.94v11.635c0,0.279,0.149,0.409,0.41,0.409h1.042v1.043h-1.545c-0.801,0-1.117-0.354-1.117-1.024v-0.167
		c0-0.372,0.075-0.577,0.075-0.577h-0.038c0,0-0.8,1.992-3.295,1.992c-2.513,0-4.058-2.011-4.058-4.896
		C125.4,5.436,127.132,3.5,129.626,3.5z M129.663,12.175c1.563,0,3.034-1.117,3.034-3.761c0-1.917-0.968-3.761-2.96-3.761
		c-1.675,0-3.034,1.378-3.034,3.761C126.703,10.704,127.913,12.175,129.663,12.175z"/>
	<path style="fill:#231F20;" d="M142.339,1.042h-1.675V0h2.941v4.616c0,0.447-0.057,0.782-0.057,0.782h0.038
		c0,0,0.818-1.898,3.201-1.898c2.514,0,4.077,2.01,4.077,4.914c0,2.96-1.769,4.896-4.226,4.896c-2.253,0-3.091-1.918-3.091-1.918
		h-0.037c0,0,0.057,0.335,0.057,0.782v0.912h-1.229V1.042z M146.547,12.175c1.656,0,3.034-1.378,3.034-3.761
		c0-2.29-1.229-3.761-2.979-3.761c-1.564,0-3.034,1.117-3.034,3.779C143.568,10.313,144.555,12.175,146.547,12.175z"/>
	<path style="fill:#231F20;" d="M154.104,15.879c0.838,0,1.434-0.67,1.787-1.489l0.521-1.247l-3.352-8.377h-1.229V3.723h3.928v1.043
		h-1.358l2.457,6.385c0.112,0.354,0.149,0.671,0.149,0.671h0.056c0,0,0.056-0.317,0.186-0.671l2.458-6.385h-1.359V3.723h3.872v1.043
		h-1.229l-3.983,10.053c-0.54,1.34-1.564,2.178-2.867,2.178c-1.062,0-1.769-0.559-1.769-0.559l0.484-1.005
		C152.856,15.433,153.397,15.879,154.104,15.879z"/>
</g>
<g>
	<g>
		<g>
			<path style="fill:#231F20;" d="M57.969,41.205h3.307l1.653-20.192h-3.385v-3.897h9.093l6.219,15.784
				c0.472,1.378,0.669,2.322,0.669,2.322h0.079c0,0,0.197-0.945,0.709-2.322l6.18-15.784h9.092v3.897h-3.346l1.614,20.192h3.306
				v3.857H81.704v-3.857h3.11L83.79,27.113c-0.079-0.984,0.118-2.598,0.118-2.598H83.79c0,0-0.315,1.535-0.669,2.48l-5.353,12.871
				h-4.408l-5.353-12.871c-0.354-0.945-0.63-2.48-0.63-2.48h-0.158c0,0,0.197,1.614,0.118,2.598l-1.023,14.091h3.149v3.857H57.969
				V41.205z"/>
			<path style="fill:#231F20;" d="M117.895,28.727h-3.07v-3.739h3.228l0.014-5.471h4.842l-0.014,5.471h4.566v3.739h-4.566v8.463
				c0,3.424,2.598,3.897,4.015,3.897c0.551,0,0.905-0.04,0.905-0.04v4.093c0,0-0.63,0.118-1.535,0.118
				c-2.834,0-8.384-0.826-8.384-7.557V28.727z"/>
			<path style="fill:#231F20;" d="M128.876,41.323h2.913V28.727h-3.11v-3.739h8.108v16.335h2.873v3.739h-10.785V41.323z"/>
			<path style="fill:#231F20;" d="M137.91,24.988h10.477v3.739h-2.243l3.464,9.919c0.393,1.023,0.511,2.204,0.511,2.204h0.118
				c0,0,0.118-1.181,0.472-2.204l3.503-9.919h-2.283v-3.739h9.644v3.739h-2.401l-6.14,16.335h-5.747l-6.101-16.335h-3.274V24.988z"
				/>
			<path style="fill:#231F20;" d="M171.153,24.515c5.786,0,8.935,4.212,8.935,9.525c0,0.59-0.118,1.692-0.118,1.692h-13.895
				c0.315,3.7,2.991,5.59,6.022,5.59c3.267,0,5.825-2.126,5.825-2.126l1.929,3.542c0,0-3.07,2.795-8.108,2.795
				c-6.652,0-10.785-4.802-10.785-10.509C160.958,28.845,165.131,24.515,171.153,24.515z M174.931,32.781
				c-0.079-2.755-1.771-4.408-3.897-4.408c-2.559,0-4.369,1.771-4.842,4.408H174.931z"/>
			<path style="fill:#231F20;" d="M182.764,41.795h3.188v3.267h-3.188V41.795z"/>
			<path style="fill:#231F20;" d="M188.565,42.857h3.346v-15.39h-3.542v-2.204h6.219v17.594h3.345v2.204h-9.368V42.857z
				 M191.754,17.391h3.031v3.346h-3.031V17.391z"/>
			<path style="fill:#231F20;" d="M208.568,24.791c5.786,0,10.47,4.408,10.47,10.273c0,5.983-4.684,10.47-10.47,10.47
				c-5.746,0-10.43-4.487-10.43-10.47C198.137,29.199,202.821,24.791,208.568,24.791z M208.568,43.133
				c4.251,0,7.715-3.464,7.715-8.069c0-4.487-3.464-7.872-7.715-7.872c-4.212,0-7.675,3.385-7.675,7.872
				C200.892,39.669,204.356,43.133,208.568,43.133z"/>
		</g>
		<rect x="131.716" y="16.55" style="fill:#231F20;" width="5.046" height="5.046"/>
		<rect x="120.033" y="24.979" style="fill:#231F20;" width="28.354" height="3.748"/>
		<path style="fill:#231F20;" d="M104.202,24.515c6.14,0,11.06,4.369,11.06,10.51c0,6.18-4.92,10.509-11.021,10.509
			c-6.14,0-11.06-4.33-11.06-10.509C93.18,28.884,98.101,24.515,104.202,24.515z M104.241,41.283c3.228,0,5.943-2.519,5.943-6.258
			c0-3.7-2.716-6.258-5.943-6.258c-3.267,0-5.983,2.558-5.983,6.258C98.258,38.764,100.974,41.283,104.241,41.283z"/>
	</g>
</g>
<g>
	<path style="fill:#231F20;" d="M34.074,0.201H15.471c-1.989,0-4.429,1.409-5.423,3.131L0.746,19.443
		c-0.994,1.722-0.994,4.54,0,6.262l9.302,16.111c0.994,1.722,3.435,3.131,5.423,3.131h18.604c1.989,0,4.429-1.409,5.423-3.131
		L48.8,25.706c0.994-1.722,0.994-4.54,0-6.262L39.498,3.332C38.503,1.61,36.063,0.201,34.074,0.201L34.074,0.201z"/>
	<g>
		<g>
			<polyline style="fill:#231F20;stroke:#FFFFFF;stroke-width:0.4419;stroke-linejoin:round;stroke-miterlimit:10;" points="
				10.602,33.728 17.458,30.542 14.677,13.953 18.088,17.61 13.319,30.542 20.045,33.728 			"/>
			<polyline style="fill:#231F20;stroke:#FFFFFF;stroke-width:0.4419;stroke-linejoin:round;stroke-miterlimit:10;" points="
				38.251,13.953 30.729,10.751 26.868,29.442 25.025,25.626 23.247,29.442 19.366,10.751 11.896,13.953 			"/>
			<polyline style="fill:#231F20;stroke:#FFFFFF;stroke-width:0.4419;stroke-linejoin:round;stroke-miterlimit:10;" points="
				35.462,13.911 32.601,30.658 39.578,33.797 			"/>
			<polyline style="fill:#231F20;stroke:#FFFFFF;stroke-width:0.4419;stroke-linejoin:round;stroke-miterlimit:10;" points="
				30.729,10.751 36.718,30.518 29.949,33.658 			"/>
			
				<line style="fill:#231F20;stroke:#FFFFFF;stroke-width:0.4419;stroke-linejoin:round;stroke-miterlimit:10;" x1="19.366" y1="10.751" x2="13.319" y2="30.542"/>
			<circle style="fill:#231F20;stroke:#FFFFFF;stroke-width:0.085;stroke-miterlimit:10;" cx="11.896" cy="10.751" r="0.558"/>
			<circle style="fill:#231F20;stroke:#FFFFFF;stroke-width:0.085;stroke-miterlimit:10;" cx="19.366" cy="10.751" r="0.558"/>
			<circle style="fill:#231F20;stroke:#FFFFFF;stroke-width:0.085;stroke-miterlimit:10;" cx="30.729" cy="10.751" r="0.558"/>
			<circle style="fill:#231F20;stroke:#FFFFFF;stroke-width:0.085;stroke-miterlimit:10;" cx="38.199" cy="10.751" r="0.558"/>
			<circle style="fill:#231F20;stroke:#FFFFFF;stroke-width:0.085;stroke-miterlimit:10;" cx="10.602" cy="30.542" r="0.558"/>
			<circle style="fill:#231F20;stroke:#FFFFFF;stroke-width:0.085;stroke-miterlimit:10;" cx="20.045" cy="30.542" r="0.558"/>
			<circle style="fill:#231F20;stroke:#FFFFFF;stroke-width:0.085;stroke-miterlimit:10;" cx="10.602" cy="33.728" r="0.558"/>
			<circle style="fill:#231F20;stroke:#FFFFFF;stroke-width:0.085;stroke-miterlimit:10;" cx="20.045" cy="33.728" r="0.558"/>
			<circle style="fill:#231F20;stroke:#FFFFFF;stroke-width:0.085;stroke-miterlimit:10;" cx="30.105" cy="30.542" r="0.558"/>
			<circle style="fill:#231F20;stroke:#FFFFFF;stroke-width:0.085;stroke-miterlimit:10;" cx="39.547" cy="30.542" r="0.558"/>
			<circle style="fill:#231F20;stroke:#FFFFFF;stroke-width:0.085;stroke-miterlimit:10;" cx="30.105" cy="33.728" r="0.558"/>
			<circle style="fill:#231F20;stroke:#FFFFFF;stroke-width:0.085;stroke-miterlimit:10;" cx="39.547" cy="33.728" r="0.558"/>
			<circle style="fill:#231F20;stroke:#FFFFFF;stroke-width:0.085;stroke-miterlimit:10;" cx="25.025" cy="25.626" r="0.558"/>
			<circle style="fill:#231F20;stroke:#FFFFFF;stroke-width:0.085;stroke-miterlimit:10;" cx="32.657" cy="30.542" r="0.558"/>
			<circle style="fill:#231F20;stroke:#FFFFFF;stroke-width:0.085;stroke-miterlimit:10;" cx="36.796" cy="30.542" r="0.558"/>
			<circle style="fill:#231F20;stroke:#FFFFFF;stroke-width:0.085;stroke-miterlimit:10;" cx="23.247" cy="29.442" r="0.558"/>
			<circle style="fill:#231F20;stroke:#FFFFFF;stroke-width:0.085;stroke-miterlimit:10;" cx="26.868" cy="29.442" r="0.558"/>
			<circle style="fill:#231F20;stroke:#FFFFFF;stroke-width:0.085;stroke-miterlimit:10;" cx="13.319" cy="30.542" r="0.558"/>
			<circle style="fill:#231F20;stroke:#FFFFFF;stroke-width:0.085;stroke-miterlimit:10;" cx="17.458" cy="30.542" r="0.558"/>
			<circle style="fill:#231F20;stroke:#FFFFFF;stroke-width:0.085;stroke-miterlimit:10;" cx="11.896" cy="13.953" r="0.558"/>
			<circle style="fill:#231F20;stroke:#FFFFFF;stroke-width:0.085;stroke-miterlimit:10;" cx="14.677" cy="13.953" r="0.558"/>
			<circle style="fill:#231F20;stroke:#FFFFFF;stroke-width:0.085;stroke-miterlimit:10;" cx="35.47" cy="13.953" r="0.558"/>
			<circle style="fill:#231F20;stroke:#FFFFFF;stroke-width:0.085;stroke-miterlimit:10;" cx="38.251" cy="13.953" r="0.558"/>
			<circle style="fill:#231F20;stroke:#FFFFFF;stroke-width:0.085;stroke-miterlimit:10;" cx="18.344" cy="17.714" r="0.558"/>
			<circle style="fill:#231F20;stroke:#FFFFFF;stroke-width:0.085;stroke-miterlimit:10;" cx="31.741" cy="17.714" r="0.558"/>
			<polygon style="fill:#231F20;stroke:#FFFFFF;stroke-width:0.4419;stroke-linejoin:round;stroke-miterlimit:10;" points="
				10.602,33.728 20.045,33.728 20.045,30.542 17.458,30.542 18.344,17.714 23.247,29.442 26.868,29.442 31.741,17.714 
				32.657,30.542 30.105,30.542 30.105,33.728 39.547,33.728 39.547,30.542 36.796,30.542 35.47,13.953 38.251,13.953 
				38.199,10.751 30.729,10.751 25.025,25.626 19.366,10.751 11.896,10.751 11.896,13.953 14.677,13.953 13.319,30.542 
				10.602,30.542 			"/>
			<polyline style="fill:#231F20;stroke:#FFFFFF;stroke-width:0.4419;stroke-linejoin:round;stroke-miterlimit:10;" points="
				11.896,10.751 14.677,13.953 19.366,10.751 18.344,17.714 25.025,25.626 31.741,17.714 30.729,10.751 35.47,13.953 
				38.199,10.751 			"/>
			<polyline style="fill:#231F20;stroke:#FFFFFF;stroke-width:0.4419;stroke-linejoin:round;stroke-miterlimit:10;" points="
				10.602,30.542 20.045,33.728 17.458,30.542 13.319,30.542 10.602,33.728 20.045,30.542 			"/>
			<polyline style="fill:#231F20;stroke:#FFFFFF;stroke-width:0.4419;stroke-linejoin:round;stroke-miterlimit:10;" points="
				39.547,30.542 30.105,33.728 32.657,30.542 36.796,30.542 31.741,17.714 35.47,13.953 			"/>
			<polyline style="fill:#231F20;stroke:#FFFFFF;stroke-width:0.4419;stroke-linejoin:round;stroke-miterlimit:10;" points="
				30.105,30.542 39.547,33.728 36.796,30.542 			"/>
		</g>
	</g>
</g>
<g>
</g>
<g>
</g>
<g>
</g>
<g>
</g>
<g>
</g>
<g>
</g>
</svg>
