<?xml version="1.0" encoding="UTF-8"?>
<svg xmlns="http://www.w3.org/2000/svg" version="1.1" xmlns:cc="http://creativecommons.org/ns#" xmlns:dc="http://purl.org/dc/elements/1.1/" xmlns:inkscape="http://www.inkscape.org/namespaces/inkscape" xmlns:rdf="http://www.w3.org/1999/02/22-rdf-syntax-ns#" xmlns:sodipodi="http://sodipodi.sourceforge.net/DTD/sodipodi-0.dtd" xmlns:svg="http://www.w3.org/2000/svg" viewBox="0 0 176.01 225">
  <!-- Generator: Adobe Illustrator 29.7.1, SVG Export Plug-In . SVG Version: 2.1.1 Build 8)  -->
  <defs>
    <style>
      .st0 {
        fill: #fff;
      }
    </style>
  </defs>
  <g id="svg31" inkscape:version="0.92.4 (5da689c313, 2019-01-14)">
    <sodipodi:namedview id="namedview33" bordercolor="#666666" borderopacity="1" gridtolerance="10" guidetolerance="10" inkscape:current-layer="svg31" inkscape:cx="60.563355" inkscape:cy="161.08333" inkscape:pageopacity="0" inkscape:pageshadow="2" inkscape:window-height="705" inkscape:window-maximized="1" inkscape:window-width="1366" inkscape:window-x="-8" inkscape:window-y="-8" inkscape:zoom="1.3258252" objecttolerance="10" pagecolor="#ffffff" showgrid="false"/>
    <path id="path4" class="st0" d="M0,196.9c0,15.52,12.58,28.1,28.1,28.1h107.87c15.52,0,28.09-12.58,28.09-28.1V27.72C164.06,12.2,151.49-.38,135.97,0H28.1C12.58-.38,0,12.2,0,27.72v169.18Z" inkscape:connector-curvature="0"/>
    <path id="path6" class="st0" d="M28.1,6.03c-11.98,0-21.68,9.71-21.68,21.68v169.18c0,11.97,9.7,21.68,21.68,21.68h107.87c11.97,0,21.68-9.7,21.68-21.68V27.72c0-11.97-9.71-21.68-21.68-21.68H28.1Z" inkscape:connector-curvature="0"/>
    <path id="path8" class="st0" d="M27.97,9.33c-10.16,0-18.39,8.23-18.39,18.39v169.18c0,10.15,8.23,18.39,18.39,18.39h107.87c10.15,0,18.39-8.24,18.39-18.39V27.72c0-10.16-8.24-18.39-18.39-18.39H27.97Z" inkscape:connector-curvature="0"/>
    <path id="path10" class="st0" d="M169.92,218.66c.95,0,2.32.16,2.32-1.19,0-1.04-.85-1.16-1.67-1.16h-1.9v2.35h1.24ZM173.05,222.36h-.97l-1.9-3.06h-1.49v3.06h-.81v-6.64h2.9c1.76,0,2.36.66,2.36,1.76,0,1.31-.91,1.79-2.08,1.83l2.01,3.06ZM175.07,219.03c0-2.89-2.1-5.15-4.99-5.15s-5.03,2.26-5.03,5.15,2.12,5.18,5.03,5.18,4.99-2.26,4.99-5.18M164.12,219.03c0-3.26,2.67-5.93,5.97-5.93s5.93,2.67,5.93,5.93-2.65,5.97-5.93,5.97-5.97-2.67-5.97-5.97" inkscape:connector-curvature="0"/>
    <path id="path12" class="st0" d="M27.53,50.58c0,.68-.41,1.08-1.14,1.08h-1.79v2.39h11.58v-2.39h-1.97c-.73,0-1.15-.4-1.15-1.08v-4.29h3.23c5.41,0,8.26-1.41,8.26-5.13s-2.85-5.11-7.67-5.11h-12.31v2.39h1.82c.73,0,1.14.4,1.14,1.08v11.06ZM33.05,38.44h2.99c1.65,0,2.97,1.05,2.97,2.74s-1.38,2.71-3.44,2.71h-2.52v-5.46Z" inkscape:connector-curvature="0"/>
    <path id="path14" class="st0" d="M67.93,46.94h-1.35c-.73,0-1.15.41-1.15,1.09v6.25h-2.56l-.65-1.33c-1.7,1.22-3.88,1.66-5.79,1.66-6.11,0-10.4-3.2-10.4-9.29s4.15-9.81,10.4-9.81c1.71,0,3.82.52,5.29,1.82l.59-1.52h2.64v6.34s-2.72,0-2.72,0c-.09-2.69-1.83-4.11-4.8-4.11-3.41,0-5.03,2.34-5.03,7.03s1.62,6.95,5.03,6.95c1.12,0,2.46-.41,2.46-1.69v-2.31c0-.68-.41-1.09-1.14-1.09h-1.53v-2.39h10.7v2.39Z" inkscape:connector-curvature="0"/>
    <path id="path16" class="st0" d="M75.69,46.83l2.7-6.05,2.47,6.05h-5.17ZM90.33,51.99c-1.97-.33-2.03-.76-2.77-2.39l-5.8-13.36h-4.43l-5.54,12.35c-.85,1.81-1.4,3.21-3.91,3.44v2.08h8.83v-2.08l-.29-.03c-.68-.1-2.25-.1-2.25-.99,0-.33.2-.84.34-1.17l.35-.85h6.98l.39.85c.11.35.4,1.01.4,1.37,0,.79-1.77.74-2.37.81v2.08h10.4v-2.08l-.31-.03Z" inkscape:connector-curvature="0"/>
    <path id="path18" class="st0" d="M113.71,94.94c-.15-.52-1.15-3.11-1.62-4.47-.06-.18,8.17-5.57,8.17-5.57,0,0,.11.44.17.97,0,0-5.56,8.31-6.73,9.06M141.01,61.34c2.79-2.83,2.86-9.62,2.86-9.62-2.81-5.11-8.69-6.64-8.69-6.64-1.31-.93-2.37-.07-2.79.39h-.02l-47.2-28.81c-3.44-1.78-8.19,4.31-9.38,6.55-.48.81,1.06,2.01,2.11,2.65,4.28,2.8,6.33-4.39,7.9-6.93l45.65,28.81c-.09.03.15,2.38.27,2.48-.03,3.75,2.98,6.85,1.2,12.28-.48,7.6-8.72,9.12-13.19,13.84-4.12,4.04-12.25,3.53-15.66,6.85-.03.03-.09.09-.09.09,0,0-.03-.12-.03-.14-2.94-7.69-4.68-8.12-5.58-11.2-3.6-1.36-7.84-1.68-11.28.16-3.3,2.15-4.95,6.24-4.4,9.84.08,3.68,5.28,7.68,8,9.28-1.75,2.53-2.59,5.62-2.63,6.91-.44,5.45,3.88,10.67,5.1,12.83,5.11,7.58,8,13.59,9.13,15.72.18.41.45.74.19,1.3-.07.15-4.42,7.75,2.76,18.66,2.92,5.61,7.11,18.14,7.15,18.21,1.67,1.78-2.27.68-2.67,4.78-2.82,1.1-24.16,17.43-28.96,21.75-1.92.56-4.4.48-5.2,2.88-.12.19-.87,2.31-1.33,2.82-2.06,2.36-4.45,6.57-4.9,10.69-.47,2.11.06,6.22,2.52,7.31,1.12.49,1.58.14,1.88,0,.32-.16,1.71-3.91,1.88-4.35,1.7-4.13,4.19-5.23,9.94-10.95,2.88.79,4.14,2.5,7.1,3.22,8-7.43,16.05-14.24,23.92-21.86-1.2,11.8-2.32,23.92-2.29,27.17-.51,2.07-.57,5.62.89,7.37,0,0,13.07.76,15.59.58,1.25-.09,1.33-.84,1.33-.84,0,0,1.17-1.76-2-4.11-.92-.68-3.12-3.42-4.83-4.54,2.26-.51,4.63-.89,5.15-.89-.6-6.21-.73-19.61-1.18-37.15-1.94-18.17-2.11-24.28-11.16-61.51,6.41-7.28,6.16-11.8,12.32-19.32,3.31-6.46,8.43-19.58,10.63-26.54" inkscape:connector-curvature="0"/>
    <path id="path20" class="st0" d="M42.92,178.97v-4.22h3.99c1.13,0,1.95.86,1.95,2.04,0,1.33-1.02,2.17-1.93,2.17h-4.01ZM43.57,193.13c-.69,0-.7-.63-.7-.63v-3.89s2.55,0,2.55,0c.79,0,1.19.11,1.19,1,0,.24.02,1.86.02,1.86,0,.5-.04,1.13-.01,1.65h-3.04ZM48.34,113.43c0,6.11-1.34,9.21-3.98,9.21-1.29,0-3.99,0-3.99-9.21s2.8-9.2,3.99-9.2c1.68,0,3.98,0,3.98,9.2M43.52,140.23h5.94s.5.02.5.47,0,13.42,0,15.43c0,1.1-.96,2-3.38,2s-3.66-.89-3.66-1.99v-15.43c0-.4.6-.48.6-.48M62.24,193.21c-.27,0-1.34-.11-1.32-1.29v-1.24c0-1.91-.13-3.9-1.06-5.69-.21-.44-.47-.81-.75-1.16.1-.07.21-.12.31-.2l.05-.04.05-.04c2.08-1.78,3.14-4.16,3.14-7.08,0-1.98-.5-4.04-1.4-5.79l-.04-.08-.04-.07c-1.3-2.17-3.18-3.61-5.69-4.37,3.42-2.02,5.15-5.45,5.15-10.29v-15.64h4.09l-.06-10.23h-9.6c5.57-3.11,8.77-8.88,8.77-16.57,0-8.44-3.63-13.62-8.57-16.44h3.71v-9.52h-7.2v-17.03c1.61.08,2.71,1.71,2.81,4.25l.12,3.15,9.92.03v-17.73H24.33v17.73l9.93-.03.12-3.15c.1-2.54,1.2-4.17,2.81-4.25v17.03h-7.21v9.52h3.09c-4.95,2.82-8.57,8-8.57,16.44,0,7.68,3.2,13.46,8.77,16.57h-8.7v10.22h4.1v16.63c0,3.14,1.44,6.4,4.99,8.63h-9.21s-.03,10.07-.03,10.07c0,0,3.04.03,3.91.02,0,.11.69.01.6.72-.01,2.83-.02,12.96-.01,16.11,0,.85-.6.59-.6.75-.83-.01-3.87.01-3.87.01v9.98h24.46s0-2.91,0-2.94c1.89,2.09,4.62,3.15,8.16,3.15h8.41v-10.12l-3.24-.03Z" inkscape:connector-curvature="0"/>
    <path id="path22" class="st0" d="M61.34,62.82H26.99v12.39h4.71s.02-.61.02-.61c.19-4.73,2.94-6.84,5.58-6.84,1.72,0,2.56.35,2.56,1.07v19.14c0,1.03-.67,2.18-1.64,2.18h-5.57v4.19h23.66v-4.19h-5.57c-.96,0-1.64-1.15-1.64-2.18v-19.14c0-.72.84-1.07,2.56-1.07,2.64,0,5.39,2.11,5.58,6.84l.02.6h4.7s0-12.37,0-12.37h-.63Z" inkscape:connector-curvature="0"/>
    <path id="path24" class="st0" d="M62.02,132.66h-14.11v4.89h2.63c.89,0,1.47.15,1.77.45.32.32.33.81.32,1.58,0,0,0,.41,0,.41,0,0,0,16.99,0,16.99-.11.82-.88,3.76-6.05,3.76-3.96,0-6.32-1.52-6.32-4.06v-17c0-1.97.92-2.13,1.78-2.13h3.15v-4.91h-17.94v4.89h2.02c.89,0,1.47.15,1.77.45.34.35.33.94.31,1.57,0,0,0,.42,0,.42v16.85c0,4.25,3.78,8.79,14.41,8.79s12.23-5.23,12.23-9.77v-16.17c0-1.97.92-2.13,1.78-2.13h2.3l-.03-4.91Z" inkscape:connector-curvature="0"/>
    <path id="path26" class="st0" d="M44.36,125.3c-2.85,0-6.65-1-6.65-11.87,0-8.15,2.17-11.87,6.65-11.87,4.72,0,6.65,3.26,6.65,11.87,0,7.93-2.3,11.87-6.65,11.87M44.17,96.94c-8.22,0-17.01,4.15-17.01,16.49,0,10.48,6.35,16.49,17.01,16.49s17-6.01,17-16.49c0-12.34-8.78-16.49-17-16.49" inkscape:connector-curvature="0"/>
    <path id="path28" class="st0" d="M40.26,172.11c.98,0,4.39.02,6.83.02,2.23,0,3.8.98,4.26,2.68.28,1.05.3,2.73-.18,4.05-.65,1.79-2.08,2.7-4.1,2.7,0,0-5.33,0-6.81,0v-9.45ZM62.34,195.73c-1.2.01-3.93-.08-3.93-3.82v-1.25c0-1.47-.05-3.14-.78-4.49-.68-1.46-2.38-2.31-3.31-2.73,1.19-.38,2.54-1.07,3.62-1.91,1.43-1.23,2.2-2.86,2.2-5.06,0-1.57-.39-3.19-1.1-4.58-1.53-2.55-4.12-3.72-8.17-3.72-.01,0-23.61-.04-23.61-.04v4.8s1.71-.02,3.05-.02,1.48,1.32,1.48,1.32c0,0,.04,14.96.04,19.82,0,.78-.73,1.62-1.45,1.62h-3.14v4.8h19.56v-4.8h-4.87c-.7,0-1.52-.94-1.52-1.74,0,0,0-5.98-.01-7.93h5.8c.64,0,3.15.32,3.1,3.31l-.05,2.06c.03,1.82-.16,3.27.64,5.31,1.31,2.71,3.7,4,7.34,4h5.74v-4.97h-.63Z" inkscape:connector-curvature="0"/>
  </g>
</svg>