<?xml version="1.0" encoding="iso-8859-1"?>
<!-- Generator: Adobe Illustrator 23.0.1, SVG Export Plug-In . SVG Version: 6.00 Build 0)  -->
<svg version="1.1" id="Layer_1" xmlns="http://www.w3.org/2000/svg" xmlns:xlink="http://www.w3.org/1999/xlink" x="0px" y="0px"
	 viewBox="0 0 219.038 45.534" style="enable-background:new 0 0 219.038 45.534;" xml:space="preserve">
<rect x="-18.918" y="-23.31" style="fill:none;" width="258.934" height="93"/>
<g>
	<g>
		<path style="fill:#141721;" d="M58.687,12.007h1.712V1.079h-1.712V0h5.957c0.8,0,1.62,0.074,2.234,0.372
			c1.284,0.577,2.104,1.88,2.104,3.556c0,1.806-0.931,3.202-2.383,3.724c-0.614,0.204-1.229,0.26-1.936,0.26h-2.96v4.096h1.712v1.08
			h-4.728V12.007z M64.532,6.795c0.614,0,1.136-0.075,1.583-0.261c0.968-0.392,1.545-1.322,1.545-2.606
			c0-1.191-0.502-2.048-1.359-2.494c-0.465-0.205-1.08-0.316-1.769-0.316h-2.83v5.678H64.532z"/>
	</g>
	<g>
		<path style="fill:#141721;" d="M75.217,3.5c2.736,0,4.952,2.085,4.952,4.858c0,2.829-2.215,4.952-4.952,4.952
			c-2.718,0-4.933-2.123-4.933-4.952C70.284,5.585,72.499,3.5,75.217,3.5z M75.217,12.175c2.01,0,3.648-1.639,3.648-3.816
			c0-2.122-1.638-3.724-3.648-3.724c-1.992,0-3.63,1.602-3.63,3.724C71.586,10.536,73.225,12.175,75.217,12.175z"/>
	</g>
	<g>
		<path style="fill:#141721;" d="M81.08,3.723h3.872v1.043h-1.396l1.955,6.292c0.112,0.335,0.149,0.726,0.149,0.726h0.037
			c0,0,0.056-0.391,0.149-0.726l2.346-7.298h1.247l2.346,7.298c0.093,0.335,0.149,0.726,0.149,0.726h0.037
			c0,0,0.038-0.391,0.13-0.726l1.974-6.292h-1.396V3.723h3.872v1.043h-1.21l-2.662,8.321h-1.358L89.01,6.068
			c-0.111-0.335-0.167-0.744-0.167-0.744h-0.056c0,0-0.056,0.409-0.167,0.744l-2.309,7.019h-1.377l-2.662-8.321H81.08V3.723z"/>
	</g>
	<g>
		<path style="fill:#141721;" d="M102.133,3.5c2.588,0,3.928,1.991,3.928,4.318c0,0.224-0.056,0.596-0.056,0.596h-7.186
			c0.056,2.401,1.694,3.761,3.63,3.761c1.713,0,2.849-1.117,2.849-1.117l0.577,0.949c0,0-1.341,1.304-3.463,1.304
			c-2.792,0-4.896-2.011-4.896-4.896C97.517,5.343,99.602,3.5,102.133,3.5z M104.739,7.483c-0.074-1.974-1.266-2.923-2.644-2.923
			c-1.563,0-2.923,1.024-3.221,2.923H104.739z"/>
	</g>
	<g>
		<path style="fill:#141721;" d="M107.865,12.044h1.452V5.175c0-0.279-0.148-0.409-0.409-0.409h-1.266V3.723h1.769
			c0.781,0,1.135,0.316,1.135,1.062v0.633c0,0.391-0.037,0.707-0.037,0.707h0.037c0.466-1.414,1.509-2.494,2.96-2.494
			c0.261,0,0.521,0.056,0.521,0.056v1.247c0,0-0.242-0.037-0.483-0.037c-2.104,0-2.96,2.364-2.96,4.226v2.923h1.451v1.043h-4.17
			V12.044z"/>
	</g>
	<g>
		<path style="fill:#141721;" d="M119.724,3.5c2.587,0,3.928,1.991,3.928,4.318c0,0.224-0.056,0.596-0.056,0.596h-7.186
			c0.056,2.401,1.693,3.761,3.63,3.761c1.713,0,2.848-1.117,2.848-1.117l0.577,0.949c0,0-1.34,1.304-3.462,1.304
			c-2.793,0-4.896-2.011-4.896-4.896C115.106,5.343,117.191,3.5,119.724,3.5z M122.329,7.483c-0.074-1.974-1.266-2.923-2.643-2.923
			c-1.564,0-2.923,1.024-3.221,2.923H122.329z"/>
	</g>
	<g>
		<path style="fill:#141721;" d="M129.626,3.5c2.233,0,3.053,1.824,3.053,1.824h0.037c0,0-0.056-0.316-0.056-0.727V1.042h-1.675V0
			h2.94v11.635c0,0.279,0.149,0.409,0.41,0.409h1.042v1.043h-1.545c-0.801,0-1.117-0.354-1.117-1.024v-0.167
			c0-0.372,0.075-0.577,0.075-0.577h-0.038c0,0-0.8,1.992-3.295,1.992c-2.513,0-4.058-2.011-4.058-4.896
			C125.4,5.436,127.132,3.5,129.626,3.5z M129.663,12.175c1.563,0,3.034-1.117,3.034-3.761c0-1.917-0.968-3.761-2.96-3.761
			c-1.675,0-3.034,1.378-3.034,3.761C126.703,10.704,127.913,12.175,129.663,12.175z"/>
	</g>
	<g>
		<path style="fill:#141721;" d="M142.339,1.042h-1.675V0h2.941v4.616c0,0.447-0.057,0.782-0.057,0.782h0.038
			c0,0,0.818-1.898,3.201-1.898c2.514,0,4.077,2.01,4.077,4.914c0,2.96-1.769,4.896-4.226,4.896c-2.253,0-3.091-1.918-3.091-1.918
			h-0.037c0,0,0.057,0.335,0.057,0.782v0.912h-1.229V1.042z M146.547,12.175c1.656,0,3.034-1.378,3.034-3.761
			c0-2.29-1.229-3.761-2.979-3.761c-1.564,0-3.034,1.117-3.034,3.779C143.568,10.313,144.555,12.175,146.547,12.175z"/>
	</g>
	<g>
		<path style="fill:#141721;" d="M154.104,15.879c0.838,0,1.434-0.67,1.787-1.489l0.521-1.247l-3.352-8.377h-1.229V3.723h3.928
			v1.043h-1.358l2.457,6.385c0.112,0.354,0.149,0.671,0.149,0.671h0.056c0,0,0.056-0.317,0.186-0.671l2.458-6.385h-1.359V3.723
			h3.872v1.043h-1.229l-3.983,10.053c-0.54,1.34-1.564,2.178-2.867,2.178c-1.062,0-1.769-0.559-1.769-0.559l0.484-1.005
			C152.856,15.433,153.397,15.879,154.104,15.879z"/>
	</g>
</g>
<g>
	<g>
		<g>
			<g>
				<path style="fill:#141721;" d="M57.969,41.205h3.307l1.653-20.192h-3.385v-3.897h9.093l6.219,15.784
					c0.472,1.378,0.669,2.322,0.669,2.322h0.079c0,0,0.197-0.945,0.709-2.322l6.18-15.784h9.092v3.897h-3.346l1.614,20.192h3.306
					v3.857H81.704v-3.857h3.11L83.79,27.113c-0.079-0.984,0.118-2.598,0.118-2.598H83.79c0,0-0.315,1.535-0.669,2.48l-5.353,12.871
					h-4.408l-5.353-12.871c-0.354-0.945-0.63-2.48-0.63-2.48h-0.158c0,0,0.197,1.614,0.118,2.598l-1.023,14.091h3.149v3.857H57.969
					V41.205z"/>
			</g>
			<g>
				<path style="fill:#141721;" d="M117.895,28.727h-3.07v-3.739h3.228l0.014-5.471h4.842l-0.014,5.471h4.566v3.739h-4.566v8.463
					c0,3.424,2.598,3.897,4.015,3.897c0.551,0,0.905-0.04,0.905-0.04v4.093c0,0-0.63,0.118-1.535,0.118
					c-2.834,0-8.384-0.826-8.384-7.557V28.727z"/>
			</g>
			<g>
				<path style="fill:#141721;" d="M128.876,41.323h2.913V28.727h-3.11v-3.739h8.108v16.335h2.873v3.739h-10.785V41.323z"/>
			</g>
			<g>
				<path style="fill:#141721;" d="M137.91,24.988h10.477v3.739h-2.243l3.464,9.919c0.393,1.023,0.511,2.204,0.511,2.204h0.118
					c0,0,0.118-1.181,0.472-2.204l3.503-9.919h-2.283v-3.739h9.644v3.739h-2.401l-6.14,16.335h-5.747l-6.101-16.335h-3.274V24.988z"
					/>
			</g>
			<g>
				<path style="fill:#141721;" d="M171.153,24.515c5.786,0,8.935,4.212,8.935,9.525c0,0.59-0.118,1.692-0.118,1.692h-13.895
					c0.315,3.7,2.991,5.59,6.022,5.59c3.267,0,5.825-2.126,5.825-2.126l1.929,3.542c0,0-3.07,2.795-8.108,2.795
					c-6.652,0-10.785-4.802-10.785-10.509C160.958,28.845,165.131,24.515,171.153,24.515z M174.931,32.781
					c-0.079-2.755-1.771-4.408-3.897-4.408c-2.559,0-4.369,1.771-4.842,4.408H174.931z"/>
			</g>
			<g>
				<path style="fill:#141721;" d="M182.764,41.795h3.188v3.267h-3.188V41.795z"/>
			</g>
			<g>
				<path style="fill:#141721;" d="M188.565,42.857h3.346v-15.39h-3.542v-2.204h6.219v17.594h3.345v2.204h-9.368V42.857z
					 M191.754,17.391h3.031v3.346h-3.031V17.391z"/>
			</g>
			<g>
				<path style="fill:#141721;" d="M208.568,24.791c5.786,0,10.47,4.408,10.47,10.273c0,5.983-4.684,10.47-10.47,10.47
					c-5.746,0-10.43-4.487-10.43-10.47C198.137,29.199,202.821,24.791,208.568,24.791z M208.568,43.133
					c4.251,0,7.715-3.464,7.715-8.069c0-4.487-3.464-7.872-7.715-7.872c-4.212,0-7.675,3.385-7.675,7.872
					C200.892,39.669,204.356,43.133,208.568,43.133z"/>
			</g>
		</g>
		<g>
			<rect x="131.716" y="16.55" style="fill:#141721;" width="5.046" height="5.046"/>
		</g>
		<g>
			<rect x="120.033" y="24.979" style="fill:#141721;" width="28.354" height="3.748"/>
		</g>
		<g>
			<path style="fill:#141721;" d="M104.202,24.515c6.14,0,11.06,4.369,11.06,10.51c0,6.18-4.92,10.509-11.021,10.509
				c-6.14,0-11.06-4.33-11.06-10.509C93.18,28.884,98.101,24.515,104.202,24.515z M104.241,41.283c3.228,0,5.943-2.519,5.943-6.258
				c0-3.7-2.716-6.258-5.943-6.258c-3.267,0-5.983,2.558-5.983,6.258C98.258,38.764,100.974,41.283,104.241,41.283z"/>
		</g>
	</g>
</g>
<g>
	<g>
		<path style="fill:#141721;" d="M34.074,0.201H15.471c-1.989,0-4.429,1.409-5.423,3.131L0.746,19.443
			c-0.994,1.722-0.994,4.54,0,6.262l9.302,16.111c0.994,1.722,3.435,3.131,5.423,3.131h18.604c1.989,0,4.429-1.409,5.423-3.131
			L48.8,25.706c0.994-1.722,0.994-4.54,0-6.262L39.498,3.332C38.503,1.61,36.063,0.201,34.074,0.201L34.074,0.201z"/>
	</g>
	<g>
		<g>
			<g>
				<path style="fill:#141721;" d="M10.696,33.928l-0.187-0.4l4.339-2.017l-1.625-0.77c-0.103-0.049-0.152-0.168-0.113-0.275
					l2.826-7.662l-1.478-8.815c-0.016-0.096,0.033-0.191,0.12-0.234c0.087-0.045,0.192-0.024,0.259,0.048l3.41,3.657
					c0.057,0.061,0.075,0.148,0.046,0.227l-1.903,5.16l1.284,7.66c0.017,0.098-0.035,0.194-0.125,0.236l-1.662,0.772l4.25,2.014
					l-0.189,0.398l-4.583-2.17L10.696,33.928z M13.596,30.429l1.773,0.84l1.843-0.856l-1.128-6.73L13.596,30.429z M15.017,14.64
					l1.228,7.328l1.588-4.308L15.017,14.64z"/>
			</g>
			<g>
				<path style="fill:#141721;" d="M26.868,29.663c-0.084,0-0.162-0.048-0.199-0.125l-1.641-3.396l-1.582,3.394
					c-0.04,0.086-0.132,0.138-0.226,0.126c-0.095-0.011-0.171-0.082-0.191-0.175l-3.826-18.427l-7.221,3.095l-0.174-0.406
					l7.47-3.201c0.061-0.025,0.13-0.023,0.189,0.007c0.059,0.031,0.101,0.087,0.114,0.151l3.746,18.039l1.497-3.212
					c0.036-0.077,0.113-0.127,0.199-0.127c0,0,0.001,0,0.001,0c0.085,0,0.162,0.048,0.199,0.125l1.56,3.229l3.729-18.054
					c0.013-0.064,0.055-0.12,0.114-0.15c0.06-0.032,0.127-0.033,0.189-0.008l7.522,3.201l-0.173,0.406l-7.274-3.096l-3.806,18.428
					c-0.019,0.093-0.095,0.163-0.189,0.175C26.886,29.663,26.877,29.663,26.868,29.663z"/>
			</g>
			<g>
				<path style="fill:#141721;" d="M39.488,33.999l-6.978-3.141c-0.092-0.041-0.144-0.139-0.127-0.238l2.86-16.746l0.436,0.074
					l-2.832,16.578l6.822,3.07L39.488,33.999z"/>
			</g>
			<g>
				<path style="fill:#141721;" d="M30.042,33.858l-0.186-0.4l6.594-3.061l-5.933-19.582l0.423-0.129l5.989,19.767
					c0.032,0.105-0.019,0.219-0.119,0.265L30.042,33.858z"/>
			</g>
			<g>
				
					<rect x="5.995" y="20.425" transform="matrix(0.2916 -0.9565 0.9565 0.2916 -8.1723 30.258)" style="fill:#141721;" width="20.694" height="0.442"/>
			</g>
			<g>
				<circle style="fill:#141721;" cx="11.896" cy="10.751" r="0.558"/>
				<path style="fill:#141721;" d="M11.896,11.353c-0.332,0-0.601-0.271-0.601-0.602s0.27-0.601,0.601-0.601
					c0.331,0,0.601,0.27,0.601,0.601S12.227,11.353,11.896,11.353z M11.896,10.236c-0.285,0-0.516,0.23-0.516,0.515
					s0.231,0.516,0.516,0.516c0.284,0,0.516-0.231,0.516-0.516S12.18,10.236,11.896,10.236z"/>
			</g>
			<g>
				<circle style="fill:#141721;" cx="19.366" cy="10.751" r="0.558"/>
				<path style="fill:#141721;" d="M19.366,11.353c-0.331,0-0.601-0.271-0.601-0.602s0.27-0.601,0.601-0.601
					c0.332,0,0.601,0.27,0.601,0.601S19.697,11.353,19.366,11.353z M19.366,10.236c-0.284,0-0.516,0.23-0.516,0.515
					s0.231,0.516,0.516,0.516c0.285,0,0.516-0.231,0.516-0.516S19.65,10.236,19.366,10.236z"/>
			</g>
			<g>
				<circle style="fill:#141721;" cx="30.729" cy="10.751" r="0.558"/>
				<path style="fill:#141721;" d="M30.729,11.353c-0.331,0-0.601-0.271-0.601-0.602s0.27-0.601,0.601-0.601s0.601,0.27,0.601,0.601
					S31.06,11.353,30.729,11.353z M30.729,10.236c-0.284,0-0.516,0.23-0.516,0.515s0.231,0.516,0.516,0.516s0.516-0.231,0.516-0.516
					S31.013,10.236,30.729,10.236z"/>
			</g>
			<g>
				<circle style="fill:#141721;" cx="38.199" cy="10.751" r="0.558"/>
				<path style="fill:#141721;" d="M38.199,11.353c-0.331,0-0.601-0.271-0.601-0.602s0.27-0.601,0.601-0.601s0.601,0.27,0.601,0.601
					S38.53,11.353,38.199,11.353z M38.199,10.236c-0.284,0-0.516,0.23-0.516,0.515s0.231,0.516,0.516,0.516s0.516-0.231,0.516-0.516
					S38.483,10.236,38.199,10.236z"/>
			</g>
			<g>
				<circle style="fill:#141721;" cx="10.602" cy="30.542" r="0.558"/>
				<path style="fill:#141721;" d="M10.603,31.143c-0.331,0-0.601-0.27-0.601-0.601s0.27-0.602,0.601-0.602s0.601,0.271,0.601,0.602
					S10.934,31.143,10.603,31.143z M10.603,30.026c-0.284,0-0.516,0.231-0.516,0.516s0.231,0.515,0.516,0.515
					s0.516-0.23,0.516-0.515S10.887,30.026,10.603,30.026z"/>
			</g>
			<g>
				<circle style="fill:#141721;" cx="20.045" cy="30.542" r="0.558"/>
				<path style="fill:#141721;" d="M20.045,31.143c-0.331,0-0.601-0.27-0.601-0.601s0.27-0.602,0.601-0.602s0.601,0.271,0.601,0.602
					S20.376,31.143,20.045,31.143z M20.045,30.026c-0.284,0-0.516,0.231-0.516,0.516s0.231,0.515,0.516,0.515
					s0.516-0.23,0.516-0.515S20.329,30.026,20.045,30.026z"/>
			</g>
			<g>
				<circle style="fill:#141721;" cx="10.602" cy="33.728" r="0.558"/>
				<path style="fill:#141721;" d="M10.603,34.329c-0.331,0-0.601-0.271-0.601-0.602s0.27-0.601,0.601-0.601s0.601,0.27,0.601,0.601
					S10.934,34.329,10.603,34.329z M10.603,33.213c-0.284,0-0.516,0.23-0.516,0.515s0.231,0.516,0.516,0.516
					s0.516-0.231,0.516-0.516S10.887,33.213,10.603,33.213z"/>
			</g>
			<g>
				<circle style="fill:#141721;" cx="20.045" cy="33.728" r="0.558"/>
				<path style="fill:#141721;" d="M20.045,34.329c-0.331,0-0.601-0.271-0.601-0.602s0.27-0.601,0.601-0.601s0.601,0.27,0.601,0.601
					S20.376,34.329,20.045,34.329z M20.045,33.213c-0.284,0-0.516,0.23-0.516,0.515s0.231,0.516,0.516,0.516
					s0.516-0.231,0.516-0.516S20.329,33.213,20.045,33.213z"/>
			</g>
			<g>
				<circle style="fill:#141721;" cx="30.105" cy="30.542" r="0.558"/>
				<path style="fill:#141721;" d="M30.105,31.143c-0.331,0-0.601-0.27-0.601-0.601s0.27-0.602,0.601-0.602s0.601,0.271,0.601,0.602
					S30.436,31.143,30.105,31.143z M30.105,30.026c-0.284,0-0.516,0.231-0.516,0.516s0.231,0.515,0.516,0.515
					s0.516-0.23,0.516-0.515S30.389,30.026,30.105,30.026z"/>
			</g>
			<g>
				<circle style="fill:#141721;" cx="39.547" cy="30.542" r="0.558"/>
				<path style="fill:#141721;" d="M39.547,31.143c-0.331,0-0.601-0.27-0.601-0.601s0.27-0.602,0.601-0.602s0.601,0.271,0.601,0.602
					S39.878,31.143,39.547,31.143z M39.547,30.026c-0.284,0-0.516,0.231-0.516,0.516s0.231,0.515,0.516,0.515
					s0.516-0.23,0.516-0.515S39.832,30.026,39.547,30.026z"/>
			</g>
			<g>
				<circle style="fill:#141721;" cx="30.105" cy="33.728" r="0.558"/>
				<path style="fill:#141721;" d="M30.105,34.329c-0.331,0-0.601-0.271-0.601-0.602s0.27-0.601,0.601-0.601s0.601,0.27,0.601,0.601
					S30.436,34.329,30.105,34.329z M30.105,33.213c-0.284,0-0.516,0.23-0.516,0.515s0.231,0.516,0.516,0.516
					s0.516-0.231,0.516-0.516S30.389,33.213,30.105,33.213z"/>
			</g>
			<g>
				<circle style="fill:#141721;" cx="39.547" cy="33.728" r="0.558"/>
				<path style="fill:#141721;" d="M39.547,34.329c-0.331,0-0.601-0.271-0.601-0.602s0.27-0.601,0.601-0.601s0.601,0.27,0.601,0.601
					S39.878,34.329,39.547,34.329z M39.547,33.213c-0.284,0-0.516,0.23-0.516,0.515s0.231,0.516,0.516,0.516
					s0.516-0.231,0.516-0.516S39.832,33.213,39.547,33.213z"/>
			</g>
			<g>
				<circle style="fill:#141721;" cx="25.025" cy="25.626" r="0.558"/>
				<path style="fill:#141721;" d="M25.025,26.228c-0.331,0-0.601-0.27-0.601-0.601s0.27-0.602,0.601-0.602s0.601,0.271,0.601,0.602
					S25.356,26.228,25.025,26.228z M25.025,25.111c-0.284,0-0.516,0.231-0.516,0.516s0.231,0.515,0.516,0.515
					s0.516-0.23,0.516-0.515S25.309,25.111,25.025,25.111z"/>
			</g>
			<g>
				<circle style="fill:#141721;" cx="32.657" cy="30.542" r="0.558"/>
				<path style="fill:#141721;" d="M32.657,31.143c-0.331,0-0.601-0.27-0.601-0.601s0.27-0.602,0.601-0.602s0.601,0.271,0.601,0.602
					S32.988,31.143,32.657,31.143z M32.657,30.026c-0.284,0-0.516,0.231-0.516,0.516s0.231,0.515,0.516,0.515
					s0.516-0.23,0.516-0.515S32.941,30.026,32.657,30.026z"/>
			</g>
			<g>
				<circle style="fill:#141721;" cx="36.796" cy="30.542" r="0.558"/>
				<path style="fill:#141721;" d="M36.796,31.143c-0.331,0-0.601-0.27-0.601-0.601s0.27-0.602,0.601-0.602s0.601,0.271,0.601,0.602
					S37.127,31.143,36.796,31.143z M36.796,30.026c-0.284,0-0.516,0.231-0.516,0.516s0.231,0.515,0.516,0.515
					s0.516-0.23,0.516-0.515S37.08,30.026,36.796,30.026z"/>
			</g>
			<g>
				<circle style="fill:#141721;" cx="23.247" cy="29.442" r="0.558"/>
				<path style="fill:#141721;" d="M23.247,30.043c-0.331,0-0.601-0.27-0.601-0.601s0.27-0.602,0.601-0.602s0.601,0.271,0.601,0.602
					S23.578,30.043,23.247,30.043z M23.247,28.927c-0.284,0-0.516,0.231-0.516,0.516s0.231,0.515,0.516,0.515
					s0.516-0.23,0.516-0.515S23.531,28.927,23.247,28.927z"/>
			</g>
			<g>
				<circle style="fill:#141721;" cx="26.868" cy="29.442" r="0.558"/>
				<path style="fill:#141721;" d="M26.868,30.043c-0.331,0-0.601-0.27-0.601-0.601s0.27-0.602,0.601-0.602s0.601,0.271,0.601,0.602
					S27.199,30.043,26.868,30.043z M26.868,28.927c-0.284,0-0.516,0.231-0.516,0.516s0.231,0.515,0.516,0.515
					s0.516-0.23,0.516-0.515S27.152,28.927,26.868,28.927z"/>
			</g>
			<g>
				<circle style="fill:#141721;" cx="13.319" cy="30.542" r="0.558"/>
				<path style="fill:#141721;" d="M13.319,31.143c-0.331,0-0.601-0.27-0.601-0.601s0.27-0.602,0.601-0.602
					c0.332,0,0.601,0.271,0.601,0.602S13.65,31.143,13.319,31.143z M13.319,30.026c-0.284,0-0.516,0.231-0.516,0.516
					s0.231,0.515,0.516,0.515c0.285,0,0.516-0.23,0.516-0.515S13.604,30.026,13.319,30.026z"/>
			</g>
			<g>
				<circle style="fill:#141721;" cx="17.458" cy="30.542" r="0.558"/>
				<path style="fill:#141721;" d="M17.458,31.143c-0.331,0-0.601-0.27-0.601-0.601s0.27-0.602,0.601-0.602
					c0.332,0,0.601,0.271,0.601,0.602S17.79,31.143,17.458,31.143z M17.458,30.026c-0.284,0-0.516,0.231-0.516,0.516
					s0.231,0.515,0.516,0.515c0.285,0,0.516-0.23,0.516-0.515S17.743,30.026,17.458,30.026z"/>
			</g>
			<g>
				<circle style="fill:#141721;" cx="11.896" cy="13.953" r="0.558"/>
				<path style="fill:#141721;" d="M11.896,14.554c-0.332,0-0.601-0.271-0.601-0.602s0.27-0.601,0.601-0.601
					c0.331,0,0.601,0.27,0.601,0.601S12.227,14.554,11.896,14.554z M11.896,13.438c-0.285,0-0.516,0.23-0.516,0.515
					s0.231,0.516,0.516,0.516c0.284,0,0.516-0.231,0.516-0.516S12.18,13.438,11.896,13.438z"/>
			</g>
			<g>
				<circle style="fill:#141721;" cx="14.677" cy="13.953" r="0.558"/>
				<path style="fill:#141721;" d="M14.677,14.554c-0.332,0-0.601-0.271-0.601-0.602s0.27-0.601,0.601-0.601
					c0.331,0,0.601,0.27,0.601,0.601S15.008,14.554,14.677,14.554z M14.677,13.438c-0.285,0-0.516,0.23-0.516,0.515
					s0.231,0.516,0.516,0.516c0.284,0,0.516-0.231,0.516-0.516S14.961,13.438,14.677,13.438z"/>
			</g>
			<g>
				<circle style="fill:#141721;" cx="35.47" cy="13.953" r="0.558"/>
				<path style="fill:#141721;" d="M35.47,14.554c-0.332,0-0.601-0.271-0.601-0.602s0.27-0.601,0.601-0.601
					c0.331,0,0.601,0.27,0.601,0.601S35.801,14.554,35.47,14.554z M35.47,13.438c-0.285,0-0.516,0.23-0.516,0.515
					s0.231,0.516,0.516,0.516c0.284,0,0.516-0.231,0.516-0.516S35.754,13.438,35.47,13.438z"/>
			</g>
			<g>
				<circle style="fill:#141721;" cx="38.251" cy="13.953" r="0.558"/>
				<path style="fill:#141721;" d="M38.252,14.554c-0.332,0-0.601-0.271-0.601-0.602s0.27-0.601,0.601-0.601
					c0.331,0,0.601,0.27,0.601,0.601S38.583,14.554,38.252,14.554z M38.252,13.438c-0.285,0-0.516,0.23-0.516,0.515
					s0.231,0.516,0.516,0.516c0.284,0,0.516-0.231,0.516-0.516S38.536,13.438,38.252,13.438z"/>
			</g>
			<g>
				<circle style="fill:#141721;" cx="18.344" cy="17.714" r="0.558"/>
				<path style="fill:#141721;" d="M18.344,18.315c-0.331,0-0.601-0.271-0.601-0.602s0.27-0.601,0.601-0.601
					c0.332,0,0.601,0.27,0.601,0.601S18.675,18.315,18.344,18.315z M18.344,17.199c-0.284,0-0.516,0.23-0.516,0.515
					s0.231,0.516,0.516,0.516c0.285,0,0.516-0.231,0.516-0.516S18.628,17.199,18.344,17.199z"/>
			</g>
			<g>
				<circle style="fill:#141721;" cx="31.741" cy="17.714" r="0.558"/>
				<path style="fill:#141721;" d="M31.741,18.315c-0.331,0-0.601-0.271-0.601-0.602s0.27-0.601,0.601-0.601s0.601,0.27,0.601,0.601
					S32.072,18.315,31.741,18.315z M31.741,17.199c-0.284,0-0.516,0.23-0.516,0.515s0.231,0.516,0.516,0.516
					s0.516-0.231,0.516-0.516S32.025,17.199,31.741,17.199z"/>
			</g>
			<g>
				<path style="fill:#141721;" d="M39.547,33.948h-9.443c-0.122,0-0.221-0.099-0.221-0.221v-3.186c0-0.122,0.099-0.221,0.221-0.221
					h2.315L31.587,18.66l-4.515,10.867c-0.034,0.082-0.115,0.136-0.204,0.136h-3.622c-0.089,0-0.169-0.054-0.204-0.136L18.5,18.66
					l-0.805,11.661h2.35c0.122,0,0.221,0.099,0.221,0.221v3.186c0,0.122-0.099,0.221-0.221,0.221h-9.442
					c-0.122,0-0.221-0.099-0.221-0.221v-3.186c0-0.122,0.099-0.221,0.221-0.221h2.513l1.322-16.148h-2.542
					c-0.122,0-0.221-0.099-0.221-0.221v-3.201c0-0.122,0.099-0.221,0.221-0.221h7.47c0.092,0,0.174,0.057,0.207,0.143l5.454,14.335
					l5.497-14.336c0.033-0.086,0.115-0.142,0.207-0.142h7.47c0.121,0,0.219,0.097,0.221,0.217l0.052,3.201
					c0.001,0.06-0.021,0.116-0.063,0.159c-0.042,0.042-0.099,0.065-0.158,0.065H35.71L37,30.321h2.547
					c0.122,0,0.221,0.099,0.221,0.221v3.186C39.769,33.85,39.669,33.948,39.547,33.948z M30.326,33.507h9v-2.744h-2.53
					c-0.115,0-0.211-0.088-0.22-0.203L35.25,13.97c-0.005-0.062,0.016-0.122,0.058-0.167c0.042-0.046,0.101-0.071,0.162-0.071h2.557
					l-0.045-2.76h-7.101l-5.649,14.734c-0.033,0.086-0.115,0.142-0.207,0.142c0,0,0,0,0,0c-0.091,0-0.173-0.057-0.206-0.143
					l-5.605-14.733h-7.096v2.76h2.56c0.062,0,0.121,0.025,0.163,0.071c0.042,0.045,0.063,0.105,0.058,0.167l-1.358,16.59
					c-0.009,0.115-0.105,0.203-0.22,0.203h-2.495v2.744h9v-2.744h-2.366c-0.061,0-0.12-0.025-0.162-0.07
					c-0.042-0.044-0.063-0.104-0.059-0.166l0.886-12.828c0.007-0.102,0.083-0.186,0.184-0.202c0.104-0.019,0.2,0.039,0.24,0.133
					l4.846,11.593h3.327l4.816-11.593c0.04-0.094,0.137-0.148,0.24-0.133c0.101,0.017,0.177,0.1,0.185,0.202l0.916,12.828
					c0.004,0.062-0.017,0.121-0.059,0.166c-0.042,0.045-0.1,0.07-0.162,0.07h-2.331V33.507z"/>
			</g>
			<g>
				<path style="fill:#141721;" d="M25.025,25.848C25.025,25.848,25.025,25.848,25.025,25.848c-0.065,0-0.127-0.028-0.169-0.078
					l-6.681-7.913c-0.041-0.049-0.059-0.112-0.05-0.175l0.949-6.464l-4.272,2.917c-0.093,0.062-0.218,0.048-0.292-0.038
					l-2.781-3.201l0.334-0.289l2.652,3.053l4.526-3.091c0.072-0.049,0.167-0.052,0.242-0.005c0.074,0.047,0.114,0.133,0.102,0.22
					l-1.008,6.864l6.449,7.638l6.482-7.639l-0.998-6.863c-0.013-0.087,0.027-0.173,0.101-0.22c0.075-0.047,0.168-0.043,0.241,0.004
					l4.578,3.091l2.601-3.051l0.336,0.287l-2.729,3.201c-0.073,0.086-0.199,0.103-0.292,0.04l-4.327-2.922l0.94,6.468
					c0.009,0.063-0.009,0.127-0.05,0.175l-6.716,7.913C25.151,25.819,25.09,25.848,25.025,25.848z"/>
			</g>
			<g>
				<path style="fill:#141721;" d="M20.045,33.948c-0.023,0-0.047-0.004-0.071-0.012l-4.65-1.568l-4.65,1.568
					c-0.097,0.031-0.199-0.004-0.254-0.085c-0.056-0.082-0.049-0.191,0.015-0.268l1.897-2.226l-1.8-0.607l0.142-0.418l1.968,0.663
					l0.51-0.598c0.042-0.049,0.103-0.077,0.168-0.077h4.139c0.066,0,0.129,0.029,0.171,0.081l0.459,0.566l1.885-0.636l0.142,0.418
					l-1.729,0.584l1.83,2.253c0.062,0.077,0.066,0.185,0.01,0.266C20.184,33.914,20.116,33.948,20.045,33.948z M16.015,32.135
					l3.377,1.14l-1.453-1.789L16.015,32.135z M12.783,31.511l-1.494,1.752l3.343-1.128L12.783,31.511z M13.092,31.148l2.232,0.753
					l2.318-0.782l-0.289-0.356h-3.932L13.092,31.148z"/>
			</g>
			<g>
				<path style="fill:#141721;" d="M30.105,33.948c-0.071,0-0.139-0.034-0.181-0.094c-0.056-0.081-0.053-0.188,0.009-0.265
					l2.552-3.186c0.042-0.053,0.105-0.083,0.172-0.083h3.814l-4.936-12.526c-0.032-0.082-0.013-0.175,0.049-0.236l3.729-3.762
					l0.313,0.311l-3.628,3.659l5.002,12.694c0.027,0.068,0.018,0.145-0.023,0.205s-0.109,0.097-0.183,0.097h-4.033l-2.014,2.515
					l8.728-2.944l0.142,0.418l-9.443,3.186C30.152,33.944,30.128,33.948,30.105,33.948z"/>
			</g>
			<g>
				<path style="fill:#141721;" d="M39.547,33.948c-0.023,0-0.047-0.004-0.071-0.012l-9.443-3.186l0.142-0.418l8.676,2.927
					l-2.222-2.573l0.334-0.289l2.751,3.186c0.065,0.075,0.072,0.186,0.017,0.268C39.689,33.913,39.62,33.948,39.547,33.948z"/>
			</g>
		</g>
	</g>
</g>
<g>
</g>
<g>
</g>
<g>
</g>
<g>
</g>
<g>
</g>
<g>
</g>
</svg>
