<?xml version="1.0" encoding="UTF-8"?>
<svg id="Layer_1" data-name="Layer 1" xmlns="http://www.w3.org/2000/svg" viewBox="0 0 366.16 180.79">
  <defs>
    <style>
      .cls-1 {
        fill: #66bc46;
      }
    </style>
  </defs>
  <path class="cls-1" d="M366.16,180.79h-82.53V0h82.53v180.79ZM309.7,26.33v29.64h30.39v-29.64h-30.39ZM309.7,76.88v29.64h30.39v-29.64h-30.39Z"/>
  <path class="cls-1" d="M271.52,180.79h-82.53V0h82.53v180.79ZM215.06,26.33v29.64h30.39v-29.64h-30.39ZM215.06,76.88v29.64h30.39v-29.64h-30.39Z"/>
  <path class="cls-1" d="M176.88,180.79H0V0h176.88v180.79ZM122.61,26.5l-34.16,48.07L54.29,26.5H20.08l51.67,67.75-45.85,60.42h34.22l28.34-40.33,28.35,40.33h34.22l-45.85-60.42,51.67-67.75h-34.22Z"/>
</svg>