<?xml version="1.0" encoding="UTF-8"?>
<svg id="Layer_1" data-name="Layer 1" xmlns="http://www.w3.org/2000/svg" viewBox="0 0 2000 501.99">
  <defs>
    <style>
      .cls-1 {
        fill: #020202;
      }

      .cls-1, .cls-2 {
        stroke-width: 0px;
      }

      .cls-2 {
        fill: #fff;
      }
    </style>
  </defs>
  <g>
    <path class="cls-2" d="M237.07,153.2c-12.79-12.59-27.55-22.49-44.25-29.72-16.7-7.23-34.78-10.83-54.17-10.83s-36.95,3.62-53.86,10.83c-16.92,7.21-31.68,17.13-44.25,29.72-12.59,12.59-22.5,27.24-29.72,43.94C3.62,213.84,0,231.92,0,251.31v250.69h55.1v-111.41h83.57c19.39,0,37.45-3.6,54.17-10.83,16.72-7.21,31.46-17.22,44.25-30.01,12.79-12.79,22.8-27.63,30.03-44.58,7.21-16.91,10.83-34.87,10.83-53.84s-3.62-37.45-10.83-54.17c-7.25-16.74-17.25-31.37-30.04-43.96Z"/>
    <path class="cls-2" d="M519.33,250.07c0,11.55-2.17,22.49-6.51,32.8-4.32,10.31-10.31,19.3-17.94,26.91-7.64,7.64-16.61,13.62-26.91,17.96-10.33,4.32-21.26,6.49-32.82,6.49s-22.38-2.17-32.49-6.49c-10.12-4.34-18.99-10.31-26.62-17.96-7.64-7.63-13.62-16.6-17.94-26.91-4.34-10.31-6.49-21.25-6.49-32.8V111.41h-55.1v138.65c0,18.99,3.6,36.93,10.83,53.84,7.21,16.92,17.11,31.78,29.72,44.56,12.59,12.79,27.34,22.81,44.27,30.03,16.91,7.21,34.87,10.83,53.84,10.83s37.45-3.62,54.17-10.83c16.7-7.21,31.46-17.22,44.25-30.03,12.79-12.79,22.8-27.63,30.03-44.56,7.21-16.91,10.83-34.87,10.83-53.84V111.41h-55.08v138.65h-.03Z"/>
    <rect class="cls-2" x="591.13" width="55.1" height="389.34"/>
    <rect class="cls-2" x="667.25" width="55.1" height="389.34"/>
    <path class="cls-2" d="M980.45,153.51c-13.62-13.62-28.99-23.83-46.13-30.63s-34.56-10.21-52.31-10.21-35.18,3.41-52.31,10.21c-17.13,6.82-32.51,17.03-46.13,30.63-13.62,13.64-23.73,28.89-30.34,45.82-6.59,16.92-9.9,34.26-9.9,52s3.31,35.18,9.9,52.31,16.72,32.51,30.34,46.13c13.21,13.21,28.27,23.31,45.2,30.32,16.91,7.02,34.66,10.52,53.24,10.52s36.31-3.51,53.24-10.52c16.91-7.01,31.97-17.11,45.2-30.32l19.18-19.2-39-39-19.2,19.2c-13.21,13.21-28.58,21.16-46.11,23.83-17.54,2.69-34.14.1-49.83-7.73l154.13-154.13-19.18-19.21Z"/>
    <path class="cls-2" d="M1241.66,111.41h-83.56c-18.99,0-36.95,3.62-53.86,10.83-16.92,7.23-31.78,17.13-44.56,29.72-12.79,12.59-22.81,27.24-30.03,43.96-7.21,16.72-10.83,34.78-10.83,54.17s3.62,36.93,10.83,53.84c7.21,16.92,17.22,31.78,30.03,44.56,12.78,12.79,27.63,22.81,44.56,30.03,16.91,7.21,34.87,10.83,53.86,10.83s36.93-3.62,53.84-10.83c16.91-7.21,31.66-17.22,44.25-30.03,12.59-12.79,22.49-27.63,29.72-44.56,7.21-16.91,10.83-34.87,10.83-53.84V0h-55.1v111.41h.02Z"/>
    <rect class="cls-2" x="1316.53" y="111.41" width="54.48" height="277.92"/>
    <path class="cls-2" d="M1656.05,196.52c-7.21-16.7-17.23-31.35-30.01-43.94-12.79-12.59-27.55-22.49-44.27-29.72-16.72-7.21-34.78-10.83-54.17-10.83s-36.95,3.62-53.86,10.83c-16.92,7.21-31.68,17.13-44.25,29.72-12.59,12.59-22.5,27.24-29.72,43.94-7.23,16.72-10.83,34.78-10.83,54.17v139.27h55.1v-139.27c0-11.54,2.17-22.38,6.49-32.49,4.32-10.11,10.31-18.99,17.94-26.62,7.63-7.63,16.49-13.62,26.62-17.96,10.11-4.32,20.94-6.49,32.51-6.49s22.49,2.15,32.8,6.49c10.31,4.34,19.28,10.33,26.93,17.96,7.63,7.63,13.62,16.49,17.94,26.62,4.32,10.12,6.49,20.95,6.49,32.49v139.27h55.1v-139.27c.02-19.39-3.6-37.45-10.81-54.17Z"/>
  </g>
  <polygon class="cls-1" points="1839.07 .22 1717.89 .22 1880.1 248.83 1719.8 497.33 1839.07 497.33 2000 248.78 1839.07 .22"/>
</svg>