<?xml version="1.0" encoding="iso-8859-1"?>
<!-- Generator: Adobe Illustrator 23.0.1, SVG Export Plug-In . SVG Version: 6.00 Build 0)  -->
<svg version="1.1"
	 id="svg4843" inkscape:version="0.48.2 r9819" sodipodi:docname="drawing.svg" xmlns:cc="http://creativecommons.org/ns#" xmlns:dc="http://purl.org/dc/elements/1.1/" xmlns:inkscape="http://www.inkscape.org/namespaces/inkscape" xmlns:rdf="http://www.w3.org/1999/02/22-rdf-syntax-ns#" xmlns:sodipodi="http://sodipodi.sourceforge.net/DTD/sodipodi-0.dtd" xmlns:svg="http://www.w3.org/2000/svg"
	 xmlns="http://www.w3.org/2000/svg" xmlns:xlink="http://www.w3.org/1999/xlink" x="0px" y="0px" viewBox="0 0 999 166.086"
	 style="enable-background:new 0 0 999 166.086;" xml:space="preserve">
<sodipodi:namedview  bordercolor="#666666" borderopacity="1.0" fit-margin-bottom="0.5" fit-margin-left="0.5" fit-margin-right="0.5" fit-margin-top="0.5" id="base" inkscape:current-layer="g4585" inkscape:cx="1010.9794" inkscape:cy="-454.71711" inkscape:document-units="px" inkscape:pageopacity="0.0" inkscape:pageshadow="2" inkscape:window-height="1028" inkscape:window-maximized="1" inkscape:window-width="1920" inkscape:window-x="-8" inkscape:window-y="-8" inkscape:zoom="0.35" pagecolor="#ffffff" showgrid="false">
	</sodipodi:namedview>
<g id="g3625">
	<g id="g3631" transform="translate(755.0571,42.0247)">
		<g id="path3633">
			<path inkscape:connector-curvature="0" style="fill:#131720;" d="M242.643,72.698c0,4.341-3.135,7.476-7.383,7.476
				c-4.231,0-7.383-3.135-7.383-7.476s3.152-7.485,7.383-7.485C239.508,65.214,242.643,68.357,242.643,72.698 M243.943,72.698
				c0-4.8-3.882-8.691-8.682-8.691c-4.774,0-8.674,3.891-8.674,8.691s3.899,8.682,8.674,8.682
				C240.06,81.381,243.943,77.498,243.943,72.698"/>
		</g>
	</g>
	<g id="g3635" transform="translate(754.3766,42.2633)">
		<g id="path3637">
			<path inkscape:connector-curvature="0" style="fill:#131720;" d="M237.542,70.433c0,1.283-1.062,1.419-2.09,1.419h-0.909v-2.846
				h1.342C237.1,69.005,237.542,69.592,237.542,70.433 M239.7,76.889l-2.098-2.948c-0.374-0.527-0.637-0.884-1.045-1.189
				c1.512-0.195,2.387-1.019,2.387-2.319c0-1.334-0.934-2.54-2.753-2.54h-2.939v8.997h1.291v-4.027c0.705,0,0.977,0.221,1.41,0.875
				l2.175,3.152H239.7z"/>
		</g>
	</g>
</g>
<g id="g3719" transform="translate(1678.0568,77.434471)">
	<g id="path3721">
		<path inkscape:connector-curvature="0" style="fill:#131720;" d="M-1421.893-30.516l-16.447,38.4h33.039L-1421.893-30.516z
			 M-1371.583,45.986h-17.815l-9.736-23.159h-45.383l-9.872,23.159h-17.271l42.231-96.653h15.615
			C-1413.814-50.667-1371.583,45.986-1371.583,45.986z"/>
	</g>
</g>
<g id="g3723" transform="translate(1702.2941,68.429171)">
	<g id="path3725">
		<path inkscape:connector-curvature="0" style="fill:#131720;" d="M-1240.223,54.994h-17.008v-80.342h-30.439v-15.632h79.246
			l-6.533,15.632h-25.266V54.994z"/>
	</g>
</g>
<g id="g3727" transform="translate(1740.2972,77.886371)">
	<g id="path3729">
		<path inkscape:connector-curvature="0" style="fill:#131720;" d="M-955.371-34.807h-51.398v24.407h32.92V4.697h-32.92v25.503
			h51.423v15.334h-68.397v-95.973h68.372V-34.807z"/>
	</g>
</g>
<g id="path3731">
	<path inkscape:connector-curvature="0" style="fill:#131720;" d="M905.429,123.428h-16.081V27.455h16.081V123.428z"/>
</g>
<g id="g3735">
	<g id="g3741" transform="translate(736.1471,50.6673)">
		<g id="path3743">
			<path inkscape:connector-curvature="0" style="fill:#131720;" d="M100.903-9.367c-9.804,0-18.138,2.965-18.18,9.472
				c-0.051,7.62,4.732,10.263,22.785,16.133c19.947,6.559,30.541,13.227,30.431,29.454c-0.102,18.291-14.238,28.723-34.882,28.723
				c-14.612,0-27.712-4.74-37.703-13.525l6.219-15.054c9.065,7.595,20.049,12.981,31.917,13.032
				c10.39,0.051,17.781-5.004,17.781-12.488c0-6.261-3.619-10.424-21.128-15.971C78.059,23.824,65.927,16.96,66.029,0.606
				c0.119-16.269,15.377-25.52,34.56-25.427c19.191,0.093,29.998,7.111,31.637,8.062l-6.032,13.686
				C122.278-5.188,113.689-9.367,100.903-9.367"/>
		</g>
	</g>
	<g id="g3745" transform="translate(746.6359,46.8288)">
		<g id="path3747">
			<path inkscape:connector-curvature="0" style="fill:#131720;" d="M179.522,27.081l42.962-46.462h-20.585l-43.106,46.462
				l47.371,49.529h20.865L179.522,27.081z"/>
		</g>
	</g>
	<g id="g3749" transform="translate(701.8704,42.6286)">
		<g id="path3751">
			<path inkscape:connector-curvature="0" style="fill:#131720;" d="M-156.017,66.964c-18.86,0-32.631-15.283-32.631-34.143
				s13.771-34.152,32.631-34.152s32.64,15.292,32.64,34.152S-137.157,66.964-156.017,66.964 M-156.017-16.827
				c-27.415,0-49.631,22.233-49.631,49.648s22.216,49.631,49.631,49.631c27.406,0,49.639-22.216,49.639-49.631
				S-128.61-16.827-156.017-16.827"/>
		</g>
	</g>
	<g id="g3753" transform="translate(714.0898,42.8078)">
		<g id="path3755">
			<path inkscape:connector-curvature="0" style="fill:#131720;" d="M-64.427,65.262l-19.387,0.017V0.289h19.463
				c18.851,0,32.555,13.363,32.555,32.215S-45.584,65.262-64.427,65.262 M-64.427-15.351h-36.412v95.973l36.412-0.008
				c27.398,0,49.622-20.703,49.622-48.11C-14.805,5.089-37.029-15.351-64.427-15.351"/>
		</g>
	</g>
	<g id="g3757" transform="translate(684.2415,46.0058)">
		<g id="path3759">
			<path inkscape:connector-curvature="0" style="fill:#131720;" d="M-288.154,34.896c0,28.613-16.787,44.041-41.135,44.041
				c-24.34,0-41.127-15.428-41.127-44.041v-53.445h16.999v55.467c0,16.787,9.855,26.642,24.127,26.642
				c14.289,0,24.144-9.855,24.144-26.642v-55.467h16.991V34.896z"/>
		</g>
	</g>
</g>
<g id="path4460">
	<g>
		<defs>
			<path id="SVGID_1_" inkscape:connector-curvature="0" sodipodi:nodetypes="ccccccccc" d="M32.585,166.086
				c-4.726,0-7.182-1.783-9.54-5.924L1.508,120.239C0.024,117.377,0,116.425,0,114.363l33.848,1.492l7.747,7.747h67.894
				l-56.373,34.922C50.368,160.149,39.917,166.086,32.585,166.086z"/>
		</defs>
		<use xlink:href="#SVGID_1_"  style="overflow:visible;fill:#131720;"/>
		<clipPath id="SVGID_2_">
			<use xlink:href="#SVGID_1_"  style="overflow:visible;"/>
		</clipPath>
		<polygon style="clip-path:url(#SVGID_2_);fill:#131720;" points="8.292,114.363 18.597,166.086 0,166.086 0,114.363 		"/>
		<polygon style="clip-path:url(#SVGID_2_);fill:#131720;" points="9.08,114.363 19.385,166.086 18.597,166.086 8.292,114.363 		"/>
		<polygon style="clip-path:url(#SVGID_2_);fill:#131720;" points="9.868,114.363 20.173,166.086 19.385,166.086 9.08,114.363 		"/>
		<polygon style="clip-path:url(#SVGID_2_);fill:#131720;" points="10.655,114.363 20.961,166.086 20.173,166.086 9.868,114.363 		
			"/>
		<polygon style="clip-path:url(#SVGID_2_);fill:#131720;" points="11.443,114.363 21.749,166.086 20.961,166.086 10.655,114.363 		
			"/>
		<polygon style="clip-path:url(#SVGID_2_);fill:#131720;" points="12.231,114.363 22.537,166.086 21.749,166.086 11.443,114.363 		
			"/>
		<polygon style="clip-path:url(#SVGID_2_);fill:#131720;" points="13.019,114.363 23.325,166.086 22.537,166.086 12.231,114.363 		
			"/>
		<polygon style="clip-path:url(#SVGID_2_);fill:#131720;" points="13.807,114.363 24.112,166.086 23.325,166.086 13.019,114.363 		
			"/>
		<polygon style="clip-path:url(#SVGID_2_);fill:#131720;" points="14.595,114.363 24.9,166.086 24.112,166.086 13.807,114.363 		
			"/>
		<polygon style="clip-path:url(#SVGID_2_);fill:#131720;" points="15.382,114.363 25.688,166.086 24.9,166.086 14.595,114.363 		
			"/>
		<polygon style="clip-path:url(#SVGID_2_);fill:#131720;" points="16.17,114.363 26.476,166.086 25.688,166.086 15.382,114.363 		
			"/>
		<polygon style="clip-path:url(#SVGID_2_);fill:#131720;" points="16.958,114.363 27.264,166.086 26.476,166.086 16.17,114.363 		
			"/>
		<polygon style="clip-path:url(#SVGID_2_);fill:#131720;" points="17.746,114.363 28.052,166.086 27.264,166.086 16.958,114.363 		
			"/>
		<polygon style="clip-path:url(#SVGID_2_);fill:#131720;" points="18.534,114.363 28.839,166.086 28.052,166.086 17.746,114.363 		
			"/>
		<polygon style="clip-path:url(#SVGID_2_);fill:#131720;" points="19.322,114.363 29.627,166.086 28.839,166.086 18.534,114.363 		
			"/>
		<polygon style="clip-path:url(#SVGID_2_);fill:#131720;" points="20.109,114.363 30.415,166.086 29.627,166.086 19.322,114.363 		
			"/>
		<polygon style="clip-path:url(#SVGID_2_);fill:#131720;" points="20.897,114.363 31.203,166.086 30.415,166.086 20.109,114.363 		
			"/>
		<polygon style="clip-path:url(#SVGID_2_);fill:#131720;" points="21.685,114.363 31.991,166.086 31.203,166.086 20.897,114.363 		
			"/>
		<polygon style="clip-path:url(#SVGID_2_);fill:#131720;" points="22.473,114.363 32.779,166.086 31.991,166.086 21.685,114.363 		
			"/>
		<polygon style="clip-path:url(#SVGID_2_);fill:#131720;" points="23.261,114.363 33.566,166.086 32.779,166.086 22.473,114.363 		
			"/>
		<polygon style="clip-path:url(#SVGID_2_);fill:#131720;" points="24.049,114.363 34.354,166.086 33.566,166.086 23.261,114.363 		
			"/>
		<polygon style="clip-path:url(#SVGID_2_);fill:#131720;" points="24.836,114.363 35.142,166.086 34.354,166.086 24.049,114.363 		
			"/>
		<polygon style="clip-path:url(#SVGID_2_);fill:#131720;" points="25.624,114.363 35.93,166.086 35.142,166.086 24.836,114.363 		
			"/>
		<polygon style="clip-path:url(#SVGID_2_);fill:#131720;" points="26.412,114.363 36.718,166.086 35.93,166.086 25.624,114.363 		
			"/>
		<polygon style="clip-path:url(#SVGID_2_);fill:#131720;" points="27.2,114.363 37.506,166.086 36.718,166.086 26.412,114.363 		
			"/>
		<polygon style="clip-path:url(#SVGID_2_);fill:#131720;" points="27.988,114.363 38.293,166.086 37.506,166.086 27.2,114.363 		
			"/>
		<polygon style="clip-path:url(#SVGID_2_);fill:#131720;" points="28.776,114.363 39.081,166.086 38.293,166.086 27.988,114.363 		
			"/>
		<polygon style="clip-path:url(#SVGID_2_);fill:#131720;" points="29.563,114.363 39.869,166.086 39.081,166.086 28.776,114.363 		
			"/>
		<polygon style="clip-path:url(#SVGID_2_);fill:#131720;" points="30.351,114.363 40.657,166.086 39.869,166.086 29.563,114.363 		
			"/>
		<polygon style="clip-path:url(#SVGID_2_);fill:#131720;" points="31.139,114.363 41.445,166.086 40.657,166.086 30.351,114.363 		
			"/>
		<polygon style="clip-path:url(#SVGID_2_);fill:#131720;" points="31.927,114.363 42.212,165.984 41.699,166.086 41.445,166.086 
			31.139,114.363 		"/>
		<polygon style="clip-path:url(#SVGID_2_);fill:#131720;" points="32.715,114.363 42.97,165.833 42.212,165.984 31.927,114.363 		
			"/>
		<polygon style="clip-path:url(#SVGID_2_);fill:#131720;" points="33.503,114.363 43.728,165.682 42.97,165.833 32.715,114.363 		
			"/>
		<polygon style="clip-path:url(#SVGID_2_);fill:#131720;" points="34.29,114.363 44.485,165.531 43.728,165.682 33.503,114.363 		
			"/>
		<polygon style="clip-path:url(#SVGID_2_);fill:#131720;" points="35.078,114.363 45.243,165.38 44.485,165.531 34.29,114.363 		
			"/>
		<polygon style="clip-path:url(#SVGID_2_);fill:#131720;" points="35.866,114.363 46.001,165.229 45.243,165.38 35.078,114.363 		
			"/>
		<polygon style="clip-path:url(#SVGID_2_);fill:#131720;" points="36.654,114.363 46.759,165.078 46.001,165.229 35.866,114.363 		
			"/>
		<polygon style="clip-path:url(#SVGID_2_);fill:#131720;" points="37.442,114.363 47.517,164.927 46.759,165.078 36.654,114.363 		
			"/>
		<polygon style="clip-path:url(#SVGID_2_);fill:#131720;" points="38.23,114.363 48.274,164.776 47.517,164.927 37.442,114.363 		
			"/>
		<polygon style="clip-path:url(#SVGID_2_);fill:#131720;" points="39.017,114.363 49.032,164.625 48.274,164.776 38.23,114.363 		
			"/>
		<polygon style="clip-path:url(#SVGID_2_);fill:#131720;" points="39.805,114.363 49.79,164.474 49.032,164.625 39.017,114.363 		
			"/>
		<polygon style="clip-path:url(#SVGID_2_);fill:#131720;" points="40.593,114.363 50.548,164.323 49.79,164.474 39.805,114.363 		
			"/>
		<polygon style="clip-path:url(#SVGID_2_);fill:#131720;" points="41.381,114.363 51.305,164.172 50.548,164.323 40.593,114.363 		
			"/>
		<polygon style="clip-path:url(#SVGID_2_);fill:#131720;" points="42.169,114.363 52.063,164.021 51.305,164.172 41.381,114.363 		
			"/>
		<polygon style="clip-path:url(#SVGID_2_);fill:#131720;" points="42.957,114.363 52.821,163.87 52.063,164.021 42.169,114.363 		
			"/>
		<polygon style="clip-path:url(#SVGID_2_);fill:#131720;" points="43.745,114.363 53.579,163.719 52.821,163.87 42.957,114.363 		
			"/>
		<polygon style="clip-path:url(#SVGID_2_);fill:#131720;" points="44.532,114.363 54.336,163.568 53.579,163.719 43.745,114.363 		
			"/>
		<polygon style="clip-path:url(#SVGID_2_);fill:#131720;" points="45.32,114.363 55.094,163.417 54.336,163.568 44.532,114.363 		
			"/>
		<polygon style="clip-path:url(#SVGID_2_);fill:#131720;" points="46.108,114.363 55.852,163.266 55.094,163.417 45.32,114.363 		
			"/>
		<polygon style="clip-path:url(#SVGID_2_);fill:#131720;" points="46.896,114.363 56.61,163.115 55.852,163.266 46.108,114.363 		
			"/>
		<polygon style="clip-path:url(#SVGID_2_);fill:#131720;" points="47.684,114.363 57.367,162.964 56.61,163.115 46.896,114.363 		
			"/>
		<polygon style="clip-path:url(#SVGID_2_);fill:#131720;" points="48.472,114.363 58.125,162.813 57.367,162.964 47.684,114.363 		
			"/>
		<polygon style="clip-path:url(#SVGID_2_);fill:#131720;" points="49.259,114.363 58.883,162.662 58.125,162.813 48.472,114.363 		
			"/>
		<polygon style="clip-path:url(#SVGID_2_);fill:#131720;" points="50.047,114.363 59.641,162.511 58.883,162.662 49.259,114.363 		
			"/>
		<polygon style="clip-path:url(#SVGID_2_);fill:#131720;" points="50.835,114.363 60.398,162.36 59.641,162.511 50.047,114.363 		
			"/>
		<polygon style="clip-path:url(#SVGID_2_);fill:#131720;" points="51.623,114.363 61.156,162.209 60.398,162.36 50.835,114.363 		
			"/>
		<polygon style="clip-path:url(#SVGID_2_);fill:#131720;" points="52.411,114.363 61.914,162.058 61.156,162.209 51.623,114.363 		
			"/>
		<polygon style="clip-path:url(#SVGID_2_);fill:#131720;" points="53.199,114.363 62.672,161.907 61.914,162.058 52.411,114.363 		
			"/>
		<polygon style="clip-path:url(#SVGID_2_);fill:#131720;" points="53.986,114.363 63.429,161.756 62.672,161.907 53.199,114.363 		
			"/>
		<polygon style="clip-path:url(#SVGID_2_);fill:#131720;" points="54.774,114.363 64.187,161.605 63.429,161.756 53.986,114.363 		
			"/>
		<polygon style="clip-path:url(#SVGID_2_);fill:#131720;" points="55.562,114.363 64.945,161.454 64.187,161.605 54.774,114.363 		
			"/>
		<polygon style="clip-path:url(#SVGID_2_);fill:#131720;" points="56.35,114.363 65.703,161.303 64.945,161.454 55.562,114.363 		
			"/>
		<polygon style="clip-path:url(#SVGID_2_);fill:#131720;" points="57.138,114.363 66.46,161.152 65.703,161.303 56.35,114.363 		
			"/>
		<polygon style="clip-path:url(#SVGID_2_);fill:#131720;" points="57.926,114.363 67.218,161.001 66.46,161.152 57.138,114.363 		
			"/>
		<polygon style="clip-path:url(#SVGID_2_);fill:#131720;" points="58.713,114.363 67.976,160.85 67.218,161.001 57.926,114.363 		
			"/>
		<polygon style="clip-path:url(#SVGID_2_);fill:#131720;" points="62.167,114.363 71.298,160.188 67.976,160.85 58.713,114.363 		
			"/>
		<polygon style="clip-path:url(#SVGID_2_);fill:#131720;" points="65.621,114.363 74.619,159.527 71.298,160.188 62.167,114.363 		
			"/>
		<polygon style="clip-path:url(#SVGID_2_);fill:#131720;" points="69.074,114.363 77.941,158.865 74.619,159.527 65.621,114.363 		
			"/>
		<polygon style="clip-path:url(#SVGID_2_);fill:#131720;" points="72.528,114.363 81.263,158.203 77.941,158.865 69.074,114.363 		
			"/>
		<polygon style="clip-path:url(#SVGID_2_);fill:#131720;" points="75.981,114.363 84.584,157.541 81.263,158.203 72.528,114.363 		
			"/>
		<polygon style="clip-path:url(#SVGID_2_);fill:#131720;" points="79.435,114.363 87.906,156.879 84.584,157.541 75.981,114.363 		
			"/>
		<polygon style="clip-path:url(#SVGID_2_);fill:#131720;" points="82.888,114.363 91.228,156.217 87.906,156.879 79.435,114.363 		
			"/>
		<polygon style="clip-path:url(#SVGID_2_);fill:#131720;" points="86.342,114.363 94.549,155.555 91.228,156.217 82.888,114.363 		
			"/>
		<polygon style="clip-path:url(#SVGID_2_);fill:#131720;" points="89.796,114.363 97.871,154.894 94.549,155.555 86.342,114.363 		
			"/>
		<polygon style="clip-path:url(#SVGID_2_);fill:#131720;" points="93.249,114.363 101.193,154.232 97.871,154.894 89.796,114.363 
					"/>
		<polygon style="clip-path:url(#SVGID_2_);fill:#131720;" points="96.703,114.363 104.515,153.57 101.193,154.232 93.249,114.363 
					"/>
		<polygon style="clip-path:url(#SVGID_2_);fill:#131720;" points="100.156,114.363 107.836,152.908 104.515,153.57 96.703,114.363 
					"/>
		<polygon style="clip-path:url(#SVGID_2_);fill:#131720;" points="103.61,114.363 109.489,143.869 109.489,152.579 
			107.836,152.908 100.156,114.363 		"/>
		<polygon style="clip-path:url(#SVGID_2_);fill:#131720;" points="107.063,114.363 109.489,126.536 109.489,143.869 
			103.61,114.363 		"/>
		<polygon style="clip-path:url(#SVGID_2_);fill:#131720;" points="109.489,126.536 107.063,114.363 109.489,114.363 		"/>
	</g>
</g>
<g id="path4458">
	<g>
		<defs>
			<path id="SVGID_3_" inkscape:connector-curvature="0" sodipodi:nodetypes="cccccccccccccc" d="M41.626,123.602H12.348
				C3.505,123.602,0,118.977,0,114.363c0-2.919,0.939-4.512,2.238-7.756L44.905,4.75l0.459-0.894l0.591-0.917l1.228-1.197
				l1.803-0.964l2.611-0.575l4.492,0.117l29.649,11.02L75.713,42.956L41.626,123.602z"/>
		</defs>
		<use xlink:href="#SVGID_3_"  style="overflow:visible;fill:#131720;"/>
		<clipPath id="SVGID_4_">
			<use xlink:href="#SVGID_3_"  style="overflow:visible;"/>
		</clipPath>
		<polygon style="clip-path:url(#SVGID_4_);fill:#131720;" points="85.738,20.893 85.099,22.394 44.394,5.062 46.463,0.204 
			85.738,0.204 		"/>
		
			<rect x="64.174" y="-8.014" transform="matrix(0.3918 -0.9201 0.9201 0.3918 26.3039 68.0028)" style="clip-path:url(#SVGID_4_);fill:#131720;" width="0.824" height="44.241"/>
		
			<rect x="63.851" y="-7.256" transform="matrix(0.3918 -0.9201 0.9201 0.3918 25.4104 68.1668)" style="clip-path:url(#SVGID_4_);fill:#131720;" width="0.824" height="44.241"/>
		
			<rect x="63.528" y="-6.498" transform="matrix(0.3918 -0.9201 0.9201 0.3918 24.5169 68.3309)" style="clip-path:url(#SVGID_4_);fill:#131720;" width="0.824" height="44.241"/>
		
			<rect x="63.206" y="-5.741" transform="matrix(0.3918 -0.9201 0.9201 0.3918 23.6235 68.4949)" style="clip-path:url(#SVGID_4_);fill:#131720;" width="0.824" height="44.241"/>
		
			<rect x="62.883" y="-4.983" transform="matrix(0.3918 -0.9201 0.9201 0.3918 22.73 68.6589)" style="clip-path:url(#SVGID_4_);fill:#131720;" width="0.824" height="44.241"/>
		
			<rect x="62.56" y="-4.225" transform="matrix(0.3918 -0.9201 0.9201 0.3918 21.8365 68.823)" style="clip-path:url(#SVGID_4_);fill:#131720;" width="0.824" height="44.241"/>
		
			<rect x="62.238" y="-3.467" transform="matrix(0.3918 -0.9201 0.9201 0.3918 20.9431 68.987)" style="clip-path:url(#SVGID_4_);fill:#131720;" width="0.824" height="44.241"/>
		
			<rect x="61.915" y="-2.71" transform="matrix(0.3918 -0.9201 0.9201 0.3918 20.0496 69.151)" style="clip-path:url(#SVGID_4_);fill:#131720;" width="0.824" height="44.241"/>
		
			<rect x="61.592" y="-1.952" transform="matrix(0.3918 -0.9201 0.9201 0.3918 19.1562 69.3151)" style="clip-path:url(#SVGID_4_);fill:#131720;" width="0.824" height="44.241"/>
		
			<rect x="61.27" y="-1.194" transform="matrix(0.3918 -0.9201 0.9201 0.3918 18.2627 69.4791)" style="clip-path:url(#SVGID_4_);fill:#131720;" width="0.824" height="44.241"/>
		
			<rect x="60.947" y="-0.436" transform="matrix(0.3918 -0.9201 0.9201 0.3918 17.3693 69.6431)" style="clip-path:url(#SVGID_4_);fill:#131720;" width="0.824" height="44.241"/>
		
			<rect x="60.624" y="0.322" transform="matrix(0.3918 -0.9201 0.9201 0.3918 16.4758 69.8071)" style="clip-path:url(#SVGID_4_);fill:#131720;" width="0.824" height="44.241"/>
		
			<rect x="60.302" y="1.079" transform="matrix(0.3918 -0.9201 0.9201 0.3918 15.5823 69.9712)" style="clip-path:url(#SVGID_4_);fill:#131720;" width="0.824" height="44.241"/>
		
			<rect x="59.979" y="1.837" transform="matrix(0.3918 -0.9201 0.9201 0.3918 14.6889 70.1352)" style="clip-path:url(#SVGID_4_);fill:#131720;" width="0.824" height="44.241"/>
		
			<rect x="59.656" y="2.595" transform="matrix(0.3918 -0.9201 0.9201 0.3918 13.7954 70.2992)" style="clip-path:url(#SVGID_4_);fill:#131720;" width="0.824" height="44.241"/>
		
			<rect x="59.334" y="3.353" transform="matrix(0.3918 -0.9201 0.9201 0.3918 12.9019 70.4633)" style="clip-path:url(#SVGID_4_);fill:#131720;" width="0.824" height="44.241"/>
		
			<rect x="59.011" y="4.11" transform="matrix(0.3918 -0.9201 0.9201 0.3918 12.0085 70.6273)" style="clip-path:url(#SVGID_4_);fill:#131720;" width="0.824" height="44.241"/>
		
			<rect x="58.688" y="4.868" transform="matrix(0.3918 -0.9201 0.9201 0.3918 11.115 70.7913)" style="clip-path:url(#SVGID_4_);fill:#131720;" width="0.824" height="44.241"/>
		
			<rect x="58.366" y="5.626" transform="matrix(0.3918 -0.9201 0.9201 0.3918 10.2216 70.9554)" style="clip-path:url(#SVGID_4_);fill:#131720;" width="0.824" height="44.241"/>
		
			<rect x="58.043" y="6.384" transform="matrix(0.3918 -0.9201 0.9201 0.3918 9.3281 71.1194)" style="clip-path:url(#SVGID_4_);fill:#131720;" width="0.824" height="44.241"/>
		
			<rect x="57.72" y="7.142" transform="matrix(0.3918 -0.9201 0.9201 0.3918 8.4347 71.2834)" style="clip-path:url(#SVGID_4_);fill:#131720;" width="0.824" height="44.241"/>
		
			<rect x="57.398" y="7.899" transform="matrix(0.3918 -0.9201 0.9201 0.3918 7.5412 71.4474)" style="clip-path:url(#SVGID_4_);fill:#131720;" width="0.824" height="44.241"/>
		
			<rect x="57.075" y="8.657" transform="matrix(0.3918 -0.9201 0.9201 0.3918 6.6477 71.6115)" style="clip-path:url(#SVGID_4_);fill:#131720;" width="0.824" height="44.241"/>
		
			<rect x="56.752" y="9.415" transform="matrix(0.3918 -0.9201 0.9201 0.3918 5.7543 71.7755)" style="clip-path:url(#SVGID_4_);fill:#131720;" width="0.824" height="44.241"/>
		
			<rect x="56.43" y="10.173" transform="matrix(0.3918 -0.9201 0.9201 0.3918 4.8608 71.9396)" style="clip-path:url(#SVGID_4_);fill:#131720;" width="0.824" height="44.241"/>
		
			<rect x="56.107" y="10.93" transform="matrix(0.3918 -0.9201 0.9201 0.3918 3.9674 72.1036)" style="clip-path:url(#SVGID_4_);fill:#131720;" width="0.824" height="44.241"/>
		
			<rect x="55.784" y="11.688" transform="matrix(0.3918 -0.9201 0.9201 0.3918 3.0739 72.2676)" style="clip-path:url(#SVGID_4_);fill:#131720;" width="0.824" height="44.241"/>
		
			<rect x="55.462" y="12.446" transform="matrix(0.3918 -0.9201 0.9201 0.3918 2.1804 72.4316)" style="clip-path:url(#SVGID_4_);fill:#131720;" width="0.824" height="44.241"/>
		
			<rect x="55.139" y="13.204" transform="matrix(0.3918 -0.9201 0.9201 0.3918 1.287 72.5957)" style="clip-path:url(#SVGID_4_);fill:#131720;" width="0.824" height="44.241"/>
		
			<rect x="54.816" y="13.962" transform="matrix(0.3918 -0.9201 0.9201 0.3918 0.3935 72.7597)" style="clip-path:url(#SVGID_4_);fill:#131720;" width="0.824" height="44.241"/>
		
			<rect x="54.494" y="14.719" transform="matrix(0.3918 -0.9201 0.9201 0.3918 -0.4999 72.9237)" style="clip-path:url(#SVGID_4_);fill:#131720;" width="0.824" height="44.241"/>
		
			<rect x="54.171" y="15.477" transform="matrix(0.3918 -0.9201 0.9201 0.3918 -1.3934 73.0877)" style="clip-path:url(#SVGID_4_);fill:#131720;" width="0.824" height="44.241"/>
		
			<rect x="53.848" y="16.235" transform="matrix(0.3918 -0.9201 0.9201 0.3918 -2.2868 73.2518)" style="clip-path:url(#SVGID_4_);fill:#131720;" width="0.824" height="44.241"/>
		
			<rect x="53.526" y="16.993" transform="matrix(0.3918 -0.9201 0.9201 0.3918 -3.1803 73.4158)" style="clip-path:url(#SVGID_4_);fill:#131720;" width="0.824" height="44.241"/>
		
			<rect x="53.203" y="17.75" transform="matrix(0.3918 -0.9201 0.9201 0.3918 -4.0738 73.5798)" style="clip-path:url(#SVGID_4_);fill:#131720;" width="0.824" height="44.241"/>
		
			<rect x="52.88" y="18.508" transform="matrix(0.3918 -0.9201 0.9201 0.3918 -4.9672 73.7439)" style="clip-path:url(#SVGID_4_);fill:#131720;" width="0.824" height="44.241"/>
		
			<rect x="52.558" y="19.266" transform="matrix(0.3918 -0.9201 0.9201 0.3918 -5.8607 73.9079)" style="clip-path:url(#SVGID_4_);fill:#131720;" width="0.824" height="44.241"/>
		
			<rect x="52.235" y="20.024" transform="matrix(0.3918 -0.9201 0.9201 0.3918 -6.7542 74.0719)" style="clip-path:url(#SVGID_4_);fill:#131720;" width="0.824" height="44.241"/>
		
			<rect x="51.912" y="20.782" transform="matrix(0.3918 -0.9201 0.9201 0.3918 -7.6476 74.236)" style="clip-path:url(#SVGID_4_);fill:#131720;" width="0.824" height="44.241"/>
		
			<rect x="51.59" y="21.539" transform="matrix(0.3918 -0.9201 0.9201 0.3918 -8.5411 74.4)" style="clip-path:url(#SVGID_4_);fill:#131720;" width="0.824" height="44.241"/>
		
			<rect x="51.267" y="22.297" transform="matrix(0.3918 -0.9201 0.9201 0.3918 -9.4345 74.564)" style="clip-path:url(#SVGID_4_);fill:#131720;" width="0.824" height="44.241"/>
		
			<rect x="50.944" y="23.055" transform="matrix(0.3918 -0.9201 0.9201 0.3918 -10.328 74.7281)" style="clip-path:url(#SVGID_4_);fill:#131720;" width="0.824" height="44.241"/>
		
			<rect x="50.622" y="23.813" transform="matrix(0.3918 -0.9201 0.9201 0.3918 -11.2215 74.8921)" style="clip-path:url(#SVGID_4_);fill:#131720;" width="0.824" height="44.241"/>
		
			<rect x="50.299" y="24.57" transform="matrix(0.3918 -0.9201 0.9201 0.3918 -12.1149 75.0561)" style="clip-path:url(#SVGID_4_);fill:#131720;" width="0.824" height="44.241"/>
		
			<rect x="49.976" y="25.328" transform="matrix(0.3918 -0.9201 0.9201 0.3918 -13.0084 75.2201)" style="clip-path:url(#SVGID_4_);fill:#131720;" width="0.824" height="44.241"/>
		
			<rect x="49.654" y="26.086" transform="matrix(0.3918 -0.9201 0.9201 0.3918 -13.9018 75.3842)" style="clip-path:url(#SVGID_4_);fill:#131720;" width="0.824" height="44.241"/>
		
			<rect x="49.331" y="26.844" transform="matrix(0.3918 -0.9201 0.9201 0.3918 -14.7953 75.5482)" style="clip-path:url(#SVGID_4_);fill:#131720;" width="0.824" height="44.241"/>
		
			<rect x="49.008" y="27.602" transform="matrix(0.3918 -0.9201 0.9201 0.3918 -15.6887 75.7123)" style="clip-path:url(#SVGID_4_);fill:#131720;" width="0.824" height="44.241"/>
		
			<rect x="48.686" y="28.359" transform="matrix(0.3918 -0.9201 0.9201 0.3918 -16.5822 75.8763)" style="clip-path:url(#SVGID_4_);fill:#131720;" width="0.824" height="44.241"/>
		
			<rect x="48.363" y="29.117" transform="matrix(0.3918 -0.9201 0.9201 0.3918 -17.4757 76.0403)" style="clip-path:url(#SVGID_4_);fill:#131720;" width="0.824" height="44.241"/>
		
			<rect x="48.04" y="29.875" transform="matrix(0.3918 -0.9201 0.9201 0.3918 -18.3691 76.2043)" style="clip-path:url(#SVGID_4_);fill:#131720;" width="0.824" height="44.241"/>
		
			<rect x="47.718" y="30.633" transform="matrix(0.3918 -0.9201 0.9201 0.3918 -19.2626 76.3684)" style="clip-path:url(#SVGID_4_);fill:#131720;" width="0.824" height="44.241"/>
		
			<rect x="47.395" y="31.39" transform="matrix(0.3918 -0.9201 0.9201 0.3918 -20.1561 76.5324)" style="clip-path:url(#SVGID_4_);fill:#131720;" width="0.824" height="44.241"/>
		
			<rect x="47.072" y="32.148" transform="matrix(0.3918 -0.9201 0.9201 0.3918 -21.0495 76.6964)" style="clip-path:url(#SVGID_4_);fill:#131720;" width="0.824" height="44.241"/>
		
			<rect x="46.75" y="32.906" transform="matrix(0.3918 -0.9201 0.9201 0.3918 -21.943 76.8604)" style="clip-path:url(#SVGID_4_);fill:#131720;" width="0.824" height="44.241"/>
		
			<rect x="46.427" y="33.664" transform="matrix(0.3918 -0.9201 0.9201 0.3918 -22.8364 77.0245)" style="clip-path:url(#SVGID_4_);fill:#131720;" width="0.824" height="44.241"/>
		
			<rect x="46.104" y="34.422" transform="matrix(0.3918 -0.9201 0.9201 0.3918 -23.7299 77.1885)" style="clip-path:url(#SVGID_4_);fill:#131720;" width="0.824" height="44.241"/>
		
			<rect x="45.782" y="35.179" transform="matrix(0.3918 -0.9201 0.9201 0.3918 -24.6234 77.3525)" style="clip-path:url(#SVGID_4_);fill:#131720;" width="0.824" height="44.241"/>
		
			<rect x="45.459" y="35.937" transform="matrix(0.3918 -0.9201 0.9201 0.3918 -25.5168 77.5166)" style="clip-path:url(#SVGID_4_);fill:#131720;" width="0.824" height="44.241"/>
		
			<rect x="45.136" y="36.695" transform="matrix(0.3918 -0.9201 0.9201 0.3918 -26.4103 77.6806)" style="clip-path:url(#SVGID_4_);fill:#131720;" width="0.824" height="44.241"/>
		
			<rect x="44.814" y="37.453" transform="matrix(0.3918 -0.9201 0.9201 0.3918 -27.3037 77.8446)" style="clip-path:url(#SVGID_4_);fill:#131720;" width="0.824" height="44.241"/>
		
			<rect x="44.491" y="38.21" transform="matrix(0.3918 -0.9201 0.9201 0.3918 -28.1972 78.0087)" style="clip-path:url(#SVGID_4_);fill:#131720;" width="0.824" height="44.241"/>
		
			<rect x="44.168" y="38.968" transform="matrix(0.3918 -0.9201 0.9201 0.3918 -29.0906 78.1727)" style="clip-path:url(#SVGID_4_);fill:#131720;" width="0.824" height="44.241"/>
		
			<rect x="43.846" y="39.726" transform="matrix(0.3918 -0.9201 0.9201 0.3918 -29.9841 78.3368)" style="clip-path:url(#SVGID_4_);fill:#131720;" width="0.824" height="44.241"/>
		
			<rect x="43.523" y="40.484" transform="matrix(0.3918 -0.9201 0.9201 0.3918 -30.8776 78.5007)" style="clip-path:url(#SVGID_4_);fill:#131720;" width="0.824" height="44.241"/>
		
			<rect x="43.2" y="41.242" transform="matrix(0.3918 -0.9201 0.9201 0.3918 -31.771 78.6648)" style="clip-path:url(#SVGID_4_);fill:#131720;" width="0.824" height="44.241"/>
		
			<rect x="42.878" y="41.999" transform="matrix(0.3918 -0.9201 0.9201 0.3918 -32.6645 78.8288)" style="clip-path:url(#SVGID_4_);fill:#131720;" width="0.824" height="44.241"/>
		
			<rect x="42.555" y="42.757" transform="matrix(0.3918 -0.9201 0.9201 0.3918 -33.5579 78.9928)" style="clip-path:url(#SVGID_4_);fill:#131720;" width="0.824" height="44.241"/>
		
			<rect x="42.232" y="43.515" transform="matrix(0.3918 -0.9201 0.9201 0.3918 -34.4514 79.1569)" style="clip-path:url(#SVGID_4_);fill:#131720;" width="0.824" height="44.241"/>
		
			<rect x="41.91" y="44.273" transform="matrix(0.3918 -0.9201 0.9201 0.3918 -35.3449 79.3209)" style="clip-path:url(#SVGID_4_);fill:#131720;" width="0.824" height="44.241"/>
		
			<rect x="41.587" y="45.03" transform="matrix(0.3918 -0.9201 0.9201 0.3918 -36.2383 79.4849)" style="clip-path:url(#SVGID_4_);fill:#131720;" width="0.824" height="44.241"/>
		
			<rect x="41.264" y="45.788" transform="matrix(0.3918 -0.9201 0.9201 0.3918 -37.1318 79.649)" style="clip-path:url(#SVGID_4_);fill:#131720;" width="0.824" height="44.241"/>
		
			<rect x="40.05" y="47.135" transform="matrix(0.3918 -0.9201 0.9201 0.3918 -38.72 79.9405)" style="clip-path:url(#SVGID_4_);fill:#131720;" width="2.105" height="44.241"/>
		
			<rect x="39.226" y="49.072" transform="matrix(0.3918 -0.9201 0.9201 0.3918 -41.0031 80.3597)" style="clip-path:url(#SVGID_4_);fill:#131720;" width="2.105" height="44.241"/>
		
			<rect x="38.401" y="51.008" transform="matrix(0.3918 -0.9201 0.9201 0.3918 -43.2862 80.7789)" style="clip-path:url(#SVGID_4_);fill:#131720;" width="2.105" height="44.241"/>
		
			<rect x="37.577" y="52.944" transform="matrix(0.3918 -0.9201 0.9201 0.3918 -45.5692 81.198)" style="clip-path:url(#SVGID_4_);fill:#131720;" width="2.105" height="44.241"/>
		
			<rect x="36.752" y="54.881" transform="matrix(0.3918 -0.9201 0.9201 0.3918 -47.8523 81.6171)" style="clip-path:url(#SVGID_4_);fill:#131720;" width="2.105" height="44.241"/>
		
			<rect x="35.928" y="56.817" transform="matrix(0.3918 -0.9201 0.9201 0.3918 -50.1354 82.0363)" style="clip-path:url(#SVGID_4_);fill:#131720;" width="2.105" height="44.241"/>
		
			<rect x="35.103" y="58.753" transform="matrix(0.3918 -0.9201 0.9201 0.3918 -52.4184 82.4554)" style="clip-path:url(#SVGID_4_);fill:#131720;" width="2.105" height="44.241"/>
		
			<rect x="34.279" y="60.69" transform="matrix(0.3918 -0.9201 0.9201 0.3918 -54.7015 82.8746)" style="clip-path:url(#SVGID_4_);fill:#131720;" width="2.105" height="44.241"/>
		
			<rect x="33.454" y="62.626" transform="matrix(0.3918 -0.9201 0.9201 0.3918 -56.9846 83.2937)" style="clip-path:url(#SVGID_4_);fill:#131720;" width="2.105" height="44.241"/>
		
			<rect x="32.63" y="64.562" transform="matrix(0.3918 -0.9201 0.9201 0.3918 -59.2676 83.7129)" style="clip-path:url(#SVGID_4_);fill:#131720;" width="2.105" height="44.241"/>
		
			<rect x="31.805" y="66.499" transform="matrix(0.3918 -0.9201 0.9201 0.3918 -61.5507 84.132)" style="clip-path:url(#SVGID_4_);fill:#131720;" width="2.105" height="44.241"/>
		
			<rect x="30.981" y="68.435" transform="matrix(0.3918 -0.9201 0.9201 0.3918 -63.8337 84.5512)" style="clip-path:url(#SVGID_4_);fill:#131720;" width="2.105" height="44.241"/>
		
			<rect x="30.156" y="70.372" transform="matrix(0.3918 -0.9201 0.9201 0.3918 -66.1168 84.9703)" style="clip-path:url(#SVGID_4_);fill:#131720;" width="2.105" height="44.241"/>
		
			<rect x="29.332" y="72.308" transform="matrix(0.3918 -0.9201 0.9201 0.3918 -68.3999 85.3895)" style="clip-path:url(#SVGID_4_);fill:#131720;" width="2.105" height="44.241"/>
		
			<rect x="28.507" y="74.244" transform="matrix(0.3918 -0.9201 0.9201 0.3918 -70.6829 85.8086)" style="clip-path:url(#SVGID_4_);fill:#131720;" width="2.105" height="44.241"/>
		
			<rect x="27.683" y="76.181" transform="matrix(0.3918 -0.9201 0.9201 0.3918 -72.966 86.2278)" style="clip-path:url(#SVGID_4_);fill:#131720;" width="2.105" height="44.241"/>
		
			<rect x="26.858" y="78.117" transform="matrix(0.3918 -0.9201 0.9201 0.3918 -75.2491 86.6469)" style="clip-path:url(#SVGID_4_);fill:#131720;" width="2.105" height="44.241"/>
		
			<rect x="26.034" y="80.053" transform="matrix(0.3918 -0.9201 0.9201 0.3918 -77.5321 87.066)" style="clip-path:url(#SVGID_4_);fill:#131720;" width="2.105" height="44.241"/>
		
			<rect x="25.209" y="81.99" transform="matrix(0.3918 -0.9201 0.9201 0.3918 -79.8152 87.4852)" style="clip-path:url(#SVGID_4_);fill:#131720;" width="2.105" height="44.241"/>
		
			<rect x="24.384" y="83.926" transform="matrix(0.3918 -0.9201 0.9201 0.3918 -82.0983 87.9043)" style="clip-path:url(#SVGID_4_);fill:#131720;" width="2.105" height="44.241"/>
		
			<rect x="23.56" y="85.862" transform="matrix(0.3918 -0.9201 0.9201 0.3918 -84.3813 88.3235)" style="clip-path:url(#SVGID_4_);fill:#131720;" width="2.105" height="44.241"/>
		
			<rect x="22.735" y="87.799" transform="matrix(0.3918 -0.9201 0.9201 0.3918 -86.6644 88.7426)" style="clip-path:url(#SVGID_4_);fill:#131720;" width="2.105" height="44.241"/>
		
			<rect x="21.911" y="89.735" transform="matrix(0.3918 -0.9201 0.9201 0.3918 -88.9474 89.1618)" style="clip-path:url(#SVGID_4_);fill:#131720;" width="2.105" height="44.241"/>
		
			<rect x="21.086" y="91.671" transform="matrix(0.3918 -0.9201 0.9201 0.3918 -91.2305 89.5809)" style="clip-path:url(#SVGID_4_);fill:#131720;" width="2.105" height="44.241"/>
		<polygon style="clip-path:url(#SVGID_4_);fill:#131720;" points="42.079,123.426 42.004,123.602 37.119,123.602 0.55,108.03 
			1.374,106.094 		"/>
		<polygon style="clip-path:url(#SVGID_4_);fill:#131720;" points="31.747,123.602 0,110.084 0,109.321 0.55,108.03 37.119,123.602 
					"/>
		<polygon style="clip-path:url(#SVGID_4_);fill:#131720;" points="26.375,123.602 0,112.371 0,110.084 31.747,123.602 		"/>
		<polygon style="clip-path:url(#SVGID_4_);fill:#131720;" points="21.003,123.602 0,114.659 0,112.371 26.375,123.602 		"/>
		<polygon style="clip-path:url(#SVGID_4_);fill:#131720;" points="15.631,123.602 0,116.946 0,114.659 21.003,123.602 		"/>
		<polygon style="clip-path:url(#SVGID_4_);fill:#131720;" points="0,116.946 15.631,123.602 0,123.602 		"/>
	</g>
</g>
<g id="path4456">
	<g>
		<defs>
			<path id="SVGID_5_" inkscape:connector-curvature="0" sodipodi:nodetypes="ccccccccc" d="M127.594,166.08L60.247,6.646
				c-1.16-2.715-3.02-6.217-7.834-6.217c-4.301,0-6.35,2.083-7.508,4.321C45.504,3.136,47.314,0,52.562,0h46.481
				c4.284,0,6.338,2.522,7.275,4.831l68.105,161.248H127.594z"/>
		</defs>
		<use xlink:href="#SVGID_5_"  style="overflow:visible;fill-rule:evenodd;clip-rule:evenodd;fill:#131720;"/>
		<clipPath id="SVGID_6_">
			<use xlink:href="#SVGID_5_"  style="overflow:visible;"/>
		</clipPath>
		<polygon style="clip-path:url(#SVGID_6_);fill:#131720;" points="82.511,0 48.526,14.271 44.905,5.649 44.905,0 		"/>
		<polygon style="clip-path:url(#SVGID_6_);fill:#131720;" points="86.843,0 49.175,15.817 48.526,14.271 82.511,0 		"/>
		<polygon style="clip-path:url(#SVGID_6_);fill:#131720;" points="91.175,0 49.824,17.364 49.175,15.817 86.843,0 		"/>
		<polygon style="clip-path:url(#SVGID_6_);fill:#131720;" points="95.507,0 50.474,18.91 49.824,17.364 91.175,0 		"/>
		<polygon style="clip-path:url(#SVGID_6_);fill:#131720;" points="99.84,0 51.123,20.457 50.474,18.91 95.507,0 		"/>
		<polygon style="clip-path:url(#SVGID_6_);fill:#131720;" points="104.172,0 51.773,22.003 51.123,20.457 99.84,0 		"/>
		<polygon style="clip-path:url(#SVGID_6_);fill:#131720;" points="105.062,0 105.578,1.229 52.422,23.55 51.773,22.003 104.172,0 
					"/>
		
			<rect x="50.498" y="12.324" transform="matrix(0.922 -0.3872 0.3872 0.922 1.0904 31.7382)" style="clip-path:url(#SVGID_6_);fill:#131720;" width="57.652" height="1.677"/>
		
			<rect x="51.148" y="13.87" transform="matrix(0.922 -0.3872 0.3872 0.922 0.5423 32.1103)" style="clip-path:url(#SVGID_6_);fill:#131720;" width="57.652" height="1.677"/>
		
			<rect x="51.797" y="15.417" transform="matrix(0.922 -0.3872 0.3872 0.922 -0.0057 32.4823)" style="clip-path:url(#SVGID_6_);fill:#131720;" width="57.652" height="1.677"/>
		
			<rect x="52.447" y="16.963" transform="matrix(0.922 -0.3872 0.3872 0.922 -0.5538 32.8543)" style="clip-path:url(#SVGID_6_);fill:#131720;" width="57.652" height="1.677"/>
		
			<rect x="53.096" y="18.51" transform="matrix(0.922 -0.3872 0.3872 0.922 -1.1019 33.2263)" style="clip-path:url(#SVGID_6_);fill:#131720;" width="57.652" height="1.677"/>
		
			<rect x="53.745" y="20.056" transform="matrix(0.922 -0.3872 0.3872 0.922 -1.65 33.5984)" style="clip-path:url(#SVGID_6_);fill:#131720;" width="57.652" height="1.677"/>
		
			<rect x="54.395" y="21.603" transform="matrix(0.922 -0.3872 0.3872 0.922 -2.1981 33.9704)" style="clip-path:url(#SVGID_6_);fill:#131720;" width="57.652" height="1.677"/>
		
			<rect x="55.044" y="23.149" transform="matrix(0.922 -0.3872 0.3872 0.922 -2.7462 34.3424)" style="clip-path:url(#SVGID_6_);fill:#131720;" width="57.652" height="1.677"/>
		
			<rect x="55.694" y="24.696" transform="matrix(0.922 -0.3872 0.3872 0.922 -3.2943 34.7144)" style="clip-path:url(#SVGID_6_);fill:#131720;" width="57.652" height="1.677"/>
		
			<rect x="56.343" y="26.242" transform="matrix(0.922 -0.3872 0.3872 0.922 -3.8424 35.0865)" style="clip-path:url(#SVGID_6_);fill:#131720;" width="57.652" height="1.677"/>
		
			<rect x="56.992" y="27.789" transform="matrix(0.922 -0.3872 0.3872 0.922 -4.3905 35.4585)" style="clip-path:url(#SVGID_6_);fill:#131720;" width="57.652" height="1.677"/>
		
			<rect x="57.642" y="29.335" transform="matrix(0.922 -0.3872 0.3872 0.922 -4.9386 35.8306)" style="clip-path:url(#SVGID_6_);fill:#131720;" width="57.652" height="1.677"/>
		
			<rect x="58.291" y="30.882" transform="matrix(0.922 -0.3872 0.3872 0.922 -5.4867 36.2026)" style="clip-path:url(#SVGID_6_);fill:#131720;" width="57.652" height="1.677"/>
		
			<rect x="58.941" y="32.428" transform="matrix(0.922 -0.3872 0.3872 0.922 -6.0348 36.5746)" style="clip-path:url(#SVGID_6_);fill:#131720;" width="57.652" height="1.677"/>
		
			<rect x="59.59" y="33.975" transform="matrix(0.922 -0.3872 0.3872 0.922 -6.5829 36.9466)" style="clip-path:url(#SVGID_6_);fill:#131720;" width="57.652" height="1.677"/>
		
			<rect x="60.239" y="35.521" transform="matrix(0.922 -0.3872 0.3872 0.922 -7.131 37.3187)" style="clip-path:url(#SVGID_6_);fill:#131720;" width="57.652" height="1.677"/>
		
			<rect x="60.889" y="37.067" transform="matrix(0.922 -0.3872 0.3872 0.922 -7.6791 37.6907)" style="clip-path:url(#SVGID_6_);fill:#131720;" width="57.652" height="1.677"/>
		
			<rect x="61.538" y="38.614" transform="matrix(0.922 -0.3872 0.3872 0.922 -8.2272 38.0627)" style="clip-path:url(#SVGID_6_);fill:#131720;" width="57.652" height="1.677"/>
		
			<rect x="62.187" y="40.16" transform="matrix(0.922 -0.3872 0.3872 0.922 -8.7753 38.4347)" style="clip-path:url(#SVGID_6_);fill:#131720;" width="57.652" height="1.677"/>
		
			<rect x="62.837" y="41.707" transform="matrix(0.922 -0.3872 0.3872 0.922 -9.3234 38.8068)" style="clip-path:url(#SVGID_6_);fill:#131720;" width="57.652" height="1.677"/>
		
			<rect x="63.486" y="43.253" transform="matrix(0.922 -0.3872 0.3872 0.922 -9.8715 39.1788)" style="clip-path:url(#SVGID_6_);fill:#131720;" width="57.652" height="1.677"/>
		
			<rect x="64.136" y="44.8" transform="matrix(0.922 -0.3872 0.3872 0.922 -10.4196 39.5509)" style="clip-path:url(#SVGID_6_);fill:#131720;" width="57.652" height="1.677"/>
		
			<rect x="64.785" y="46.346" transform="matrix(0.922 -0.3872 0.3872 0.922 -10.9677 39.9229)" style="clip-path:url(#SVGID_6_);fill:#131720;" width="57.652" height="1.677"/>
		
			<rect x="65.434" y="47.893" transform="matrix(0.922 -0.3872 0.3872 0.922 -11.5158 40.2949)" style="clip-path:url(#SVGID_6_);fill:#131720;" width="57.652" height="1.677"/>
		
			<rect x="66.084" y="49.439" transform="matrix(0.922 -0.3872 0.3872 0.922 -12.0639 40.6669)" style="clip-path:url(#SVGID_6_);fill:#131720;" width="57.652" height="1.677"/>
		
			<rect x="66.733" y="50.986" transform="matrix(0.922 -0.3872 0.3872 0.922 -12.612 41.0389)" style="clip-path:url(#SVGID_6_);fill:#131720;" width="57.652" height="1.677"/>
		
			<rect x="67.383" y="52.532" transform="matrix(0.922 -0.3872 0.3872 0.922 -13.1601 41.411)" style="clip-path:url(#SVGID_6_);fill:#131720;" width="57.652" height="1.677"/>
		
			<rect x="68.032" y="54.079" transform="matrix(0.922 -0.3872 0.3872 0.922 -13.7082 41.783)" style="clip-path:url(#SVGID_6_);fill:#131720;" width="57.652" height="1.677"/>
		
			<rect x="68.681" y="55.625" transform="matrix(0.922 -0.3872 0.3872 0.922 -14.2563 42.155)" style="clip-path:url(#SVGID_6_);fill:#131720;" width="57.652" height="1.677"/>
		
			<rect x="69.331" y="57.172" transform="matrix(0.922 -0.3872 0.3872 0.922 -14.8044 42.5271)" style="clip-path:url(#SVGID_6_);fill:#131720;" width="57.652" height="1.677"/>
		
			<rect x="69.98" y="58.718" transform="matrix(0.922 -0.3872 0.3872 0.922 -15.3525 42.8991)" style="clip-path:url(#SVGID_6_);fill:#131720;" width="57.652" height="1.677"/>
		
			<rect x="70.63" y="60.265" transform="matrix(0.922 -0.3872 0.3872 0.922 -15.9006 43.2711)" style="clip-path:url(#SVGID_6_);fill:#131720;" width="57.652" height="1.677"/>
		
			<rect x="71.279" y="61.811" transform="matrix(0.922 -0.3872 0.3872 0.922 -16.4487 43.6431)" style="clip-path:url(#SVGID_6_);fill:#131720;" width="57.652" height="1.677"/>
		
			<rect x="71.928" y="63.358" transform="matrix(0.922 -0.3872 0.3872 0.922 -16.9967 44.0152)" style="clip-path:url(#SVGID_6_);fill:#131720;" width="57.652" height="1.677"/>
		
			<rect x="72.578" y="64.904" transform="matrix(0.922 -0.3872 0.3872 0.922 -17.5448 44.3872)" style="clip-path:url(#SVGID_6_);fill:#131720;" width="57.652" height="1.677"/>
		
			<rect x="73.227" y="66.451" transform="matrix(0.922 -0.3872 0.3872 0.922 -18.0929 44.7593)" style="clip-path:url(#SVGID_6_);fill:#131720;" width="57.652" height="1.677"/>
		
			<rect x="73.876" y="67.997" transform="matrix(0.922 -0.3872 0.3872 0.922 -18.641 45.1312)" style="clip-path:url(#SVGID_6_);fill:#131720;" width="57.652" height="1.677"/>
		
			<rect x="74.526" y="69.544" transform="matrix(0.922 -0.3872 0.3872 0.922 -19.1891 45.5033)" style="clip-path:url(#SVGID_6_);fill:#131720;" width="57.652" height="1.677"/>
		
			<rect x="75.175" y="71.09" transform="matrix(0.922 -0.3872 0.3872 0.922 -19.7372 45.8753)" style="clip-path:url(#SVGID_6_);fill:#131720;" width="57.652" height="1.677"/>
		
			<rect x="75.825" y="72.637" transform="matrix(0.922 -0.3872 0.3872 0.922 -20.2853 46.2473)" style="clip-path:url(#SVGID_6_);fill:#131720;" width="57.652" height="1.677"/>
		
			<rect x="76.474" y="74.183" transform="matrix(0.922 -0.3872 0.3872 0.922 -20.8334 46.6194)" style="clip-path:url(#SVGID_6_);fill:#131720;" width="57.652" height="1.677"/>
		
			<rect x="77.123" y="75.729" transform="matrix(0.922 -0.3872 0.3872 0.922 -21.3815 46.9914)" style="clip-path:url(#SVGID_6_);fill:#131720;" width="57.652" height="1.677"/>
		
			<rect x="77.773" y="77.276" transform="matrix(0.922 -0.3872 0.3872 0.922 -21.9296 47.3634)" style="clip-path:url(#SVGID_6_);fill:#131720;" width="57.652" height="1.677"/>
		
			<rect x="78.422" y="78.822" transform="matrix(0.922 -0.3872 0.3872 0.922 -22.4777 47.7355)" style="clip-path:url(#SVGID_6_);fill:#131720;" width="57.652" height="1.677"/>
		
			<rect x="79.072" y="80.369" transform="matrix(0.922 -0.3872 0.3872 0.922 -23.0258 48.1075)" style="clip-path:url(#SVGID_6_);fill:#131720;" width="57.652" height="1.677"/>
		
			<rect x="79.721" y="81.915" transform="matrix(0.922 -0.3872 0.3872 0.922 -23.5739 48.4795)" style="clip-path:url(#SVGID_6_);fill:#131720;" width="57.652" height="1.677"/>
		
			<rect x="80.37" y="83.462" transform="matrix(0.922 -0.3872 0.3872 0.922 -24.122 48.8516)" style="clip-path:url(#SVGID_6_);fill:#131720;" width="57.652" height="1.677"/>
		
			<rect x="81.02" y="85.008" transform="matrix(0.922 -0.3872 0.3872 0.922 -24.6701 49.2236)" style="clip-path:url(#SVGID_6_);fill:#131720;" width="57.652" height="1.677"/>
		
			<rect x="81.669" y="86.555" transform="matrix(0.922 -0.3872 0.3872 0.922 -25.2182 49.5956)" style="clip-path:url(#SVGID_6_);fill:#131720;" width="57.652" height="1.677"/>
		
			<rect x="82.502" y="88.064" transform="matrix(0.922 -0.3872 0.3872 0.922 -25.9215 50.073)" style="clip-path:url(#SVGID_6_);fill:#131720;" width="57.652" height="2.627"/>
		
			<rect x="83.52" y="90.487" transform="matrix(0.922 -0.3872 0.3872 0.922 -26.7801 50.6558)" style="clip-path:url(#SVGID_6_);fill:#131720;" width="57.652" height="2.627"/>
		
			<rect x="84.537" y="92.909" transform="matrix(0.922 -0.3872 0.3872 0.922 -27.6387 51.2386)" style="clip-path:url(#SVGID_6_);fill:#131720;" width="57.652" height="2.627"/>
		
			<rect x="85.554" y="95.332" transform="matrix(0.922 -0.3872 0.3872 0.922 -28.4973 51.8213)" style="clip-path:url(#SVGID_6_);fill:#131720;" width="57.652" height="2.627"/>
		
			<rect x="86.571" y="97.754" transform="matrix(0.922 -0.3872 0.3872 0.922 -29.3559 52.4041)" style="clip-path:url(#SVGID_6_);fill:#131720;" width="57.652" height="2.627"/>
		
			<rect x="87.589" y="100.177" transform="matrix(0.922 -0.3872 0.3872 0.922 -30.2145 52.9869)" style="clip-path:url(#SVGID_6_);fill:#131720;" width="57.652" height="2.627"/>
		
			<rect x="88.606" y="102.599" transform="matrix(0.922 -0.3872 0.3872 0.922 -31.073 53.5697)" style="clip-path:url(#SVGID_6_);fill:#131720;" width="57.652" height="2.627"/>
		
			<rect x="89.623" y="105.022" transform="matrix(0.922 -0.3872 0.3872 0.922 -31.9316 54.1525)" style="clip-path:url(#SVGID_6_);fill:#131720;" width="57.652" height="2.627"/>
		
			<rect x="90.64" y="107.445" transform="matrix(0.922 -0.3872 0.3872 0.922 -32.7902 54.7352)" style="clip-path:url(#SVGID_6_);fill:#131720;" width="57.652" height="2.627"/>
		
			<rect x="91.658" y="109.867" transform="matrix(0.922 -0.3872 0.3872 0.922 -33.6488 55.318)" style="clip-path:url(#SVGID_6_);fill:#131720;" width="57.652" height="2.627"/>
		
			<rect x="92.675" y="112.29" transform="matrix(0.922 -0.3872 0.3872 0.922 -34.5074 55.9008)" style="clip-path:url(#SVGID_6_);fill:#131720;" width="57.652" height="2.627"/>
		
			<rect x="93.692" y="114.712" transform="matrix(0.922 -0.3872 0.3872 0.922 -35.366 56.4836)" style="clip-path:url(#SVGID_6_);fill:#131720;" width="57.652" height="2.627"/>
		
			<rect x="94.709" y="117.135" transform="matrix(0.922 -0.3872 0.3872 0.922 -36.2246 57.0664)" style="clip-path:url(#SVGID_6_);fill:#131720;" width="57.652" height="2.627"/>
		
			<rect x="95.727" y="119.557" transform="matrix(0.922 -0.3872 0.3872 0.922 -37.0831 57.6491)" style="clip-path:url(#SVGID_6_);fill:#131720;" width="57.652" height="2.627"/>
		
			<rect x="96.744" y="121.98" transform="matrix(0.922 -0.3872 0.3872 0.922 -37.9417 58.2319)" style="clip-path:url(#SVGID_6_);fill:#131720;" width="57.652" height="2.627"/>
		
			<rect x="97.761" y="124.402" transform="matrix(0.922 -0.3872 0.3872 0.922 -38.8003 58.8147)" style="clip-path:url(#SVGID_6_);fill:#131720;" width="57.652" height="2.627"/>
		
			<rect x="98.778" y="126.825" transform="matrix(0.922 -0.3872 0.3872 0.922 -39.6589 59.3974)" style="clip-path:url(#SVGID_6_);fill:#131720;" width="57.652" height="2.627"/>
		
			<rect x="99.796" y="129.247" transform="matrix(0.922 -0.3872 0.3872 0.922 -40.5175 59.9802)" style="clip-path:url(#SVGID_6_);fill:#131720;" width="57.652" height="2.627"/>
		
			<rect x="100.813" y="131.67" transform="matrix(0.922 -0.3872 0.3872 0.922 -41.3761 60.563)" style="clip-path:url(#SVGID_6_);fill:#131720;" width="57.652" height="2.627"/>
		
			<rect x="101.83" y="134.092" transform="matrix(0.922 -0.3872 0.3872 0.922 -42.2347 61.1458)" style="clip-path:url(#SVGID_6_);fill:#131720;" width="57.652" height="2.627"/>
		
			<rect x="102.848" y="136.515" transform="matrix(0.922 -0.3872 0.3872 0.922 -43.0932 61.7285)" style="clip-path:url(#SVGID_6_);fill:#131720;" width="57.652" height="2.627"/>
		
			<rect x="103.865" y="138.937" transform="matrix(0.922 -0.3872 0.3872 0.922 -43.9518 62.3113)" style="clip-path:url(#SVGID_6_);fill:#131720;" width="57.652" height="2.627"/>
		
			<rect x="104.882" y="141.36" transform="matrix(0.922 -0.3872 0.3872 0.922 -44.8104 62.8941)" style="clip-path:url(#SVGID_6_);fill:#131720;" width="57.652" height="2.627"/>
		
			<rect x="105.899" y="143.783" transform="matrix(0.922 -0.3872 0.3872 0.922 -45.669 63.4769)" style="clip-path:url(#SVGID_6_);fill:#131720;" width="57.652" height="2.627"/>
		
			<rect x="106.917" y="146.205" transform="matrix(0.922 -0.3872 0.3872 0.922 -46.5276 64.0597)" style="clip-path:url(#SVGID_6_);fill:#131720;" width="57.652" height="2.627"/>
		
			<rect x="107.934" y="148.628" transform="matrix(0.922 -0.3872 0.3872 0.922 -47.3862 64.6424)" style="clip-path:url(#SVGID_6_);fill:#131720;" width="57.652" height="2.627"/>
		
			<rect x="108.951" y="151.05" transform="matrix(0.922 -0.3872 0.3872 0.922 -48.2448 65.2252)" style="clip-path:url(#SVGID_6_);fill:#131720;" width="57.652" height="2.627"/>
		<polygon style="clip-path:url(#SVGID_6_);fill:#131720;" points="164.864,142.415 165.881,144.837 115.294,166.08 112.272,166.08 
			111.708,164.736 		"/>
		<polygon style="clip-path:url(#SVGID_6_);fill:#131720;" points="165.881,144.837 166.898,147.26 122.08,166.08 115.294,166.08 		
			"/>
		<polygon style="clip-path:url(#SVGID_6_);fill:#131720;" points="166.898,147.26 167.916,149.682 128.866,166.08 122.08,166.08 		
			"/>
		<polygon style="clip-path:url(#SVGID_6_);fill:#131720;" points="167.916,149.682 168.933,152.105 135.653,166.08 128.866,166.08 
					"/>
		<polygon style="clip-path:url(#SVGID_6_);fill:#131720;" points="168.933,152.105 169.95,154.527 142.439,166.08 135.653,166.08 
					"/>
		<polygon style="clip-path:url(#SVGID_6_);fill:#131720;" points="169.95,154.527 170.967,156.95 149.226,166.08 142.439,166.08 		
			"/>
		<polygon style="clip-path:url(#SVGID_6_);fill:#131720;" points="170.967,156.95 174.423,165.18 174.423,166.08 149.226,166.08 		
			"/>
	</g>
</g>
</svg>
