<?xml version="1.0" encoding="iso-8859-1"?>
<!-- Generator: Adobe Illustrator 23.0.1, SVG Export Plug-In . SVG Version: 6.00 Build 0)  -->
<svg version="1.1" id="Layer_1" xmlns="http://www.w3.org/2000/svg" xmlns:xlink="http://www.w3.org/1999/xlink" x="0px" y="0px"
	 viewBox="0 0 334.758 82.109" style="enable-background:new 0 0 334.758 82.109;" xml:space="preserve">
<path style="fill:#131720;" d="M66.509,26.03c-0.45-6.775-1.554-23.459-1.554-23.459c-0.11-1.902-2.538-3.676-3.895,0.993
	c-1.631,5.23-11.434-9.585-36.408-0.603C17.775,5.433,0,17.574,0,41.046c0,32.002,26.74,41.063,36.948,41.063
	c13.794,0,28.588-5.123,32.42-24.067c0.894-4.419-2.535-4.296-3.776,0.422c-2.242,8.515-9.339,18.994-24.193,18.994
	c-9.615,0-26.857-5.531-26.857-33.837c0-23.432,12.198-39.844,25.366-39.844c9.713,0,18.399,4.364,22.653,21.087
	C63.848,29.926,66.742,29.543,66.509,26.03"/>
<path style="fill:#131720;" d="M91.524,55.83c-4.449,2.703-11.811,7.279-11.77,13.058c0.034,4.535,3.963,8.52,9.378,7.815
	c6.486-1.432,7.981-5.429,7.981-10.439c0,0.247,0-11.936,0-11.936c0.071-1.082-0.605-1.433-0.906-1.285
	C94.764,53.777,93.373,54.637,91.524,55.83l-1.392-3.602c6.909-1.568,6.589-5.685,6.589-6.774c0-2.143,0-5.133,0-5.823
	c0-8.499-10.73-10.026-14.508-3.052c-1.547,2.857-2.833,7.069-5.823,7.069c-3.365,0-6.149-2.312-5.133-5.841
	c3.487-12.107,24.034-9.679,29.429-7.445c5.106,2.116,8.036,7.199,8.036,11.576c0,4.898,0,30.659,0,30.659
	c0,1.667,2.278,6.841,8.709,2.399c0.928-0.827,2.328-0.921,1.553,1.522c-2.009,5.365-14.011,5.06-18.967,0.466
	c-0.62-0.77-2.366-2.018-5.055,0.613c-4.301,4.212-24.857,4.868-26.05-9.388c-0.519-6.18,4.104-12.781,12.616-14.205
	c1.435-0.24,7.458-1.408,8.604-1.776L91.524,55.83"/>
<path style="fill:#131720;" d="M238.14,55.279c0,13.847,6.393,22.593,16.316,22.593c5.951,0,11.504-5.851,11.504-11.951V46.259
	c0-9.82-8.729-13.246-12.051-13.246C244.623,33.013,238.14,43.629,238.14,55.279L226.836,55.2c0-6.993,3.72-20.933,17.313-24.204
	c13.082-3.148,18.479,1.663,19.706,2.881c0.544,0.552,2.41,1.693,2.41-1.676c0-0.77,0.033-16.957,0.033-17.744
	c0-5.848-4.862-11.543-9.261-11.543c-1.081,0.026-1.858-1.03-0.192-1.218l18.285-1.203c0.915-0.157,1.226,0.622,1.226,1.537v59.375
	c0,8.57,2.077,13.7,5.858,15.457c0.641,0.297,0.889,0.483,1.584,0.513c0.837,0.034,0.834,0.962-0.037,1.08l-15.075,2.08
	c-0.77,0.148-1.643-0.103-1.78-1.801c-0.149-1.763-0.405-3.698-3.624-0.747c-4.088,3.747-19.542,3.593-26.383-1.468
	c-6.843-5.058-10.063-11.502-10.063-21.319L238.14,55.279"/>
<path style="fill:#131720;" d="M170.536,54.387c0,8.874,0,13.08,0,13.851c0,4.256,2.621,10.256,7.141,10.256
	c1.073,0,1.083,0.992-0.008,0.992c-1.217,0-21.986,0-22.445,0c-1.353,0-1.446-1.149,0.008-1.149c2.283,0,5.259-4.722,5.259-10.099
	c0-5.055,0-12.971,0-13.733V44.277c0-5.784-5.204-10.396-11.04-10.396c-5.759,0-13.313,3.679-13.313,11.624
	c0,8.874,0,21.957,0,22.726c0,4.258,2.626,10.256,7.15,10.256c1.07,0,1.08,0.994-0.008,0.994c-1.219,0-22.082,0-22.539,0
	c-1.356,0-1.449-1.151,0.006-1.151c2.283,0,5.288-4.72,5.288-10.099c0-5.055,0-24.176,0-24.939c0-6.107-1.372-7.796-6.955-9.332
	c-1.532-0.537-1.281-1.163-0.079-1.452c0.042-0.01,12.246-1.841,12.246-1.841c1.827-0.265,4.617-1.232,4.617,3.588
	c0.142,1.86,1.92,2.09,4.245,0.155c1.149-0.838,4.804-4.107,10.871-4.107c9.19,0,19.556,1.652,19.556,13.137V54.387"/>
<path style="fill:#131720;" d="M200.607,55.83c-4.448,2.703-11.813,7.279-11.772,13.058c0.035,4.535,3.964,8.52,9.381,7.815
	c6.485-1.432,7.982-5.429,7.982-10.439c0,0.247,0-11.936,0-11.936c0.067-1.082-0.607-1.433-0.909-1.285
	C203.844,53.777,202.456,54.637,200.607,55.83l-1.393-3.602c6.909-1.568,6.59-5.685,6.59-6.774c0-2.143,0-5.133,0-5.823
	c0-8.499-10.731-10.026-14.508-3.052c-1.547,2.857-2.834,7.069-5.825,7.069c-3.361,0-6.148-2.312-5.132-5.841
	c3.489-12.107,24.035-9.679,29.429-7.445c5.106,2.116,8.038,7.199,8.038,11.576c0,4.898,0,30.659,0,30.659
	c0,1.667,2.276,6.841,8.707,2.399c0.927-0.827,2.327-0.921,1.552,1.522c-2.009,5.365-14.008,5.06-18.967,0.466
	c-0.619-0.77-2.363-2.018-5.055,0.613c-4.302,4.212-24.854,4.868-26.049-9.388c-0.517-6.18,4.105-12.781,12.618-14.205
	c1.432-0.24,7.457-1.408,8.602-1.776L200.607,55.83"/>
<path style="fill:#131720;" d="M307.073,55.83c-4.448,2.703-11.81,7.279-11.768,13.058c0.032,4.535,3.963,8.52,9.378,7.815
	c6.485-1.432,7.981-5.429,7.981-10.439c0,0.247,0-11.936,0-11.936c0.067-1.082-0.606-1.433-0.908-1.285
	c-1.443,0.734-2.833,1.594-4.68,2.787l-1.393-3.602c6.908-1.568,6.59-5.685,6.59-6.774c0-2.143,0-5.133,0-5.823
	c0-8.499-10.731-10.026-14.509-3.052c-1.548,2.857-2.833,7.069-5.827,7.069c-3.361,0-6.147-2.312-5.132-5.841
	c3.488-12.107,24.034-9.679,29.429-7.445c5.108,2.116,8.04,7.199,8.04,11.576c0,4.898,0,30.659,0,30.659
	c0,1.667,2.273,6.841,8.704,2.399c0.928-0.827,2.33-0.921,1.556,1.522c-2.009,5.365-14.008,5.06-18.967,0.466
	c-0.622-0.77-2.364-2.018-5.054,0.613c-4.303,4.212-24.859,4.868-26.053-9.388c-0.516-6.18,4.105-12.781,12.618-14.205
	c1.436-0.24,7.458-1.408,8.605-1.776L307.073,55.83"/>
<rect x="281.931" y="0.828" style="fill:#131720;" width="12.355" height="24.711"/>
<rect x="318.838" y="0.828" style="fill:#131720;" width="12.355" height="24.711"/>
<path style="fill:#131720;" d="M306.49,23.092h0.487l-0.093-3.807c0-0.047-0.06-0.663,0.557-0.558c0,0,3.284,0.465,4.106,0.558
	l0.419,0.03l-0.15-0.565c0,0-0.096-0.314-0.287-0.998c-0.238-0.822-0.187-0.696,0.277-1.16l4.082-3.333l-0.769-0.451
	c-0.53-0.373-0.459,0.023-0.065-1.554l0.467-1.824l-0.771,0.105c-2.157,0.234-1.578,0.769-2.252-0.788l-0.207-0.58l-2.647,2.494
	c-0.256,0.252-0.625,0.024-0.552-0.279l1.084-5.466l-1.458,0.764c-0.443,0.213-0.603,0.419-0.837-0.066
	c-0.271-0.572-1.016-2.103-1.391-2.892c-0.376,0.789-1.12,2.32-1.395,2.892c-0.23,0.485-0.393,0.279-0.835,0.066l-1.465-0.764
	l1.089,5.466c0.076,0.303-0.295,0.531-0.551,0.279l-2.647-2.494l-0.21,0.58c-0.671,1.557-0.091,1.022-2.248,0.788l-0.77-0.105
	l0.469,1.824c0.392,1.577,0.459,1.181-0.075,1.554l-0.762,0.451l4.086,3.333c0.461,0.464,0.513,0.338,0.275,1.16
	c-0.192,0.684-0.287,0.998-0.287,0.998l-0.151,0.565l0.417-0.03c0.823-0.093,4.109-0.558,4.109-0.558
	c0.614-0.105,0.556,0.511,0.556,0.558l-0.091,3.807H306.49"/>
</svg>
