<?xml version="1.0" encoding="iso-8859-1"?>
<!-- Generator: Adobe Illustrator 23.0.1, SVG Export Plug-In . SVG Version: 6.00 Build 0)  -->
<svg version="1.1" id="Layer_1" xmlns="http://www.w3.org/2000/svg" xmlns:xlink="http://www.w3.org/1999/xlink" x="0px" y="0px"
	 viewBox="0 0 436.102 202.623" style="enable-background:new 0 0 436.102 202.623;" xml:space="preserve">
<g>
	<path style="fill:#231F20;" d="M33.063,101.374c0,37.166,30.237,67.403,67.403,67.403h62.958c3.954,0,7.02-3.758,7.02-6.995V38.266
		c0-7.803,6.348-14.153,14.149-14.153c5.004,0,9.668,2.653,12.168,6.928c0.313,0.538,19.375,33.401,39.554,68.196
		c19.281,33.249,39.22,67.63,39.534,68.169c1.009,1.721,2.981,2.831,5.028,2.831c3.242,0,5.881-2.637,5.881-5.881V38.266
		c0-7.803,6.345-14.153,14.149-14.153c5.004,0,9.668,2.653,12.166,6.928c0.317,0.538,19.362,33.401,39.528,68.198
		c19.262,33.241,39.184,67.613,39.505,68.167c1.009,1.721,2.981,2.831,5.028,2.831c3.242,0,5.877-2.637,5.877-5.881V0.882h-24.816
		V98.19c0,0-44.964-77.392-46.42-79.881C325.212,7.089,312.765,0,299.518,0c-20.751,0-37.579,16.835-37.579,37.585V98.19
		c0,0-44.962-77.392-46.42-79.881C208.955,7.089,196.508,0,183.26,0c-20.751,0-37.579,16.835-37.579,37.585v99.587
		c0.013,3.624-2.711,6.783-6.678,6.79h-38.271c-23.519,0-42.586-19.067-42.586-42.587c0-23.521,19.067-42.587,42.586-42.587h32.057
		V33.971h-32.323C63.299,33.971,33.063,64.208,33.063,101.374"/>
	<path style="fill:#231F20;" d="M411.285,0.881v163.476c0,7.805-6.345,14.153-14.149,14.153c-5.004,0-9.668-2.653-12.168-6.926
		c-0.313-0.538-19.362-33.403-39.525-68.198c-19.266-33.24-39.182-67.615-39.508-68.167c-1.005-1.721-2.981-2.833-5.028-2.833
		c-3.242,0-5.877,2.637-5.877,5.879v126.092c0,7.805-6.348,14.153-14.151,14.153c-5.004,0-9.665-2.653-12.168-6.926
		c-0.313-0.538-19.375-33.401-39.554-68.198c-19.282-33.247-39.22-67.628-39.536-68.167c-1.009-1.721-2.981-2.833-5.028-2.833
		c-3.242,0-5.877,2.637-5.877,5.879v123.519c0,8.132-7.145,15.267-15.29,15.267h-62.958c-41.727,0-75.677-33.946-75.677-75.677
		c0-41.727,33.95-75.675,75.677-75.675h32.321V0.881h-32.292C44.995,0.881,0,45.872,0,101.374
		C0,156.877,44.995,201.87,100.496,201.87h63.561c24.078,0.013,39.563-14.095,39.53-40.117v-57.32c0,0,45.284,77.943,46.422,79.882
		c6.564,11.219,19.011,18.308,32.258,18.308c20.753,0,37.578-16.835,37.578-37.583v-60.607c0,0,44.964,77.394,46.42,79.882
		c6.566,11.219,19.012,18.308,32.26,18.308c20.751,0,37.578-16.835,37.578-37.583V0.881H411.285z"/>
	<path style="fill:#CECCCD;" d="M24.791,101.374c0,41.729,33.948,75.677,75.675,75.677h62.958c8.145,0,15.292-7.134,15.292-15.269
		V38.266c0-3.242,2.635-5.879,5.877-5.879c2.047,0,4.019,1.11,5.028,2.831c0.313,0.542,20.253,34.922,39.536,68.169
		c20.179,34.796,39.238,67.658,39.554,68.198c2.501,4.273,7.162,6.924,12.166,6.924c7.805,0,14.153-6.348,14.153-14.153V38.266
		c0-3.242,2.635-5.879,5.877-5.879c2.047,0,4.021,1.11,5.028,2.831c0.324,0.554,20.242,34.928,39.508,68.167
		c20.163,34.796,39.209,67.66,39.525,68.2c2.5,4.273,7.162,6.924,12.166,6.924c7.805,0,14.151-6.348,14.151-14.153V0.882h-8.274
		v163.474c0,3.244-2.635,5.881-5.878,5.881c-2.047,0-4.019-1.11-5.028-2.831c-0.322-0.554-20.242-34.926-39.505-68.167
		c-20.166-34.797-39.211-67.66-39.528-68.198c-2.5-4.274-7.162-6.928-12.166-6.928c-7.805,0-14.151,6.35-14.151,14.153v126.09
		c0,3.244-2.637,5.881-5.879,5.881c-2.047,0-4.019-1.11-5.028-2.831c-0.313-0.54-20.253-34.921-39.536-68.169
		c-20.179-34.796-39.238-67.658-39.554-68.196c-2.499-4.274-7.162-6.928-12.166-6.928c-7.803,0-14.149,6.35-14.149,14.153v123.517
		c0,3.237-3.066,6.995-7.02,6.995h-62.958c-37.166,0-67.403-30.237-67.403-67.403c0-37.166,30.237-67.403,67.403-67.403h32.321
		v-8.274h-32.321C58.739,25.698,24.791,59.646,24.791,101.374"/>
</g>
</svg>
