<?xml version="1.0" encoding="iso-8859-1"?>
<!-- Generator: Adobe Illustrator 23.0.1, SVG Export Plug-In . SVG Version: 6.00 Build 0)  -->
<svg version="1.1" id="Layer_1" xmlns="http://www.w3.org/2000/svg" xmlns:xlink="http://www.w3.org/1999/xlink" x="0px" y="0px"
	 viewBox="0 0 227.406 25.67" style="enable-background:new 0 0 227.406 25.67;" xml:space="preserve">
<g>
	<g>
		<g>
			<path style="fill:none;" d="M70.47,2.335c-0.275-0.023-0.545-0.063-0.825-0.012c-0.524,0.097-0.946,0.348-1.251,0.792
				c-0.157,0.229-0.234,0.488-0.279,0.763c-0.068,0.412-0.002,0.8,0.183,1.161c0.412,0.809,1.309,1.093,2.084,0.952
				c0.446-0.082,0.811-0.313,1.094-0.671c0.133-0.167,0.249-0.348,0.278-0.57c0.038-0.014,0.076-0.031,0.115-0.042
				c0.543-0.161,0.951-0.487,1.209-1.003c0.173-0.347,0.22-0.717,0.193-1.099c-0.028-0.405-0.161-0.773-0.422-1.081
				c-0.539-0.635-1.237-0.809-2.027-0.688c-0.12,0.018-0.244,0.032-0.352,0.107C70.47,1.412,70.47,1.873,70.47,2.335z
				 M70.464,21.332c0.003,0.066,0.007,0.132,0.007,0.198c0,0.793,0,1.586,0.001,2.379c0,0.063,0.004,0.127,0.006,0.184
				c0.789,0,1.556,0,2.326,0c0-5.347,0-10.684,0-16.028c-0.774,0-1.536,0-2.299,0c-0.656-0.002-1.312-0.003-1.968-0.004
				c-0.015,0-0.031,0.013-0.045,0.019c0,4.415,0,8.825,0,13.251C69.154,21.332,69.809,21.332,70.464,21.332z M51.792,10.623
				c0.335,0.251,0.534,0.59,0.645,0.993c0.116,0.424,0.145,0.856,0.14,1.292c0,0.039-0.01,0.079-0.017,0.134
				c-0.237,0-0.466,0-0.718,0c-0.017,0.505,0.003,0.994-0.012,1.481c-0.288,0.009-0.577,0.014-0.865,0.026
				c-0.619,0.024-1.238,0.044-1.857,0.076c-0.294,0.015-0.59,0.032-0.879,0.084c-0.445,0.078-0.892,0.164-1.326,0.288
				c-0.69,0.195-1.339,0.489-1.922,0.922c-0.697,0.518-1.204,1.179-1.482,2.009c-0.205,0.611-0.281,1.242-0.233,1.89
				c0.022,0.293,0.05,0.584,0.117,0.869c0.268,1.143,0.876,2.055,1.818,2.737c0.883,0.639,1.881,0.95,2.95,1.036
				c0.447,0.036,0.898,0.025,1.345-0.034c0.551-0.073,1.085-0.217,1.597-0.437c0.253-0.109,0.495-0.247,0.728-0.366
				c0.031-0.445,0.018-1.934-0.017-2.071c-0.016,0.007-0.033,0.013-0.047,0.021c-0.848,0.487-1.753,0.676-2.722,0.557
				c-0.431-0.053-0.842-0.165-1.228-0.367c-1.034-0.541-1.547-1.552-1.398-2.766c0.103-0.832,0.558-1.429,1.285-1.821
				c0.535-0.288,1.112-0.425,1.705-0.49c0.55-0.06,1.105-0.081,1.658-0.117c0.241-0.016,0.483-0.029,0.724-0.045
				c0.016-0.001,0.03-0.014,0.052-0.025c0-0.432,0-0.865,0-1.297c0.256-0.014,0.512-0.028,0.775-0.042c0,0.792,0,1.56,0,2.327
				c-0.216,0.32-0.485,0.587-0.765,0.828c-0.031,0.922-0.017,2.195,0.031,2.341c0.28-0.172,0.52-0.388,0.782-0.638
				c0,0.458,0,0.88,0,1.302c1.001,0,1.98,0,2.974,0c0-0.073,0-0.138,0-0.203c0-2.506-0.001-5.012,0.001-7.517
				c0-0.443-0.013-0.884-0.066-1.325c-0.045-0.374-0.118-0.741-0.221-1.102c-0.183-0.641-0.493-1.214-0.921-1.718
				c-0.487-0.573-1.084-0.994-1.779-1.264c-0.262-0.101-0.524-0.212-0.807-0.246C51.82,7.937,51.806,7.923,51.79,7.92
				c-0.568-0.115-1.144-0.152-1.721-0.171c-0.425-0.015-0.848,0.018-1.271,0.057c-0.493,0.045-0.981,0.126-1.462,0.24
				c-1.013,0.238-1.983,0.602-2.904,1.092c-0.14,0.074-0.278,0.154-0.43,0.239c0.327,0.726,0.63,1.448,0.961,2.164
				c0.174-0.097,0.326-0.187,0.482-0.27c0.797-0.422,1.637-0.727,2.515-0.922c0.496-0.11,0.999-0.164,1.505-0.187
				c0.365-0.017,0.73,0.015,1.093,0.059C50.997,10.273,51.41,10.397,51.792,10.623z M62.418,18.757
				c-0.003-0.162-0.009-0.324-0.009-0.486c-0.001-2.474-0.001-4.947,0-7.421c0-0.052,0.005-0.105,0.009-0.173
				c0.807,0,1.602,0,2.393,0c0-0.879,0-1.741,0-2.614c-0.833,0-1.654,0-2.475,0c-0.001-1.006-0.002-2.013-0.003-3.017
				c-0.969,0-1.913,0-2.876,0c0,1.01,0,2.012,0,3.014c-0.376,0.004-0.752,0.007-1.126,0.011c-0.032,0.444-0.018,2.47,0.021,2.622
				c0.293,0,0.592,0,0.9,0c0,0.088,0,0.16,0,0.231c0,2.367-0.002,4.733,0.001,7.099c0,0.474,0.021,0.947,0.026,1.421
				c0.006,0.479,0.045,0.956,0.108,1.431c0.056,0.416,0.141,0.824,0.293,1.215c0.274,0.71,0.711,1.296,1.333,1.728
				c0.643,0.447,1.375,0.611,2.139,0.637c0.311,0.011,0.625-0.007,0.936-0.032c0.244-0.019,0.486-0.068,0.723-0.103
				c0.032-0.418,0.019-2.529-0.016-2.664c-0.382,0.013-0.766,0.03-1.141-0.075c0.072-0.098,0.189-0.078,0.286-0.104
				c0.322-0.087,0.643-0.172,0.946-0.334c-0.012-0.21-0.019-0.418-0.036-0.625c-0.03-0.386-0.068-0.771-0.098-1.157
				c-0.018-0.232-0.026-0.465-0.043-0.697c-0.005-0.062-0.027-0.123-0.043-0.194c-0.119,0.061-0.223,0.115-0.328,0.166
				c-0.499,0.246-1.022,0.342-1.572,0.239C62.647,18.853,62.534,18.798,62.418,18.757z M23.967,7.798
				c-0.022-0.007-0.043-0.02-0.065-0.021c-0.3-0.011-0.597-0.038-0.9-0.013c-0.548,0.045-1.068,0.181-1.556,0.429
				c-0.895,0.455-1.523,1.174-1.957,2.079c-0.016,0.033-0.038,0.064-0.063,0.105c0-0.779,0-1.538,0-2.305c-1.053,0-2.107,0-3.157,0
				c0,5.348,0,10.685,0,16.019c1.063,0,2.112,0,3.174,0c0-0.094,0-0.178,0-0.261c-0.002-0.811-0.003-1.622-0.005-2.433
				c0.547-0.001,1.094-0.002,1.65-0.003c0-0.09,0-0.156,0-0.222c0-1.321-0.003-2.642,0.001-3.963
				c0.003-0.942,0.02-1.883,0.024-2.824c0.002-0.408,0.042-0.811,0.117-1.21c0.09-0.482,0.231-0.947,0.478-1.374
				c0.246-0.425,0.572-0.757,1.023-0.953c0.101-0.043,0.204-0.079,0.306-0.119c0.309-0.065,0.616-0.012,0.923,0.018
				c0.572,0.121,1.138,0.266,1.685,0.49c0.009-0.024,0.019-0.04,0.02-0.056c0.013-0.178,0.024-0.357,0.038-0.535
				c0.033-0.44,0.068-0.879,0.1-1.319c0.023-0.309,0.046-0.618,0.067-0.927c0.004-0.057,0.001-0.115,0.001-0.174
				C25.232,8.032,24.611,7.866,23.967,7.798z M9.651,10.578c0.093,0.014,0.185,0.029,0.278,0.041
				c0.435,0.055,0.845,0.193,1.24,0.379c0.524,0.248,0.975,0.6,1.373,1.023c0.081,0.087,0.168,0.168,0.267,0.267
				c0.37-0.811,0.768-1.6,1.132-2.423c-0.182-0.183-0.349-0.358-0.524-0.526c-0.306-0.294-0.662-0.516-1.032-0.715
				c-0.464-0.25-0.958-0.424-1.464-0.552c-0.415-0.104-0.835-0.194-1.267-0.193c-0.482-0.09-0.971-0.107-1.459-0.129
				c-0.217-0.01-0.436,0.016-0.653,0.02c-0.337,0.005-0.669,0.053-1,0.111C5.849,8.002,5.183,8.214,4.546,8.516
				c-0.969,0.46-1.815,1.089-2.528,1.903c-0.438,0.499-0.809,1.044-1.109,1.639c-0.343,0.679-0.585,1.394-0.735,2.141
				c-0.098,0.487-0.164,0.979-0.173,1.476c-0.007,0.413,0.013,0.827,0.028,1.24c0.018,0.51,0.11,1.01,0.23,1.503
				c0.184,0.751,0.462,1.467,0.844,2.14c0.578,1.02,1.344,1.867,2.297,2.532c1.177,0.821,2.489,1.266,3.91,1.367
				c0.577,0.04,1.157,0.021,1.735-0.033c0.198-0.019,0.394-0.051,0.608-0.08c0-0.915,0-1.821,0-2.726
				c0.232-0.035,0.464-0.069,0.695-0.104c0.673-0.101,1.312-0.312,1.92-0.616c0.43-0.215,0.823-0.489,1.178-0.814
				c0.201-0.184,0.386-0.386,0.579-0.581c-0.387-0.819-0.766-1.625-1.155-2.449c-0.854,1.058-1.95,1.618-3.253,1.806
				c0,0.901,0,1.794,0,2.688c-0.368,0.093-0.742,0.135-1.119,0.142c-0.265,0.005-0.531-0.014-0.795-0.029
				c-0.36-0.021-0.71-0.103-1.052-0.214c-1.058-0.342-1.889-0.99-2.503-1.926c-0.622-0.948-0.892-2.01-0.953-3.132
				c-0.025-0.461-0.004-0.921,0.061-1.381c0.086-0.609,0.252-1.193,0.523-1.741c0.538-1.089,1.349-1.896,2.453-2.387
				c0.511-0.227,1.048-0.361,1.604-0.397c0.513-0.033,1.027-0.013,1.536,0.069C9.464,10.565,9.558,10.569,9.651,10.578z
				 M37.837,21.291c-0.028,0.009-0.056,0.017-0.083,0.028c-0.744,0.315-1.52,0.516-2.321,0.577
				c-0.634,0.048-1.272,0.048-1.904-0.088c-1.02-0.219-1.887-0.694-2.573-1.499c-0.475-0.557-0.79-1.201-0.996-1.903
				c-0.13-0.443-0.193-0.897-0.243-1.354c-0.007-0.063-0.001-0.128-0.001-0.204c2.737,0,5.456,0,8.194,0c0-0.401,0-0.79,0-1.179
				c1.064,0,2.128,0,3.189,0c0.017-0.035,0.034-0.055,0.037-0.077c0.026-0.243,0.07-0.486,0.07-0.729
				c0-0.286,0.039-0.569,0.019-0.858c-0.025-0.37-0.051-0.738-0.116-1.102c-0.102-0.573-0.275-1.121-0.526-1.644
				c-0.343-0.712-0.799-1.336-1.396-1.855c-0.401-0.348-0.834-0.642-1.312-0.867c-0.047-0.026-0.093-0.053-0.141-0.076
				c-0.999-0.466-2.054-0.681-3.148-0.712c-0.2-0.006-0.401,0.008-0.601,0.022c-0.258,0.019-0.517,0.04-0.774,0.073
				c-0.728,0.094-1.426,0.301-2.098,0.601c-1.285,0.574-2.332,1.443-3.139,2.608c-0.502,0.726-0.863,1.521-1.106,2.373
				c-0.207,0.727-0.329,1.468-0.346,2.225c-0.01,0.424,0,0.852,0.03,1.276c0.03,0.411,0.075,0.823,0.153,1.227
				c0.183,0.957,0.504,1.865,0.996,2.707c0.513,0.878,1.174,1.62,1.996,2.211c1.213,0.872,2.58,1.291,4.047,1.385
				c0.642,0.041,1.286,0.019,1.928-0.054c0.557-0.063,1.106-0.158,1.649-0.298c0.197-0.051,0.391-0.117,0.59-0.177
				c0-0.832,0-1.643,0-2.454c0.033-0.012,0.066-0.025,0.099-0.036c0.568-0.185,1.104-0.439,1.611-0.759
				c0.371-0.235,0.705-0.519,1.027-0.818c0.103-0.096,0.199-0.2,0.295-0.296c-0.161-0.289-1.346-1.948-1.456-2.034
				c-0.514,0.368-1.022,0.755-1.604,1.02c0,0.078,0,0.137,0,0.197c0,0.781,0,1.561,0,2.342
				C37.883,21.16,37.899,21.234,37.837,21.291z"/>
			<path style="fill-rule:evenodd;clip-rule:evenodd;fill:#333333;" d="M37.909,15.669c0,0.389,0,0.777,0,1.179
				c-2.738,0-5.457,0-8.194,0c0,0.076-0.006,0.141,0.001,0.204c0.05,0.457,0.114,0.912,0.243,1.354
				c0.206,0.703,0.521,1.346,0.996,1.903c0.686,0.805,1.553,1.28,2.573,1.499c0.632,0.136,1.27,0.137,1.904,0.088
				c0.801-0.062,1.577-0.262,2.321-0.577c0.027-0.011,0.056-0.019,0.083-0.028c0.013,0.033,0.027,0.066,0.04,0.098
				c0.011,0.028,0.022,0.056,0.034,0.085c0,0.811,0,1.622,0,2.454c-0.199,0.06-0.393,0.126-0.59,0.177
				c-0.542,0.14-1.092,0.235-1.649,0.298c-0.642,0.073-1.286,0.095-1.928,0.054c-1.467-0.095-2.834-0.513-4.047-1.385
				c-0.822-0.592-1.482-1.334-1.996-2.211c-0.492-0.842-0.814-1.75-0.996-2.707c-0.077-0.404-0.123-0.816-0.153-1.227
				c-0.031-0.424-0.04-0.851-0.03-1.276c0.017-0.756,0.139-1.498,0.346-2.225c0.243-0.852,0.604-1.646,1.106-2.373
				c0.807-1.165,1.854-2.035,3.139-2.608c0.672-0.3,1.37-0.507,2.098-0.601c0.257-0.033,0.516-0.054,0.774-0.073
				c0.2-0.014,0.401-0.028,0.601-0.022c1.094,0.031,2.149,0.247,3.148,0.712c0.048,0.023,0.094,0.05,0.141,0.076
				c0.001,1.067,0.002,2.135,0.001,3.202c0,0.036-0.022,0.073-0.034,0.109c-0.275-0.355-0.579-0.678-0.94-0.946
				c-0.755-0.559-1.613-0.797-2.535-0.813c-0.252-0.005-0.504,0.035-0.756,0.06c-0.383,0.037-0.751,0.145-1.103,0.299
				c-0.989,0.432-1.701,1.163-2.195,2.125c-0.258,0.502-0.425,1.036-0.52,1.592c-0.027,0.159-0.078,0.325-0.031,0.498
				c0.072,0,0.137,0,0.202,0c2.572,0,5.145,0,7.717,0.001c0.065,0,0.13,0.003,0.195,0.006c0.001,0.29,0,0.581,0.003,0.871
				C37.879,15.584,37.899,15.626,37.909,15.669z"/>
			<path style="fill-rule:evenodd;clip-rule:evenodd;fill:#333333;" d="M9.652,21.618c0,0.906,0,1.812,0,2.726
				c-0.214,0.028-0.41,0.061-0.608,0.08c-0.577,0.054-1.157,0.073-1.735,0.033c-1.421-0.101-2.733-0.546-3.91-1.367
				c-0.953-0.665-1.719-1.512-2.297-2.532c-0.382-0.673-0.66-1.389-0.844-2.14c-0.121-0.493-0.212-0.993-0.23-1.503
				c-0.015-0.414-0.035-0.827-0.028-1.24c0.008-0.497,0.075-0.989,0.173-1.476c0.15-0.748,0.392-1.462,0.735-2.141
				c0.3-0.595,0.671-1.139,1.109-1.639c0.713-0.813,1.559-1.443,2.528-1.903C5.183,8.214,5.849,8.002,6.543,7.88
				c0.331-0.058,0.663-0.107,1-0.111c0.218-0.003,0.436-0.029,0.653-0.02c0.488,0.022,0.977,0.039,1.459,0.129
				c-0.001,0.9-0.003,1.8-0.004,2.7c-0.093-0.009-0.186-0.014-0.278-0.028c-0.51-0.082-1.023-0.101-1.536-0.069
				c-0.556,0.035-1.092,0.169-1.604,0.397c-1.105,0.491-1.915,1.299-2.453,2.387c-0.271,0.548-0.436,1.132-0.523,1.741
				c-0.065,0.46-0.087,0.92-0.061,1.381c0.061,1.123,0.331,2.184,0.953,3.132c0.614,0.935,1.445,1.584,2.503,1.926
				c0.343,0.111,0.692,0.193,1.052,0.214c0.265,0.015,0.53,0.034,0.795,0.029c0.377-0.007,0.752-0.049,1.119-0.142
				C9.629,21.57,9.64,21.594,9.652,21.618z"/>
			<path style="fill-rule:evenodd;clip-rule:evenodd;fill:#333333;" d="M23.96,10.747c-0.307-0.03-0.614-0.083-0.923-0.018
				c-0.018-0.012-0.036-0.033-0.055-0.034c-0.283-0.015-0.559,0.025-0.831,0.103c-0.277,0.079-0.538,0.192-0.785,0.344
				c-0.413,0.255-0.763,0.576-1.034,0.981c-0.201,0.3-0.342,0.635-0.458,0.979c-0.141,0.42-0.264,0.844-0.317,1.286
				c-0.024,0.193-0.05,0.387-0.071,0.58c-0.026,0.235-0.066,0.471-0.067,0.707c-0.005,1.868-0.003,3.737-0.003,5.605
				c0,0.039,0.014,0.078,0.021,0.117c0.002,0.811,0.003,1.622,0.005,2.433c0,0.083,0,0.167,0,0.261c-1.062,0-2.111,0-3.174,0
				c0-5.333,0-10.67,0-16.019c1.05,0,2.104,0,3.157,0c0,0.766,0,1.526,0,2.305c0.025-0.042,0.047-0.072,0.063-0.105
				c0.434-0.905,1.062-1.624,1.957-2.079c0.489-0.248,1.008-0.384,1.556-0.429c0.303-0.025,0.6,0.002,0.9,0.013
				c0.022,0.001,0.043,0.013,0.065,0.021c-0.002,0.072-0.006,0.144-0.006,0.216C23.96,8.925,23.96,9.836,23.96,10.747z"/>
			<path style="fill-rule:evenodd;clip-rule:evenodd;fill:#333333;" d="M63.654,21.581c0.376,0.104,0.759,0.087,1.141,0.075
				c0.035,0.135,0.048,2.245,0.016,2.664c-0.237,0.035-0.479,0.084-0.723,0.103c-0.311,0.025-0.625,0.043-0.936,0.032
				c-0.765-0.027-1.496-0.191-2.139-0.637c-0.622-0.432-1.059-1.018-1.333-1.728c-0.151-0.391-0.237-0.799-0.293-1.215
				c-0.063-0.475-0.103-0.951-0.108-1.431c-0.005-0.473-0.025-0.947-0.026-1.421c-0.003-2.366-0.001-4.733-0.001-7.099
				c0-0.071,0-0.143,0-0.231c-0.308,0-0.607,0-0.9,0c-0.039-0.153-0.053-2.178-0.021-2.622c0.374-0.004,0.75-0.008,1.126-0.011
				c0.96,0.001,1.92,0.002,2.879,0.003c0.821,0,1.642,0,2.475,0c0,0.874,0,1.735,0,2.614c-0.791,0-1.586,0-2.393,0
				c-0.004,0.068-0.009,0.12-0.009,0.173c-0.001,2.474-0.001,4.948,0,7.421c0,0.162,0.006,0.324,0.009,0.486
				c-0.014,0.19,0.005,0.378,0.019,0.568c0.018,0.231,0.037,0.459,0.078,0.687c0.072,0.394,0.191,0.769,0.438,1.088
				C63.135,21.335,63.37,21.497,63.654,21.581z"/>
			<path style="fill-rule:evenodd;clip-rule:evenodd;fill:#333333;" d="M51.83,15.203c0,0.432,0,0.864,0,1.297
				c-0.022,0.011-0.037,0.024-0.052,0.025c-0.241,0.015-0.483,0.028-0.724,0.045c-0.553,0.036-1.107,0.057-1.658,0.117
				c-0.592,0.065-1.17,0.202-1.705,0.49c-0.727,0.392-1.183,0.989-1.285,1.821c-0.149,1.214,0.363,2.225,1.398,2.766
				c0.386,0.202,0.797,0.314,1.228,0.367c0.969,0.119,1.875-0.07,2.722-0.557c0.014-0.008,0.031-0.014,0.047-0.021
				c0.035,0.136,0.048,1.625,0.017,2.071c-0.234,0.118-0.475,0.257-0.728,0.366c-0.511,0.22-1.046,0.364-1.597,0.437
				c-0.447,0.059-0.898,0.07-1.345,0.034c-1.069-0.085-2.067-0.397-2.95-1.036c-0.941-0.682-1.549-1.595-1.818-2.737
				c-0.067-0.285-0.095-0.576-0.117-0.869c-0.048-0.648,0.028-1.278,0.233-1.89c0.278-0.83,0.785-1.491,1.482-2.009
				c0.584-0.434,1.232-0.727,1.922-0.922c0.435-0.124,0.881-0.209,1.326-0.288c0.289-0.051,0.585-0.069,0.879-0.084
				c0.619-0.032,1.238-0.053,1.857-0.076c0.288-0.011,0.577-0.017,0.865-0.026C51.83,14.749,51.83,14.976,51.83,15.203z"/>
			<path style="fill-rule:evenodd;clip-rule:evenodd;fill:#808080;" d="M51.83,15.203c0-0.227,0-0.454,0-0.68
				c0.015-0.488-0.005-0.977,0.012-1.481c0.253,0,0.481,0,0.718,0c0.007-0.055,0.016-0.095,0.017-0.134
				c0.005-0.436-0.024-0.868-0.14-1.292c-0.111-0.403-0.31-0.742-0.645-0.993c0.012-0.036,0.034-0.072,0.035-0.109
				c0.004-0.15,0.001-0.299,0.002-0.449c0.002-0.706,0.004-1.413,0.005-2.12c0.283,0.034,0.545,0.144,0.807,0.246
				c0.695,0.27,1.292,0.691,1.779,1.264c0.429,0.504,0.738,1.077,0.921,1.718c0.103,0.361,0.176,0.727,0.221,1.102
				c0.053,0.441,0.066,0.882,0.066,1.325c-0.001,2.505-0.001,5.011-0.001,7.517c0,0.064,0,0.129,0,0.203c-0.994,0-1.973,0-2.974,0
				c0-0.422,0-0.844,0-1.302c-0.262,0.25-0.503,0.466-0.782,0.638c-0.048-0.146-0.062-1.42-0.031-2.341
				c0.28-0.241,0.548-0.508,0.765-0.828c0-0.767,0-1.535,0-2.327C52.342,15.175,52.086,15.189,51.83,15.203z"/>
			<path style="fill-rule:evenodd;clip-rule:evenodd;fill:#333333;" d="M70.504,8.066c0.762,0,1.525,0,2.299,0
				c0,5.343,0,10.681,0,16.028c-0.77,0-1.537,0-2.326,0c-0.002-0.058-0.006-0.121-0.006-0.184c0-0.793,0-1.586-0.001-2.379
				c0-0.066-0.004-0.132-0.007-0.198c0.075-0.053,0.037-0.132,0.037-0.197c0.002-4.284,0.002-8.568,0.002-12.852
				C70.503,8.21,70.503,8.138,70.504,8.066z"/>
			<path style="fill-rule:evenodd;clip-rule:evenodd;fill:#808080;" d="M70.504,8.066c-0.001,0.072-0.002,0.144-0.002,0.216
				c0,4.284,0,8.569-0.002,12.852c0,0.065,0.039,0.144-0.037,0.197c-0.655,0-1.31,0-1.973,0c0-4.425,0-8.836,0-13.251
				c0.014-0.006,0.03-0.019,0.045-0.019C69.192,8.063,69.848,8.064,70.504,8.066z"/>
			<path style="fill-rule:evenodd;clip-rule:evenodd;fill:#333333;" d="M51.834,7.946c-0.002,0.707-0.004,1.413-0.005,2.12
				c0,0.15,0.002,0.299-0.002,0.449c-0.001,0.036-0.023,0.073-0.035,0.109c-0.382-0.226-0.796-0.35-1.234-0.403
				c-0.364-0.044-0.728-0.076-1.093-0.059c-0.506,0.023-1.009,0.077-1.505,0.187c-0.879,0.195-1.718,0.5-2.515,0.922
				c-0.156,0.083-0.308,0.172-0.482,0.27c-0.332-0.716-0.635-1.437-0.961-2.164c0.152-0.085,0.29-0.164,0.43-0.239
				c0.922-0.49,1.891-0.854,2.904-1.092c0.481-0.113,0.969-0.194,1.462-0.24c0.423-0.039,0.847-0.071,1.271-0.057
				c0.577,0.019,1.153,0.056,1.721,0.171C51.806,7.923,51.82,7.937,51.834,7.946z"/>
			<path style="fill-rule:evenodd;clip-rule:evenodd;fill:#808080;" d="M37.842,11.848c0.012-0.036,0.034-0.073,0.034-0.109
				c0.001-1.067,0-2.134-0.001-3.202c0.478,0.225,0.911,0.519,1.312,0.867c0.597,0.519,1.053,1.143,1.396,1.855
				c0.251,0.523,0.424,1.071,0.526,1.644c0.065,0.365,0.091,0.733,0.116,1.102c0.02,0.289-0.019,0.572-0.019,0.858
				c-0.001,0.243-0.044,0.486-0.07,0.729c-0.002,0.022-0.02,0.042-0.037,0.077c-1.061,0-2.125,0-3.189,0
				c-0.011-0.042-0.03-0.085-0.031-0.128c-0.003-0.291-0.003-0.581-0.003-0.871c0.012-0.056,0.032-0.111,0.033-0.167
				c0.003-0.329,0.001-0.659,0.002-0.988c0-0.046,0.007-0.092,0.013-0.153c0.12,0,0.229,0,0.348,0
				C38.285,12.799,38.135,12.302,37.842,11.848z"/>
			<path style="fill-rule:evenodd;clip-rule:evenodd;fill:#808080;" d="M19.438,21.398c-0.007-0.039-0.021-0.078-0.021-0.117
				c-0.001-1.868-0.003-3.737,0.003-5.605c0.001-0.236,0.041-0.472,0.067-0.707c0.021-0.193,0.047-0.387,0.071-0.58
				c0.054-0.442,0.176-0.866,0.317-1.286c0.116-0.345,0.256-0.679,0.458-0.979c0.271-0.405,0.62-0.726,1.034-0.981
				c0.247-0.152,0.508-0.265,0.785-0.344c0.272-0.078,0.548-0.118,0.831-0.103c0.019,0.001,0.037,0.022,0.055,0.034
				c-0.102,0.039-0.206,0.076-0.306,0.119c-0.451,0.195-0.777,0.527-1.023,0.953c-0.247,0.427-0.388,0.892-0.478,1.374
				c-0.075,0.399-0.115,0.802-0.117,1.21c-0.005,0.941-0.021,1.883-0.024,2.824c-0.004,1.321-0.001,2.642-0.001,3.963
				c0,0.066,0,0.132,0,0.222C20.532,21.396,19.985,21.397,19.438,21.398z"/>
			<path style="fill-rule:evenodd;clip-rule:evenodd;fill:#808080;" d="M9.652,21.618c-0.012-0.024-0.023-0.047-0.035-0.071
				c0-0.893,0-1.787,0-2.688c1.303-0.188,2.399-0.748,3.253-1.806c0.389,0.824,0.769,1.63,1.155,2.449
				c-0.194,0.195-0.379,0.397-0.579,0.581c-0.355,0.326-0.749,0.6-1.178,0.814c-0.608,0.305-1.248,0.515-1.92,0.616
				C10.116,21.549,9.884,21.583,9.652,21.618z"/>
			<path style="fill-rule:evenodd;clip-rule:evenodd;fill:#808080;" d="M9.651,10.578c0.001-0.9,0.003-1.8,0.004-2.7
				c0.432-0.002,0.852,0.088,1.267,0.193c0.507,0.128,1.001,0.302,1.464,0.552c0.37,0.2,0.726,0.422,1.032,0.715
				c0.174,0.168,0.342,0.343,0.524,0.526c-0.364,0.823-0.762,1.612-1.132,2.423c-0.099-0.098-0.186-0.18-0.267-0.267
				c-0.398-0.423-0.848-0.775-1.373-1.023c-0.395-0.186-0.805-0.324-1.24-0.379C9.836,10.607,9.743,10.592,9.651,10.578z"/>
			<path style="fill-rule:evenodd;clip-rule:evenodd;fill:#333333;" d="M70.47,2.335c0-0.462,0-0.924,0-1.391
				c0.108-0.075,0.232-0.089,0.352-0.107c0.79-0.12,1.488,0.053,2.027,0.688c0.261,0.308,0.394,0.676,0.422,1.081
				c0.026,0.382-0.02,0.752-0.193,1.099c-0.257,0.516-0.666,0.843-1.209,1.003c-0.039,0.011-0.076,0.028-0.115,0.042
				c-0.103,0.01-0.207,0.026-0.311,0.029c-0.263,0.009-0.525,0.004-0.781-0.07c-0.054-0.016-0.107-0.034-0.143-0.046
				c-0.018-0.235-0.047-0.448-0.049-0.66C70.464,3.448,70.47,2.891,70.47,2.335z"/>
			<path style="fill-rule:evenodd;clip-rule:evenodd;fill:#808080;" d="M62.336,8.063c-0.959-0.001-1.919-0.002-2.879-0.003
				c0-1.002,0-2.004,0-3.014c0.962,0,1.907,0,2.876,0C62.334,6.05,62.335,7.056,62.336,8.063z"/>
			<path style="fill-rule:evenodd;clip-rule:evenodd;fill:#808080;" d="M70.47,2.335c-0.001,0.556-0.006,1.112,0,1.669
				c0.002,0.212,0.031,0.425,0.049,0.66c0.036,0.012,0.089,0.03,0.143,0.046c0.256,0.074,0.518,0.079,0.781,0.07
				c0.104-0.003,0.207-0.019,0.311-0.029c-0.028,0.222-0.145,0.403-0.278,0.57c-0.283,0.357-0.648,0.589-1.094,0.671
				c-0.775,0.141-1.672-0.143-2.084-0.952c-0.184-0.362-0.251-0.75-0.183-1.161c0.045-0.276,0.122-0.534,0.279-0.763
				c0.305-0.444,0.727-0.695,1.251-0.792C69.925,2.272,70.196,2.312,70.47,2.335z"/>
			<path style="fill-rule:evenodd;clip-rule:evenodd;fill:#808080;" d="M37.911,21.474c-0.011-0.028-0.022-0.056-0.034-0.085
				c-0.013-0.033-0.027-0.066-0.04-0.098c0.061-0.057,0.045-0.131,0.045-0.202c0-0.78,0-1.561,0-2.342c0-0.06,0-0.119,0-0.197
				c0.582-0.264,1.09-0.652,1.604-1.02c0.11,0.087,1.295,1.745,1.456,2.034c-0.095,0.096-0.192,0.2-0.295,0.296
				c-0.322,0.299-0.656,0.583-1.027,0.818c-0.506,0.32-1.043,0.574-1.611,0.759C37.977,21.45,37.944,21.462,37.911,21.474z"/>
			<path style="fill-rule:evenodd;clip-rule:evenodd;fill:#808080;" d="M63.654,21.581c-0.285-0.084-0.52-0.247-0.701-0.481
				c-0.247-0.319-0.366-0.695-0.438-1.088c-0.042-0.227-0.061-0.456-0.078-0.687c-0.014-0.19-0.034-0.378-0.019-0.568
				c0.116,0.041,0.23,0.096,0.349,0.119c0.55,0.103,1.073,0.007,1.572-0.239c0.105-0.052,0.209-0.106,0.328-0.166
				c0.017,0.071,0.039,0.132,0.043,0.194c0.017,0.232,0.025,0.464,0.043,0.697c0.03,0.386,0.068,0.771,0.098,1.157
				c0.016,0.207,0.024,0.414,0.036,0.625c-0.303,0.162-0.625,0.247-0.946,0.334C63.843,21.503,63.727,21.483,63.654,21.581z"/>
			<path style="fill-rule:evenodd;clip-rule:evenodd;fill:#808080;" d="M23.96,10.747c0-0.911,0-1.822,0.001-2.733
				c0-0.072,0.004-0.144,0.006-0.216c0.643,0.068,1.265,0.234,1.904,0.428c0,0.059,0.003,0.117-0.001,0.174
				c-0.021,0.309-0.044,0.618-0.067,0.927c-0.033,0.439-0.067,0.879-0.1,1.319c-0.013,0.178-0.024,0.357-0.038,0.535
				c-0.001,0.016-0.011,0.032-0.02,0.056C25.098,11.014,24.532,10.869,23.96,10.747z"/>
			<path style="fill-rule:evenodd;clip-rule:evenodd;fill:none;" d="M37.842,11.848c0.293,0.455,0.443,0.951,0.429,1.515
				c-0.119,0-0.228,0-0.348,0c-0.006,0.061-0.013,0.107-0.013,0.153c-0.001,0.329,0.001,0.659-0.002,0.988
				c-0.001,0.056-0.021,0.111-0.033,0.167c-0.065-0.002-0.13-0.006-0.195-0.006c-2.572-0.001-5.145-0.001-7.717-0.001
				c-0.065,0-0.129,0-0.202,0c-0.047-0.173,0.004-0.339,0.031-0.498c0.095-0.556,0.262-1.09,0.52-1.592
				c0.494-0.963,1.206-1.693,2.195-2.125c0.352-0.154,0.72-0.262,1.103-0.299c0.252-0.025,0.504-0.064,0.756-0.06
				c0.922,0.016,1.779,0.254,2.535,0.813C37.263,11.169,37.567,11.493,37.842,11.848z"/>
		</g>
		<g>
			<path style="fill:none;" d="M71.754,4.754c0.038-0.014,0.076-0.03,0.115-0.042c0.542-0.162,0.952-0.486,1.209-1.003
				c0.173-0.348,0.219-0.717,0.193-1.099c-0.028-0.405-0.162-0.773-0.422-1.081c-0.538-0.638-1.236-0.809-2.026-0.689
				c-0.12,0.018-0.244,0.032-0.353,0.107c0,0.467,0,0.93,0,1.392c-0.275-0.024-0.545-0.063-0.825-0.012
				c-0.524,0.097-0.946,0.348-1.251,0.792c-0.157,0.229-0.234,0.487-0.279,0.763c-0.068,0.411-0.002,0.8,0.183,1.161
				c0.412,0.809,1.309,1.094,2.084,0.952c0.446-0.082,0.811-0.313,1.094-0.671C71.609,5.157,71.726,4.976,71.754,4.754z
				 M70.464,21.336c0.003,0.066,0.007,0.132,0.007,0.197c0,0.793,0,1.587,0.001,2.38c0,0.063,0.004,0.126,0.006,0.184
				c0.789,0,1.556,0,2.326,0c0-5.347,0-10.685,0-16.028c-0.774,0-1.536,0-2.299,0c-0.656-0.002-1.968-0.004-1.968-0.004
				l-0.045,0.019c0,0,0,8.825,0,13.251C69.154,21.336,69.809,21.336,70.464,21.336z M82.608,18.88
				c-0.024-0.019-0.058-0.033-0.069-0.059c-0.234-0.547-0.465-1.096-0.696-1.645c-0.206-0.488-0.41-0.976-0.614-1.465
				c-0.254-0.609-0.506-1.22-0.763-1.829c-0.228-0.543-0.462-1.084-0.69-1.628c-0.261-0.619-0.519-1.241-0.778-1.862
				c-0.218-0.522-0.434-1.045-0.652-1.566c-0.105-0.252-0.213-0.503-0.319-0.75c-0.266-0.033-3.068-0.022-3.202,0.016
				c1.859,4.415,3.718,8.829,5.577,13.243c0.085,0,0.15,0,0.214,0c0.651,0.001,1.301,0.003,1.952,0.005c0,0.917,0,1.834,0,2.765
				c0.169,0,0.315,0,0.462,0c0.147,0,0.293,0,0.443,0c2.168-5.351,4.33-10.686,6.496-16.032c-1.101,0-2.181,0-3.261,0
				c-0.382,1.004-0.762,2.001-1.142,2.998c-0.371,0.975-0.742,1.95-1.112,2.925c-0.453,1.193-0.907,2.385-1.358,3.578
				C82.933,18.01,82.771,18.445,82.608,18.88z M95.608,21.657c0,0.899,0,1.797,0,2.709c0.315,0.035,0.607,0.083,0.9,0.096
				c0.791,0.034,1.582,0.008,2.366-0.108c0.787-0.117,1.557-0.312,2.299-0.608c0.914-0.363,1.749-0.86,2.48-1.529
				c0.095-0.088,0.184-0.183,0.281-0.28c-0.443-0.626-0.876-1.237-1.304-1.842c-0.03,0.006-0.044,0.006-0.053,0.011
				c-0.04,0.024-0.081,0.048-0.12,0.076c-0.586,0.427-1.211,0.785-1.88,1.062c-0.541,0.224-1.096,0.398-1.673,0.49
				c-0.314,0.049-0.631,0.077-0.946,0.115c-0.531,0.065-1.059,0.016-1.584-0.065c-0.244-0.038-0.486-0.088-0.728-0.133
				c-0.003-0.071-0.008-0.144-0.008-0.215c-0.001-0.822,0-1.644,0-2.465c0-0.059,0-0.118,0-0.17
				c-1.557-0.604-2.165-2.116-2.219-3.232c0.059,0,0.116,0,0.174,0c0.532,0,1.063-0.001,1.595,0c0.148,0,0.295,0.005,0.442,0.008
				c0.002,0.423,0.005,0.846,0.007,1.267c0.522,0.039,8.681,0.021,8.825-0.021c0.026-0.268,0.062-0.54,0.076-0.813
				c0.037-0.714,0.017-1.427-0.106-2.132c-0.153-0.87-0.422-1.7-0.848-2.476c-0.515-0.937-1.202-1.717-2.068-2.331
				c-1.251-0.887-2.659-1.277-4.168-1.317c-0.411-0.011-0.824,0.034-1.235,0.065c-0.161,0.013-0.32,0.062-0.48,0.094
				c-0.542,0.09-1.063,0.25-1.562,0.48c-0.799,0.368-1.494,0.878-2.081,1.545c-0.497,0.564-0.88,1.198-1.165,1.892
				c-0.37,0.903-0.515,1.854-0.541,2.827c-0.003,0.124,0.017,0.249,0.025,0.375c0.013,0.203,0.024,0.405,0.036,0.608
				c0.022,0.376,0.094,0.743,0.179,1.109c0.226,0.967,0.621,1.851,1.244,2.622c0.527,0.651,1.153,1.177,1.89,1.57
				C94.278,21.274,94.93,21.501,95.608,21.657z M108.816,8.102c-0.038,0.48-0.02,15.862,0.019,16.005c0.062,0,0.127,0,0.191,0
				c1.804,0,3.609,0.002,5.413-0.001c0.472-0.001,0.944-0.016,1.417-0.028c0.466-0.012,0.927-0.082,1.38-0.188
				c0.797-0.185,1.529-0.505,2.16-1.052c0.845-0.734,1.286-1.666,1.37-2.778c0.027-0.363,0.03-0.73-0.027-1.095
				c-0.063-0.406-0.183-0.791-0.377-1.15c-0.358-0.661-0.889-1.141-1.542-1.49c-0.51-0.272-1.056-0.435-1.619-0.543
				c-0.095-0.018-0.19-0.042-0.284-0.063c0.174-0.08,0.343-0.141,0.516-0.183c0.432-0.106,0.794-0.335,1.106-0.646
				c0.709-0.706,1.028-1.589,1.09-2.577c0.017-0.268-0.008-0.539-0.03-0.807c-0.029-0.354-0.121-0.694-0.265-1.017
				c-0.418-0.944-1.142-1.55-2.074-1.922c-0.659-0.263-1.351-0.364-2.05-0.422c-0.388-0.032-0.778-0.041-1.168-0.042
				c-1.68-0.004-3.36-0.002-5.04-0.002C108.945,8.102,108.886,8.102,108.816,8.102z M135.314,9.586
				c-0.054-0.052-0.09-0.091-0.131-0.126c-0.457-0.387-0.972-0.68-1.516-0.914c-1.099-0.472-2.258-0.658-3.444-0.686
				c-0.229-0.006-0.46,0.008-0.689,0.024c-0.3,0.021-0.601,0.038-0.898,0.082c-0.577,0.085-1.142,0.226-1.691,0.43
				c-0.889,0.33-1.703,0.796-2.415,1.432c-0.781,0.698-1.396,1.524-1.841,2.481c-0.536,1.156-0.773,2.379-0.803,3.646
				c-0.009,0.4,0.026,0.802,0.058,1.201c0.024,0.298,0.06,0.596,0.118,0.888c0.177,0.896,0.476,1.749,0.933,2.541
				c0.503,0.871,1.159,1.601,1.956,2.203c0.537,0.407,1.123,0.723,1.745,0.975c0.985,0.398,2.011,0.584,3.065,0.624
				c0.294,0.011,0.589-0.013,0.884-0.021c0.478-0.012,0.949-0.082,1.417-0.179c1.14-0.237,2.171-0.711,3.072-1.463
				c0.158-0.132,0.304-0.28,0.457-0.422c-0.37-0.886-0.728-1.759-1.102-2.639c-0.042,0.036-0.065,0.054-0.086,0.074
				c-0.363,0.339-0.768,0.617-1.208,0.84c-1.08,0.546-2.224,0.757-3.426,0.657c-0.389-0.033-0.769-0.105-1.14-0.225
				c-0.836-0.269-1.55-0.735-2.117-1.414c-0.789-0.947-1.132-2.068-1.187-3.289c-0.011-0.245,0.01-0.491,0.021-0.736
				c0.026-0.596,0.152-1.172,0.364-1.728c0.326-0.854,0.845-1.56,1.578-2.1c0.746-0.55,1.592-0.82,2.5-0.894
				c0.495-0.041,0.992-0.024,1.482,0.072c0.956,0.189,1.833,0.567,2.624,1.146c0.133,0.097,0.261,0.2,0.409,0.315
				C134.642,11.443,134.976,10.521,135.314,9.586z"/>
			<path style="fill-rule:evenodd;clip-rule:evenodd;fill:#333333;" d="M108.816,8.102h0.187c0,0,3.36-0.003,5.04,0.002
				c0.39,0.001,0.78,0.01,1.168,0.042c0.699,0.058,1.392,0.16,2.05,0.422c0.932,0.371,1.656,0.977,2.074,1.922
				c0.144,0.323,0.236,0.663,0.265,1.017c0.021,0.268,0.046,0.539,0.03,0.807c-0.062,0.987-0.382,1.87-1.09,2.577
				c-0.311,0.31-0.674,0.539-1.106,0.646c-0.173,0.042-0.342,0.103-0.516,0.183c0.094,0.021,0.189,0.045,0.284,0.063
				c0.564,0.107,1.109,0.27,1.619,0.543c0.653,0.349,1.184,0.829,1.542,1.49c0.194,0.359,0.314,0.744,0.377,1.15
				c0.057,0.365,0.054,0.731,0.027,1.095c-0.084,1.113-0.525,2.045-1.37,2.778c-0.631,0.547-1.363,0.867-2.16,1.052
				c-0.454,0.106-0.914,0.176-1.38,0.188c-0.472,0.012-0.944,0.027-1.417,0.028c-1.804,0.003-3.609,0.001-5.413,0.001
				c-0.065,0-0.191,0-0.191,0L108.816,8.102z M112.191,17.02c-0.035,0.239-0.024,4.393,0.012,4.521
				c0.021,0.002,0.044,0.005,0.067,0.005c0.951-0.009,1.902-0.012,2.852-0.033c0.423-0.009,0.825-0.125,1.191-0.349
				c0.318-0.195,0.59-0.438,0.772-0.773c0.307-0.565,0.334-1.166,0.181-1.773c-0.176-0.699-0.664-1.124-1.299-1.393
				c-0.427-0.182-0.884-0.2-1.335-0.209c-0.768-0.016-1.537-0.005-2.305-0.004C112.281,17.012,112.235,17.017,112.191,17.02z
				 M112.181,14.708c0.168,0,0.316,0.003,0.463,0c0.697-0.015,1.394,0.038,2.09-0.042c0.575-0.067,1.042-0.337,1.388-0.802
				c0.423-0.569,0.455-1.22,0.291-1.88c-0.175-0.701-0.686-1.077-1.335-1.284c-0.254-0.081-0.521-0.101-0.785-0.104
				c-0.662-0.01-1.324-0.006-1.987-0.006c-0.04,0-0.08,0.005-0.126,0.008C112.181,11.968,112.181,13.328,112.181,14.708z"/>
			<path style="fill-rule:evenodd;clip-rule:evenodd;fill:#333333;" d="M135.314,9.586c-0.339,0.935-0.673,1.857-1.012,2.795
				c-0.148-0.114-0.276-0.218-0.409-0.315c-0.791-0.579-1.669-0.957-2.624-1.146c-0.49-0.097-0.987-0.113-1.482-0.072
				c-0.908,0.074-1.754,0.344-2.5,0.894c-0.733,0.539-1.252,1.246-1.578,2.1c-0.212,0.556-0.337,1.132-0.364,1.728
				c-0.011,0.245-0.032,0.492-0.021,0.736c0.056,1.221,0.399,2.343,1.187,3.289c0.567,0.679,1.28,1.145,2.117,1.414
				c0.371,0.12,0.751,0.192,1.14,0.225c1.202,0.1,2.346-0.111,3.426-0.657c0.44-0.223,0.845-0.501,1.208-0.84
				c0.021-0.02,0.044-0.039,0.086-0.074c0.374,0.881,0.732,1.754,1.102,2.639c-0.153,0.142-0.298,0.289-0.457,0.422
				c-0.901,0.752-1.931,1.226-3.072,1.463c-0.468,0.097-0.939,0.168-1.417,0.179c-0.295,0.007-0.59,0.031-0.884,0.021
				c-1.054-0.04-2.081-0.226-3.065-0.624c-0.622-0.252-1.208-0.568-1.745-0.975c-0.796-0.602-1.452-1.332-1.956-2.203
				c-0.458-0.792-0.756-1.645-0.933-2.541c-0.058-0.292-0.094-0.591-0.118-0.888c-0.032-0.399-0.067-0.801-0.058-1.201
				c0.029-1.267,0.266-2.49,0.803-3.646c0.446-0.958,1.061-1.783,1.841-2.481c0.712-0.636,1.526-1.102,2.415-1.432
				c0.549-0.204,1.114-0.345,1.691-0.43c0.297-0.044,0.598-0.061,0.898-0.082c0.229-0.016,0.459-0.029,0.689-0.024
				c1.186,0.029,2.344,0.215,3.444,0.686c0.545,0.234,1.059,0.526,1.516,0.914C135.224,9.495,135.26,9.534,135.314,9.586z"/>
			<path style="fill-rule:evenodd;clip-rule:evenodd;fill:#333333;" d="M95.634,7.914c0.16-0.033,0.318-0.081,0.48-0.094
				c0.411-0.032,0.824-0.076,1.235-0.065c1.509,0.04,2.917,0.43,4.168,1.317c0.867,0.614,1.554,1.393,2.068,2.331
				c0.426,0.775,0.695,1.606,0.848,2.476c0.123,0.705,0.143,1.418,0.106,2.132c-0.014,0.273-0.05,0.545-0.076,0.813
				c-0.144,0.042-8.303,0.06-8.825,0.021c-0.002-0.421-0.005-0.844-0.007-1.267c0.002-0.304,0.005-0.608,0.008-0.913
				c0.012,0.001,0.024,0.003,0.035,0.003c1.928,0,3.856,0,5.783-0.001c0.034,0,0.067-0.009,0.111-0.015
				c-0.027-0.234-0.039-0.462-0.081-0.684c-0.12-0.62-0.336-1.206-0.662-1.747c-0.34-0.566-0.772-1.043-1.315-1.412
				c-0.727-0.495-1.541-0.698-2.405-0.715c-0.318-0.007-0.632,0.055-0.94,0.14c-0.176,0.049-0.35,0.102-0.525,0.153
				c-0.001-0.089-0.001-0.179-0.002-0.269C95.637,9.383,95.635,8.648,95.634,7.914z"/>
			<path style="fill-rule:evenodd;clip-rule:evenodd;fill:#808080;" d="M95.634,7.914c0.001,0.734,0.003,1.468,0.004,2.202
				c0,0.09,0.001,0.179,0.002,0.269c-0.072,0.038-0.144,0.079-0.218,0.111c-0.353,0.148-0.662,0.364-0.933,0.634
				c-0.487,0.485-0.792,1.077-0.975,1.738c-0.037,0.133-0.054,0.273-0.084,0.43c0.751,0,1.475,0,2.209,0c0,0.466,0,0.916,0,1.365
				c-0.003,0.305-0.005,0.609-0.008,0.913c-0.147-0.003-0.295-0.008-0.442-0.008c-0.532-0.001-1.063,0-1.595,0
				c-0.058,0-0.116,0-0.174,0c0.054,1.116,0.661,2.629,2.219,3.232c0,0.052,0,0.111,0,0.17c0,0.821-0.001,1.643,0,2.465
				c0,0.071,0.006,0.144,0.008,0.215c-0.013,0.002-0.025,0.005-0.038,0.007c-0.678-0.157-1.331-0.383-1.949-0.714
				c-0.736-0.393-1.363-0.919-1.89-1.57c-0.623-0.771-1.019-1.656-1.244-2.622c-0.085-0.366-0.157-0.733-0.179-1.109
				c-0.012-0.203-0.024-0.406-0.036-0.608c-0.008-0.125-0.028-0.25-0.025-0.375c0.026-0.973,0.17-1.924,0.541-2.827
				c0.285-0.695,0.668-1.328,1.165-1.892c0.588-0.667,1.283-1.177,2.081-1.545C94.57,8.165,95.092,8.004,95.634,7.914z"/>
			<path style="fill-rule:evenodd;clip-rule:evenodd;fill:#333333;" d="M82.608,18.88c0.163-0.435,0.325-0.871,0.49-1.305
				c0.452-1.193,0.905-2.385,1.358-3.578c0.37-0.975,0.741-1.95,1.112-2.925c0.379-0.997,0.759-1.994,1.142-2.998
				c1.08,0,2.16,0,3.261,0c-2.167,5.346-4.328,10.682-6.496,16.032c-0.15,0-0.297,0-0.443,0c-0.147,0-0.293,0-0.462,0
				c0-0.931,0-1.848,0-2.765c0.001-0.721,0.002-1.441,0.006-2.162C82.576,19.079,82.596,18.98,82.608,18.88z"/>
			<path style="fill-rule:evenodd;clip-rule:evenodd;fill:#808080;" d="M82.608,18.88c-0.012,0.1-0.032,0.199-0.033,0.299
				c-0.004,0.721-0.004,1.441-0.006,2.162c-0.651-0.001-1.301-0.003-1.952-0.005c-0.065,0-0.129,0-0.214,0
				c-1.859-4.414-5.577-13.243-5.577-13.243l3.202-0.016c0,0,0.213,0.498,0.319,0.75c0.218,0.521,0.434,1.044,0.652,1.566
				c0.259,0.621,0.517,1.242,0.778,1.862c0.229,0.543,0.462,1.085,0.69,1.628c0.256,0.609,0.508,1.22,0.763,1.829
				c0.204,0.489,0.409,0.977,0.614,1.465c0.231,0.549,0.462,1.097,0.696,1.645C82.549,18.847,82.584,18.861,82.608,18.88z"/>
			<path style="fill-rule:evenodd;clip-rule:evenodd;fill:#333333;" d="M95.608,21.657c0.013-0.002,0.026-0.004,0.038-0.007
				c0.243,0.044,0.485,0.095,0.728,0.133c0.525,0.081,1.053,0.13,1.584,0.065c0.315-0.038,0.632-0.066,0.946-0.115
				c0.577-0.091,1.133-0.266,1.673-0.49c0.669-0.277,1.293-0.634,1.88-1.062c0.038-0.028,0.079-0.052,0.12-0.076
				c0.009-0.006,0.023-0.005,0.053-0.011c0.428,0.605,0.861,1.215,1.304,1.842c-0.097,0.097-0.186,0.192-0.281,0.28
				c-0.731,0.669-1.566,1.166-2.48,1.529c-0.742,0.295-1.511,0.491-2.299,0.608c-0.784,0.116-1.575,0.143-2.366,0.108
				c-0.293-0.012-0.584-0.061-0.9-0.096C95.608,23.454,95.608,22.556,95.608,21.657z"/>
			<path style="fill-rule:evenodd;clip-rule:evenodd;fill:none;" d="M112.191,17.02c0.044-0.002,0.09-0.008,0.136-0.008
				c0.768,0,1.537-0.012,2.305,0.004c0.451,0.009,0.908,0.028,1.335,0.209c0.635,0.269,1.123,0.694,1.299,1.393
				c0.153,0.607,0.126,1.208-0.181,1.773c-0.182,0.335-0.454,0.578-0.772,0.773c-0.366,0.225-0.769,0.34-1.191,0.349
				c-0.951,0.021-1.902,0.023-2.852,0.033c-0.023,0-0.046-0.003-0.067-0.005C112.167,21.413,112.156,17.259,112.191,17.02z"/>
			<path style="fill-rule:evenodd;clip-rule:evenodd;fill:none;" d="M112.181,14.708c0-1.381,0-2.74,0-4.11
				c0.046-0.003,0.086-0.008,0.126-0.008c0.662,0,1.324-0.003,1.987,0.006c0.264,0.003,0.531,0.023,0.785,0.104
				c0.648,0.207,1.159,0.582,1.335,1.284c0.165,0.66,0.132,1.311-0.291,1.88c-0.346,0.465-0.813,0.736-1.388,0.802
				c-0.695,0.08-1.393,0.027-2.09,0.042C112.497,14.711,112.349,14.708,112.181,14.708z"/>
			<path style="fill-rule:evenodd;clip-rule:evenodd;fill:none;" d="M95.638,14.664c0-0.449,0-0.899,0-1.365
				c-0.734,0-1.458,0-2.209,0c0.03-0.157,0.047-0.297,0.084-0.43c0.183-0.661,0.488-1.253,0.975-1.738
				c0.271-0.27,0.58-0.486,0.933-0.634c0.075-0.032,0.146-0.073,0.218-0.111c0.175-0.051,0.349-0.104,0.525-0.153
				c0.307-0.085,0.621-0.147,0.94-0.14c0.864,0.017,1.678,0.221,2.405,0.715c0.543,0.37,0.975,0.847,1.315,1.412
				c0.326,0.542,0.542,1.127,0.662,1.747c0.042,0.222,0.054,0.45,0.081,0.684c-0.044,0.007-0.078,0.015-0.111,0.015
				c-1.927,0.001-3.855,0.001-5.783,0.001C95.662,14.667,95.65,14.665,95.638,14.664z"/>
		</g>
	</g>
	<g>
		<g>
			<path style="fill:#FFFFFF;" d="M160.835,16.678c4.428,0,10.552,2.493,14.996,2.493c3.171,0,6.265-0.846,8.027-2.093
				c0.123-0.731,0.188-1.483,0.188-2.25c0-7.441-6.032-13.474-13.474-13.474c-7.442,0-13.474,6.033-13.474,13.474
				c0,0.758,0.064,1.501,0.184,2.224C157.768,16.963,159.419,16.678,160.835,16.678z"/>
			<g>
				<g>
					<rect x="191.114" y="19.32" style="fill:#808080;" width="31.166" height="0.378"/>
					<path d="M191.913,5.817c0-0.633-0.045-0.8-0.472-0.835l-0.297-0.021c-0.049-0.038-0.035-0.21,0.01-0.214
						c0.512-0.046,1.157-0.068,2.04-0.068c0.598,0,1.167,0.043,1.594,0.239c0.408,0.179,0.721,0.521,0.721,1.069
						c0,0.615-0.399,0.932-0.968,1.171c0,0.086,0.076,0.111,0.18,0.128c0.512,0.086,1.271,0.513,1.271,1.428
						c0,0.992-0.816,1.659-2.524,1.659c-0.275,0-0.74-0.026-1.139-0.026c-0.418,0-0.74,0.017-1.092,0.026
						c-0.057-0.026-0.076-0.162-0.019-0.214l0.171-0.025c0.503-0.077,0.522-0.171,0.522-1.069V5.817z M192.691,6.953
						c0,0.239,0.01,0.257,0.494,0.239c0.967-0.034,1.49-0.291,1.49-1.094c0-0.838-0.693-1.154-1.413-1.154
						c-0.209,0-0.352,0.017-0.437,0.051c-0.095,0.026-0.133,0.068-0.133,0.222V6.953z M192.691,8.937
						c0,0.308,0.019,0.744,0.199,0.932c0.18,0.197,0.465,0.239,0.75,0.239c0.845,0,1.49-0.342,1.49-1.197
						c0-0.675-0.379-1.462-1.888-1.462c-0.513,0-0.551,0.051-0.551,0.222V8.937z"/>
					<path d="M202.589,6.658c0-0.774-0.016-0.898-0.494-0.934l-0.203-0.015c-0.049-0.029-0.032-0.161,0.016-0.183
						c0.405,0.015,0.681,0.022,1.021,0.022c0.324,0,0.6-0.007,1.005-0.022c0.049,0.022,0.065,0.153,0.016,0.183l-0.202,0.015
						c-0.478,0.036-0.494,0.16-0.494,0.934v2.6c0,0.774,0.016,0.876,0.494,0.927l0.202,0.022c0.049,0.029,0.033,0.161-0.016,0.183
						c-0.405-0.015-0.681-0.022-1.005-0.022c-0.341,0-0.616,0.007-1.021,0.022c-0.048-0.022-0.065-0.139-0.016-0.183l0.203-0.022
						c0.478-0.051,0.494-0.153,0.494-0.927V6.658z"/>
					<path d="M207.086,9.273c0,0.767,0.015,0.876,0.456,0.913l0.243,0.022c0.046,0.029,0.03,0.161-0.015,0.183
						c-0.433-0.015-0.691-0.022-0.995-0.022c-0.304,0-0.57,0.007-1.056,0.022c-0.045-0.022-0.061-0.146,0-0.183l0.273-0.022
						c0.433-0.036,0.471-0.146,0.471-0.913V6.008c0-0.226,0-0.233-0.228-0.233h-0.418c-0.326,0-0.744,0.014-0.934,0.182
						c-0.182,0.161-0.258,0.321-0.341,0.504c-0.061,0.044-0.167,0.007-0.198-0.051c0.121-0.329,0.235-0.796,0.288-1.088
						c0.023-0.015,0.122-0.022,0.144,0c0.046,0.233,0.296,0.226,0.646,0.226h3.076c0.41,0,0.478-0.015,0.592-0.205
						c0.038-0.014,0.122-0.007,0.137,0.022c-0.084,0.299-0.137,0.891-0.114,1.11c-0.03,0.058-0.16,0.058-0.197,0.014
						c-0.023-0.183-0.076-0.453-0.19-0.533c-0.175-0.124-0.463-0.182-0.881-0.182h-0.539c-0.228,0-0.22,0.007-0.22,0.248V9.273z"/>
					<path d="M210.341,6.658c0-0.774-0.016-0.898-0.494-0.934l-0.203-0.015c-0.048-0.029-0.032-0.161,0.016-0.183
						c0.405,0.015,0.681,0.022,1.022,0.022c0.324,0,0.6-0.007,1.005-0.022c0.049,0.022,0.065,0.153,0.017,0.183L211.5,5.724
						c-0.478,0.036-0.494,0.16-0.494,0.934v2.6c0,0.774,0.016,0.876,0.494,0.927l0.203,0.022c0.049,0.029,0.032,0.161-0.017,0.183
						c-0.405-0.015-0.681-0.022-1.005-0.022c-0.341,0-0.617,0.007-1.022,0.022c-0.048-0.022-0.065-0.139-0.016-0.183l0.203-0.022
						c0.478-0.051,0.494-0.153,0.494-0.927V6.658z"/>
					<path d="M213.974,10.465c-0.724,0-1.181-0.19-1.344-0.27c-0.103-0.161-0.215-0.679-0.233-1.022
						c0.043-0.051,0.172-0.066,0.207-0.022c0.129,0.372,0.482,1.088,1.482,1.088c0.724,0,1.077-0.402,1.077-0.84
						c0-0.321-0.078-0.679-0.707-1.022l-0.819-0.453c-0.431-0.241-0.931-0.657-0.931-1.256c0-0.694,0.637-1.256,1.758-1.256
						c0.267,0,0.577,0.044,0.801,0.095c0.112,0.029,0.233,0.044,0.302,0.044c0.078,0.175,0.156,0.584,0.156,0.891
						c-0.035,0.044-0.173,0.066-0.215,0.022c-0.112-0.351-0.345-0.825-1.172-0.825c-0.845,0-1.025,0.475-1.025,0.81
						c0,0.424,0.413,0.731,0.732,0.898l0.689,0.365c0.543,0.285,1.077,0.708,1.077,1.402
						C215.809,9.917,215.094,10.465,213.974,10.465z"/>
					<path d="M218.311,8.009c-0.377,0-0.393,0.014-0.393,0.233v1.03c0,0.767,0.039,0.869,0.48,0.913l0.228,0.022
						c0.047,0.029,0.031,0.161-0.016,0.183c-0.424-0.015-0.692-0.022-0.998-0.022c-0.338,0-0.605,0.015-0.912,0.022
						c-0.047-0.022-0.063-0.139-0.016-0.183l0.133-0.022c0.44-0.073,0.456-0.146,0.456-0.913V6.644c0-0.767-0.055-0.891-0.464-0.92
						l-0.204-0.015c-0.047-0.029-0.031-0.161,0.016-0.183c0.385,0.007,0.652,0.022,0.99,0.022c0.306,0,0.574-0.007,0.911-0.022
						c0.047,0.022,0.063,0.153,0.016,0.183l-0.149,0.015c-0.456,0.044-0.471,0.153-0.471,0.92v0.839
						c0,0.226,0.016,0.234,0.393,0.234h2.247c0.377,0,0.393-0.007,0.393-0.234V6.644c0-0.767-0.016-0.876-0.479-0.92l-0.149-0.015
						c-0.047-0.029-0.032-0.161,0.016-0.183c0.362,0.015,0.629,0.022,0.951,0.022c0.306,0,0.573-0.007,0.927-0.022
						c0.047,0.022,0.063,0.153,0.016,0.183l-0.165,0.015c-0.456,0.044-0.472,0.153-0.472,0.92v2.629
						c0,0.767,0.016,0.862,0.472,0.913l0.189,0.022c0.047,0.029,0.031,0.161-0.016,0.183c-0.377-0.015-0.645-0.022-0.951-0.022
						c-0.322,0-0.606,0.007-0.951,0.022c-0.047-0.022-0.063-0.139-0.016-0.183l0.149-0.022c0.479-0.073,0.479-0.146,0.479-0.913
						v-1.03c0-0.219-0.016-0.233-0.393-0.233H218.311z"/>
					<path d="M187.415,11.994c0.646-0.503,1.469-0.749,2.389-0.749c0.478,0,1.15,0.097,1.566,0.211
						c0.106,0.026,0.168,0.044,0.248,0.035c0.009,0.203,0.053,0.758,0.124,1.296c-0.044,0.062-0.177,0.071-0.238,0.018
						c-0.133-0.6-0.531-1.288-1.814-1.288c-1.353,0-2.504,0.855-2.504,2.68c0,1.852,1.177,2.875,2.628,2.875
						c1.141,0,1.646-0.741,1.849-1.261c0.062-0.044,0.195-0.027,0.23,0.035c-0.062,0.458-0.292,1.04-0.425,1.208
						c-0.106,0.018-0.213,0.053-0.31,0.088c-0.194,0.071-0.832,0.203-1.398,0.203c-0.796,0-1.557-0.159-2.203-0.591
						c-0.708-0.485-1.257-1.287-1.257-2.425C186.3,13.352,186.743,12.515,187.415,11.994z"/>
					<path d="M192.254,14.846c0-1.46,1.15-2.578,2.73-2.578c1.771,0,2.661,1.219,2.661,2.505c0,1.475-1.181,2.548-2.661,2.548
						C193.282,17.322,192.254,16.161,192.254,14.846z M196.878,15c0-1.205-0.56-2.505-2.024-2.505c-0.797,0-1.832,0.518-1.832,2.118
						c0,1.081,0.552,2.483,2.062,2.483C196.004,17.095,196.878,16.439,196.878,15z"/>
					<path d="M206.295,14.218c0-0.453-0.015-1.293-0.147-1.512c-0.054-0.088-0.194-0.139-0.387-0.153l-0.193-0.015
						c-0.047-0.051-0.031-0.146,0.015-0.175c0.294,0.015,0.581,0.022,0.883,0.022c0.325,0,0.534-0.007,0.813-0.022
						c0.062,0.037,0.054,0.131,0.015,0.175l-0.186,0.015c-0.193,0.014-0.34,0.08-0.387,0.175c-0.108,0.241-0.108,1.081-0.108,1.49
						v0.825c0,0.636-0.109,1.307-0.542,1.745c-0.333,0.343-0.906,0.533-1.478,0.533c-0.534,0-1.068-0.095-1.448-0.401
						c-0.41-0.321-0.604-0.854-0.604-1.723v-1.724c0-0.759-0.015-0.883-0.464-0.92l-0.194-0.015
						c-0.046-0.029-0.031-0.153,0.016-0.175c0.387,0.015,0.65,0.022,0.96,0.022c0.317,0,0.573-0.007,0.952-0.022
						c0.046,0.022,0.062,0.146,0.016,0.175l-0.186,0.015c-0.449,0.036-0.465,0.16-0.465,0.92v1.577c0,1.176,0.387,1.95,1.572,1.95
						c1.122,0,1.548-0.833,1.548-1.943V14.218z"/>
					<path d="M215.292,13.306c0-0.546-0.034-0.686-0.419-0.716l-0.274-0.027c-0.031-0.028-0.048-0.176,0.009-0.18
						c0.462-0.035,1.044-0.059,1.839-0.059c0.539,0,1.052,0.037,1.437,0.206c0.368,0.155,0.65,0.45,0.65,0.922
						c0,0.531-0.359,0.804-0.872,1.011c0,0.074,0.068,0.096,0.162,0.11c0.462,0.074,1.147,0.443,1.147,1.232
						c0,0.856-0.736,1.431-2.276,1.431c-0.248,0-0.667-0.022-1.027-0.022c-0.377,0-0.667,0.014-0.984,0.022
						c-0.052-0.022-0.069-0.14-0.017-0.184l0.154-0.022c0.454-0.066,0.47-0.148,0.47-0.922V13.306z M215.994,14.287
						c0,0.207,0.008,0.222,0.445,0.207c0.873-0.029,1.343-0.251,1.343-0.944c0-0.723-0.624-0.996-1.275-0.996
						c-0.188,0-0.317,0.015-0.394,0.045c-0.085,0.022-0.12,0.059-0.12,0.192V14.287z M215.994,15.998
						c0,0.265,0.017,0.642,0.18,0.804c0.162,0.17,0.419,0.206,0.676,0.206c0.762,0,1.344-0.295,1.344-1.032
						c0-0.583-0.342-1.261-1.703-1.261c-0.462,0-0.496,0.044-0.496,0.192V15.998z"/>
					<g>
						<g>
							<path d="M201.35,10.207l-0.203-0.018c-0.041-0.005-0.077-0.01-0.112-0.015c-0.297-0.053-0.415-0.317-0.555-0.562
								l-0.701-1.221c-0.121-0.203-0.251-0.477-0.528-0.516c0.719-0.086,1.367-0.501,1.367-1.213c0-0.822-0.814-1.19-1.635-1.19
								c-0.493,0-0.943,0.014-1.445,0.014c-0.277,0-0.606-0.014-0.883-0.014c-0.154,0-0.156,0.031-0.156,0.117
								c0,0.127,0.054,0.091,0.216,0.101c0.585,0.033,0.562,0.142,0.562,0.643v3.2c0,0.458,0.04,0.595-0.441,0.638
								c0,0-0.074,0.007-0.116,0.012l-0.203,0.021c-0.049,0.043-0.032,0.161,0.016,0.182c0.108-0.004,0.3-0.012,0.3-0.012
								c0.266-0.008,0.532-0.028,0.799-0.028c0.268,0,0.523,0.021,0.787,0.028c0.093,0.003,0.192,0.006,0.3,0.01
								c0.049-0.022,0.065-0.138,0.016-0.182l-0.205-0.02c-0.042-0.004-0.114-0.011-0.114-0.011
								c-0.486-0.033-0.456-0.17-0.456-0.639V8.33c0-0.07-0.009-0.258,0.043-0.313c0.043-0.047,0.122-0.039,0.19-0.039
								c0.658,0,0.65,0.063,0.961,0.61l0.848,1.526c0.07,0.118,0.121,0.266,0.294,0.266h0.737c0.093,0.003,0.191,0.006,0.298,0.01
								C201.383,10.368,201.399,10.251,201.35,10.207z M198.396,7.808c-0.147,0-0.442,0.055-0.442-0.141V6.266
								c0-0.548,0.017-0.626,0.675-0.626c0.77,0,1.246,0.391,1.246,1.111c0,0.313-0.112,0.603-0.398,0.798
								C199.148,7.776,198.794,7.808,198.396,7.808z"/>
						</g>
					</g>
					<g>
						<path d="M198.555,13.498c0-0.767-0.016-0.884-0.522-0.92l-0.201-0.014c-0.048-0.029-0.032-0.161,0.016-0.183
							c0.45,0.015,0.723,0.022,1.044,0.022c0.313,0,0.586-0.007,0.988-0.021c0.048,0.022,0.064,0.153,0.016,0.182l-0.193,0.014
							c-0.474,0.036-0.49,0.153-0.49,0.92v2.542c0,0.46,0.024,0.65,0.169,0.789c0.088,0.08,0.241,0.168,0.876,0.168
							c0.683,0,0.851-0.029,0.98-0.095c0.16-0.088,0.369-0.351,0.53-0.723c0.048-0.036,0.201-0.007,0.201,0.044
							c0,0.081-0.225,0.825-0.337,1.022c-0.41-0.014-1.173-0.022-2-0.022h-0.739c-0.337,0-0.594,0.007-1.044,0.022
							c-0.048-0.022-0.064-0.138-0.016-0.182l0.241-0.022c0.466-0.044,0.482-0.146,0.482-0.913V13.498z"/>
						<path d="M220.074,13.513c0-0.774-0.016-0.898-0.481-0.935l-0.197-0.014c-0.047-0.029-0.032-0.161,0.016-0.183
							c0.394,0.015,0.662,0.022,0.994,0.022c0.315,0,0.584-0.007,0.978-0.021c0.047,0.022,0.063,0.153,0.016,0.182l-0.197,0.014
							c-0.465,0.036-0.481,0.161-0.481,0.935v2.6c0,0.774,0.016,0.876,0.481,0.928l0.197,0.022c0.047,0.029,0.032,0.161-0.016,0.182
							c-0.394-0.014-0.662-0.022-0.978-0.022c-0.331,0-0.599,0.007-0.994,0.022c-0.048-0.022-0.063-0.138-0.016-0.182l0.197-0.022
							c0.465-0.051,0.481-0.154,0.481-0.928V13.513z"/>
						<path d="M213.771,17.038c-0.04-0.005-0.116-0.01-0.116-0.01c-0.083-0.008-0.158-0.02-0.217-0.085
							c-0.102-0.109-0.094-0.419-0.094-0.543v-3.2c0-0.14-0.034-0.442,0.068-0.55c0.051-0.057,0.158-0.067,0.252-0.072v0
							c0.058-0.004,0.059-0.004,0.11-0.007l0.203-0.014c0.048-0.029,0.032-0.161-0.016-0.182c-0.109,0.004-0.207,0.002-0.301,0.005
							v0h-0.862c-0.094,0-0.179,0-0.23,0.101l-1.756,3.657l-1.551-3.533c-0.051-0.124-0.059-0.225-0.222-0.225h-0.897
							c-0.093-0.003-0.196-0.002-0.305-0.005c-0.048,0.022-0.065,0.153-0.016,0.182l0.203,0.014
							c0.041,0.004,0.117,0.009,0.117,0.009c0.336,0.021,0.357,0.096,0.326,0.451l-0.264,3.432c-0.023,0.344-0.042,0.527-0.403,0.56
							c0,0-0.076,0.01-0.118,0.014l-0.202,0.022c-0.049,0.044-0.033,0.161,0.016,0.182c0.107-0.004,0.297-0.01,0.297-0.01
							c0.183-0.009,0.37-0.025,0.556-0.025c0.201,0,0.402,0.019,0.604,0.027l0,0c0.093,0.003,0.192,0.006,0.3,0.01
							c0.049-0.022,0.065-0.139,0.016-0.182l-0.202-0.022c-0.054-0.004-0.113-0.01-0.113-0.01c-0.521-0.036-0.509-0.403-0.477-0.853
							l0.247-3.192h0.059l1.679,3.928c0.017,0.054,0.042,0.147,0.128,0.147c0.077,0,0.102-0.085,0.128-0.14l1.892-4.029h0.06v3.51
							c0,0.14,0.017,0.426-0.128,0.534c-0.076,0.057-0.322,0.09-0.322,0.09c-0.034,0.005-0.07,0.01-0.11,0.015l-0.202,0.022
							c-0.049,0.044-0.033,0.161,0.016,0.182c0.107-0.004,0.296-0.01,0.296-0.01c0.275-0.008,0.554-0.028,0.833-0.028
							c0.201,0,0.594,0.019,0.594,0.019c0.094,0.003,0.2,0.013,0.309,0.017c0.048-0.022,0.065-0.138,0.016-0.182L213.771,17.038z"/>
						<g>
							<g>
								<path d="M226.942,17.058l-0.027-0.022c-0.04-0.005-0.076-0.009-0.11-0.015c-0.316-0.07-0.439-0.451-0.556-0.722
									l-1.625-3.846c-0.016-0.046-0.048-0.146-0.113-0.146c-0.089,0-0.112,0.107-0.137,0.169l-1.553,3.839
									c-0.056,0.146-0.201,0.498-0.306,0.606c-0.08,0.082-0.185,0.098-0.296,0.109c0,0-0.088,0.008-0.129,0.013l-0.191,0.019
									c-0.048,0.044-0.032,0.161,0.016,0.182c0.108-0.004,0.3-0.01,0.3-0.01c0.213-0.003,0.425-0.03,0.638-0.03
									c0.179,0,0.358,0.019,0.536,0.027c0,0,0.192,0.007,0.3,0.011c0.049-0.022,0.065-0.139,0.016-0.182l-0.203-0.022
									c-0.04-0.004-0.11-0.011-0.11-0.011c-0.187-0.021-0.419-0.054-0.419-0.259c0-0.138,0.064-0.299,0.112-0.421l0.241-0.575
									c0.121-0.276,0.072-0.307,0.394-0.307h1.094c0.386,0,0.33,0,0.499,0.391l0.257,0.582c0.041,0.1,0.113,0.269,0.113,0.376
									c0,0.193-0.21,0.205-0.407,0.222c0,0-0.065,0.006-0.122,0.01l-0.195,0.014c-0.049,0.044-0.032,0.161,0.016,0.183
									c0.108-0.004,0.3-0.012,0.3-0.012c0.229-0.008,0.459-0.026,0.68-0.026c0.282,0,0.564,0.019,0.845,0.027
									c0.093,0.003,0.014,0.006,0.121,0.01C226.974,17.219,226.99,17.102,226.942,17.058z M224.813,15.25h-0.948
									c-0.033,0-0.297,0.031-0.297-0.046c0-0.023,0.016-0.07,0.025-0.093l0.569-1.409c0.016-0.039,0.074-0.233,0.14-0.233
									c0.049,0,0.115,0.202,0.132,0.233l0.561,1.316c0,0.016,0.058,0.139,0.058,0.17C225.052,15.274,224.862,15.25,224.813,15.25z
									"/>
							</g>
						</g>
					</g>
				</g>
				<g>
					<polygon style="fill:#BBBBBB;" points="179.277,11.713 179.809,11.934 180.991,11.11 					"/>
					<path style="fill:#808080;" d="M159.424,10.793l-1.4-0.493l0.07-0.172l1.577,0.526l0.007-0.004l0.208-0.118l0.083-0.052
						l-1.72-0.732l0.072-0.18l3.839,1.552l0.127-0.053l-3.806-1.855l0.085-0.174l4.034,1.877l0.056-0.028l-3.912-2.219l0.08-0.167
						l5.649,3.073c0.046-0.085,0.143-0.241,0.193-0.325c-2.147-2.019-4.22-3.535-4.22-3.535s2.131,1.427,4.761,2.754
						c0.087-0.108,0.158-0.195,0.251-0.299l-4.819-4.242l0.129-0.133l3.889,3.315l-3.603-3.608l0.135-0.14l4.045,3.909l-3.766-4.18
						l0.144-0.13l3.481,3.727l-3.177-4.003l0.137-0.124l4.072,4.956c0.106-0.091,0.193-0.159,0.303-0.244
						c-1.232-2.666-2.577-4.834-2.577-4.834s1.432,2.107,3.363,4.315c0.118-0.066,0.238-0.13,0.36-0.19l-0.021-0.013l-2.854-5.695
						l0.17-0.075l2.364,4.53l-1.989-4.695l0.177-0.079l2.286,5.14l-1.926-5.286l0.182-0.066l1.831,4.759l-1.446-4.901l0.173-0.064
						l1.904,6.079l-0.003,0.016l0.005-0.002c0.126-0.042,0.255-0.08,0.385-0.115c-0.145-2.92-0.577-5.418-0.577-5.418
						s0.535,2.476,1.493,5.236c0.134-0.016,0.268-0.03,0.404-0.039l-0.004-0.006h0.017l-0.01-0.014l-0.512-6.349l0.185-0.006
						l0.495,5.086l-0.085-5.099l0.194-0.007l0.195,5.623l0.194-5.623l0.194,0.007l-0.085,5.099l0.495-5.086l0.185,0.006
						l-0.512,6.349l-0.01,0.014h0.003l-0.001,0.002h0.008c0.132,0.008,0.264,0.022,0.395,0.037c0.957-2.758,1.491-5.23,1.491-5.23
						s-0.43,2.49-0.576,5.405c0.131,0.034,0.26,0.072,0.388,0.114l1.897-6.058l0.174,0.064L173.4,7.108l1.831-4.759l0.182,0.066
						l-1.926,5.286l2.286-5.14l0.178,0.079l-1.989,4.696l2.364-4.53l0.17,0.075l-2.844,5.675l0.005,0.002
						c0.117,0.057,0.232,0.118,0.345,0.181c1.924-2.2,3.347-4.295,3.347-4.295s-1.336,2.153-2.564,4.806
						c0.11,0.083,0.217,0.168,0.321,0.258l4.024-4.902l0.137,0.125l-3.177,4.003l3.481-3.727l0.144,0.13l-3.766,4.179l4.045-3.91
						l0.135,0.14l-3.603,3.608l3.889-3.315l0.129,0.132l-4.76,4.195l0.003,0.003c0.083,0.093,0.163,0.188,0.241,0.285
						c2.614-1.322,4.726-2.736,4.726-2.736s-2.052,1.501-4.188,3.506c0.059,0.098,0.153,0.265,0.207,0.365l5.568-3.032l0.081,0.167
						l-4.445,2.521l4.623-2.151l0.085,0.174l-4.307,2.098l0.082,0.029l4.382-1.772l0.073,0.18l-4.073,1.732l0.076,0.032l2.714-0.905
						l0.409-0.286l0.136,0.104l0.893-0.298l0.07,0.172l-0.773,0.272l1.116,0.852l0.358,0.2c-1.435-6-6.832-10.461-13.272-10.461
						c-6.553,0-12.026,4.619-13.344,10.778c0.017-0.008,0.034-0.016,0.05-0.024l0.163-0.074l0.101-0.047L159.424,10.793z"/>
				</g>
				<path d="M157.151,17.344c0,0,2.013-0.402,3.693-0.402c4.427,0,10.552,2.493,14.996,2.493c3.26,0,6.439-0.894,8.173-2.198
					c0.135-0.771,0.206-1.565,0.206-2.375c0-1.097-0.13-2.164-0.375-3.186l-1.852-1.033l-2.174,1.524l-1.462-0.57
					c-0.495,0.25-3.549,2.293-3.549,2.293l-1.172-0.848l-1.258-0.249l-1.677-1.221l-1.924,1.321c0,0-2.146,1.246-2.22,1.246
					c-0.074,0-2.59-1.994-2.59-1.994l-1.159-1.221c-0.198,0.125-0.986,0.486-0.986,0.486l-0.041,0.011l-0.763-0.236l-0.926-0.491
					l-2.814,1.276c-0.017,0.008-0.033,0.016-0.05,0.024c-0.198,0.925-0.303,1.885-0.303,2.869
					C156.925,15.71,157.003,16.539,157.151,17.344z"/>
			</g>
		</g>
		<g>
			<path d="M157.631,24.734c-0.325,0-0.53-0.1-0.603-0.143c-0.046-0.085-0.097-0.36-0.104-0.541
				c0.019-0.027,0.077-0.035,0.093-0.012c0.058,0.197,0.217,0.576,0.665,0.576c0.325,0,0.483-0.213,0.483-0.445
				c0-0.17-0.035-0.36-0.317-0.541l-0.368-0.24c-0.193-0.128-0.418-0.348-0.418-0.665c0-0.367,0.286-0.665,0.789-0.665
				c0.12,0,0.259,0.023,0.36,0.05c0.05,0.016,0.104,0.023,0.135,0.023c0.035,0.093,0.07,0.309,0.07,0.472
				c-0.016,0.023-0.077,0.035-0.097,0.012c-0.05-0.186-0.155-0.437-0.526-0.437c-0.379,0-0.46,0.251-0.46,0.429
				c0,0.224,0.186,0.387,0.329,0.476l0.309,0.193c0.244,0.151,0.483,0.375,0.483,0.742
				C158.455,24.444,158.134,24.734,157.631,24.734z"/>
			<path d="M159.179,24.104c0,0.267,0.066,0.445,0.36,0.445c0.104,0,0.228-0.043,0.313-0.116c0.05-0.046,0.077-0.104,0.077-0.224
				v-0.634c0-0.251-0.027-0.259-0.143-0.305l-0.05-0.019c-0.027-0.015-0.027-0.07,0.004-0.085c0.155-0.004,0.368-0.031,0.453-0.07
				c0.019,0.004,0.031,0.012,0.035,0.027c-0.008,0.073-0.012,0.193-0.012,0.336v0.65c0,0.305,0.012,0.421,0.12,0.421
				c0.046,0,0.097-0.008,0.151-0.019c0.023,0.019,0.027,0.097-0.004,0.112c-0.151,0.031-0.375,0.07-0.506,0.143
				c-0.02,0-0.039-0.012-0.046-0.027V24.58c0-0.035-0.012-0.054-0.035-0.054c-0.116,0.073-0.306,0.201-0.534,0.201
				c-0.34,0-0.468-0.17-0.468-0.483v-0.646c0-0.244,0-0.278-0.116-0.329l-0.046-0.019c-0.023-0.019-0.019-0.073,0.008-0.085
				c0.178-0.004,0.328-0.039,0.414-0.07c0.023,0.004,0.035,0.012,0.039,0.027c-0.008,0.066-0.012,0.147-0.012,0.336V24.104z"/>
			<path d="M160.873,23.563c0-0.151,0-0.17-0.104-0.24l-0.035-0.023c-0.015-0.015-0.015-0.058,0.004-0.07
				c0.1-0.043,0.282-0.135,0.383-0.209c0.023,0,0.039,0.008,0.046,0.027c-0.008,0.07-0.016,0.128-0.016,0.178
				c0,0.027,0.008,0.05,0.035,0.05c0.05-0.023,0.294-0.182,0.541-0.182c0.39,0,0.642,0.317,0.642,0.708
				c0,0.537-0.394,0.924-0.944,0.924c-0.07,0-0.178-0.008-0.212-0.015c-0.035,0.008-0.054,0.027-0.054,0.108v0.406
				c0,0.275,0.008,0.309,0.147,0.329l0.151,0.019c0.027,0.019,0.019,0.085-0.008,0.097c-0.186-0.008-0.298-0.012-0.433-0.012
				c-0.139,0-0.255,0.004-0.363,0.012c-0.027-0.012-0.035-0.077-0.008-0.097l0.081-0.012c0.143-0.019,0.147-0.058,0.147-0.336
				V23.563z M161.159,24.282c0,0.124,0.039,0.17,0.116,0.232c0.077,0.058,0.197,0.085,0.278,0.085c0.317,0,0.503-0.294,0.503-0.696
				c0-0.309-0.174-0.623-0.522-0.623c-0.166,0-0.286,0.062-0.329,0.108c-0.035,0.043-0.046,0.101-0.046,0.228V24.282z"/>
			<path d="M162.835,23.563c0-0.151,0-0.17-0.104-0.24l-0.035-0.023c-0.015-0.015-0.015-0.058,0.004-0.07
				c0.101-0.043,0.282-0.135,0.383-0.209c0.023,0,0.039,0.008,0.046,0.027c-0.008,0.07-0.015,0.128-0.015,0.178
				c0,0.027,0.008,0.05,0.035,0.05c0.05-0.023,0.294-0.182,0.541-0.182c0.39,0,0.642,0.317,0.642,0.708
				c0,0.537-0.394,0.924-0.944,0.924c-0.07,0-0.178-0.008-0.212-0.015c-0.035,0.008-0.054,0.027-0.054,0.108v0.406
				c0,0.275,0.008,0.309,0.147,0.329l0.151,0.019c0.027,0.019,0.019,0.085-0.008,0.097c-0.186-0.008-0.298-0.012-0.433-0.012
				c-0.139,0-0.255,0.004-0.364,0.012c-0.027-0.012-0.035-0.077-0.008-0.097l0.081-0.012c0.143-0.019,0.147-0.058,0.147-0.336
				V23.563z M163.121,24.282c0,0.124,0.039,0.17,0.116,0.232c0.077,0.058,0.197,0.085,0.278,0.085c0.317,0,0.503-0.294,0.503-0.696
				c0-0.309-0.174-0.623-0.522-0.623c-0.166,0-0.286,0.062-0.329,0.108c-0.035,0.043-0.046,0.101-0.046,0.228V24.282z"/>
			<path d="M166.211,23.895c0,0.483-0.332,0.831-0.816,0.831c-0.445,0-0.793-0.313-0.793-0.797c0-0.487,0.367-0.835,0.824-0.835
				C165.859,23.095,166.211,23.42,166.211,23.895z M165.38,23.211c-0.255,0-0.445,0.244-0.445,0.669
				c0,0.352,0.159,0.731,0.499,0.731c0.34,0,0.445-0.356,0.445-0.654C165.879,23.628,165.747,23.211,165.38,23.211z"/>
			<path d="M166.726,23.563c0-0.151,0-0.17-0.104-0.24l-0.035-0.023c-0.015-0.015-0.015-0.058,0.004-0.07
				c0.089-0.031,0.294-0.132,0.39-0.189c0.02,0.004,0.031,0.012,0.031,0.027v0.224c0,0.019,0.004,0.031,0.012,0.035
				c0.135-0.112,0.282-0.232,0.425-0.232c0.097,0,0.174,0.062,0.174,0.155c0,0.128-0.104,0.178-0.166,0.178
				c-0.039,0-0.058-0.012-0.085-0.027c-0.058-0.039-0.116-0.062-0.17-0.062c-0.062,0-0.108,0.035-0.139,0.077
				c-0.039,0.054-0.05,0.166-0.05,0.298v0.526c0,0.278,0.008,0.325,0.155,0.336l0.139,0.012c0.027,0.019,0.019,0.085-0.008,0.097
				c-0.182-0.008-0.294-0.012-0.429-0.012c-0.139,0-0.255,0.004-0.356,0.012c-0.027-0.012-0.035-0.077-0.008-0.097l0.073-0.012
				c0.143-0.023,0.147-0.058,0.147-0.336V23.563z"/>
			<path d="M168.359,23.311c-0.066,0-0.07,0.012-0.07,0.093v0.723c0,0.224,0.027,0.429,0.282,0.429c0.039,0,0.074-0.008,0.104-0.019
				c0.035-0.012,0.085-0.054,0.097-0.054c0.031,0,0.046,0.043,0.039,0.066c-0.07,0.081-0.209,0.178-0.406,0.178
				c-0.332,0-0.402-0.186-0.402-0.418v-0.885c0-0.104-0.004-0.112-0.081-0.112h-0.108c-0.023-0.015-0.027-0.058-0.012-0.081
				c0.112-0.035,0.209-0.085,0.247-0.12c0.05-0.046,0.124-0.151,0.162-0.228c0.019-0.008,0.066-0.008,0.081,0.019v0.174
				c0,0.07,0.004,0.073,0.07,0.073h0.429c0.046,0.035,0.039,0.139,0.004,0.162H168.359z"/>
			<path d="M169.353,23.682c-0.1,0-0.104,0.008-0.104,0.104c0,0.391,0.228,0.723,0.642,0.723c0.128,0,0.236-0.039,0.356-0.189
				c0.039-0.012,0.066,0.012,0.07,0.046c-0.128,0.263-0.406,0.36-0.607,0.36c-0.251,0-0.449-0.108-0.561-0.255
				c-0.116-0.151-0.162-0.333-0.162-0.503c0-0.476,0.313-0.874,0.777-0.874c0.333,0,0.549,0.228,0.549,0.46
				c0,0.054-0.008,0.085-0.015,0.101c-0.012,0.023-0.066,0.027-0.228,0.027H169.353z M169.593,23.566
				c0.286,0,0.371-0.015,0.402-0.039c0.012-0.008,0.023-0.023,0.023-0.073c0-0.108-0.074-0.244-0.298-0.244
				c-0.228,0-0.425,0.209-0.429,0.336c0,0.008,0,0.019,0.027,0.019H169.593z"/>
			<path d="M172.021,24.108c0,0.305,0.004,0.448,0.112,0.448c0.043,0,0.108-0.019,0.166-0.039c0.027,0.008,0.031,0.104-0.004,0.124
				c-0.162,0.023-0.402,0.081-0.51,0.124c-0.023,0-0.042-0.012-0.042-0.031v-0.066c0-0.058,0-0.104-0.008-0.12h-0.016
				c-0.17,0.116-0.302,0.178-0.487,0.178c-0.429,0-0.716-0.336-0.716-0.742c0-0.541,0.41-0.889,0.936-0.889
				c0.132,0,0.217,0.019,0.259,0.035c0.019,0,0.023-0.023,0.023-0.054v-0.584c0-0.228-0.004-0.251-0.12-0.321l-0.039-0.023
				c-0.019-0.012-0.019-0.066,0-0.077c0.097-0.031,0.278-0.089,0.418-0.162c0.016,0,0.031,0.008,0.039,0.023
				c-0.004,0.116-0.012,0.309-0.012,0.48V24.108z M171.735,23.528c0-0.077-0.016-0.112-0.043-0.151
				c-0.058-0.081-0.174-0.162-0.325-0.162c-0.352,0-0.534,0.305-0.534,0.642c0,0.352,0.197,0.684,0.576,0.684
				c0.105,0,0.236-0.046,0.298-0.108c0.023-0.023,0.027-0.081,0.027-0.143V23.528z"/>
			<path d="M173.608,22.491c0-0.228-0.004-0.251-0.12-0.321l-0.039-0.023c-0.019-0.012-0.019-0.066,0-0.077
				c0.089-0.035,0.275-0.085,0.422-0.162c0.015,0,0.031,0.008,0.039,0.023c-0.008,0.135-0.015,0.309-0.015,0.48v0.731
				c0,0.066,0.015,0.081,0.039,0.081c0.1-0.058,0.255-0.128,0.445-0.128c0.441,0,0.739,0.332,0.739,0.758
				c0,0.514-0.371,0.874-0.889,0.874c-0.143,0-0.251-0.027-0.329-0.05c-0.081-0.027-0.131-0.05-0.162-0.05s-0.062,0.031-0.081,0.058
				c-0.004,0.004-0.008,0.004-0.015,0.004c-0.015,0-0.031-0.008-0.039-0.023c0.004-0.054,0.008-0.128,0.008-0.329V22.491z
				 M173.894,24.146c0,0.135,0.031,0.255,0.097,0.336c0.066,0.081,0.17,0.128,0.294,0.128c0.363,0,0.506-0.309,0.506-0.642
				c0-0.398-0.205-0.708-0.588-0.708c-0.116,0-0.209,0.027-0.263,0.062c-0.039,0.027-0.046,0.07-0.046,0.22V24.146z"/>
			<path d="M175.322,25.469c0-0.104,0.07-0.155,0.155-0.155h0.073c0.062,0,0.101-0.027,0.128-0.07
				c0.112-0.174,0.19-0.336,0.224-0.429c0.011-0.031,0.039-0.112,0.039-0.166c0-0.077-0.016-0.124-0.066-0.267l-0.302-0.827
				c-0.066-0.182-0.093-0.275-0.228-0.302l-0.097-0.019c-0.023-0.019-0.019-0.085,0.012-0.097c0.124,0.008,0.24,0.012,0.367,0.012
				c0.104,0,0.213-0.004,0.337-0.012c0.031,0.012,0.035,0.077,0.008,0.097l-0.097,0.019c-0.054,0.012-0.085,0.023-0.085,0.05
				c0,0.046,0.089,0.298,0.112,0.364l0.124,0.356c0.023,0.062,0.097,0.267,0.112,0.275c0.012-0.008,0.074-0.128,0.143-0.286
				l0.131-0.305c0.085-0.201,0.135-0.344,0.135-0.387c0-0.027-0.023-0.054-0.093-0.066l-0.12-0.019
				c-0.027-0.019-0.023-0.085,0.008-0.097c0.124,0.008,0.24,0.012,0.34,0.012c0.097,0,0.186-0.004,0.294-0.012
				c0.031,0.015,0.035,0.073,0.008,0.097l-0.066,0.012c-0.127,0.023-0.197,0.135-0.328,0.41l-0.217,0.445
				c-0.127,0.259-0.445,0.932-0.634,1.353c-0.066,0.147-0.159,0.182-0.247,0.182C175.38,25.636,175.322,25.566,175.322,25.469z"/>
			<path d="M178.587,23.311c-0.066,0-0.07,0.012-0.07,0.093v0.723c0,0.224,0.027,0.429,0.282,0.429c0.039,0,0.074-0.008,0.104-0.019
				c0.035-0.012,0.085-0.054,0.097-0.054c0.031,0,0.046,0.043,0.039,0.066c-0.07,0.081-0.209,0.178-0.406,0.178
				c-0.332,0-0.402-0.186-0.402-0.418v-0.885c0-0.104-0.004-0.112-0.081-0.112h-0.108c-0.023-0.015-0.027-0.058-0.012-0.081
				c0.112-0.035,0.209-0.085,0.247-0.12c0.05-0.046,0.124-0.151,0.162-0.228c0.019-0.008,0.066-0.008,0.081,0.019v0.174
				c0,0.07,0.004,0.073,0.07,0.073h0.429c0.046,0.035,0.039,0.139,0.004,0.162H178.587z"/>
			<path d="M179.418,22.491c0-0.228-0.004-0.251-0.12-0.321l-0.039-0.023c-0.019-0.012-0.019-0.066,0-0.077
				c0.097-0.031,0.278-0.089,0.418-0.162c0.016,0,0.031,0.008,0.039,0.023c-0.004,0.116-0.012,0.309-0.012,0.48v0.812
				c0,0.035,0.004,0.066,0.015,0.073c0.139-0.108,0.325-0.201,0.522-0.201c0.367,0,0.499,0.228,0.499,0.499v0.646
				c0,0.278,0.008,0.321,0.147,0.336l0.104,0.012c0.027,0.019,0.019,0.085-0.008,0.097c-0.139-0.008-0.252-0.012-0.387-0.012
				c-0.139,0-0.255,0.004-0.36,0.012c-0.027-0.012-0.035-0.077-0.008-0.097l0.077-0.012c0.143-0.023,0.147-0.058,0.147-0.336v-0.553
				c0-0.248-0.12-0.414-0.367-0.414c-0.131,0-0.232,0.046-0.302,0.104c-0.07,0.058-0.081,0.077-0.081,0.213v0.65
				c0,0.278,0.008,0.317,0.147,0.336l0.081,0.012c0.027,0.016,0.019,0.085-0.008,0.097c-0.116-0.008-0.228-0.012-0.364-0.012
				c-0.139,0-0.255,0.004-0.379,0.012c-0.027-0.012-0.035-0.077-0.008-0.097l0.097-0.012c0.143-0.015,0.147-0.058,0.147-0.336
				V22.491z"/>
			<path d="M181.573,23.682c-0.1,0-0.104,0.008-0.104,0.104c0,0.391,0.228,0.723,0.642,0.723c0.128,0,0.236-0.039,0.356-0.189
				c0.039-0.012,0.066,0.012,0.07,0.046c-0.128,0.263-0.406,0.36-0.607,0.36c-0.251,0-0.449-0.108-0.561-0.255
				c-0.116-0.151-0.162-0.333-0.162-0.503c0-0.476,0.313-0.874,0.777-0.874c0.333,0,0.549,0.228,0.549,0.46
				c0,0.054-0.008,0.085-0.015,0.101c-0.012,0.023-0.066,0.027-0.228,0.027H181.573z M181.813,23.566
				c0.286,0,0.371-0.015,0.402-0.039c0.012-0.008,0.023-0.023,0.023-0.073c0-0.108-0.074-0.244-0.298-0.244
				c-0.228,0-0.425,0.209-0.429,0.336c0,0.008,0,0.019,0.027,0.019H181.813z"/>
			<path d="M184.381,24.092c0,0.406,0.008,0.456,0.255,0.483l0.104,0.012c0.023,0.019,0.016,0.085-0.008,0.097
				c-0.221-0.008-0.348-0.012-0.503-0.012c-0.162,0-0.302,0.004-0.472,0.012c-0.023-0.012-0.031-0.073-0.008-0.097l0.081-0.012
				c0.224-0.031,0.232-0.077,0.232-0.483v-1.427c0-0.329-0.008-0.394-0.182-0.414l-0.139-0.016
				c-0.027-0.023-0.023-0.081,0.008-0.097c0.205-0.027,0.445-0.031,0.766-0.031c0.321,0,0.561,0.043,0.742,0.155
				c0.178,0.112,0.309,0.313,0.309,0.58c0,0.356-0.22,0.534-0.387,0.615c-0.17,0.081-0.375,0.116-0.534,0.116
				c-0.027-0.012-0.027-0.07-0.004-0.077c0.418-0.077,0.569-0.313,0.569-0.65c0-0.375-0.221-0.619-0.623-0.619
				c-0.205,0-0.209,0.016-0.209,0.139V24.092z"/>
			<path d="M185.956,23.563c0-0.151,0-0.17-0.104-0.24l-0.035-0.023c-0.016-0.015-0.016-0.058,0.004-0.07
				c0.089-0.031,0.294-0.132,0.39-0.189c0.02,0.004,0.031,0.012,0.031,0.027v0.224c0,0.019,0.004,0.031,0.012,0.035
				c0.135-0.112,0.282-0.232,0.425-0.232c0.097,0,0.174,0.062,0.174,0.155c0,0.128-0.104,0.178-0.166,0.178
				c-0.039,0-0.058-0.012-0.085-0.027c-0.058-0.039-0.116-0.062-0.17-0.062c-0.062,0-0.108,0.035-0.139,0.077
				c-0.039,0.054-0.05,0.166-0.05,0.298v0.526c0,0.278,0.008,0.325,0.155,0.336l0.139,0.012c0.027,0.019,0.019,0.085-0.008,0.097
				c-0.182-0.008-0.294-0.012-0.429-0.012c-0.139,0-0.255,0.004-0.356,0.012c-0.027-0.012-0.035-0.077-0.008-0.097l0.073-0.012
				c0.143-0.023,0.147-0.058,0.147-0.336V23.563z"/>
			<path d="M188.582,23.895c0,0.483-0.333,0.831-0.816,0.831c-0.445,0-0.793-0.313-0.793-0.797c0-0.487,0.367-0.835,0.824-0.835
				C188.23,23.095,188.582,23.42,188.582,23.895z M187.751,23.211c-0.255,0-0.445,0.244-0.445,0.669
				c0,0.352,0.159,0.731,0.499,0.731c0.34,0,0.445-0.356,0.445-0.654C188.25,23.628,188.118,23.211,187.751,23.211z"/>
			<path d="M188.973,23.532c-0.058-0.143-0.093-0.267-0.232-0.286l-0.077-0.012c-0.023-0.031-0.019-0.085,0.012-0.097
				c0.097,0.008,0.232,0.012,0.364,0.012c0.105,0,0.182-0.004,0.313-0.012c0.027,0.015,0.031,0.077,0.004,0.097l-0.046,0.008
				c-0.12,0.019-0.124,0.039-0.085,0.155c0.089,0.267,0.201,0.537,0.29,0.739c0.035,0.077,0.05,0.112,0.062,0.124
				c0.015-0.012,0.042-0.066,0.073-0.147l0.221-0.568c0.054-0.135,0.07-0.216,0.07-0.24c0-0.035-0.023-0.05-0.07-0.058l-0.089-0.012
				c-0.023-0.027-0.019-0.081,0.008-0.097c0.12,0.008,0.216,0.012,0.29,0.012c0.097,0,0.162-0.004,0.271-0.012
				c0.027,0.015,0.031,0.073,0.008,0.097l-0.058,0.008c-0.136,0.019-0.17,0.12-0.283,0.336c-0.054,0.104-0.294,0.665-0.356,0.824
				c-0.039,0.097-0.077,0.186-0.128,0.317c-0.008,0.012-0.023,0.015-0.039,0.015c-0.019,0-0.039-0.004-0.05-0.015
				c-0.031-0.108-0.089-0.259-0.147-0.402L188.973,23.532z"/>
			<path d="M190.707,23.563c0-0.151,0-0.17-0.104-0.24l-0.035-0.023c-0.015-0.015-0.015-0.058,0.004-0.07
				c0.089-0.031,0.309-0.132,0.398-0.189c0.019,0,0.035,0.008,0.039,0.023c-0.008,0.135-0.015,0.321-0.015,0.479v0.696
				c0,0.278,0.008,0.317,0.147,0.336l0.081,0.012c0.027,0.019,0.019,0.085-0.008,0.097c-0.116-0.008-0.228-0.012-0.363-0.012
				c-0.139,0-0.255,0.004-0.364,0.012c-0.027-0.012-0.035-0.077-0.008-0.097l0.081-0.012c0.143-0.019,0.147-0.058,0.147-0.336
				V23.563z M191.027,22.461c0,0.139-0.096,0.201-0.205,0.201c-0.12,0-0.197-0.089-0.197-0.193c0-0.128,0.093-0.209,0.209-0.209
				C190.95,22.259,191.027,22.352,191.027,22.461z"/>
			<path d="M191.701,23.563c0-0.151,0-0.17-0.104-0.24l-0.035-0.023c-0.015-0.015-0.015-0.058,0.004-0.07
				c0.089-0.031,0.309-0.132,0.387-0.189c0.016,0,0.035,0.008,0.043,0.027c-0.008,0.089-0.008,0.147-0.008,0.182
				c0,0.023,0.015,0.043,0.043,0.043c0.162-0.101,0.344-0.197,0.541-0.197c0.321,0,0.452,0.22,0.452,0.479v0.665
				c0,0.278,0.008,0.317,0.147,0.336l0.085,0.012c0.027,0.019,0.019,0.085-0.008,0.097c-0.116-0.008-0.228-0.012-0.363-0.012
				c-0.139,0-0.255,0.004-0.36,0.012c-0.027-0.012-0.035-0.077-0.008-0.097l0.074-0.012c0.143-0.023,0.147-0.058,0.147-0.336v-0.576
				c0-0.22-0.101-0.383-0.364-0.383c-0.147,0-0.275,0.062-0.329,0.135c-0.05,0.066-0.058,0.12-0.058,0.232v0.592
				c0,0.278,0.008,0.313,0.147,0.336l0.07,0.012c0.027,0.019,0.02,0.085-0.008,0.097c-0.104-0.008-0.217-0.012-0.352-0.012
				c-0.139,0-0.255,0.004-0.364,0.012c-0.027-0.012-0.035-0.077-0.008-0.097l0.081-0.012c0.143-0.019,0.147-0.058,0.147-0.336
				V23.563z"/>
			<path d="M194.772,23.16c0.031,0.027,0.058,0.089,0.058,0.155c0,0.07-0.039,0.143-0.085,0.143c-0.019,0-0.039-0.008-0.054-0.027
				c-0.085-0.104-0.228-0.205-0.387-0.205c-0.271,0-0.534,0.213-0.534,0.623c0,0.302,0.209,0.661,0.623,0.661
				c0.224,0,0.34-0.101,0.429-0.232c0.031-0.008,0.066,0.019,0.07,0.054c-0.132,0.286-0.421,0.394-0.646,0.394
				c-0.205,0-0.394-0.066-0.53-0.197c-0.135-0.132-0.224-0.321-0.224-0.572c0-0.418,0.294-0.862,0.936-0.862
				C194.517,23.095,194.667,23.114,194.772,23.16z"/>
			<path d="M195.402,23.682c-0.101,0-0.104,0.008-0.104,0.104c0,0.391,0.228,0.723,0.642,0.723c0.128,0,0.236-0.039,0.356-0.189
				c0.039-0.012,0.066,0.012,0.07,0.046c-0.128,0.263-0.406,0.36-0.607,0.36c-0.251,0-0.449-0.108-0.561-0.255
				c-0.116-0.151-0.162-0.333-0.162-0.503c0-0.476,0.313-0.874,0.777-0.874c0.332,0,0.549,0.228,0.549,0.46
				c0,0.054-0.008,0.085-0.016,0.101c-0.012,0.023-0.066,0.027-0.228,0.027H195.402z M195.642,23.566
				c0.286,0,0.371-0.015,0.402-0.039c0.012-0.008,0.023-0.023,0.023-0.073c0-0.108-0.074-0.244-0.298-0.244
				c-0.228,0-0.425,0.209-0.429,0.336c0,0.008,0,0.019,0.027,0.019H195.642z"/>
			<path d="M199.143,23.895c0,0.483-0.333,0.831-0.816,0.831c-0.445,0-0.793-0.313-0.793-0.797c0-0.487,0.367-0.835,0.824-0.835
				C198.791,23.095,199.143,23.42,199.143,23.895z M198.311,23.211c-0.255,0-0.445,0.244-0.445,0.669
				c0,0.352,0.159,0.731,0.499,0.731c0.34,0,0.445-0.356,0.445-0.654C198.81,23.628,198.679,23.211,198.311,23.211z"/>
			<path d="M199.998,23.311c-0.066,0-0.066,0.008-0.066,0.112v0.816c0,0.278,0.008,0.325,0.147,0.336l0.139,0.012
				c0.027,0.019,0.019,0.085-0.008,0.097c-0.174-0.008-0.286-0.012-0.421-0.012c-0.139,0-0.255,0.004-0.371,0.012
				c-0.027-0.012-0.035-0.077-0.008-0.097l0.089-0.012c0.143-0.019,0.147-0.058,0.147-0.336v-0.816c0-0.104,0-0.112-0.077-0.112
				h-0.136c-0.023-0.015-0.027-0.05-0.011-0.073l0.166-0.081c0.031-0.016,0.058-0.039,0.058-0.077c0-0.224,0.027-0.464,0.12-0.681
				c0.096-0.22,0.313-0.491,0.696-0.491c0.205,0,0.379,0.093,0.379,0.232c0,0.077-0.074,0.139-0.147,0.139
				c-0.043,0-0.066-0.015-0.093-0.046c-0.073-0.085-0.182-0.17-0.309-0.17c-0.12,0-0.217,0.073-0.274,0.213
				c-0.07,0.178-0.085,0.46-0.085,0.654v0.112c0,0.104,0,0.108,0.066,0.108h0.441c0.043,0.039,0.015,0.147-0.027,0.162H199.998z"/>
			<path d="M201.863,22.623c0-0.286-0.015-0.36-0.189-0.375l-0.124-0.012c-0.031-0.023-0.027-0.081,0.004-0.097
				c0.209-0.019,0.472-0.031,0.832-0.031c0.243,0,0.475,0.019,0.65,0.108c0.166,0.081,0.294,0.236,0.294,0.483
				c0,0.278-0.162,0.421-0.394,0.53c0,0.039,0.031,0.05,0.073,0.058c0.209,0.039,0.518,0.232,0.518,0.646
				c0,0.449-0.333,0.75-1.029,0.75c-0.112,0-0.302-0.012-0.464-0.012c-0.17,0-0.301,0.008-0.445,0.012
				c-0.023-0.012-0.031-0.073-0.008-0.097l0.07-0.012c0.205-0.035,0.213-0.077,0.213-0.483V22.623z M202.18,23.137
				c0,0.108,0.004,0.116,0.201,0.108c0.395-0.015,0.607-0.131,0.607-0.495c0-0.379-0.282-0.522-0.576-0.522
				c-0.085,0-0.143,0.008-0.178,0.023c-0.039,0.012-0.054,0.031-0.054,0.1V23.137z M202.18,24.034c0,0.139,0.008,0.336,0.081,0.421
				c0.074,0.089,0.19,0.108,0.306,0.108c0.344,0,0.607-0.155,0.607-0.541c0-0.305-0.155-0.661-0.769-0.661
				c-0.209,0-0.224,0.023-0.224,0.101V24.034z"/>
			<path d="M204.041,23.563c0-0.151,0-0.17-0.104-0.24l-0.035-0.023c-0.016-0.015-0.016-0.058,0.004-0.07
				c0.089-0.031,0.294-0.132,0.39-0.189c0.02,0.004,0.031,0.012,0.031,0.027v0.224c0,0.019,0.004,0.031,0.012,0.035
				c0.135-0.112,0.282-0.232,0.425-0.232c0.097,0,0.174,0.062,0.174,0.155c0,0.128-0.104,0.178-0.166,0.178
				c-0.039,0-0.058-0.012-0.085-0.027c-0.058-0.039-0.116-0.062-0.17-0.062c-0.062,0-0.108,0.035-0.139,0.077
				c-0.039,0.054-0.05,0.166-0.05,0.298v0.526c0,0.278,0.008,0.325,0.155,0.336l0.139,0.012c0.027,0.019,0.019,0.085-0.008,0.097
				c-0.182-0.008-0.294-0.012-0.429-0.012c-0.139,0-0.255,0.004-0.356,0.012c-0.027-0.012-0.035-0.077-0.008-0.097l0.073-0.012
				c0.143-0.023,0.147-0.058,0.147-0.336V23.563z"/>
			<path d="M205.325,23.563c0-0.151,0-0.17-0.104-0.24l-0.035-0.023c-0.015-0.015-0.015-0.058,0.004-0.07
				c0.089-0.031,0.309-0.132,0.398-0.189c0.019,0,0.035,0.008,0.039,0.023c-0.008,0.135-0.015,0.321-0.015,0.479v0.696
				c0,0.278,0.008,0.317,0.147,0.336l0.081,0.012c0.027,0.019,0.019,0.085-0.008,0.097c-0.116-0.008-0.228-0.012-0.363-0.012
				c-0.139,0-0.255,0.004-0.364,0.012c-0.027-0.012-0.035-0.077-0.008-0.097l0.081-0.012c0.143-0.019,0.147-0.058,0.147-0.336
				V23.563z M205.646,22.461c0,0.139-0.096,0.201-0.205,0.201c-0.12,0-0.197-0.089-0.197-0.193c0-0.128,0.093-0.209,0.209-0.209
				S205.646,22.352,205.646,22.461z"/>
			<path d="M206.636,23.311c-0.066,0-0.07,0.012-0.07,0.093v0.723c0,0.224,0.027,0.429,0.282,0.429c0.039,0,0.074-0.008,0.104-0.019
				c0.035-0.012,0.085-0.054,0.097-0.054c0.031,0,0.046,0.043,0.039,0.066c-0.07,0.081-0.209,0.178-0.406,0.178
				c-0.333,0-0.402-0.186-0.402-0.418v-0.885c0-0.104-0.004-0.112-0.081-0.112h-0.108c-0.023-0.015-0.027-0.058-0.012-0.081
				c0.112-0.035,0.209-0.085,0.247-0.12c0.05-0.046,0.124-0.151,0.162-0.228c0.019-0.008,0.066-0.008,0.081,0.019v0.174
				c0,0.07,0.004,0.073,0.07,0.073h0.429c0.046,0.035,0.039,0.139,0.004,0.162H206.636z"/>
			<path d="M207.507,23.563c0-0.151,0-0.17-0.104-0.24l-0.035-0.023c-0.016-0.015-0.016-0.058,0.004-0.07
				c0.089-0.031,0.309-0.132,0.398-0.189c0.019,0,0.035,0.008,0.039,0.023c-0.008,0.135-0.016,0.321-0.016,0.479v0.696
				c0,0.278,0.008,0.317,0.147,0.336l0.081,0.012c0.027,0.019,0.019,0.085-0.008,0.097c-0.116-0.008-0.228-0.012-0.364-0.012
				c-0.139,0-0.255,0.004-0.363,0.012c-0.027-0.012-0.035-0.077-0.008-0.097l0.081-0.012c0.143-0.019,0.147-0.058,0.147-0.336
				V23.563z M207.828,22.461c0,0.139-0.096,0.201-0.205,0.201c-0.12,0-0.197-0.089-0.197-0.193c0-0.128,0.093-0.209,0.209-0.209
				S207.828,22.352,207.828,22.461z"/>
			<path d="M209.181,23.164c0.035,0.085,0.062,0.209,0.062,0.313c-0.016,0.027-0.073,0.035-0.093,0.012
				c-0.066-0.17-0.182-0.282-0.34-0.282c-0.151,0-0.247,0.097-0.247,0.236c0,0.159,0.162,0.244,0.298,0.321
				c0.205,0.116,0.394,0.248,0.394,0.522c0,0.294-0.271,0.441-0.557,0.441c-0.182,0-0.317-0.039-0.414-0.116
				c-0.031-0.073-0.054-0.263-0.046-0.391c0.019-0.023,0.07-0.027,0.089-0.004c0.066,0.213,0.19,0.398,0.41,0.398
				c0.139,0,0.259-0.081,0.259-0.248c0-0.178-0.155-0.275-0.298-0.356c-0.224-0.128-0.383-0.263-0.383-0.476
				c0-0.282,0.232-0.441,0.526-0.441C209.003,23.095,209.147,23.133,209.181,23.164z"/>
			<path d="M209.712,22.491c0-0.228-0.004-0.251-0.12-0.321l-0.039-0.023c-0.019-0.012-0.019-0.066,0-0.077
				c0.097-0.031,0.278-0.089,0.418-0.162c0.016,0,0.031,0.008,0.039,0.023c-0.004,0.116-0.012,0.309-0.012,0.48v0.812
				c0,0.035,0.004,0.066,0.015,0.073c0.139-0.108,0.325-0.201,0.522-0.201c0.367,0,0.499,0.228,0.499,0.499v0.646
				c0,0.278,0.008,0.321,0.147,0.336l0.104,0.012c0.027,0.019,0.019,0.085-0.008,0.097c-0.139-0.008-0.252-0.012-0.387-0.012
				c-0.139,0-0.255,0.004-0.36,0.012c-0.027-0.012-0.035-0.077-0.008-0.097l0.077-0.012c0.143-0.023,0.147-0.058,0.147-0.336v-0.553
				c0-0.248-0.12-0.414-0.367-0.414c-0.131,0-0.232,0.046-0.302,0.104c-0.07,0.058-0.081,0.077-0.081,0.213v0.65
				c0,0.278,0.008,0.317,0.147,0.336l0.081,0.012c0.027,0.016,0.019,0.085-0.008,0.097c-0.116-0.008-0.228-0.012-0.363-0.012
				c-0.139,0-0.255,0.004-0.379,0.012c-0.027-0.012-0.035-0.077-0.008-0.097l0.097-0.012c0.143-0.015,0.147-0.058,0.147-0.336
				V22.491z"/>
			<path d="M212.988,22.387c0.282-0.22,0.642-0.329,1.044-0.329c0.209,0,0.503,0.043,0.685,0.093
				c0.046,0.012,0.073,0.019,0.108,0.016c0.004,0.089,0.023,0.333,0.054,0.568c-0.019,0.027-0.077,0.031-0.104,0.008
				c-0.058-0.263-0.232-0.564-0.793-0.564c-0.592,0-1.094,0.375-1.094,1.175c0,0.812,0.514,1.261,1.148,1.261
				c0.499,0,0.719-0.325,0.808-0.553c0.027-0.019,0.085-0.012,0.101,0.016c-0.027,0.201-0.127,0.456-0.186,0.53
				c-0.046,0.008-0.093,0.023-0.135,0.039c-0.085,0.031-0.363,0.089-0.611,0.089c-0.348,0-0.681-0.07-0.963-0.259
				c-0.309-0.213-0.549-0.565-0.549-1.063C212.501,22.983,212.694,22.615,212.988,22.387z"/>
			<path d="M216.767,23.895c0,0.483-0.332,0.831-0.816,0.831c-0.445,0-0.793-0.313-0.793-0.797c0-0.487,0.367-0.835,0.824-0.835
				C216.415,23.095,216.767,23.42,216.767,23.895z M215.936,23.211c-0.255,0-0.445,0.244-0.445,0.669
				c0,0.352,0.159,0.731,0.499,0.731c0.34,0,0.445-0.356,0.445-0.654C216.435,23.628,216.303,23.211,215.936,23.211z"/>
			<path d="M217.53,24.239c0,0.278,0.008,0.317,0.147,0.336l0.093,0.012c0.027,0.019,0.019,0.085-0.008,0.097
				c-0.128-0.008-0.24-0.012-0.375-0.012c-0.139,0-0.255,0.004-0.371,0.012c-0.027-0.012-0.035-0.077-0.008-0.097l0.089-0.012
				c0.143-0.019,0.147-0.058,0.147-0.336v-1.748c0-0.228-0.004-0.251-0.12-0.321l-0.039-0.023c-0.019-0.012-0.019-0.066,0-0.077
				c0.097-0.031,0.278-0.089,0.418-0.162c0.015,0,0.031,0.008,0.039,0.023c-0.004,0.116-0.012,0.309-0.012,0.48V24.239z"/>
			<path d="M218.473,24.104c0,0.267,0.066,0.445,0.36,0.445c0.104,0,0.228-0.043,0.313-0.116c0.05-0.046,0.077-0.104,0.077-0.224
				v-0.634c0-0.251-0.027-0.259-0.143-0.305l-0.05-0.019c-0.027-0.015-0.027-0.07,0.004-0.085c0.155-0.004,0.368-0.031,0.453-0.07
				c0.019,0.004,0.031,0.012,0.035,0.027c-0.008,0.073-0.012,0.193-0.012,0.336v0.65c0,0.305,0.012,0.421,0.12,0.421
				c0.046,0,0.097-0.008,0.151-0.019c0.023,0.019,0.027,0.097-0.004,0.112c-0.151,0.031-0.375,0.07-0.506,0.143
				c-0.02,0-0.039-0.012-0.046-0.027V24.58c0-0.035-0.012-0.054-0.035-0.054c-0.116,0.073-0.306,0.201-0.534,0.201
				c-0.34,0-0.468-0.17-0.468-0.483v-0.646c0-0.244,0-0.278-0.116-0.329l-0.046-0.019c-0.023-0.019-0.019-0.073,0.008-0.085
				c0.178-0.004,0.328-0.039,0.414-0.07c0.023,0.004,0.035,0.012,0.039,0.027c-0.008,0.066-0.012,0.147-0.012,0.336V24.104z"/>
			<path d="M222.268,23.679c0-0.263-0.116-0.398-0.36-0.398c-0.147,0-0.267,0.066-0.321,0.135c-0.046,0.058-0.058,0.097-0.058,0.232
				v0.592c0,0.278,0.008,0.317,0.147,0.336l0.081,0.012c0.027,0.019,0.019,0.085-0.008,0.097c-0.116-0.008-0.228-0.012-0.363-0.012
				c-0.139,0-0.244,0.004-0.352,0.012c-0.027-0.012-0.035-0.077-0.008-0.097l0.07-0.012c0.143-0.023,0.147-0.058,0.147-0.336v-0.561
				c0-0.259-0.116-0.398-0.356-0.398c-0.159,0-0.267,0.07-0.325,0.139c-0.039,0.046-0.058,0.097-0.058,0.22v0.599
				c0,0.278,0.008,0.313,0.147,0.336l0.07,0.012c0.027,0.019,0.02,0.085-0.008,0.097c-0.104-0.008-0.216-0.012-0.352-0.012
				c-0.139,0-0.255,0.004-0.375,0.012c-0.027-0.012-0.035-0.077-0.008-0.097l0.093-0.012c0.143-0.019,0.147-0.058,0.147-0.336
				v-0.677c0-0.151,0-0.17-0.104-0.24l-0.035-0.023c-0.015-0.015-0.015-0.058,0.004-0.07c0.089-0.031,0.309-0.132,0.387-0.189
				c0.016,0,0.035,0.008,0.043,0.027c-0.008,0.089-0.008,0.147-0.008,0.182c0,0.023,0.015,0.043,0.043,0.043
				c0.147-0.104,0.329-0.197,0.514-0.197c0.193,0,0.302,0.07,0.41,0.228c0.035,0.008,0.062-0.008,0.097-0.031
				c0.155-0.108,0.344-0.197,0.526-0.197c0.309,0,0.46,0.213,0.46,0.479v0.665c0,0.278,0.008,0.317,0.147,0.336l0.093,0.012
				c0.027,0.019,0.019,0.085-0.008,0.097c-0.128-0.008-0.24-0.012-0.375-0.012c-0.139,0-0.244,0.004-0.352,0.012
				c-0.027-0.012-0.035-0.077-0.008-0.097l0.07-0.012c0.143-0.023,0.147-0.058,0.147-0.336V23.679z"/>
			<path d="M223.174,22.491c0-0.228-0.004-0.251-0.12-0.321l-0.039-0.023c-0.019-0.012-0.019-0.066,0-0.077
				c0.089-0.035,0.275-0.085,0.422-0.162c0.015,0,0.031,0.008,0.039,0.023c-0.008,0.135-0.016,0.309-0.016,0.48v0.731
				c0,0.066,0.016,0.081,0.039,0.081c0.101-0.058,0.255-0.128,0.445-0.128c0.441,0,0.739,0.332,0.739,0.758
				c0,0.514-0.371,0.874-0.889,0.874c-0.143,0-0.251-0.027-0.329-0.05c-0.081-0.027-0.132-0.05-0.162-0.05
				c-0.031,0-0.062,0.031-0.081,0.058c-0.004,0.004-0.008,0.004-0.016,0.004c-0.015,0-0.031-0.008-0.039-0.023
				c0.004-0.054,0.008-0.128,0.008-0.329V22.491z M223.46,24.146c0,0.135,0.031,0.255,0.097,0.336
				c0.066,0.081,0.17,0.128,0.294,0.128c0.364,0,0.506-0.309,0.506-0.642c0-0.398-0.205-0.708-0.588-0.708
				c-0.116,0-0.209,0.027-0.263,0.062c-0.039,0.027-0.046,0.07-0.046,0.22V24.146z"/>
			<path d="M225.197,23.563c0-0.151,0-0.17-0.104-0.24l-0.035-0.023c-0.015-0.015-0.015-0.058,0.004-0.07
				c0.089-0.031,0.309-0.132,0.398-0.189c0.019,0,0.035,0.008,0.039,0.023c-0.008,0.135-0.015,0.321-0.015,0.479v0.696
				c0,0.278,0.008,0.317,0.147,0.336l0.081,0.012c0.027,0.019,0.019,0.085-0.008,0.097c-0.116-0.008-0.228-0.012-0.364-0.012
				c-0.139,0-0.255,0.004-0.363,0.012c-0.027-0.012-0.035-0.077-0.008-0.097l0.081-0.012c0.143-0.019,0.147-0.058,0.147-0.336
				V23.563z M225.518,22.461c0,0.139-0.096,0.201-0.205,0.201c-0.12,0-0.197-0.089-0.197-0.193c0-0.128,0.093-0.209,0.209-0.209
				S225.518,22.352,225.518,22.461z"/>
			<path d="M226.729,23.872c0.058-0.019,0.066-0.054,0.066-0.112l0.004-0.178c0.004-0.143-0.043-0.336-0.282-0.336
				c-0.108,0-0.24,0.054-0.247,0.174c-0.004,0.062-0.008,0.108-0.039,0.131c-0.058,0.046-0.162,0.073-0.22,0.073
				c-0.035,0-0.054-0.019-0.054-0.054c0-0.201,0.437-0.476,0.719-0.476c0.278,0,0.414,0.162,0.402,0.452l-0.023,0.673
				c-0.008,0.178,0.027,0.336,0.178,0.336c0.039,0,0.073-0.012,0.097-0.023c0.019-0.012,0.039-0.027,0.05-0.027
				c0.016,0,0.027,0.023,0.027,0.05c0,0.019-0.136,0.17-0.325,0.17c-0.093,0-0.186-0.035-0.251-0.12
				c-0.015-0.023-0.039-0.054-0.062-0.054c-0.027,0-0.074,0.035-0.151,0.077c-0.085,0.046-0.17,0.097-0.278,0.097
				c-0.112,0-0.205-0.031-0.271-0.089c-0.073-0.066-0.12-0.162-0.12-0.271c0-0.151,0.074-0.24,0.321-0.329L226.729,23.872z
				 M226.489,24.552c0.077,0,0.197-0.058,0.236-0.097c0.046-0.046,0.046-0.101,0.05-0.182l0.008-0.228
				c0-0.043-0.016-0.05-0.039-0.05c-0.023,0-0.089,0.016-0.158,0.039c-0.228,0.077-0.34,0.135-0.34,0.286
				C226.245,24.386,226.292,24.552,226.489,24.552z"/>
		</g>
	</g>
	<line style="fill:none;stroke:#929497;stroke-miterlimit:10;" x1="145.555" y1="24.462" x2="145.555" y2="0"/>
</g>
</svg>
