<?xml version="1.0" encoding="iso-8859-1"?>
<!-- Generator: Adobe Illustrator 22.0.0, SVG Export Plug-In . SVG Version: 6.00 Build 0)  -->
<svg version="1.1" id="Layer_1" xmlns="http://www.w3.org/2000/svg" xmlns:xlink="http://www.w3.org/1999/xlink" x="0px" y="0px"
	 viewBox="0 0 147.222 262.915" style="enable-background:new 0 0 147.222 262.915;" xml:space="preserve">
<g>
	
		<linearGradient id="SVGID_1_" gradientUnits="userSpaceOnUse" x1="75.2059" y1="364.4509" x2="101.916" y2="364.4509" gradientTransform="matrix(1 0 0 1 -75.2059 -127.9862)">
		<stop  offset="0" style="stop-color:#1D76BB"/>
		<stop  offset="1" style="stop-color:#1D76BB"/>
	</linearGradient>
	<path style="fill:url(#SVGID_1_);" d="M26.042,262.915H0.573c-0.417,0-0.694-0.432-0.52-0.811l22.836-49.242
		c0.058-0.126-0.034-0.27-0.173-0.27H0.668c-0.369,0-0.668-0.299-0.668-0.668v-1.241c0-0.369,0.299-0.668,0.668-0.668h25.469
		c0.417,0,0.694,0.432,0.52,0.811L3.822,260.068c-0.058,0.126,0.034,0.27,0.173,0.27h22.047c0.369,0,0.668,0.299,0.668,0.668v1.241
		C26.71,262.616,26.411,262.915,26.042,262.915z"/>
	<g>
		<g>
			<path style="fill:#1D76BB;" d="M47.001,112.211c1.506-1.614,3.034-3.207,4.562-4.8c0.821-0.855,1.64-1.71,2.457-2.569
				l7.101-7.287c3.132-3.201,6.293-6.373,9.453-9.546c1.627-1.633,3.252-3.265,4.875-4.902c1.719-1.688,3.431-3.381,5.143-5.072
				c3.111-3.076,6.224-6.151,9.364-9.197c4.407-4.278,9.542-9.245,14.711-14.063l0.135,0.135
				c-4.845,5.155-9.831,10.268-14.123,14.655c-3.058,3.128-6.146,6.227-9.234,9.328c-1.699,1.705-3.398,3.41-5.092,5.121
				c-1.636,1.609-3.266,3.22-4.897,4.832c-3.193,3.155-6.387,6.311-9.608,9.438l-7.316,7.072c-0.849,0.801-1.694,1.605-2.538,2.409
				c-1.613,1.534-3.226,3.069-4.859,4.581L47.001,112.211z"/>
			<path style="fill:#1D76BB;" d="M104.733,54.844c-4.646,4.945-9.377,9.806-14.121,14.654c-4.742,4.85-9.553,9.63-14.326,14.448
				c-4.835,4.756-9.637,9.545-14.504,14.269l-7.315,7.071c-2.466,2.329-4.907,4.684-7.396,6.99c2.315-2.481,4.68-4.911,7.019-7.368
				l7.1-7.287c4.744-4.848,9.552-9.63,14.327-14.447c4.837-4.754,9.637-9.546,14.505-14.268
				C94.889,64.182,99.769,59.471,104.733,54.844z"/>
			<path style="fill:#1D76BB;" d="M91.629,86.775c0.828-2.598,1.746-5.138,2.868-8.152c0.988-2.691,2.074-5.395,3.123-8.009
				c1.084-2.629,2.191-5.313,3.384-7.978l1.768-3.938c0.216-0.45,0.429-0.899,0.64-1.348c0.402-0.854,0.806-1.708,1.236-2.551
				l0.176,0.072c-0.279,0.898-0.586,1.785-0.892,2.672c-0.164,0.475-0.328,0.949-0.488,1.426l-1.487,4.054
				c-1.028,2.794-2.148,5.581-3.138,8.04c-1.077,2.61-2.191,5.308-3.373,7.946c-1.055,2.382-2.294,5.149-3.641,7.836L91.629,86.775z
				"/>
			<path style="fill:#1D76BB;" d="M91.72,86.804c0.876-2.748,1.863-5.451,2.867-8.147c0.992-2.701,2.064-5.37,3.135-8.038
				c1.096-2.659,2.194-5.317,3.369-7.943l1.768-3.938c0.626-1.297,1.217-2.609,1.874-3.894c-0.428,1.378-0.921,2.73-1.379,4.096
				l-1.486,4.052c-0.993,2.701-2.064,5.369-3.137,8.037c-1.097,2.658-2.195,5.316-3.371,7.942
				C94.194,81.602,93.012,84.225,91.72,86.804z"/>
			<path style="fill:#28A8E0;" d="M91.657,86.734c2.25-2.022,4.587-3.945,6.601-5.588c2.224-1.831,4.539-3.624,6.776-5.357
				c2.115-1.608,4.511-3.429,6.933-5.156l3.519-2.507c0.415-0.279,0.826-0.561,1.237-0.842c0.779-0.533,1.558-1.066,2.355-1.575
				l0.116,0.151c-0.694,0.633-1.406,1.243-2.118,1.853c-0.383,0.328-0.766,0.656-1.147,0.987l-3.335,2.749
				c-2.142,1.762-4.248,3.398-6.778,5.356c-2.246,1.706-4.567,3.468-6.934,5.155c-2.108,1.518-4.57,3.275-7.109,4.926L91.657,86.734
				z"/>
			<path style="fill:#28A8E0;" d="M91.72,86.804c2.147-1.93,4.367-3.765,6.598-5.585c2.223-1.831,4.499-3.593,6.775-5.355
				c2.292-1.742,4.584-3.482,6.929-5.155l3.519-2.506c1.197-0.804,2.371-1.637,3.589-2.415c-1.067,0.974-2.177,1.892-3.264,2.839
				l-3.334,2.748c-2.224,1.83-4.499,3.593-6.776,5.354c-2.292,1.741-4.585,3.481-6.93,5.153
				C96.489,83.563,94.141,85.231,91.72,86.804z"/>
			<path style="fill:#00A79C;" d="M119.745,74.983c-5.997-1.787-12.022-3.72-17.198-5.393c-3.677-1.185-7.34-2.41-11.004-3.635
				c-2.033-0.679-4.065-1.358-6.1-2.032c-1.937-0.672-3.874-1.339-5.811-2.006c-3.742-1.287-7.483-2.575-11.212-3.9l-8.483-3.038
				c-0.968-0.361-1.936-0.717-2.905-1.074c-1.85-0.682-3.701-1.363-5.542-2.073l0.061-0.181c1.871,0.55,3.732,1.128,5.593,1.707
				c1.008,0.313,2.016,0.626,3.025,0.934l8.581,2.749c3.754,1.214,7.494,2.464,11.236,3.714c1.955,0.654,3.91,1.307,5.867,1.955
				c2.016,0.701,4.034,1.395,6.05,2.089c3.662,1.26,7.324,2.52,10.972,3.819c5.143,1.829,11.117,3.965,16.93,6.183L119.745,74.983z"
				/>
			<path style="fill:#00A79C;" d="M119.772,74.891c-5.759-1.716-11.48-3.545-17.196-5.392c-5.716-1.844-11.401-3.781-17.102-5.667
				c-5.673-1.969-11.362-3.894-17.021-5.905l-8.482-3.038c-2.815-1.05-5.641-2.065-8.445-3.147c2.883,0.847,5.744,1.762,8.617,2.64
				l8.58,2.749c5.715,1.847,11.401,3.78,17.102,5.668c5.673,1.972,11.362,3.893,17.021,5.907
				C108.504,70.721,114.157,72.749,119.772,74.891z"/>
			<path style="fill:#00A79C;" d="M91.674,86.721c0.742-0.402,1.494-0.776,2.248-1.15c0.392-0.195,0.783-0.388,1.174-0.587
				l3.465-1.631c2.368-1.109,4.829-2.164,7.001-3.095c2.316-0.964,4.71-1.961,7.099-2.863c2.666-1.021,4.913-1.854,7.213-2.594
				l0.074,0.174c-2.353,1.249-4.789,2.392-6.888,3.365c-2.321,1.09-4.7,2.11-7,3.097c-2.17,0.905-4.629,1.931-7.099,2.865
				L95.38,85.65c-0.416,0.143-0.829,0.288-1.242,0.433c-0.793,0.28-1.586,0.56-2.389,0.812L91.674,86.721z"/>
			<path style="fill:#00A79C;" d="M119.904,74.891c-2.261,1.2-4.569,2.29-6.883,3.363c-2.31,1.085-4.653,2.09-6.996,3.096
				c-2.353,0.981-4.708,1.961-7.095,2.863l-3.582,1.349c-1.21,0.413-2.405,0.86-3.627,1.243c1.126-0.61,2.28-1.155,3.419-1.735
				l3.464-1.629c2.31-1.084,4.653-2.09,6.997-3.094c2.354-0.98,4.708-1.96,7.096-2.861
				C115.078,76.573,117.467,75.677,119.904,74.891z"/>
			<path style="fill:#00A79C;" d="M47.034,112.189c0.971-0.406,1.95-0.783,2.93-1.161c0.522-0.201,1.044-0.402,1.564-0.607
				l4.531-1.658c3.124-1.141,6.307-2.207,9.115-3.147c3.001-0.978,6.102-1.989,9.196-2.906c2.787-0.838,6.035-1.803,9.287-2.632
				l0.06,0.181c-2.814,1.154-5.643,2.203-9.025,3.424c-3.01,1.1-6.097,2.135-9.084,3.138c-2.848,0.931-6.039,1.973-9.226,2.919
				l-4.624,1.369c-0.543,0.146-1.083,0.296-1.623,0.446c-1.011,0.281-2.021,0.563-3.041,0.814L47.034,112.189z"/>
			<path style="fill:#00A79C;" d="M83.681,100.17c-2.98,1.222-5.998,2.331-9.021,3.423c-3.02,1.103-6.066,2.126-9.113,3.148
				c-3.055,0.997-6.11,1.992-9.192,2.907l-4.624,1.369c-1.554,0.418-3.096,0.872-4.66,1.26c1.487-0.622,2.995-1.177,4.492-1.767
				l4.529-1.658c3.02-1.103,6.066-2.125,9.113-3.146c3.055-0.996,6.11-1.991,9.193-2.906
				C77.476,101.874,80.559,100.965,83.681,100.17z"/>
			<path style="fill:#29B574;" d="M83.632,100.251c-3.709-2.174-7.389-4.485-10.548-6.481c-2.259-1.426-4.497-2.887-6.733-4.347
				c-1.217-0.795-2.432-1.588-3.653-2.376c-1.159-0.784-2.319-1.564-3.479-2.343c-2.263-1.519-4.526-3.039-6.768-4.592l-5.074-3.541
				c-0.571-0.415-1.143-0.825-1.715-1.235c-1.105-0.793-2.21-1.586-3.298-2.403l0.105-0.159c1.174,0.68,2.331,1.384,3.488,2.089
				c0.606,0.369,1.211,0.738,1.819,1.103l5.242,3.288c2.307,1.458,4.593,2.949,6.878,4.441c1.168,0.763,2.336,1.525,3.508,2.283
				c1.205,0.817,2.413,1.628,3.621,2.439c2.216,1.488,4.431,2.975,6.625,4.498c3.063,2.122,6.622,4.601,10.087,7.178L83.632,100.251
				z"/>
			<path style="fill:#29B574;" d="M83.681,100.17c-3.562-2.089-7.059-4.277-10.545-6.48c-3.488-2.201-6.922-4.484-10.385-6.722
				c-3.415-2.312-6.855-4.584-10.246-6.932l-5.073-3.541c-1.669-1.214-3.359-2.396-5.01-3.637c1.787,1.035,3.536,2.129,5.305,3.191
				l5.241,3.287c3.486,2.204,6.922,4.483,10.384,6.724c3.413,2.314,6.856,4.583,10.245,6.934
				C76.987,95.342,80.367,97.706,83.681,100.17z"/>
			<path style="fill:#9E2064;" d="M47.019,112.196c1.173-0.762,2.361-1.498,3.549-2.234c0.634-0.393,1.269-0.786,1.901-1.183
				l5.506-3.317c2.43-1.451,4.879-2.869,7.328-4.286c1.259-0.728,2.517-1.457,3.773-2.19c1.323-0.737,2.64-1.477,3.957-2.218
				c2.417-1.359,4.834-2.718,7.271-4.042c3.405-1.851,7.373-3.995,11.373-6.006l0.094,0.165c-3.777,2.426-7.637,4.747-10.958,6.732
				c-2.377,1.422-4.775,2.811-7.172,4.198c-1.311,0.758-2.62,1.517-3.927,2.28c-1.272,0.709-2.539,1.422-3.806,2.134
				c-2.467,1.387-4.934,2.774-7.421,4.127l-5.656,3.052c-0.661,0.341-1.319,0.686-1.977,1.029c-1.242,0.65-2.484,1.3-3.739,1.925
				L47.019,112.196z"/>
			<path style="fill:#9E2064;" d="M91.72,86.804c-3.609,2.318-7.278,4.532-10.955,6.731c-3.676,2.201-7.401,4.316-11.099,6.478
				c-3.742,2.086-7.46,4.212-11.224,6.259l-5.656,3.052c-1.905,0.983-3.792,1.998-5.714,2.952c1.799-1.169,3.633-2.276,5.449-3.416
				l5.506-3.316c3.678-2.198,7.401-4.317,11.1-6.477c3.743-2.083,7.46-4.213,11.225-6.258C84.114,90.763,87.887,88.731,91.72,86.804
				z"/>
			<path style="fill:#8CC542;" d="M83.603,100.226c-2.998-4.09-5.901-8.276-8.387-11.878c-1.784-2.58-3.532-5.183-5.281-7.786
				c-0.953-1.418-1.906-2.836-2.865-4.251c-0.897-1.377-1.798-2.75-2.699-4.122c-1.757-2.678-3.514-5.356-5.237-8.056l-3.892-6.137
				c-0.435-0.711-0.872-1.417-1.309-2.123c-0.838-1.354-1.677-2.709-2.49-4.081l0.158-0.105c0.94,1.27,1.855,2.556,2.77,3.843
				c0.49,0.688,0.98,1.378,1.474,2.064l4.146,5.97c1.816,2.631,3.599,5.284,5.382,7.937c0.919,1.368,1.839,2.736,2.763,4.102
				c0.944,1.45,1.892,2.896,2.841,4.342c1.708,2.605,3.417,5.209,5.092,7.836c2.917,4.568,5.342,8.415,7.693,12.339L83.603,100.226z
				"/>
			<path style="fill:#8CC542;" d="M83.681,100.17c-2.867-3.911-5.634-7.888-8.387-11.876c-2.754-3.986-5.427-8.026-8.145-12.036
				c-2.644-4.059-5.327-8.092-7.934-12.176l-3.893-6.137c-1.264-2.068-2.56-4.115-3.797-6.201c1.443,1.949,2.827,3.938,4.242,5.905
				l4.146,5.969c2.752,3.987,5.428,8.025,8.143,12.037c2.642,4.061,5.328,8.092,7.933,12.177
				C78.597,91.916,81.189,96.01,83.681,100.17z"/>
			<path style="fill:#1D76BB;" d="M83.271,144.782c-2.634-2.24-5.243-4.511-7.85-6.781c0,0-3.33-2.896-4.365-3.791
				c-1.421-1.269-2.843-2.533-4.267-3.798l-2.607-2.317c-1.756-1.561-3.507-3.127-5.247-4.708
				c-3.491-3.168-7.228-6.581-10.91-10.073c-0.342-0.321-0.682-0.645-1.021-0.969l0.126-0.143c0.342,0.275,0.684,0.552,1.023,0.831
				c3.648,2.966,7.22,5.977,11.459,9.584c1.759,1.494,3.504,3.002,5.246,4.513l2.603,2.263c1.477,1.286,2.956,2.573,4.439,3.856
				l4.342,3.861c2.603,2.311,5.205,4.621,7.781,6.96l0.602,0.551l-0.197,0.03c-0.36,0.055-0.72,0.106-1.082,0.155l-0.042,0.005
				L83.271,144.782z"/>
			<path style="fill:#1D76BB;" d="M84.412,144.555c-0.359,0.056-0.718,0.107-1.08,0.154c-2.797-2.38-5.568-4.794-8.338-7.205
				c-0.259-0.225-0.52-0.451-0.778-0.678c-1.031-0.897-2.063-1.793-3.098-2.688c-2.016-1.802-4.04-3.596-6.061-5.394
				c-0.272-0.239-0.542-0.48-0.812-0.72c-1.755-1.561-3.506-3.127-5.246-4.709c-3.665-3.326-7.316-6.665-10.91-10.071
				c-0.341-0.321-0.68-0.645-1.019-0.968c0.341,0.274,0.683,0.551,1.022,0.83c3.866,3.143,7.667,6.357,11.459,9.583
				c1.758,1.494,3.502,3.002,5.244,4.512c0.277,0.241,0.551,0.48,0.828,0.718c2.07,1.8,4.138,3.605,6.214,5.4
				c1.095,0.979,2.195,1.954,3.292,2.931c0.254,0.223,0.506,0.448,0.758,0.671c2.699,2.398,5.398,4.794,8.07,7.218L84.412,144.555z"
				/>
			<path style="fill:#D91B5D;" d="M90.942,126.742c-1.225-0.316-2.441-0.66-3.656-1.005c-0.638-0.181-1.275-0.361-1.914-0.538
				l-5.536-1.654c-3.766-1.127-7.617-2.374-11.016-3.475c-3.593-1.191-7.308-2.422-10.937-3.716
				c-4.058-1.43-7.456-2.657-10.846-3.991l0.059-0.181c3.881,1.025,7.768,2.188,11.107,3.198c3.74,1.118,7.439,2.315,11.016,3.473
				c3.563,1.179,7.247,2.4,10.937,3.714l5.439,1.941c0.62,0.235,1.24,0.466,1.858,0.697c1.187,0.442,2.373,0.884,3.549,1.354
				L90.942,126.742z"/>
			<path style="fill:#D91B5D;" d="M47.071,112.276c3.728,0.984,7.419,2.082,11.104,3.197c3.689,1.103,7.351,2.288,11.014,3.472
				c3.654,1.209,7.308,2.421,10.935,3.713l5.44,1.941c1.801,0.685,3.613,1.334,5.404,2.051c-1.867-0.481-3.713-1.03-5.57-1.543
				l-5.534-1.652c-3.689-1.104-7.351-2.288-11.013-3.474c-3.654-1.211-7.307-2.422-10.934-3.715
				C54.284,114.986,50.659,113.688,47.071,112.276z"/>
			<path style="fill:#29B574;" d="M54.329,142.834l1.099-1.69c1.93-2.967,3.927-5.959,5.86-8.853
				c0.96-1.439,1.922-2.879,2.879-4.321l0.549-0.824c0.891-1.299,4.771-6.989,4.771-6.989s1.232-1.804,1.533-2.239l0.64-0.937
				c0.771-1.12,1.544-2.235,2.32-3.349l4.765-6.792l1.492-2.078c0.851-1.188,1.702-2.376,2.566-3.557
				c0.129-0.181,0.802-1.095,0.802-1.095l0.158,0.106c0,0-0.621,1.01-0.765,1.235c-0.736,1.187-1.483,2.365-2.231,3.544
				c-0.475,0.749-0.949,1.498-1.422,2.249l-4.512,6.963c-0.816,1.251-1.637,2.498-2.461,3.744l-3.298,4.953
				c-1.126,1.687-2.253,3.375-3.374,5.067l-0.565,0.826c-0.949,1.385-1.895,2.773-2.84,4.161c-1.994,2.927-3.988,5.853-6.017,8.757
				l-0.966,1.383L54.329,142.834z"/>
			<path style="fill:#29B574;" d="M83.68,100.169c-0.112,0.185-0.225,0.368-0.339,0.551c-0.141,0.23-0.281,0.457-0.424,0.683
				c-1.205,1.941-2.438,3.859-3.654,5.793l-2.19,3.379l-0.511,0.79l-1.809,2.793c-0.816,1.251-1.637,2.498-2.46,3.743
				c-0.207,0.315-0.417,0.627-0.625,0.941v0.002c-0.167,0.252-0.335,0.504-0.504,0.756c-0.205,0.31-0.413,0.62-0.618,0.93
				c-1.642,2.463-3.29,4.923-4.925,7.39c-0.013,0.02-0.027,0.04-0.04,0.06c-0.174,0.254-0.35,0.511-0.524,0.765
				c-2.951,4.307-5.866,8.637-8.858,12.917c-0.31,0.444-0.62,0.886-0.928,1.329c-0.265-0.069-0.529-0.141-0.792-0.214
				c0.341-0.526,0.685-1.055,1.028-1.581c2.873-4.417,5.824-8.782,8.737-13.172c0.145-0.219,0.288-0.435,0.433-0.654
				c0.038-0.056,0.078-0.114,0.116-0.17c1.595-2.326,3.179-4.66,4.771-6.988c0.21-0.31,0.424-0.622,0.636-0.932
				c0.297-0.435,0.596-0.872,0.897-1.307c0.212-0.312,0.426-0.625,0.64-0.937c0.772-1.12,1.544-2.235,2.32-3.348l2.008-2.864
				l0.544-0.774l2.213-3.154c1.354-1.876,2.69-3.765,4.057-5.634c0.129-0.181,0.261-0.361,0.395-0.542
				C83.408,100.535,83.544,100.352,83.68,100.169z"/>
			<path style="fill:#90298D;" d="M91.661,86.879c-3.662-2.881-7.25-5.873-10.326-8.453c-2.205-1.845-4.383-3.723-6.561-5.601
				c-1.189-1.025-2.378-2.049-3.572-3.069c-1.139-1.014-2.281-2.022-3.423-3.031c-2.19-1.933-4.38-3.867-6.544-5.83l-4.924-4.498
				c-0.556-0.526-1.113-1.048-1.671-1.57c-1.067-0.998-2.133-1.995-3.18-3.017l0.126-0.143c1.142,0.891,2.266,1.804,3.388,2.716
				c0.604,0.49,1.206,0.981,1.813,1.467l5.126,4.268c2.244,1.883,4.462,3.794,6.681,5.706c1.149,0.99,2.297,1.981,3.451,2.966
				c1.175,1.047,2.353,2.087,3.532,3.127c2.154,1.901,4.308,3.804,6.434,5.736c2.988,2.712,6.454,5.873,9.777,9.082L91.661,86.879z"
				/>
			<path style="fill:#90298D;" d="M91.72,86.804c-3.497-2.752-6.916-5.595-10.323-8.451c-3.409-2.854-6.753-5.782-10.132-8.669
				c-3.321-2.954-6.674-5.872-9.966-8.859l-4.924-4.497c-1.615-1.529-3.255-3.03-4.849-4.584c1.756,1.368,3.466,2.789,5.2,4.181
				l5.124,4.268c3.407,2.856,6.753,5.781,10.131,8.671c3.32,2.956,6.674,5.872,9.965,8.861
				C85.238,80.712,88.518,83.713,91.72,86.804z"/>
			<path style="fill:#EB2D7C;" d="M63.799,144.794c-0.499-0.067-1-0.143-1.496-0.221l-0.244-0.038c0,0,5.167-3.371,6.365-4.158
				c1.418-0.891,2.83-1.786,4.241-2.681l2.412-1.527c1.499-0.948,3.002-1.892,4.515-2.82l1.883-1.155
				c2.321-1.42,5.38-3.278,8.465-5.063c0,0,0.725-0.419,0.979-0.565l0.103,0.16l-0.958,0.684c-2.856,2.029-5.69,3.954-8.085,5.571
				l-1.831,1.232c-1.396,0.939-2.802,1.864-4.211,2.789l-3.08,2.008c-1.248,0.812-2.497,1.626-3.741,2.443
				c-1.151,0.725-2.3,1.453-3.448,2.182l-1.836,1.163L63.799,144.794z"/>
			<path style="fill:#EB2D7C;" d="M90.968,126.65c-0.207,0.149-0.413,0.299-0.622,0.448h-0.004c-0.109,0.078-0.219,0.156-0.33,0.234
				c-2.668,1.896-5.371,3.741-8.084,5.57c-0.239,0.161-0.475,0.319-0.712,0.48c-0.372,0.25-0.747,0.502-1.12,0.752
				c-1.396,0.939-2.802,1.865-4.209,2.788c-0.299,0.194-0.596,0.388-0.892,0.582c-1.976,1.292-3.957,2.574-5.929,3.87
				c-1.753,1.104-3.502,2.217-5.253,3.326c-0.5-0.067-0.999-0.143-1.494-0.221c2.052-1.343,4.109-2.677,6.159-4.022
				c1.918-1.205,3.828-2.42,5.739-3.631c0.303-0.192,0.609-0.386,0.912-0.575c1.499-0.948,3.002-1.892,4.515-2.819
				c0.381-0.234,0.763-0.468,1.144-0.703c0.245-0.152,0.493-0.301,0.738-0.453c2.804-1.715,5.617-3.415,8.463-5.061
				c0.074-0.042,0.147-0.085,0.221-0.125C90.461,126.94,90.713,126.795,90.968,126.65z"/>
			<path style="fill:#1D76BB;" d="M91.629,86.83c-0.347-1.206-0.665-2.42-0.983-3.634c-0.166-0.634-0.332-1.27-0.502-1.903
				l-1.371-5.562c-0.934-3.796-1.803-7.71-2.569-11.163c-0.784-3.651-1.596-7.425-2.322-11.216c-0.661-3.4-1.419-7.356-2.037-11.278
				l0.186-0.041c1.073,3.818,2.035,7.731,2.854,11.101c0.909,3.699,1.75,7.479,2.565,11.134c0.751,3.49,1.595,7.413,2.329,11.243
				l1.074,5.626c0.11,0.651,0.225,1.3,0.339,1.947c0.218,1.233,0.435,2.468,0.623,3.708L91.629,86.83z"/>
			<path style="fill:#1D76BB;" d="M81.937,42.058c1.035,3.681,1.953,7.387,2.853,11.097c0.913,3.708,1.741,7.433,2.57,11.159
				c0.803,3.731,1.604,7.463,2.323,11.213l1.074,5.626c0.319,1.884,0.675,3.759,0.962,5.65c-0.528-1.838-0.988-3.691-1.484-5.536
				l-1.371-5.561c-0.912-3.708-1.741-7.433-2.568-11.16c-0.802-3.732-1.603-7.464-2.321-11.214
				C83.245,49.587,82.533,45.835,81.937,42.058z"/>
			<path style="fill:#65308F;" d="M104.733,54.939c-1.458-0.004-2.914-0.037-4.371-0.072c-0.766-0.018-1.531-0.035-2.298-0.049
				l-6.662-0.236c-2.94-0.114-5.877-0.266-8.815-0.42c-1.498-0.078-2.996-0.157-4.494-0.23c-1.571-0.107-3.139-0.208-4.708-0.309
				c-2.864-0.184-5.727-0.368-8.589-0.592c-4.011-0.313-8.676-0.689-13.28-1.192l0.011-0.19c4.662,0.035,9.325,0.204,13.329,0.359
				c2.877,0.109,5.751,0.259,8.626,0.41c1.561,0.081,3.122,0.163,4.684,0.238c1.509,0.102,3.016,0.199,4.524,0.296
				c2.925,0.188,5.85,0.376,8.773,0.604l6.642,0.539c0.771,0.076,1.541,0.148,2.311,0.221c1.443,0.135,2.886,0.269,4.328,0.434
				L104.733,54.939z"/>
			<path style="fill:#65308F;" d="M51.526,51.744c4.447,0.034,8.887,0.187,13.326,0.358c4.439,0.169,8.873,0.435,13.309,0.648
				c4.431,0.301,8.866,0.555,13.294,0.9l6.642,0.539c2.212,0.22,4.426,0.402,6.635,0.654c-2.224-0.006-4.444-0.082-6.666-0.121
				l-6.66-0.236c-4.439-0.172-8.873-0.434-13.309-0.65c-4.431-0.304-8.866-0.554-13.294-0.902
				C60.375,52.59,55.947,52.226,51.526,51.744z"/>
			<path style="fill:#00A79C;" d="M42.41,72.762c2.076-0.272,4.157-0.514,6.236-0.756c1.11-0.129,2.22-0.259,3.329-0.393
				l9.575-1.035c4.187-0.443,8.378-0.847,12.568-1.251c2.199-0.212,4.4-0.424,6.599-0.642c2.287-0.194,4.572-0.395,6.857-0.596
				c4.109-0.361,8.219-0.724,12.333-1.044c5.793-0.455,12.533-0.972,19.216-1.352l0.018,0.19c-6.67,0.851-13.377,1.572-19.14,2.183
				c-4.101,0.436-8.205,0.832-12.309,1.227c-2.286,0.22-4.572,0.441-6.857,0.668c-2.162,0.184-4.322,0.374-6.482,0.565
				c-4.235,0.373-8.47,0.745-12.708,1.078l-9.603,0.732c-1.097,0.07-2.194,0.144-3.289,0.219c-2.108,0.143-4.215,0.286-6.326,0.399
				L42.41,72.762z"/>
			<path style="fill:#00A79C;" d="M119.129,65.787c-6.372,0.813-12.754,1.507-19.138,2.183c-6.384,0.679-12.777,1.26-19.165,1.894
				c-6.396,0.547-12.788,1.14-19.188,1.643l-9.602,0.732c-3.204,0.204-6.405,0.446-9.613,0.618c3.185-0.418,6.376-0.765,9.564-1.15
				l9.574-1.035c6.384-0.676,12.777-1.261,19.165-1.892c6.396-0.544,12.788-1.141,19.188-1.641
				C106.314,66.637,112.716,66.152,119.129,65.787z"/>
			<path style="fill:#039447;" d="M90.898,126.716c-4.405-4.529-8.735-9.173-12.448-13.17c-2.663-2.865-5.296-5.756-7.929-8.649
				c-1.433-1.573-2.865-3.147-4.303-4.716c-1.345-1.512-2.694-3.019-4.042-4.527c-2.677-2.993-5.355-5.985-8.002-9.006l-5.955-6.826
				c-0.687-0.81-1.379-1.615-2.069-2.421c-1.274-1.489-2.55-2.976-3.803-4.485l0.142-0.128c1.389,1.418,2.755,2.855,4.121,4.294
				c0.715,0.752,1.429,1.504,2.146,2.253l6.182,6.623c2.702,2.908,5.373,5.843,8.045,8.777c1.394,1.531,2.787,3.061,4.186,4.588
				c1.424,1.603,2.853,3.201,4.282,4.798c2.596,2.904,5.193,5.806,7.76,8.738c3.612,4.12,7.803,8.92,11.828,13.728L90.898,126.716z"
				/>
			<path style="fill:#039447;" d="M90.967,126.65c-4.212-4.332-8.336-8.744-12.446-13.169c-4.112-4.423-8.151-8.911-12.231-13.363
				c-4.014-4.511-8.062-8.991-12.043-13.532l-5.955-6.826c-1.955-2.302-3.939-4.579-5.87-6.903c2.114,2.159,4.177,4.364,6.267,6.545
				l6.181,6.622c4.11,4.425,8.152,8.91,12.229,13.364c4.012,4.513,8.063,8.99,12.042,13.533
				C83.121,117.464,87.088,122.017,90.967,126.65z"/>
			<path style="fill:#8CC542;" d="M82.087,134.883l-13.471-20.516l-13.259-20.65c-3.552-5.601-7.678-12.122-11.702-18.669
				c-0.315-0.51-1.314-2.141-1.314-2.141l0.159-0.104l1.282,1.862c4.253,6.206,8.49,12.556,12.435,18.492L69.69,113.67
				l13.261,20.652l6,9.49l-0.793,0.17L82.087,134.883z"/>
			<path style="fill:#8CC542;" d="M88.797,143.748c-0.199,0.045-0.397,0.087-0.596,0.127l-6.036-9.045l-0.95-1.448l-0.428-0.654
				l-7.414-11.289v-0.002l-0.928-1.41v-0.002l-0.776-1.182v-0.002l-0.571-0.868l-2.402-3.658l-4.566-7.111l-0.6-0.937l-1.329-2.07
				l-0.52-0.81l-2.012-3.13l-0.415-0.649l-3.817-5.942c-3.933-6.201-7.854-12.411-11.702-18.668
				c-0.315-0.511-0.629-1.022-0.939-1.532c-0.127-0.203-0.25-0.406-0.375-0.609c0.136,0.199,0.274,0.397,0.41,0.596
				c0.29,0.422,0.58,0.843,0.87,1.267v0.002c4.2,6.127,8.325,12.304,12.436,18.489l3.765,5.73l0.437,0.667l2.166,3.299l0.538,0.816
				l1.457,2.217l0.618,0.939l4.492,6.841l2.128,3.315l0.555,0.863l1.697,2.643l0.881,1.372v0.002l6.654,10.359l0.402,0.627
				l0.944,1.47L88.797,143.748z"/>
		</g>
		<g>
			
				<linearGradient id="SVGID_2_" gradientUnits="userSpaceOnUse" x1="127.2834" y1="179.5354" x2="140.4699" y2="166.3489" gradientTransform="matrix(1 0 0 1 -75.2059 -127.9862)">
				<stop  offset="0.0597" style="stop-color:#E9BD1F"/>
				<stop  offset="0.5656" style="stop-color:#FBAE25"/>
				<stop  offset="0.654" style="stop-color:#F99C23"/>
				<stop  offset="0.7472" style="stop-color:#F78E23"/>
				<stop  offset="0.8099" style="stop-color:#F68922"/>
			</linearGradient>
			<path style="fill:url(#SVGID_2_);" d="M52.295,52.437c4.51-4.085,10.247-9.279,14.758-13.365c0.397-0.36-3.334-0.419-3.681-0.104
				c-4.51,4.085-8.346,7.56-12.857,11.645C50.118,50.973,51.948,52.752,52.295,52.437L52.295,52.437z"/>
		</g>
		<g>
			
				<linearGradient id="SVGID_3_" gradientUnits="userSpaceOnUse" x1="140.609" y1="168.8837" x2="157.6374" y2="167.693" gradientTransform="matrix(1 0 0 1 -75.2059 -127.9862)">
				<stop  offset="0.1" style="stop-color:#F68922"/>
				<stop  offset="0.3884" style="stop-color:#E9BD1F"/>
				<stop  offset="0.7236" style="stop-color:#D7DE27"/>
				<stop  offset="0.8926" style="stop-color:#8CC540"/>
			</linearGradient>
			<path style="fill:url(#SVGID_3_);" d="M64.711,40.218c5.618,0.839,11.235,1.679,16.852,2.518c0.92,0.137,2.94-2.144,1.559-2.35
				c-5.617-0.839-11.235-1.679-16.852-2.518C65.351,37.73,63.331,40.012,64.711,40.218L64.711,40.218z"/>
		</g>
		
			<linearGradient id="SVGID_4_" gradientUnits="userSpaceOnUse" x1="75.2059" y1="201.5977" x2="222.4267" y2="201.5977" gradientTransform="matrix(1 0 0 1 -75.2059 -127.9862)">
			<stop  offset="0.1661" style="stop-color:#8CC540"/>
			<stop  offset="0.3331" style="stop-color:#8CC540"/>
			<stop  offset="0.4106" style="stop-color:#629E40"/>
			<stop  offset="0.4916" style="stop-color:#41853D"/>
			<stop  offset="0.5724" style="stop-color:#27753B"/>
			<stop  offset="0.6521" style="stop-color:#106C39"/>
			<stop  offset="0.7294" style="stop-color:#046938"/>
			<stop  offset="1" style="stop-color:#046938"/>
		</linearGradient>
		<path style="fill:url(#SVGID_4_);" d="M73.609,0C32.955,0,0,32.957,0,73.612c0,30.778,18.886,57.143,45.702,68.138
			c0.678,0.277,1.361,0.546,2.05,0.801c1.851,0.698,3.741,1.32,5.661,1.867c0.239,0.069,0.477,0.136,0.718,0.201
			c1.938,0.531,3.908,0.984,5.907,1.356c0.455,0.085,0.912,0.167,1.37,0.243c3.968,0.662,8.046,1.006,12.201,1.006
			c3.953,0,7.829-0.312,11.615-0.912h0.002c0.312-0.049,0.627-0.1,0.939-0.154c1.06-0.183,2.112-0.388,3.156-0.613
			c0.176-0.04,0.35-0.078,0.526-0.118c1.057-0.236,2.106-0.497,3.145-0.781c0.687-0.187,1.37-0.384,2.048-0.593
			c30.202-9.174,52.18-37.24,52.18-70.44C147.221,32.957,114.264,0,73.609,0z M94.509,141.505c-0.671,0.208-1.345,0.404-2.025,0.592
			c-1.265,0.351-2.546,0.665-3.84,0.943c-0.197,0.044-0.393,0.086-0.59,0.126c-1.239,0.258-2.491,0.484-3.752,0.673
			c-0.355,0.055-0.711,0.106-1.069,0.152c-3.149,0.431-6.361,0.651-9.625,0.651c-3.29,0-6.527-0.225-9.698-0.66
			c-0.495-0.066-0.989-0.141-1.479-0.219c-2.367-0.375-4.694-0.868-6.975-1.473c-0.263-0.068-0.523-0.139-0.784-0.212
			c-2.259-0.625-4.474-1.36-6.637-2.199c-0.68-0.263-1.358-0.537-2.029-0.819c-25.494-10.793-43.428-36.067-43.428-65.45
			c0-19.583,7.967-37.341,20.829-50.203c0.201-0.201,0.404-0.4,0.607-0.598c0.609-0.596,1.23-1.181,1.861-1.755
			c1.261-1.146,2.564-2.25,3.906-3.305c0.629-0.495,1.267-0.978,1.912-1.453c0.296-0.216,0.594-0.431,0.894-0.645
			c2.095-1.49,4.277-2.868,6.531-4.125c0.468-0.261,0.941-0.517,1.415-0.768h0.002c0.309-0.163,0.618-0.325,0.93-0.484
			c0.625-0.316,1.252-0.625,1.886-0.925c0.316-0.148,0.634-0.296,0.954-0.442c0.638-0.289,1.283-0.572,1.93-0.843
			c0.731-0.307,1.466-0.601,2.206-0.881c0.247-0.093,0.495-0.185,0.744-0.278c0.331-0.121,0.665-0.241,0.998-0.358
			c0.667-0.234,1.338-0.459,2.014-0.671c0.676-0.216,1.356-0.42,2.04-0.614c1.027-0.289,2.062-0.559,3.109-0.806
			c0.696-0.163,1.396-0.318,2.1-0.459c0.353-0.071,0.707-0.141,1.06-0.208c0.53-0.099,1.064-0.194,1.599-0.28
			c0.702-0.115,1.409-0.219,2.118-0.314c0.355-0.046,0.709-0.091,1.067-0.132c0.355-0.042,0.713-0.079,1.071-0.117
			c0.298-0.031,0.596-0.06,0.896-0.086c0.263-0.022,0.523-0.044,0.786-0.066c0.23-0.018,0.459-0.035,0.689-0.051
			c0.503-0.033,1.009-0.064,1.515-0.086c0.506-0.024,1.014-0.044,1.524-0.055c0.612-0.015,1.223-0.024,1.839-0.024
			c0.616,0,1.228,0.009,1.839,0.024c0.51,0.011,1.018,0.031,1.524,0.055c0.506,0.022,1.011,0.053,1.515,0.086
			c0.23,0.015,0.459,0.033,0.689,0.051c0.263,0.022,0.523,0.044,0.786,0.066c0.3,0.026,0.598,0.055,0.896,0.086
			c0.358,0.038,0.715,0.075,1.071,0.117c0.358,0.042,0.711,0.086,1.067,0.132c0.709,0.095,1.415,0.199,2.118,0.314
			c0.534,0.086,1.069,0.181,1.599,0.28c0.355,0.066,0.709,0.137,1.06,0.208c0.704,0.141,1.404,0.296,2.102,0.459
			c1.044,0.247,2.08,0.517,3.109,0.806c0.685,0.194,1.365,0.397,2.04,0.614c0.676,0.212,1.347,0.437,2.014,0.671
			c0.333,0.117,0.667,0.236,0.998,0.358c0.247,0.093,0.497,0.185,0.744,0.278c0.74,0.28,1.475,0.574,2.206,0.881
			c0.647,0.272,1.292,0.554,1.93,0.843c0.32,0.146,0.638,0.294,0.954,0.442c0.634,0.3,1.261,0.609,1.886,0.925
			c0.311,0.159,0.62,0.32,0.93,0.484c0.713,0.378,1.418,0.766,2.118,1.166c0.696,0.4,1.387,0.81,2.069,1.232
			c0.455,0.283,0.908,0.57,1.358,0.861c0.448,0.294,0.892,0.59,1.334,0.89c0.442,0.3,0.879,0.607,1.314,0.919
			c0.435,0.311,0.866,0.627,1.292,0.947c0.426,0.32,0.85,0.647,1.27,0.976c1.343,1.055,2.647,2.159,3.908,3.305
			c0.632,0.574,1.252,1.159,1.861,1.755c0.203,0.199,0.406,0.397,0.607,0.598c12.862,12.862,20.829,30.619,20.829,50.203
			C144.643,105.507,123.51,132.563,94.509,141.505z"/>
		<g>
			
				<linearGradient id="SVGID_5_" gradientUnits="userSpaceOnUse" x1="165.5209" y1="270.1018" x2="169.5991" y2="254.8818" gradientTransform="matrix(1 0 0 1 -75.2059 -127.9862)">
				<stop  offset="0" style="stop-color:#046938"/>
				<stop  offset="1" style="stop-color:#046938"/>
			</linearGradient>
			<path style="fill:url(#SVGID_5_);" d="M89.704,126.964c-0.044-0.247,0.036-0.491,0.232-0.701
				c0.048-0.048,0.079-0.076,0.113-0.102c0.092-0.081,0.209-0.157,0.335-0.219c0.321-0.148,0.637-0.219,0.918-0.219
				c0.457,0,0.784,0.182,0.897,0.497l0.026,0.097c0.012,0.032,0.012,0.075,0.012,0.1c0.906,5.219,1.814,10.478,2.72,15.742
				l0.035,0.206l-0.199,0.062c-0.681,0.21-1.364,0.409-2.053,0.599l-0.253,0.07L89.704,126.964z"/>
			<g>
				
					<linearGradient id="SVGID_6_" gradientUnits="userSpaceOnUse" x1="195.1393" y1="193.466" x2="195.1393" y2="213.3161" gradientTransform="matrix(1 0 0 1 -75.2059 -127.9862)">
					<stop  offset="0" style="stop-color:#2A3B8F"/>
					<stop  offset="0.168" style="stop-color:#2A3B8F"/>
					<stop  offset="0.5321" style="stop-color:#1D76BB"/>
					<stop  offset="0.8359" style="stop-color:#28A8E0"/>
				</linearGradient>
				<path style="fill:url(#SVGID_6_);" d="M122.487,80.787c0.171-0.35,0.16-1.038,0.084-1.302l-1.164-4.079
					c-0.052-0.182-0.074-0.316-0.088-0.408c-0.003-0.018-0.006-0.037-0.009-0.058l1.203-0.741c0.174-0.107,0.636-0.392,0.501-0.8
					l-2.632-7.962c-0.055-0.167-0.235-0.445-0.825-0.445c-0.539,0-1.301,0.247-1.589,0.647c-0.114,0.157-0.146,0.334-0.092,0.498
					l2.498,7.553c-0.005,0.003-1.221,0.751-1.221,0.751c-0.185,0.115-0.621,0.383-0.504,0.792l0.662,2.289l0.658,2.248l-2.484,3.118
					c-0.2,0.26-0.462,1.185-0.484,1.294c-0.073,0.359-0.301,1.388-0.068,1.388c1.028-0.137,1.782-0.123,2.101-0.496L122.487,80.787z
					"/>
			</g>
			
				<linearGradient id="SVGID_7_" gradientUnits="userSpaceOnUse" x1="119.9548" y1="268.3594" x2="119.9548" y2="200.4563" gradientTransform="matrix(1 0 0 1 -75.2059 -127.9862)">
				<stop  offset="0" style="stop-color:#8CC540"/>
				<stop  offset="0.9117" style="stop-color:#8CC540"/>
				<stop  offset="0.9705" style="stop-color:#D7DE27"/>
				<stop  offset="1" style="stop-color:#D7DE27"/>
			</linearGradient>
			<path style="fill:url(#SVGID_7_);" d="M47.689,140.778c-0.689-0.266-1.376-0.544-2.056-0.83l-0.148-0.062l0.314-27.186
				c0.045-3.979-0.667-8.574-1.355-13.018c-0.34-2.194-0.661-4.267-0.898-6.275l-2.38-20.19c-0.033-0.279,0.042-0.496,0.211-0.684
				c0.348-0.392,0.985-0.57,1.428-0.57c0.51,0,0.839,0.221,0.883,0.592l-0.011,0.008h0.014L46.2,93.875
				c0.229,1.935,0.549,3.96,0.857,5.918c0.593,3.76,1.206,7.647,1.277,11.386l0.007,0.832l-0.011,1.1l-0.24,0.134l0.238,0.003
				l-0.319,27.654L47.689,140.778z"/>
			
				<linearGradient id="SVGID_8_" gradientUnits="userSpaceOnUse" x1="118.1714" y1="201.3001" x2="126.1885" y2="179.2735" gradientTransform="matrix(1 0 0 1 -75.2059 -127.9862)">
				<stop  offset="0" style="stop-color:#D7DE27"/>
				<stop  offset="0.0989" style="stop-color:#D7DE27"/>
				<stop  offset="0.7" style="stop-color:#D7DE27"/>
				<stop  offset="0.9593" style="stop-color:#E9BD1F"/>
			</linearGradient>
			<path style="fill:url(#SVGID_8_);" d="M42.194,73.81c-0.436,0-0.782-0.145-0.948-0.4c-0.097-0.147-0.179-0.398-0.023-0.759
				l9.104-21.114c0.221-0.513,0.894-0.746,1.427-0.746c0.436,0,0.782,0.145,0.948,0.4c0.097,0.147,0.18,0.398,0.023,0.759
				l-9.104,21.114C43.401,73.577,42.727,73.81,42.194,73.81L42.194,73.81z"/>
			
				<linearGradient id="SVGID_9_" gradientUnits="userSpaceOnUse" x1="164.1196" y1="254.3454" x2="160.9397" y2="228.4475" gradientTransform="matrix(1 0 0 1 -75.2059 -127.9862)">
				<stop  offset="0" style="stop-color:#046938"/>
				<stop  offset="0.0734" style="stop-color:#046938"/>
				<stop  offset="0.2811" style="stop-color:#29B574"/>
				<stop  offset="1" style="stop-color:#29B574"/>
			</linearGradient>
			<path style="fill:url(#SVGID_9_);" d="M90.374,127.339c-0.47,0-0.62-0.191-0.664-0.35l-7.286-26.481
				c-0.034-0.127-0.004-0.262,0.087-0.381c0.272-0.358,1.188-0.645,1.764-0.645c0.469,0,0.619,0.19,0.663,0.349l7.286,26.481
				c0.034,0.127,0.004,0.263-0.088,0.382C91.864,127.051,90.949,127.339,90.374,127.339L90.374,127.339z"/>
			
				<linearGradient id="SVGID_10_" gradientUnits="userSpaceOnUse" x1="157.5034" y1="227.179" x2="168.7863" y2="215.8961" gradientTransform="matrix(1 0 0 1 -75.2059 -127.9862)">
				<stop  offset="0" style="stop-color:#29B574"/>
				<stop  offset="0.1117" style="stop-color:#29B574"/>
				<stop  offset="0.2015" style="stop-color:#00A79C"/>
				<stop  offset="1" style="stop-color:#00A79C"/>
			</linearGradient>
			<path style="fill:url(#SVGID_10_);" d="M83.299,100.959c-0.422,0-0.712-0.117-0.837-0.339c-0.069-0.123-0.116-0.328,0.054-0.611
				l8.039-13.365c0.245-0.408,1.412-0.543,1.98-0.543c0.422,0,0.712,0.117,0.837,0.339c0.07,0.123,0.116,0.328-0.054,0.61
				l-8.2,13.617C84.872,101.074,83.866,100.959,83.299,100.959L83.299,100.959z"/>
			<g>
				
					<linearGradient id="SVGID_11_" gradientUnits="userSpaceOnUse" x1="170.3349" y1="221.0035" x2="188.2546" y2="207.0031" gradientTransform="matrix(1 0 0 1 -75.2059 -127.9862)">
					<stop  offset="0" style="stop-color:#00A79C"/>
					<stop  offset="0.1153" style="stop-color:#00A79C"/>
					<stop  offset="0.2896" style="stop-color:#28A8E0"/>
					<stop  offset="1" style="stop-color:#28A8E0"/>
				</linearGradient>
				<path style="fill:url(#SVGID_11_);" d="M90.532,88.796c-0.633-0.009-0.09-1.55-0.046-1.691c0.171-0.55,0.613-0.996,1.296-1.08
					l25.701-3.138c0.098-0.012,0.074,0.346,0.075,0.424c0.006,0.438-0.007,0.864-0.022,1.115c-0.007,0.111-0.041,0.49-0.127,1.084
					L90.56,88.796H90.532z"/>
			</g>
			
				<linearGradient id="SVGID_12_" gradientUnits="userSpaceOnUse" x1="124.2943" y1="180.2202" x2="120.6608" y2="138.6884" gradientTransform="matrix(1 0 0 1 -75.2059 -127.9862)">
				<stop  offset="0" style="stop-color:#E9BD1F"/>
				<stop  offset="0.1092" style="stop-color:#E9BD1F"/>
				<stop  offset="0.7723" style="stop-color:#E9BD1F"/>
				<stop  offset="0.8985" style="stop-color:#F68922"/>
			</linearGradient>
			<path style="fill:url(#SVGID_12_);" d="M50.944,52.437c-0.497,0-0.644-0.2-0.679-0.369l-8.509-40.552
				c-0.02-0.095-0.017-0.242,0.111-0.4c0.311-0.383,1.218-0.618,1.731-0.618c0.497,0,0.644,0.201,0.679,0.37l8.51,40.55
				c0.02,0.096,0.017,0.242-0.112,0.4C52.364,52.202,51.457,52.437,50.944,52.437L50.944,52.437z"/>
			
				<linearGradient id="SVGID_13_" gradientUnits="userSpaceOnUse" x1="130.6083" y1="168.7981" x2="127.9057" y2="137.9071" gradientTransform="matrix(1 0 0 1 -75.2059 -127.9862)">
				<stop  offset="0" style="stop-color:#F68922"/>
				<stop  offset="1" style="stop-color:#F68922"/>
			</linearGradient>
			<path style="fill:url(#SVGID_13_);" d="M64.851,40.52c-0.386,0-0.703-0.135-0.894-0.381L41.889,11.79
				c-0.198-0.254-0.235-0.545-0.102-0.816c0.233-0.476,0.928-0.761,1.464-0.761c0.386,0,0.703,0.135,0.894,0.381l22.069,28.347
				c0.198,0.255,0.235,0.545,0.102,0.817C66.083,40.235,65.388,40.52,64.851,40.52L64.851,40.52z"/>
			
				<linearGradient id="SVGID_14_" gradientUnits="userSpaceOnUse" x1="142.0836" y1="169.7046" x2="174.1398" y2="137.6483" gradientTransform="matrix(1 0 0 1 -75.2059 -127.9862)">
				<stop  offset="0.0255" style="stop-color:#F68922"/>
				<stop  offset="0.1919" style="stop-color:#E9BD1F"/>
				<stop  offset="0.6767" style="stop-color:#E9BD1F"/>
				<stop  offset="0.9207" style="stop-color:#D7DE29"/>
			</linearGradient>
			<path style="fill:url(#SVGID_14_);" d="M64.91,40.381c-0.529,0-0.94-0.202-1.047-0.514c-0.067-0.196-0.048-0.507,0.424-0.874
				l35.642-27.699c0.239-0.186,0.594-0.293,0.973-0.293c0.528,0,0.939,0.201,1.046,0.513c0.067,0.197,0.048,0.508-0.424,0.874
				l-35.642,27.7C65.643,40.274,65.289,40.381,64.91,40.381L64.91,40.381z"/>
			
				<linearGradient id="SVGID_15_" gradientUnits="userSpaceOnUse" x1="161.1987" y1="171.3821" x2="171.9129" y2="138.4072" gradientTransform="matrix(1 0 0 1 -75.2059 -127.9862)">
				<stop  offset="0.0817" style="stop-color:#8CC540"/>
				<stop  offset="0.2143" style="stop-color:#D7DE29"/>
			</linearGradient>
			<path style="fill:url(#SVGID_15_);" d="M81.855,42.81c-0.459,0-0.916-0.133-1.055-0.382c-0.076-0.138-0.236-0.271-0.04-0.586
				l18.79-30.217c0.272-0.438,0.966-0.637,1.497-0.637c0.459,0,0.788,0.137,0.926,0.386c0.076,0.137,0.127,0.367-0.07,0.682
				l-18.79,30.218c-0.271,0.438-0.966,0.637-1.496,0.637L81.855,42.81z"/>
			
				<linearGradient id="SVGID_16_" gradientUnits="userSpaceOnUse" x1="178.1605" y1="185.1187" x2="159.4362" y2="168.2593" gradientTransform="matrix(1 0 0 1 -75.2059 -127.9862)">
				<stop  offset="0" style="stop-color:#8CC540"/>
				<stop  offset="1" style="stop-color:#8CC540"/>
			</linearGradient>
			<path style="fill:url(#SVGID_16_);" d="M105.403,56.034c-0.414,0-0.838-0.112-1.166-0.306
				C99.061,52.65,80.954,42.697,80.778,42.6c-0.135-0.211-0.144-0.273-0.133-0.429c0.041-0.551,0.687-1.113,1.281-1.113
				c0.149,0,0.29,0.034,0.418,0.101c5.206,2.688,17.808,9.778,23.415,13.106c0.627,0.432,0.879,0.837,0.763,1.208
				C106.414,55.819,105.986,56.034,105.403,56.034L105.403,56.034z"/>
			
				<linearGradient id="SVGID_17_" gradientUnits="userSpaceOnUse" x1="182.4962" y1="181.4172" x2="191.7627" y2="195.1554" gradientTransform="matrix(1 0 0 1 -75.2059 -127.9862)">
				<stop  offset="0" style="stop-color:#8CC540"/>
				<stop  offset="0.0654" style="stop-color:#62AC44"/>
				<stop  offset="0.1425" style="stop-color:#079247"/>
				<stop  offset="0.2775" style="stop-color:#1D76BB"/>
				<stop  offset="0.3123" style="stop-color:#216AB1"/>
				<stop  offset="0.3655" style="stop-color:#255DA6"/>
				<stop  offset="0.4261" style="stop-color:#27519D"/>
				<stop  offset="0.4962" style="stop-color:#284796"/>
				<stop  offset="0.5819" style="stop-color:#294092"/>
				<stop  offset="0.6997" style="stop-color:#2A3C90"/>
				<stop  offset="1" style="stop-color:#2A3B8F"/>
			</linearGradient>
			<path style="fill:url(#SVGID_17_);" d="M118.45,66.413c-0.188,0-0.34-0.043-0.45-0.126l-14.517-11.017l0.034-0.231
				c0.127-0.376,1.274-0.852,1.88-0.852c0.188,0,0.34,0.043,0.45,0.126l14.517,11.016l-0.034,0.231
				C120.203,65.936,119.056,66.413,118.45,66.413L118.45,66.413z"/>
		</g>
	</g>
	<path style="fill:#F68922;" d="M11.134,202.292c-3.01-0.079-5.623-1.152-7.767-3.189C1.133,196.981,0,194.231,0,190.928v-37.963
		c0-0.325,0.264-0.589,0.589-0.589h1.4c0.325,0,0.589,0.264,0.589,0.589v37.963c0,2.602,0.874,4.785,2.598,6.487
		c1.646,1.626,3.659,2.488,5.985,2.562c0.322,0.01,0.575,0.268,0.575,0.587v1.138c0,0.325-0.263,0.59-0.586,0.59L11.134,202.292z"/>
	<path style="fill:#E9BD1F;" d="M27.772,202.292c-3.01-0.079-5.623-1.152-7.767-3.189c-2.234-2.121-3.367-4.871-3.367-8.175v-37.963
		c0-0.325,0.264-0.589,0.589-0.589h1.4c0.325,0,0.589,0.264,0.589,0.589v37.963c0,2.602,0.874,4.785,2.598,6.487
		c1.646,1.626,3.659,2.488,5.984,2.562c0.322,0.01,0.575,0.268,0.575,0.587v1.138c0,0.325-0.263,0.59-0.586,0.59L27.772,202.292z"/>
	<path style="fill:#8CC542;" d="M44.288,202.285c-4.349,0-8.129-1.563-11.233-4.647c-3.106-3.084-4.681-6.83-4.681-11.136
		c0-4.305,1.575-8.051,4.681-11.136c3.106-3.084,6.885-4.647,11.233-4.647c2.838,0,5.593,0.764,8.188,2.272
		c2.109,1.226,3.722,2.797,4.797,4.669c0.023,0.04,0.056,0.06,0.098,0.06c0.042,0,0.122-0.025,0.122-0.12v-6.293
		c0-0.325,0.264-0.589,0.589-0.589h1.4c0.325,0,0.589,0.264,0.589,0.589v30.388c0,0.325-0.264,0.589-0.589,0.589h-1.4
		c-0.325,0-0.589-0.264-0.589-0.589v-6.374c0-0.094-0.079-0.118-0.121-0.118c-0.044,0-0.078,0.02-0.103,0.061
		c-1.211,1.97-2.879,3.589-4.956,4.814C49.827,201.542,47.127,202.285,44.288,202.285z M44.354,173.296
		c-3.606,0-6.775,1.099-9.418,3.785c-2.644,2.687-3.984,5.879-3.984,9.487c0,3.608,1.34,6.777,3.983,9.42
		c2.643,2.643,5.823,3.983,9.453,3.983c3.628,0,6.775-1.34,9.352-3.981c2.579-2.643,3.755-5.824,3.755-9.455
		c0-3.629-1.188-6.822-3.788-9.488C51.105,174.384,47.959,173.296,44.354,173.296z"/>
	<path style="fill:#079247;" d="M106.664,202.303c-0.325,0-0.589-0.264-0.589-0.589v-20.055c0-2.471-0.819-4.258-2.436-5.896
		c-1.617-1.637-3.589-2.466-5.861-2.466c-2.276,0-4.327,0.865-6.095,2.569c-1.767,1.703-2.663,3.41-2.663,5.661v20.187
		c0,0.325-0.264,0.589-0.589,0.589h-1.4c-0.325,0-0.589-0.264-0.589-0.589v-20.187c0-2.297-0.82-4.018-2.438-5.701
		c-1.616-1.679-3.598-2.53-5.892-2.53c-2.296,0-4.324,0.863-6.027,2.566s-2.566,3.412-2.566,5.664v20.187
		c0,0.325-0.264,0.589-0.589,0.589h-1.4c-0.325,0-0.589-0.264-0.589-0.589v-30.406c0-0.325,0.264-0.589,0.589-0.589h1.4
		c0.325,0,0.589,0.264,0.589,0.589v3.441c0,0.085,0.071,0.116,0.118,0.116c0.036,0,0.067-0.015,0.093-0.045
		c0.848-0.993,1.979-1.886,3.361-2.656c1.763-0.981,3.619-1.479,5.516-1.479c1.909,0,3.763,0.67,5.511,1.991
		c1.504,1.137,2.674,2.586,3.478,4.306c0.031,0.066,0.09,0.074,0.114,0.074l0,0c0.028,0,0.078-0.009,0.103-0.069
		c0.725-1.763,1.928-3.226,3.575-4.35c1.898-1.295,4.236-1.952,6.951-1.952c2.728,0,5.154,0.997,7.211,2.964
		c2.059,1.971,3.103,4.666,3.103,8.01v20.055c0,0.325-0.264,0.589-0.589,0.589H106.664z"/>
	<path style="fill:#00A69C;" d="M131.439,202.292c-4.35,0-8.129-1.563-11.233-4.647c-3.106-3.083-4.681-6.83-4.681-11.136
		c0-4.305,1.575-8.051,4.681-11.136c3.105-3.084,6.884-4.647,11.233-4.647c2.838,0,5.593,0.764,8.189,2.272
		c2.108,1.226,3.722,2.797,4.796,4.669c0.023,0.04,0.056,0.06,0.098,0.06c0.042,0,0.122-0.025,0.122-0.119v-6.3
		c0-0.325,0.264-0.589,0.589-0.589h1.4c0.325,0,0.589,0.264,0.589,0.589v30.395c0,0.325-0.264,0.589-0.589,0.589h-1.4
		c-0.325,0-0.589-0.264-0.589-0.589v-6.374c0-0.094-0.079-0.118-0.121-0.118c-0.044,0-0.078,0.02-0.103,0.061
		c-1.211,1.97-2.879,3.589-4.957,4.814C136.978,201.549,134.278,202.292,131.439,202.292z M131.505,173.296
		c-3.606,0-6.775,1.107-9.418,3.792c-2.644,2.687-3.984,5.879-3.984,9.487s1.34,6.777,3.983,9.42
		c2.643,2.643,5.823,3.983,9.453,3.983c3.628,0,6.775-1.34,9.352-3.981c2.579-2.643,3.755-5.824,3.755-9.455
		c0-3.629-1.188-6.822-3.788-9.488C138.257,174.391,135.11,173.296,131.505,173.296z"/>
	
		<linearGradient id="SVGID_18_" gradientUnits="userSpaceOnUse" x1="195.8416" y1="340.6276" x2="195.8416" y2="386.0467" gradientTransform="matrix(1 0 0 1 -75.2059 -127.9862)">
		<stop  offset="0" style="stop-color:#1D76BB"/>
		<stop  offset="1" style="stop-color:#1D76BB"/>
	</linearGradient>
	<path style="fill:url(#SVGID_18_);" d="M120.095,262.915c-7.016,0-13.176-2.684-18.31-7.976
		c-5.133-5.291-7.735-11.563-7.735-18.643c0-7.081,2.638-13.297,7.841-18.477c5.199-5.178,11.528-7.804,18.812-7.804
		c7.283,0,13.591,2.614,18.747,7.77c5.157,5.157,7.772,11.385,7.772,18.511c0,7.125-2.591,13.409-7.701,18.678
		c-5.113,5.27-11.308,7.941-18.411,7.941H120.095z M120.671,212.592c-6.605,0-12.337,2.044-17.037,6.767
		c-4.702,4.725-7.008,10.469-7.008,17.072c0,6.604,2.306,12.359,7.008,17.107c4.7,4.746,10.42,6.801,17.002,6.801
		c6.579,0,12.299-2.055,17.002-6.801c4.702-4.748,7.006-10.503,7.006-17.107c0-6.601-2.293-12.345-6.972-17.072
		C132.993,214.635,127.273,212.592,120.671,212.592z"/>
	
		<linearGradient id="SVGID_19_" gradientUnits="userSpaceOnUse" x1="135.637" y1="340.6276" x2="135.637" y2="386.0467" gradientTransform="matrix(1 0 0 1 -75.2059 -127.9862)">
		<stop  offset="0" style="stop-color:#1D76BB"/>
		<stop  offset="1" style="stop-color:#1D76BB"/>
	</linearGradient>
	<path style="fill:url(#SVGID_19_);" d="M59.891,262.915c-7.016,0-13.176-2.684-18.31-7.976c-5.133-5.291-7.735-11.563-7.735-18.643
		c0-7.081,2.638-13.297,7.841-18.477c5.199-5.178,11.528-7.804,18.812-7.804c7.283,0,13.591,2.614,18.747,7.77
		c5.157,5.157,7.772,11.385,7.772,18.511c0,7.125-2.591,13.409-7.701,18.678c-5.113,5.27-11.308,7.941-18.411,7.941H59.891z
		 M60.467,212.592c-6.605,0-12.337,2.044-17.037,6.767c-4.702,4.725-7.008,10.469-7.008,17.072c0,6.604,2.306,12.359,7.008,17.107
		c4.7,4.746,10.42,6.801,17.002,6.801c6.579,0,12.299-2.055,17.002-6.801c4.702-4.748,7.006-10.503,7.006-17.107
		c0-6.601-2.293-12.345-6.972-17.072C72.789,214.635,67.069,212.592,60.467,212.592z"/>
</g>
<g>
</g>
<g>
</g>
<g>
</g>
<g>
</g>
<g>
</g>
<g>
</g>
</svg>
