<?xml version="1.0" encoding="iso-8859-1"?>
<!-- Generator: Adobe Illustrator 23.0.1, SVG Export Plug-In . SVG Version: 6.00 Build 0)  -->
<svg version="1.1" id="Layer_1" xmlns="http://www.w3.org/2000/svg" xmlns:xlink="http://www.w3.org/1999/xlink" x="0px" y="0px"
	 viewBox="0 0 268.353 40.887" style="enable-background:new 0 0 268.353 40.887;" xml:space="preserve">
<g id="g3">
	<g id="g5">
		<path id="path7" style="fill:#231F20;" d="M256.764,40.179h11.59L256.395,0.711l-16.47-0.001l-11.959,39.468h11.593l2.113-7.306
			h12.968L256.764,40.179 M244.181,24.096l3.945-13.636h0.067l3.945,13.636H244.181L244.181,24.096z"/>
		<path id="path9" style="fill:#231F20;" d="M57.857,40.887c11.901,0,17.654-2.097,18.469-12.836
			c0.195-2.555,0.231-5.179,0.231-7.611c0.003-2.424-0.037-5.05-0.231-7.605C75.511,2.093,69.758,0,57.857,0
			S40.206,2.093,39.394,12.836c-0.198,2.555-0.238,5.181-0.238,7.605c0.003,2.432,0.04,5.055,0.238,7.611
			C40.206,38.79,45.956,40.887,57.857,40.887 M50.373,20.44c0-2.167,0.054-3.448,0.101-4.399c0.302-6.092,2.707-6.802,7.383-6.802
			c4.679,0,7.085,0.71,7.383,6.802c0.047,0.95,0.104,2.231,0.104,4.399c0,2.174-0.057,3.458-0.104,4.406
			c-0.299,6.093-2.704,6.804-7.383,6.804c-4.676,0-7.081-0.711-7.383-6.804C50.427,23.898,50.373,22.615,50.373,20.44z"/>
		<polyline id="polyline11" style="fill:#231F20;" points="0,0.729 0,10.567 11.798,10.567 11.798,40.196 23.601,40.196 
			23.601,10.567 35.399,10.567 35.399,0.729 0,0.729 		"/>
		<polyline id="polyline13" style="fill:#231F20;" points="181.088,40.179 181.088,0.71 169.888,0.71 169.888,40.179 
			181.088,40.179 		"/>
		<polyline id="polyline15" style="fill:#231F20;" points="136.022,15.121 136.022,0.71 124.885,0.71 124.885,40.179 
			136.022,40.179 136.022,24.96 148.963,24.96 148.963,40.179 160.096,40.179 160.096,0.71 148.963,0.71 148.963,15.121 
			136.022,15.121 		"/>
		<g id="g17">
			<path id="path19" style="fill:#231F20;" d="M217.926,19.551c4.961-1.268,6.417-4.232,6.417-8.516
				c0-8.674-5.458-10.325-13.216-10.325h-20.11v39.468h21.106c9.718,0,12.985-4.186,12.985-10.625c0-4.489-1.026-8.45-7.182-10.004
				 M202.151,23.967h7.722c3.12,0,3.77,1.367,3.77,3.589c0,2.225-1.221,3.595-3.77,3.595h-7.722V23.967z M202.151,9.736h7.722
				c2.016,0,3.264,0.956,3.264,3.256c0,1.972-1.234,3.185-3.264,3.185h-7.722C202.151,16.178,202.151,9.736,202.151,9.736z"/>
			<path id="path21" style="fill:#231F20;" d="M83.049,27.227h10.617c0.01,1.915,0.255,3.194,1.184,3.901
				c1.057,0.796,2.003,1.059,5.139,1.059c3.019,0,6.326,0,6.326-3.718c0-2.932-1.848-3.602-5.26-3.783
				c-8.46-0.448-11.519-0.687-14.669-3.027c-2.147-1.596-3.26-4.702-3.26-8.903c0-7.144,2.492-9.65,6.088-11.399
				c3.71-1.805,18.272-1.805,22.189,0c4.928,2.27,5.072,7.185,5.072,11.744h-10.59c-0.02-2.324-0.543-2.981-0.969-3.413
				c-1.1-0.975-2.667-1.181-4.928-1.181c-2.737,0-5.904,0.123-5.904,3.447c0,2.536,1.097,3.596,3.975,3.782
				c3.955,0.253,11.747,0.502,14.525,2.141c3.894,2.303,4.904,5.42,4.904,10.506c0,7.349-2.63,9.506-6.29,11.123
				c-4.223,1.865-18.329,1.865-22.914-0.144C83.153,37.123,83.049,32.664,83.049,27.227"/>
		</g>
	</g>
</g>
</svg>
