<?xml version="1.0" encoding="iso-8859-1"?>
<!-- Generator: Adobe Illustrator 23.0.1, SVG Export Plug-In . SVG Version: 6.00 Build 0)  -->
<svg version="1.1"
	 id="Layer_1" xmlns:cc="http://creativecommons.org/ns#" xmlns:dc="http://purl.org/dc/elements/1.1/" xmlns:rdf="http://www.w3.org/1999/02/22-rdf-syntax-ns#"
	 xmlns="http://www.w3.org/2000/svg" xmlns:xlink="http://www.w3.org/1999/xlink" x="0px" y="0px" viewBox="0 0 124.271 45.255"
	 style="enable-background:new 0 0 124.271 45.255;" xml:space="preserve">
<g>
	<path style="fill:#231F20;" d="M69.399,13.7H65.06v10.035c0,2.584-1.06,4.637-4.173,4.637c-3.08,0.034-3.973-2.086-3.973-4.768
		V13.7h-4.339v10.996c0,3.179,1.126,7.716,7.088,7.75c3.279,0.033,4.901-1.557,5.663-2.981v2.417h4.073V13.7"/>
	<path style="fill:#231F20;" d="M71.123,31.883h4.339V21.848c0-2.55,1.059-4.603,4.14-4.637c3.047,0,3.941,2.087,3.941,4.802v9.87
		h4.339V20.92c0-3.212-1.126-7.75-7.054-7.783c-3.246-0.033-4.869,1.556-5.663,2.981c0.033-0.861,0.033-1.622,0.033-2.417h-4.073
		L71.123,31.883"/>
	<path style="fill:#231F20;" d="M89.541,31.883h4.339V13.701h-4.339V31.883z M89.541,11.25h4.339V7.374h-4.339V11.25"/>
	<path style="fill:#231F20;" d="M98.419,31.883h4.339V17.046h3.113l-1.288-3.345h-1.826V7.374h-4.339v6.326h-3.014v3.345h3.014
		V31.883"/>
	<path style="fill:#231F20;" d="M110.062,38.241h4.637l9.572-24.542h-4.637l-4.372,12.089l-4.438-12.089h-4.637l6.855,17.487
		L110.062,38.241"/>
	<path style="fill:#231F20;" d="M28.787,22.628l7.919-13.675l3.827,13.675l-3.827,13.672L28.787,22.628z M24.927,24.849
		l7.921,13.673l-13.794-3.534l-9.966-10.14H24.927L24.927,24.849z M32.846,6.731l-7.919,13.675H9.087l9.966-10.14L32.846,6.731
		L32.846,6.731z M44.152,17.974L39.32,0L21.286,4.817L18.617,9.51L13.2,9.471L0,22.629l13.2,13.155h0l5.415-0.04l2.673,4.693
		l18.032,4.817l4.832-17.972l-2.744-4.654L44.152,17.974"/>
</g>
</svg>
