<?xml version="1.0" encoding="UTF-8"?>
<svg id="logo" xmlns="http://www.w3.org/2000/svg" version="1.1" viewBox="0 0 800 190.8">
  <!-- Generator: Adobe Illustrator 29.7.1, SVG Export Plug-In . SVG Version: 2.1.1 Build 8)  -->
  <defs>
    <style>
      .st0 {
        fill: #fff;
      }
    </style>
  </defs>
  <path class="st0" d="M187.89,178.12h-44.37l-13.57-32.74H56l-12.37,32.74H0L66.67,12.78h47.76l73.46,165.35ZM91.15,52.29l-24.24,64.24h50.91l-26.67-64.24Z"/>
  <path class="st0" d="M349.06,12.78h35.88v165.35h-41.22v-103.28l-44.61,51.88h-6.3l-44.6-51.88v103.28h-41.22V12.78h35.88l53.09,61.34,53.1-61.34Z"/>
  <path class="st0" d="M489.38,12.78c60.36,0,91.39,37.57,91.39,82.91s-30.06,82.44-96,82.44h-68.37V12.78h72.98ZM457.61,147.82h26.91c41.46,0,53.82-28.13,53.82-52.38,0-28.37-15.28-52.36-54.31-52.36h-26.42v104.74h0Z"/>
  <polygon class="st0" points="662.77 51.98 610.8 0 800 0 800 189.21 748.03 137.24 748.03 51.98 662.77 51.98"/>
  <polygon class="st0" points="662.71 62.4 609.2 115.9 609.2 190.8 684.09 190.8 737.59 137.3 662.71 137.3 662.71 62.4"/>
</svg>