<?xml version="1.0" encoding="UTF-8"?>
<svg id="Layer_1" xmlns="http://www.w3.org/2000/svg" version="1.1" viewBox="0 0 334.76 82.11">
  <!-- Generator: Adobe Illustrator 29.7.1, SVG Export Plug-In . SVG Version: 2.1.1 Build 8)  -->
  <defs>
    <style>
      .st0 {
        fill: #fff;
      }
    </style>
  </defs>
  <path class="st0" d="M66.51,26.03c-.45-6.77-1.55-23.46-1.55-23.46-.11-1.9-2.54-3.68-3.9.99-1.63,5.23-11.43-9.59-36.41-.6C17.77,5.43,0,17.57,0,41.05c0,32,26.74,41.06,36.95,41.06,13.79,0,28.59-5.12,32.42-24.07.89-4.42-2.54-4.3-3.78.42-2.24,8.52-9.34,18.99-24.19,18.99-9.61,0-26.86-5.53-26.86-33.84C14.54,20.19,26.74,3.78,39.91,3.78c9.71,0,18.4,4.36,22.65,21.09,1.29,5.06,4.18,4.68,3.95,1.17"/>
  <path class="st0" d="M91.52,55.83c-4.45,2.7-11.81,7.28-11.77,13.06.03,4.54,3.96,8.52,9.38,7.82,6.49-1.43,7.98-5.43,7.98-10.44,0,.25,0-11.94,0-11.94.07-1.08-.61-1.43-.91-1.28-1.44.73-2.83,1.59-4.68,2.79l-1.39-3.6c6.91-1.57,6.59-5.69,6.59-6.77v-5.82c0-8.5-10.73-10.03-14.51-3.05-1.55,2.86-2.83,7.07-5.82,7.07-3.36,0-6.15-2.31-5.13-5.84,3.49-12.11,24.03-9.68,29.43-7.44,5.11,2.12,8.04,7.2,8.04,11.58v30.66c0,1.67,2.28,6.84,8.71,2.4.93-.83,2.33-.92,1.55,1.52-2.01,5.36-14.01,5.06-18.97.47-.62-.77-2.37-2.02-5.06.61-4.3,4.21-24.86,4.87-26.05-9.39-.52-6.18,4.1-12.78,12.62-14.21,1.43-.24,7.46-1.41,8.6-1.78l1.39,3.6"/>
  <path class="st0" d="M238.14,55.28c0,13.85,6.39,22.59,16.32,22.59,5.95,0,11.5-5.85,11.5-11.95v-19.66c0-9.82-8.73-13.25-12.05-13.25-9.29,0-15.77,10.62-15.77,22.27l-11.3-.08c0-6.99,3.72-20.93,17.31-24.2,13.08-3.15,18.48,1.66,19.71,2.88.54.55,2.41,1.69,2.41-1.68,0-.77.03-16.96.03-17.74,0-5.85-4.86-11.54-9.26-11.54-1.08.03-1.86-1.03-.19-1.22l18.29-1.2c.92-.16,1.23.62,1.23,1.54v59.37c0,8.57,2.08,13.7,5.86,15.46.64.3.89.48,1.58.51.84.03.83.96-.04,1.08l-15.08,2.08c-.77.15-1.64-.1-1.78-1.8-.15-1.76-.4-3.7-3.62-.75-4.09,3.75-19.54,3.59-26.38-1.47-6.84-5.06-10.06-11.5-10.06-21.32l11.3.08"/>
  <path class="st0" d="M170.54,54.39v13.85c0,4.26,2.62,10.26,7.14,10.26,1.07,0,1.08.99,0,.99h-22.45c-1.35,0-1.45-1.15,0-1.15,2.28,0,5.26-4.72,5.26-10.1v-23.96c0-5.78-5.2-10.4-11.04-10.4s-13.31,3.68-13.31,11.62v22.73c0,4.26,2.63,10.26,7.15,10.26,1.07,0,1.08.99,0,.99h-22.54c-1.36,0-1.45-1.15,0-1.15,2.28,0,5.29-4.72,5.29-10.1v-24.94c0-6.11-1.37-7.8-6.96-9.33-1.53-.54-1.28-1.16-.08-1.45.04,0,12.25-1.84,12.25-1.84,1.83-.26,4.62-1.23,4.62,3.59.14,1.86,1.92,2.09,4.24.15,1.15-.84,4.8-4.11,10.87-4.11,9.19,0,19.56,1.65,19.56,13.14v10.95"/>
  <path class="st0" d="M200.61,55.83c-4.45,2.7-11.81,7.28-11.77,13.06.04,4.54,3.96,8.52,9.38,7.82,6.49-1.43,7.98-5.43,7.98-10.44,0,.25,0-11.94,0-11.94.07-1.08-.61-1.43-.91-1.28-1.44.73-2.83,1.59-4.68,2.79l-1.39-3.6c6.91-1.57,6.59-5.69,6.59-6.77v-5.82c0-8.5-10.73-10.03-14.51-3.05-1.55,2.86-2.83,7.07-5.82,7.07-3.36,0-6.15-2.31-5.13-5.84,3.49-12.11,24.04-9.68,29.43-7.44,5.11,2.12,8.04,7.2,8.04,11.58v30.66c0,1.67,2.28,6.84,8.71,2.4.93-.83,2.33-.92,1.55,1.52-2.01,5.36-14.01,5.06-18.97.47-.62-.77-2.36-2.02-5.05.61-4.3,4.21-24.85,4.87-26.05-9.39-.52-6.18,4.1-12.78,12.62-14.21,1.43-.24,7.46-1.41,8.6-1.78l1.39,3.6"/>
  <path class="st0" d="M307.07,55.83c-4.45,2.7-11.81,7.28-11.77,13.06.03,4.54,3.96,8.52,9.38,7.82,6.48-1.43,7.98-5.43,7.98-10.44,0,.25,0-11.94,0-11.94.07-1.08-.61-1.43-.91-1.28-1.44.73-2.83,1.59-4.68,2.79l-1.39-3.6c6.91-1.57,6.59-5.69,6.59-6.77v-5.82c0-8.5-10.73-10.03-14.51-3.05-1.55,2.86-2.83,7.07-5.83,7.07-3.36,0-6.15-2.31-5.13-5.84,3.49-12.11,24.03-9.68,29.43-7.44,5.11,2.12,8.04,7.2,8.04,11.58v30.66c0,1.67,2.27,6.84,8.7,2.4.93-.83,2.33-.92,1.56,1.52-2.01,5.36-14.01,5.06-18.97.47-.62-.77-2.36-2.02-5.05.61-4.3,4.21-24.86,4.87-26.05-9.39-.52-6.18,4.11-12.78,12.62-14.21,1.44-.24,7.46-1.41,8.61-1.78l1.39,3.6"/>
  <rect class="st0" x="281.93" y=".83" width="12.36" height="24.71"/>
  <rect class="st0" x="318.84" y=".83" width="12.36" height="24.71"/>
  <path class="st0" d="M306.49,23.09h.49l-.09-3.81s-.06-.66.56-.56c0,0,3.28.47,4.11.56l.42.03-.15-.57s-.1-.31-.29-1c-.24-.82-.19-.7.28-1.16l4.08-3.33-.77-.45c-.53-.37-.46.02-.07-1.55l.47-1.82-.77.1c-2.16.23-1.58.77-2.25-.79l-.21-.58-2.65,2.49c-.26.25-.62.02-.55-.28l1.08-5.47-1.46.76c-.44.21-.6.42-.84-.07-.27-.57-1.02-2.1-1.39-2.89-.38.79-1.12,2.32-1.39,2.89-.23.49-.39.28-.83.07l-1.46-.76,1.09,5.47c.08.3-.3.53-.55.28l-2.65-2.49-.21.58c-.67,1.56-.09,1.02-2.25.79l-.77-.1.47,1.82c.39,1.58.46,1.18-.08,1.55l-.76.45,4.09,3.33c.46.46.51.34.27,1.16-.19.68-.29,1-.29,1l-.15.57.42-.03c.82-.09,4.11-.56,4.11-.56.61-.1.56.51.56.56l-.09,3.81h.49"/>
</svg>