<?xml version="1.0" encoding="UTF-8"?>
<svg xmlns="http://www.w3.org/2000/svg" viewBox="0 0 1498 185.58">
  <defs>
    <style>
      .cls-1, .cls-2 {
        fill: #fff;
      }

      .cls-2 {
        fill-rule: evenodd;
      }

      .cls-3 {
        fill: none;
      }
    </style>
  </defs>
  <g id="Protective_space" data-name="Protective space">
    <rect class="cls-3" width="1498" height="185.58"/>
  </g>
  <g id="Layer_1" data-name="Layer 1">
    <g>
      <path class="cls-1" d="M478.38,61.49c-17.22.04-30.38,7.58-39.03,15.66-8.65,8.07-15.42,22.99-16.33,28.35-.91,5.36.27,20.61.27,20.61,0,0,7.16-1.87,16.86-1.47,9.7.4,21.95,3.61,33.79,6.36,11.84,2.74,21.15,5.69,35.6,3.21,14.45-2.48,23.59-7.76,23.59-7.76,0,0,2.27-13.08,0-22.11-2.44-9.74-13.28-24.6-16.29-27.07-3.01-2.48-16.68-15.81-38.45-15.77Z"/>
      <g>
        <rect class="cls-1" x="561.87" y="135.42" width="127.63" height="1.55"/>
        <g>
          <path class="cls-1" d="M565.14,80.12c0-2.59-.18-3.28-1.93-3.42l-1.22-.08c-.2-.16-.14-.86.04-.88,2.1-.19,4.74-.28,8.36-.28,2.45,0,4.78.17,6.53.98,1.67.74,2.95,2.14,2.95,4.37,0,2.52-1.63,3.82-3.96,4.8,0,.35.31.46.74.52,2.1.35,5.21,2.1,5.21,5.85,0,4.06-3.34,6.79-10.33,6.79-1.13,0-3.03-.11-4.66-.11s-3.03.07-4.47.11c-.23-.11-.31-.66-.08-.87l.7-.11c2.06-.31,2.14-.7,2.14-4.38v-13.3ZM568.33,84.78c0,.98.04,1.05,2.02.98,3.96-.14,6.1-1.19,6.1-4.48s-2.84-4.73-5.79-4.73c-.86,0-1.44.07-1.79.21-.39.11-.54.28-.54.91v7.11ZM568.33,92.9c0,1.26.08,3.05.82,3.82.74.8,1.91.98,3.07.98,3.46,0,6.1-1.4,6.1-4.9,0-2.77-1.56-5.99-7.73-5.99-2.1,0-2.26.21-2.26.91v5.18Z"/>
          <path class="cls-1" d="M608.86,83.57c0-3.17-.07-3.68-2.02-3.83l-.83-.06c-.2-.12-.13-.66.07-.75,1.66.06,2.79.09,4.18.09s2.46-.03,4.12-.09c.2.09.27.63.07.75l-.83.06c-1.96.15-2.03.66-2.03,3.83v10.65c0,3.17.07,3.59,2.03,3.8l.83.09c.2.12.13.66-.07.75-1.66-.06-2.79-.09-4.12-.09-1.39,0-2.52.03-4.18.09-.2-.09-.27-.57-.07-.75l.83-.09c1.96-.21,2.02-.63,2.02-3.8v-10.65Z"/>
          <path class="cls-1" d="M627.28,94.27c0,3.14.06,3.59,1.87,3.74l1,.09c.18.12.12.66-.06.75-1.77-.06-2.83-.09-4.07-.09s-2.33.03-4.32.09c-.18-.09-.25-.6,0-.75l1.12-.09c1.77-.15,1.93-.6,1.93-3.74v-13.37c0-.93,0-.96-.93-.96h-1.71c-1.34,0-3.05.06-3.83.75-.75.66-1.06,1.32-1.4,2.06-.25.18-.68.03-.81-.21.5-1.34.96-3.26,1.18-4.45.09-.06.5-.09.59,0,.19.95,1.21.93,2.65.93h12.59c1.68,0,1.96-.06,2.43-.84.16-.06.5-.03.56.09-.34,1.23-.56,3.65-.47,4.54-.12.24-.65.24-.81.06-.09-.75-.31-1.85-.78-2.18-.72-.51-1.9-.75-3.61-.75h-2.21c-.93,0-.9.03-.9,1.02v13.31Z"/>
          <path class="cls-1" d="M640.61,83.57c0-3.17-.07-3.68-2.02-3.83l-.83-.06c-.2-.12-.13-.66.07-.75,1.66.06,2.79.09,4.18.09s2.46-.03,4.12-.09c.2.09.26.63.07.75l-.83.06c-1.96.15-2.03.66-2.03,3.83v10.65c0,3.17.07,3.59,2.03,3.8l.83.09c.2.12.13.66-.07.75-1.66-.06-2.79-.09-4.12-.09-1.39,0-2.52.03-4.18.09-.2-.09-.27-.57-.07-.75l.83-.09c1.96-.21,2.02-.63,2.02-3.8v-10.65Z"/>
          <path class="cls-1" d="M655.48,99.16c-2.96,0-4.83-.78-5.5-1.11-.42-.66-.88-2.78-.95-4.19.18-.21.71-.27.85-.09.53,1.53,1.98,4.46,6.07,4.46,2.96,0,4.41-1.64,4.41-3.44,0-1.31-.32-2.78-2.89-4.19l-3.35-1.86c-1.76-.99-3.81-2.69-3.81-5.14,0-2.84,2.61-5.14,7.2-5.14,1.09,0,2.36.18,3.28.39.46.12.95.18,1.23.18.32.72.64,2.39.64,3.65-.14.18-.71.27-.88.09-.46-1.44-1.41-3.38-4.8-3.38s-4.2,1.94-4.2,3.32c0,1.73,1.69,2.99,3,3.68l2.82,1.5c2.22,1.17,4.41,2.9,4.41,5.74,0,3.29-2.93,5.53-7.52,5.53Z"/>
          <path class="cls-1" d="M673.25,89.1c-1.55,0-1.61.06-1.61.96v4.22c0,3.14.16,3.56,1.96,3.74l.93.09c.19.12.13.66-.06.75-1.74-.06-2.83-.09-4.09-.09-1.38,0-2.48.06-3.73.09-.19-.09-.26-.57-.07-.75l.55-.09c1.8-.3,1.87-.6,1.87-3.74v-10.77c0-3.14-.23-3.65-1.9-3.77l-.84-.06c-.19-.12-.13-.66.06-.75,1.58.03,2.67.09,4.05.09,1.26,0,2.35-.03,3.74-.09.19.09.26.63.06.75l-.61.06c-1.87.18-1.93.63-1.93,3.77v3.44c0,.93.06.96,1.61.96h9.2c1.54,0,1.61-.03,1.61-.96v-3.44c0-3.14-.07-3.59-1.96-3.77l-.61-.06c-.2-.12-.13-.66.06-.75,1.48.06,2.58.09,3.89.09s2.35-.03,3.8-.09c.19.09.26.63.06.75l-.68.06c-1.87.18-1.93.63-1.93,3.77v10.77c0,3.14.07,3.53,1.93,3.74l.77.09c.19.12.13.66-.07.75-1.54-.06-2.64-.09-3.89-.09-1.32,0-2.48.03-3.89.09-.19-.09-.26-.57-.06-.75l.61-.09c1.96-.3,1.96-.6,1.96-3.74v-4.22c0-.9-.07-.96-1.61-.96h-9.2Z"/>
          <path class="cls-1" d="M546.73,105.42c2.65-2.06,6.02-3.07,9.78-3.07,1.96,0,4.71.4,6.41.87.44.11.69.18,1.02.14.03.83.22,3.11.51,5.31-.18.25-.72.29-.98.07-.54-2.46-2.17-5.27-7.43-5.27-5.54,0-10.25,3.5-10.25,10.97s4.82,11.77,10.76,11.77c4.67,0,6.74-3.03,7.57-5.16.25-.18.8-.11.94.14-.25,1.88-1.19,4.26-1.74,4.95-.44.07-.87.22-1.27.36-.8.29-3.41.83-5.73.83-3.26,0-6.38-.65-9.02-2.42-2.9-1.99-5.14-5.27-5.14-9.93,0-4.01,1.81-7.44,4.56-9.57Z"/>
          <path class="cls-1" d="M566.54,117.1c0-5.98,4.71-10.56,11.18-10.56,7.25,0,10.89,4.99,10.89,10.26,0,6.04-4.84,10.44-10.89,10.44-6.97,0-11.18-4.76-11.18-10.14ZM585.48,117.73c0-4.94-2.29-10.26-8.29-10.26-3.27,0-7.51,2.12-7.51,8.67,0,4.42,2.26,10.17,8.45,10.17,3.77,0,7.35-2.69,7.35-8.58Z"/>
          <path class="cls-1" d="M624.04,114.52c0-1.85-.06-5.29-.6-6.19-.22-.36-.79-.57-1.58-.63l-.79-.06c-.19-.21-.13-.6.06-.72,1.21.06,2.38.09,3.61.09,1.33,0,2.19-.03,3.33-.09.25.15.22.54.06.72l-.76.06c-.79.06-1.4.33-1.58.72-.44.99-.44,4.43-.44,6.1v3.38c0,2.6-.44,5.35-2.22,7.15-1.36,1.41-3.71,2.18-6.06,2.18-2.19,0-4.37-.39-5.93-1.64-1.68-1.32-2.47-3.5-2.47-7.06v-7.06c0-3.11-.06-3.62-1.9-3.77l-.79-.06c-.19-.12-.13-.63.06-.72,1.59.06,2.66.09,3.93.09s2.35-.03,3.9-.09c.19.09.25.59.06.72l-.76.06c-1.84.15-1.9.66-1.9,3.77v6.46c0,4.81,1.59,7.98,6.43,7.98,4.6,0,6.34-3.41,6.34-7.95v-3.44Z"/>
          <path class="cls-1" d="M660.88,110.79c0-2.24-.14-2.81-1.71-2.93l-1.12-.11c-.13-.12-.2-.72.03-.74,1.89-.14,4.28-.24,7.53-.24,2.21,0,4.31.15,5.89.84,1.51.64,2.66,1.84,2.66,3.78,0,2.18-1.47,3.29-3.57,4.14,0,.3.28.39.67.45,1.89.3,4.7,1.81,4.7,5.04,0,3.5-3.01,5.86-9.32,5.86-1.01,0-2.73-.09-4.2-.09s-2.73.06-4.03.09c-.21-.09-.28-.57-.07-.75l.63-.09c1.86-.27,1.93-.61,1.93-3.78v-11.48ZM663.76,114.81c0,.85.04.91,1.82.85,3.57-.12,5.5-1.03,5.5-3.87s-2.56-4.08-5.22-4.08c-.77,0-1.3.06-1.61.18-.35.09-.49.24-.49.78v6.13ZM663.76,121.81c0,1.09.07,2.63.74,3.29.67.7,1.71.85,2.77.85,3.12,0,5.5-1.21,5.5-4.23,0-2.39-1.4-5.16-6.97-5.16-1.89,0-2.03.18-2.03.78v4.47Z"/>
          <path class="cls-1" d="M603.79,98.1l-.83-.07c-.17-.02-.32-.04-.46-.06-1.21-.21-1.7-1.3-2.27-2.3l-2.87-5c-.5-.83-1.03-1.96-2.16-2.12,2.94-.35,5.6-2.05,5.6-4.97,0-3.37-3.33-4.87-6.7-4.87-2.02,0-3.86.06-5.92.06-1.13,0-2.48-.06-3.62-.06-.63,0-.64.13-.64.48,0,.52.22.37.89.41,2.39.13,2.3.58,2.3,2.63v13.11c0,1.88.16,2.43-1.81,2.61,0,0-.3.03-.47.05l-.84.09c-.2.18-.13.66.07.75.44-.02,1.23-.05,1.23-.05,1.09-.03,2.18-.11,3.27-.11s2.15.08,3.22.11h0c.38.01.79.03,1.23.04.2-.09.27-.57.07-.75l-.84-.08c-.17-.02-.46-.05-.46-.05-1.99-.13-1.87-.69-1.87-2.62v-4.93c0-.29-.04-1.06.18-1.28.18-.19.5-.16.78-.16,2.69,0,2.66.26,3.94,2.5l3.47,6.25c.28.48.5,1.09,1.21,1.09h3.02c.38.01.78.03,1.22.04.2-.09.27-.57.07-.75ZM591.69,88.27c-.6,0-1.81.23-1.81-.57v-5.74c0-2.24.07-2.56,2.77-2.56,3.15,0,5.1,1.6,5.1,4.55,0,1.28-.46,2.47-1.63,3.27-1.35.93-2.8,1.06-4.43,1.06Z"/>
          <g>
            <path class="cls-1" d="M592.34,111.58c0-3.14-.06-3.62-2.14-3.77l-.82-.06c-.2-.12-.13-.66.07-.75,1.84.06,2.96.09,4.28.09s2.4-.03,4.05-.09c.2.09.26.63.06.75l-.79.06c-1.94.15-2.01.63-2.01,3.77v10.41c0,1.88.1,2.66.69,3.23.36.33.99.69,3.59.69,2.8,0,3.49-.12,4.01-.39.66-.36,1.51-1.43,2.17-2.96.2-.15.82-.03.82.18,0,.33-.92,3.38-1.38,4.19-1.68-.06-4.8-.09-8.19-.09h-3.03c-1.38,0-2.43.03-4.28.09-.2-.09-.26-.57-.07-.74l.99-.09c1.91-.18,1.97-.6,1.97-3.74v-10.77Z"/>
            <path class="cls-1" d="M680.46,111.64c0-3.17-.06-3.68-1.97-3.83l-.81-.06c-.19-.12-.13-.66.06-.75,1.62.06,2.71.09,4.07.09s2.39-.03,4.01-.09c.19.09.26.63.06.75l-.81.06c-1.9.15-1.97.66-1.97,3.83v10.65c0,3.17.06,3.59,1.97,3.8l.81.09c.19.12.13.66-.06.74-1.61-.06-2.71-.09-4.01-.09s-2.45.03-4.07.09c-.19-.09-.26-.57-.06-.74l.81-.09c1.9-.21,1.97-.63,1.97-3.8v-10.65Z"/>
            <path class="cls-1" d="M654.66,126.07c-.17-.02-.47-.04-.47-.04-.34-.04-.65-.08-.89-.35-.42-.44-.38-1.71-.38-2.22v-13.1c0-.57-.14-1.81.28-2.25.21-.23.65-.27,1.03-.29h0c.24-.02.24-.02.45-.03l.83-.06c.2-.12.13-.66-.07-.75-.44.01-.85,0-1.23.02h0s-3.53,0-3.53,0c-.38,0-.73,0-.94.41l-7.19,14.98-6.35-14.47c-.21-.51-.24-.92-.91-.92h-3.67c-.38-.01-.81,0-1.25-.02-.2.09-.27.63-.07.75l.83.06c.17.01.48.04.48.04,1.38.09,1.46.4,1.34,1.84l-1.08,14.06c-.1,1.41-.17,2.16-1.65,2.29,0,0-.32.04-.49.06l-.83.09c-.2.18-.13.66.07.75.44-.02,1.21-.04,1.21-.04.75-.04,1.51-.1,2.28-.1.82,0,1.65.08,2.47.11h0c.38.01.78.03,1.23.04.2-.09.27-.57.07-.75l-.83-.09c-.22-.02-.46-.04-.46-.04-2.13-.14-2.08-1.65-1.95-3.49l1.01-13.07h.25l6.87,16.09c.07.22.18.6.52.6.31,0,.42-.35.52-.57l7.75-16.5h.24v14.37c0,.57.07,1.75-.52,2.19-.31.23-1.32.37-1.32.37-.14.02-.28.04-.45.06l-.83.09c-.2.18-.13.66.07.74.44-.02,1.21-.04,1.21-.04,1.13-.03,2.27-.12,3.41-.12.82,0,2.43.08,2.43.08.38.01.82.05,1.26.07.2-.09.26-.57.07-.75l-.83-.09Z"/>
            <path class="cls-1" d="M708.59,126.16l-.11-.09c-.17-.02-.31-.04-.45-.06-1.29-.29-1.8-1.85-2.27-2.96l-6.66-15.75c-.07-.19-.2-.6-.46-.6-.36,0-.46.44-.56.69l-6.36,15.72c-.23.59-.82,2.04-1.25,2.48-.33.34-.76.4-1.21.45,0,0-.36.03-.53.05l-.78.08c-.2.18-.13.66.07.74.44-.02,1.23-.04,1.23-.04.87-.01,1.74-.12,2.61-.12.73,0,1.46.08,2.2.11,0,0,.79.03,1.23.05.2-.09.27-.57.06-.75l-.83-.09c-.16-.02-.45-.05-.45-.05-.76-.08-1.72-.22-1.72-1.06,0-.56.26-1.22.46-1.73l.99-2.35c.49-1.13.3-1.25,1.61-1.25h4.48c1.58,0,1.35,0,2.04,1.6l1.05,2.38c.16.41.46,1.1.46,1.54,0,.79-.86.84-1.67.91,0,0-.27.02-.5.04l-.8.06c-.2.18-.13.66.07.75.44-.02,1.23-.05,1.23-.05.94-.04,1.88-.11,2.79-.11,1.15,0,2.31.08,3.46.11h0c.38,0,.06.02.5.04.2-.09.27-.57.07-.75ZM699.87,118.75h-3.88c-.14,0-1.22.13-1.22-.19,0-.1.07-.28.1-.38l2.33-5.77c.07-.16.3-.95.57-.95.2,0,.47.83.54.95l2.3,5.39c0,.06.24.57.24.7,0,.35-.78.25-.98.25Z"/>
          </g>
        </g>
        <polygon class="cls-1" points="523.71 99.88 512.27 104.11 515.88 105.34 523.71 99.88"/>
        <g>
          <path class="cls-1" d="M422.59,105.49c-.47,2.24-1.34,6.45-1.34,12.09,0,3.64.38,6.71,1.03,10.16h0c.5-.11.71-.16,1.27-.27h0c5.13-.89,13.26-1.95,20.2-1.07,11.03,1.39,17.92,3.25,29.56,5.88,11.64,2.63,20.22,5.11,32.78,3.72,11-1.22,18.53-2.93,25.86-7.76,0,0,0,0,0,0,0,0,.59-.38.59-.38.13-.09.62-.46.78-.58.54-3.15.94-6.27.94-9.57h0c0-4.42-.59-9.2-1.56-13.37l-7.78-4.34-9,6.31-6.06-2.36c-2.05,1.04-14.7,9.49-14.7,9.49l-4.85-3.51-5.21-1.03-6.94-5.06-7.97,5.47s-8.89,5.16-9.19,5.16-10.72-8.26-10.72-8.26l-4.8-5.06c-.82.52-4.08,2.01-4.08,2.01l-.17.04-3.16-.98-3.84-2.03-11.65,5.28Z"/>
          <path class="cls-1" d="M432.53,100.03l-6.42-2.37c.08-.19.15-.39.22-.59l7.06,2.47.68-.42,3.37,1.83,4.19,1.53.25-.11-14.95-6.73c.08-.2.17-.39.26-.59l16.47,6.58.24-.12-16.06-7.88c.09-.19.18-.38.27-.56l17.44,7.61-16.72-9.01c.09-.17.18-.34.27-.51l23.49,12.43c.34-.62.7-1.24,1.08-1.84l-19.14-14.95,20.42,13.1c.5-.67,1.04-1.31,1.6-1.93l-19.65-17.81c.14-.15.29-.31.43-.46l14.27,12.61-13.2-13.73c.15-.15.3-.3.45-.46l14.89,14.29-13.76-15.38c.15-.14.3-.28.46-.43l13.34,13.6-12.16-14.65c.15-.13.3-.25.44-.38l17.06,20.26c.66-.57,1.34-1.11,2.05-1.62l-12.17-21.08,14.06,19.84c.76-.46,1.55-.88,2.35-1.27l-11.51-23.8c.2-.1.4-.19.6-.28l8.52,17.07-7.1-17.71c.2-.09.39-.17.59-.25l8.46,18.86-7-19.44c.19-.07.39-.15.58-.22l7.28,17.63-5.79-18.15c.17-.06.34-.11.51-.17l8.21,25.1c.76-.26,1.54-.48,2.33-.67l-3.39-24.1,5.6,23.66c.93-.15,1.88-.25,2.84-.3l-1.75-26.29c.2-.01.4-.03.6-.04l1.81,18.9-.27-18.95c.22,0,.43,0,.65,0l.78,19.9.78-19.89c.21,0,.42,0,.63.02l-.17,18.94,1.74-18.87c.2.01.39.02.59.04l-1.78,26.27c.91.06,1.81.16,2.7.3l5.58-23.58-3.38,24.03c.83.2,1.64.44,2.44.71l8.18-25c.19.07.39.13.58.2l-5.73,17.97,7.2-17.44c.2.08.39.15.59.23l-6.94,19.25,8.37-18.66c.2.09.4.17.6.26l-7.02,17.5,8.42-16.86c.18.08.36.17.54.26l-11.45,23.66c.78.38,1.54.79,2.28,1.23l14.02-19.78-12.14,21.02c.73.52,1.43,1.08,2.1,1.67l16.92-20.08c.16.13.31.27.46.4l-12.03,14.5,13.19-13.45c.16.15.31.29.47.44l-13.63,15.22,14.73-14.14c.15.15.3.31.46.47l-13.04,13.57,14.1-12.46c.13.14.26.29.4.43l-19.46,17.63c.55.61,1.08,1.25,1.58,1.91l20.38-13.08-19.11,14.92c.38.6.74,1.21,1.07,1.84l23.21-12.29c.1.18.19.36.29.54l-16.44,8.85,17.13-7.47c.09.19.18.38.27.58l-18.2,8.95,18.84-7.55c.09.2.18.4.26.6l-17.07,7.65,17.64-6.24c.07.18.14.36.21.55l-3.77,1.39,5.6,4.26,1.55.86h0c-.59-2.37-1.49-5.26-2.37-7.5-8.42-21.34-29.64-35.88-52.64-35.88-26.96,0-49.49,18.94-55.04,44.23h0s-.04.18-.06.31l1.1-.51,8.85-4.96Z"/>
        </g>
      </g>
    </g>
    <g>
      <g>
        <path class="cls-1" d="M107.5,69.82c1.15-.76,2.5-1.15,4.05-1.15.86,0,1.65.12,2.39.37.74.24,1.38.59,1.95,1.05.56.46,1.03,1.01,1.39,1.66.36.65.6,1.39.72,2.21h6.4c-.2-1.73-.67-3.27-1.39-4.61-.73-1.34-1.66-2.48-2.81-3.41-1.15-.93-2.47-1.64-3.95-2.12-1.48-.49-3.09-.73-4.83-.73-2.63,0-4.99.6-7.1,1.8-2.1,1.2-3.77,2.95-4.99,5.24-1.23,2.29-1.84,5.06-1.84,8.32s.61,6.02,1.82,8.31c1.21,2.29,2.87,4.04,4.97,5.24,2.1,1.21,4.48,1.81,7.15,1.81,1.92,0,3.64-.29,5.16-.87,1.52-.58,2.84-1.37,3.94-2.37,1.1-1,1.99-2.13,2.64-3.4.66-1.27,1.07-2.59,1.23-3.96l-6.4-.03c-.15.8-.41,1.51-.78,2.13-.37.62-.84,1.15-1.41,1.58-.56.43-1.21.76-1.93.99-.73.22-1.51.34-2.36.34-1.51,0-2.84-.37-3.99-1.11-1.15-.74-2.04-1.84-2.68-3.29-.64-1.45-.96-3.24-.96-5.37s.32-3.84.95-5.29c.63-1.46,1.52-2.57,2.67-3.33Z"/>
        <path class="cls-1" d="M139.97,82.8h4.62l5.67,10.6h6.98l-6.35-11.63c.09-.04.19-.07.28-.11,1.62-.76,2.86-1.85,3.72-3.28.86-1.43,1.29-3.13,1.29-5.12s-.42-3.7-1.26-5.16c-.84-1.47-2.06-2.6-3.67-3.4-1.6-.8-3.53-1.2-5.79-1.2h-11.8v29.91h6.32v-10.6ZM144.24,68.66c1.22,0,2.23.18,3.03.53.8.36,1.4.87,1.8,1.56.39.68.59,1.52.59,2.51s-.2,1.81-.59,2.47c-.39.66-.99,1.16-1.79,1.49-.8.33-1.8.5-3.01.5h-4.29v-9.05h4.26Z"/>
        <polygon class="cls-1" points="171.69 81.04 184.48 81.04 184.48 75.83 171.69 75.83 171.69 68.7 185.52 68.7 185.52 63.49 165.37 63.49 165.37 93.4 185.58 93.4 185.58 88.19 171.69 88.19 171.69 81.04"/>
        <path class="cls-1" d="M203.99,63.49l-10.32,29.91h6.78l2.22-6.82h10.8l2.21,6.82h6.78l-10.31-29.91h-8.15ZM204.27,81.64l3.68-11.32h.23l3.67,11.32h-7.59Z"/>
        <polygon class="cls-1" points="225.97 68.7 235.13 68.7 235.13 93.4 241.38 93.4 241.38 68.7 250.54 68.7 250.54 63.49 225.97 63.49 225.97 68.7"/>
        <rect class="cls-1" x="259.33" y="63.49" width="6.32" height="29.91"/>
        <polygon class="cls-1" points="288.5 86.21 288.23 86.21 281 63.49 273.97 63.49 284.3 93.4 292.45 93.4 302.76 63.49 295.75 63.49 288.5 86.21"/>
        <polygon class="cls-1" points="317.44 88.19 317.44 81.04 330.24 81.04 330.24 75.83 317.44 75.83 317.44 68.7 331.27 68.7 331.27 63.49 311.12 63.49 311.12 93.4 331.33 93.4 331.33 88.19 317.44 88.19"/>
        <path class="cls-1" d="M116.94,118.67c-.95-.59-1.92-.91-2.91-.96v-.29c.91-.23,1.75-.61,2.52-1.12.76-.51,1.37-1.19,1.83-2.04.46-.85.69-1.9.69-3.15,0-1.48-.35-2.81-1.04-3.99-.69-1.18-1.73-2.12-3.13-2.82-1.39-.7-3.15-1.04-5.27-1.04h-10.95v29.91h11.46c2.32,0,4.22-.35,5.71-1.06,1.49-.71,2.59-1.66,3.31-2.88.72-1.21,1.07-2.58,1.07-4.11s-.31-2.86-.93-3.94c-.62-1.08-1.41-1.92-2.36-2.5ZM103.19,107.1h6.16c1.79,0,3.12.42,3.99,1.26.87.84,1.3,1.87,1.3,3.11,0,.96-.24,1.8-.72,2.5-.48.71-1.13,1.25-1.94,1.64-.81.39-1.73.58-2.74.58h-6.05v-9.1ZM114.35,128.04c-.93.84-2.48,1.26-4.64,1.26h-6.51v-9.58h6.67c1.21,0,2.25.23,3.13.7.88.47,1.56,1.1,2.04,1.88.48.79.72,1.66.72,2.6,0,1.26-.47,2.3-1.4,3.14Z"/>
        <path class="cls-1" d="M140.44,108.27c1.36-.87,2.9-1.3,4.62-1.3.95,0,1.86.13,2.71.39.85.26,1.62.65,2.31,1.17.69.52,1.28,1.14,1.75,1.88.48.74.8,1.6.98,2.57h4.56c-.25-1.61-.74-3.04-1.46-4.29-.72-1.25-1.63-2.31-2.73-3.18-1.1-.87-2.34-1.53-3.72-1.99-1.38-.45-2.86-.68-4.45-.68-2.58,0-4.88.62-6.91,1.85-2.03,1.23-3.62,2.99-4.79,5.29-1.17,2.29-1.75,5.04-1.75,8.23s.58,5.92,1.75,8.22c1.16,2.3,2.76,4.06,4.78,5.29,2.02,1.23,4.33,1.85,6.92,1.85,1.65,0,3.16-.24,4.56-.73,1.39-.49,2.63-1.18,3.72-2.07,1.09-.89,1.98-1.95,2.67-3.18.7-1.23,1.17-2.58,1.41-4.05h-4.56c-.19.94-.52,1.78-1,2.52-.48.74-1.07,1.36-1.76,1.86-.69.51-1.46.89-2.31,1.15-.85.26-1.75.39-2.69.39-1.7,0-3.24-.43-4.6-1.29-1.36-.86-2.44-2.12-3.22-3.8-.78-1.67-1.18-3.73-1.18-6.16s.39-4.46,1.18-6.13c.78-1.67,1.85-2.94,3.21-3.81Z"/>
      </g>
      <g>
        <path class="cls-2" d="M56.41,124.8c-.06-.11-.11-.22-.17-.33v-12.62c6.22-.88,11.44-3.51,15.52-8.48,1.85,3.87,3.67,7.66,5.51,11.5-.92.92-1.81,1.86-2.76,2.73-1.69,1.53-3.57,2.82-5.62,3.83-2.9,1.43-5.95,2.42-9.16,2.89-1.1.16-2.21.33-3.32.49Z"/>
        <path class="cls-2" d="M56.4,72.95c0-4.23.01-8.45.02-12.68,7.68.35,15.31,3.5,20.44,9.33-1.74,3.87-3.63,7.57-5.4,11.38-.55-.61-1.12-1.19-1.71-1.75-.34-.32-.69-.64-1.05-.94s-.75-.62-1.14-.92-.78-.58-1.18-.85c-.49-.33-.99-.63-1.49-.92-.38-.21-.76-.42-1.15-.61-.33-.16-.67-.32-1.01-.47-.31-.13-.61-.26-.92-.37-.42-.16-.84-.3-1.26-.43s-.87-.25-1.31-.35-.89-.19-1.34-.26c-.49-.08-.99-.14-1.5-.18Z"/>
        <path class="cls-2" d="M56.41,124.8v12.8c-60.96,9.75-60.77-86.78,0-77.33,0,4.23-.01,8.45-.02,12.68-40.68-8.57-40.68,60.33-.16,51.52.06.11.11.22.17.33Z"/>
      </g>
    </g>
    <path class="cls-1" d="M881.17,109.63l.87,1.5c-.73.49-1.58.88-2.55,1.18-.96.31-2.19.46-3.67.46-1.36,0-2.59-.26-3.68-.77-1.11-.52-2.06-1.22-2.85-2.15-.8-.91-1.4-1.91-1.81-2.99-.38-1.1-.59-2.23-.59-3.39s.21-2.29.59-3.39c.41-1.1,1.01-2.11,1.81-3,.79-.9,1.74-1.59,2.84-2.11,1.09-.51,2.33-.77,3.68-.77,1.05,0,1.96.07,2.75.22.77.15,1.39.32,1.84.5.45.19.87.4,1.27.63l-.71,1.7c-.21-.1-.47-.22-.76-.34-.29-.13-.63-.26-1.05-.4-.41-.13-.86-.24-1.41-.33-.53-.08-1.15-.12-1.82-.12-.89,0-1.74.18-2.52.56-.77.38-1.46.9-2.05,1.58-.6.68-1.06,1.47-1.39,2.38-.34.91-.5,1.87-.5,2.89,0,1.38.3,2.63.91,3.77.6,1.12,1.42,2.02,2.46,2.67,1.02.66,2.15.99,3.37.99,1.31,0,2.33-.12,3.05-.37.72-.25,1.37-.55,1.91-.9Z"/>
    <path class="cls-1" d="M886.96,112.4h-2.37v-17.87h2.37v17.87Z"/>
    <path class="cls-1" d="M889.76,96.3v-1.77h13.78v1.77h-5.71v16.1h-2.36v-16.1h-5.71Z"/>
    <path class="cls-1" d="M916.44,94.53h2.26l-5.77,9.2v8.67h-2.38v-8.67l-5.65-9.2h2.57l4.51,7.4,4.46-7.4Z"/>
    <path class="cls-1" d="M935.86,94.19c1.81,0,3.37.39,4.69,1.18,1.31.77,2.31,1.86,2.99,3.27.68,1.41,1.02,3.03,1.02,4.83,0,1.37-.22,2.64-.65,3.81-.44,1.15-1.05,2.14-1.84,2.96-.79.82-1.72,1.45-2.78,1.87-1.07.44-2.21.66-3.44.66-1.3,0-2.48-.22-3.55-.66-1.06-.43-1.99-1.07-2.76-1.88-.77-.81-1.37-1.8-1.78-2.94-.41-1.15-.61-2.43-.61-3.82s.2-2.56.61-3.69c.41-1.14,1-2.12,1.76-2.95.76-.82,1.68-1.47,2.77-1.94,1.09-.46,2.28-.7,3.57-.7ZM935.86,95.93c-1.21,0-2.29.3-3.22.94-.93.63-1.65,1.51-2.15,2.64-.5,1.14-.75,2.44-.75,3.95s.25,2.82.75,3.95c.5,1.14,1.22,2.02,2.15,2.65.93.64,2.01.95,3.22.95.91,0,1.74-.17,2.5-.53.76-.36,1.41-.87,1.96-1.55.55-.67.97-1.46,1.25-2.39.29-.92.43-1.95.43-3.08s-.14-2.16-.43-3.09c-.29-.93-.7-1.72-1.23-2.38-.53-.67-1.17-1.17-1.92-1.54-.75-.37-1.6-.53-2.54-.53Z"/>
    <path class="cls-1" d="M950.27,112.4h-2.37v-17.87h9.26v1.77h-6.89v6h4.84v1.78h-4.84v8.32Z"/>
    <path class="cls-1" d="M854.29,120.11l-9.64,26.29h-2.43l-8.6-26.29h4.59l5.75,18.36,6.35-18.36h3.98Z"/>
    <path class="cls-1" d="M860.3,139.71l-2.52,6.47h-4.03l10.61-26.15h2.67l9.62,26.15h-4.67l-2.34-6.47h-9.34ZM868.53,136.67l-3.42-9.39-3.64,9.39h7.06Z"/>
    <path class="cls-1" d="M899.14,120.11h3.93v26.06h-3.96l-14.71-18.79v18.79h-3.92v-26.06h3.79l14.88,19.07v-19.07Z"/>
    <path class="cls-1" d="M927.95,141.58l1.44,2.96c-1.12.65-2.4,1.18-3.82,1.57-1.42.39-3.21.58-5.37.58-1.96,0-3.73-.36-5.37-1.05-1.64-.7-3.06-1.7-4.27-2.97-1.21-1.26-2.13-2.73-2.77-4.37-.63-1.62-.96-3.35-.96-5.16s.32-3.53.97-5.18c.64-1.64,1.57-3.1,2.77-4.36,1.21-1.26,2.62-2.24,4.26-2.94,1.64-.71,3.42-1.03,5.37-1.03,1.65,0,3.05.08,4.19.29,1.14.21,2.04.46,2.72.73.67.27,1.31.57,1.92.91l-1.32,3.11c-.62-.3-1.19-.53-1.7-.73-.51-.2-1.23-.4-2.17-.59-.93-.19-2.02-.28-3.25-.28-1.53,0-2.99.43-4.38,1.3-1.4.89-2.51,2.1-3.34,3.65-.83,1.56-1.23,3.25-1.23,5.12s.41,3.58,1.26,5.11c.85,1.55,1.98,2.77,3.38,3.66,1.4.88,2.91,1.33,4.51,1.33,1.72,0,3.08-.15,4.09-.45,1.01-.28,2.04-.69,3.07-1.2Z"/>
    <path class="cls-1" d="M945.47,119.62c2.63,0,4.96.55,6.99,1.7,2.01,1.15,3.54,2.75,4.63,4.79,1.09,2.05,1.61,4.39,1.61,7.02,0,2.04-.32,3.89-1.01,5.56-.69,1.68-1.66,3.11-2.89,4.3-1.19,1.2-2.62,2.11-4.24,2.75-1.6.62-3.3.95-5.09.95-2.54,0-4.81-.56-6.81-1.66-2.01-1.11-3.58-2.68-4.71-4.74-1.13-2.07-1.7-4.44-1.7-7.15,0-1.92.33-3.68.98-5.35.65-1.66,1.55-3.08,2.73-4.3,1.17-1.22,2.58-2.17,4.22-2.85,1.63-.7,3.4-1.02,5.3-1.02ZM945.47,122.89c-1.27,0-2.43.24-3.48.75-1.05.5-1.93,1.21-2.67,2.12-.74.91-1.31,2-1.7,3.27-.39,1.26-.58,2.63-.58,4.11s.19,2.79.58,4.05c.39,1.28.96,2.37,1.72,3.3.75.94,1.64,1.66,2.67,2.15,1.04.51,2.19.77,3.47.77,1.7,0,3.19-.45,4.46-1.31,1.26-.88,2.25-2.11,2.96-3.69.69-1.57,1.04-3.33,1.04-5.27,0-1.44-.2-2.78-.58-4.04-.39-1.26-.96-2.35-1.71-3.29-.75-.93-1.63-1.64-2.66-2.16-1.04-.51-2.21-.76-3.5-.76Z"/>
    <path class="cls-1" d="M984.19,120.11v17.39c0,1.51-.38,2.96-1.13,4.37-.73,1.4-1.88,2.56-3.48,3.46-1.59.9-3.54,1.36-5.92,1.36-2.22,0-4.15-.38-5.71-1.13-1.58-.75-2.76-1.81-3.58-3.15-.8-1.36-1.19-2.95-1.19-4.77v-17.53h4.49v17.05c0,1.38.22,2.52.65,3.42.44.91,1.13,1.59,2.08,2.03.95.45,2.14.68,3.57.68,1.35,0,2.49-.28,3.4-.83.89-.58,1.58-1.32,2.05-2.26.47-.94.69-1.96.69-3.04v-17.05h4.08Z"/>
    <path class="cls-1" d="M1008.25,120.11l-9.63,26.29h-2.46l-8.6-26.29h4.58l5.77,18.36,6.37-18.36h3.98Z"/>
    <path class="cls-1" d="M1027.4,142.84v3.34h-15.79v-26.06h15.34v3.34h-10.84v7.64h7.89v3.31h-7.89v8.43h11.3Z"/>
    <path class="cls-1" d="M1050.93,146.17l-5.04.38-7.34-12.11h-2.7v11.74h-4.49v-26.06h7.23c2.02,0,3.71.33,5.14.96,1.44.66,2.49,1.48,3.16,2.51.69,1.03,1.03,2.1,1.03,3.23,0,1.64-.53,3.07-1.57,4.28-1.04,1.21-2.19,2.01-3.41,2.37l7.98,12.7ZM1035.86,131.37h2.39c1.7,0,3-.39,3.91-1.23.91-.83,1.37-1.79,1.37-2.9s-.44-2.12-1.3-2.91c-.87-.77-2.18-1.16-3.96-1.16h-2.41v8.21Z"/>
    <path class="cls-1" d="M873.15,50.53s-20.52,16.84-21.84,40.84c0,0-6.44-21.96-30.71-28.2,0,0-3.41,22.49,21.79,38.32,0,0-26.97-2.01-42.66,18.03,0,0,8.92-17.75,32.48-22.09,0,0-15.5-11.18-14.46-36.99,0,0,18.4.03,32.37,20.94,0,0,.47-17.25,23.03-30.85Z"/>
    <path class="cls-1" d="M899.44,70.3s-27.65.97-38.77,23.78c0,0,10.06-30.34-11.2-42.15,0,0-18.33,19.42-2.58,43.16,0,0-22.77-17.36-44.06-6.25,0,0,12.53,27.17,46.31,16.14,0,0-33.68,19.74-48.62-16.67,0,0,15.62-15.18,40.33-.15,0,0-13.37-19.03,7.91-39.18,0,0,23.34,8.81,16.36,33.26,0,0,8.05-12.4,34.33-11.95Z"/>
  </g>
</svg>