<?xml version="1.0" encoding="UTF-8"?>
<svg id="Layer_1" xmlns="http://www.w3.org/2000/svg" version="1.1" viewBox="0 0 389.61 60">
  <!-- Generator: Adobe Illustrator 29.7.1, SVG Export Plug-In . SVG Version: 2.1.1 Build 8)  -->
  <defs>
    <style>
      .st0 {
        fill: #fff;
      }
    </style>
  </defs>
  <path class="st0" d="M72.35,53.61l-34.79-16.75V0l34.79,53.61ZM75.12,60l-37.56-15.86v15.86h37.56Z"/>
  <polyline class="st0" points="2.77 53.61 37.56 0 37.56 36.86 2.77 53.61"/>
  <polyline class="st0" points="0 60 37.56 60 37.56 44.14 0 60"/>
  <path class="st0" d="M78.16,49.01c1.36,0,2.49,1.09,2.49,2.46s-1.09,2.49-2.46,2.49-2.49-1.09-2.49-2.45h0c0-1.4,1.09-2.49,2.45-2.49ZM78.16,53.57c1.17,0,2.1-.94,2.1-2.1s-.93-2.1-2.1-2.1-2.1.94-2.1,2.1h0c0,1.17.94,2.1,2.1,2.1h0ZM77.61,52.91h-.35v-2.84h1.09c.66,0,.9.27.9.78.04.43-.31.78-.7.82l.86,1.25h-.39l-.86-1.25h-.51l-.04,1.25ZM77.61,51.31h.47c.39,0,.82-.04.82-.51,0-.35-.35-.47-.62-.47h-.62v.97h-.04Z"/>
  <g>
    <path class="st0" d="M104.46,53.61h16.87c17.38,0,27.7-9,27.7-23.92s-10.32-23.88-27.7-23.88h-16.87s0,47.81,0,47.81ZM115.13,14.1h6.19c11.26,0,16.91,5.57,16.91,15.58s-5.65,15.58-16.91,15.58h-6.19V14.1Z"/>
    <polygon class="st0" points="185.34 32.88 205.64 32.88 205.64 24.58 185.34 24.58 185.34 14.1 208.29 14.1 208.29 5.8 174.62 5.8 174.62 53.61 209.03 53.61 209.03 45.31 185.34 45.31 185.34 32.88"/>
    <polygon class="st0" points="269.88 45.31 249.27 45.31 249.27 5.8 238.56 5.8 238.56 53.61 269.88 53.61 269.88 45.31"/>
    <polygon class="st0" points="327.55 5.8 284.65 5.8 284.65 14.1 300.7 14.1 300.7 53.61 311.45 53.61 311.45 14.1 327.55 14.1 327.55 5.8"/>
    <path class="st0" d="M389.61,53.61h-11.18l-4.67-11.96h-19.44l-4.67,11.96h-10.44l19.99-48h10.79l19.64,48ZM370.71,33.62l-6.66-16.99-6.7,16.99h13.36Z"/>
  </g>
</svg>