<?xml version="1.0" encoding="UTF-8"?>
<svg id="Layer_1" xmlns="http://www.w3.org/2000/svg" version="1.1" viewBox="0 0 261.44 300.5">
  <!-- Generator: Adobe Illustrator 29.7.1, SVG Export Plug-In . SVG Version: 2.1.1 Build 8)  -->
  <defs>
    <style>
      .st0 {
        fill: #fff;
      }
    </style>
  </defs>
  <polygon class="st0" points=".22 95.49 261.19 .25 261.22 .25 261.22 49.45 .22 95.52 .22 95.49"/>
  <path class="st0" d="M5.84,250.01h5.49l.74-.15.59-.15.59-.3.3-.3.3-.3.15-.44.15-.89-.15-.58-.15-.44-.15-.44-.3-.3-.44-.3-.59-.15-1.33-.15h-5.2s0,4.89,0,4.89ZM5.84,260.24h6.23l.74-.15.59-.3.44-.44.44-.44.3-.59.15-.59.15-.74-.15-.74-.15-.74-.3-.59-.3-.44-.59-.3-.59-.3-.59-.15h-6.37v6.51ZM1.69,264.09v-22.97h9.79l1.48.15,1.48.3,1.19.44,1.04.74.89.89.59,1.04.3,1.19.15,1.33-.15.59-.15.74-.15.59-.3.74-.44.44-.44.59-.44.44-.59.3,1.04.59.59.44.59.59.44.59.44.89.15.89.15,1.19-.15,1.63-.44,1.48-.59,1.19-.89,1.04-1.19.89-1.33.59-1.63.3-1.78.15H1.69ZM27.64,264.39l-.89-.15-.74-.15-.74-.44-.59-.3-.44-.59-.89-1.04-.59-1.19-.3-1.33-.15-1.19v-10.68h4.15v10.23l.15.89.3.59.3.59.45.44.44.3.74.3h1.33l.74-.3.44-.3.45-.44.44-.59.15-.59.15-.89.15-.89v-9.34h4v16.75h-4v-1.33l-.89.74-.89.59-1.19.3-1.19.15-.89-.14ZM91.71,264.09v-10.23l-.15-.74-.3-.74-.3-.59-.44-.44-.45-.3-.74-.15-.59-.15-.74.15-.74.15-.44.3-.44.44-.45.59-.3.74-.15.74v10.23h-4.15v-16.75h4.15v1.48l.89-.89,1.04-.44,1.04-.44h2.67l1.19.44,1.04.59.89.89.74,1.04.44,1.33.3,1.48.15,1.78v9.49h-4.16ZM40.54,247.34h4.15v16.75h-4.15v-16.75ZM48.25,264.09v-21.64l4.15-2.08v23.72h-4.15ZM62.19,250.9l-.59.15-.59.15-.44.44-.44.59-.3.89-.15,1.04-.15,1.33.15,1.48.15,1.19.3.89.44.59.59.44.44.3.59.3h.59l.89-.15.89-.44.59-.44.44-.59v-6.67l-.44-.44-.59-.59-.89-.44-1.04-.15-.44.13ZM60.41,264.39l-1.33-.44-1.04-.74-1.04-1.05-.74-1.33-.44-1.48-.3-1.78-.15-1.93.15-1.93.3-1.78.59-1.33.74-1.33.89-.89,1.19-.74,1.19-.44,1.48-.15h1.04l1.04.3.89.44.74.74v-6.08l4.15-2.07v23.72h-4.15v-1.19l-.89.59-.89.59-.89.3-1.04.15-1.49-.15ZM154.44,250.9l-.89.3-.59.59-.59.74v6.52l.44.44.59.59.89.44.44.15h.59l.74-.15.59-.15.59-.44.44-.59.3-.74.15-.89.15-1.04.15-1.19-.15-1.19-.15-1.04-.3-.74-.44-.74-.44-.44-.59-.3-.59-.15-.44-.15-.89.17ZM155.03,264.39l-1.04-.3-.89-.59-.74-.59v1.19h-4.15v-21.2l4.15-2.08v7.71l.74-.59,1.04-.59.89-.3h1.04l1.48.15,1.19.44,1.19.74.89.89.74,1.33.59,1.33.3,1.78.15,1.93-.15,1.93-.3,1.78-.44,1.48-.74,1.33-1.04,1.04-1.04.74-1.33.44-1.48.15-1.05-.14ZM104.91,250.9l-.59.3-.44.44-.45.59-.3.89-.15,1.04-.15,1.33.15,1.48.15,1.04.3,1.04.45.59.44.44.59.3.59.3h.44l1.04-.15.74-.44.74-.44.44-.59v-6.67l-.44-.59-.59-.44-.89-.44-1.04-.15h-.59l-.44.13ZM103.42,267.65h.15l1.78-.15,1.33-.3.89-.44.74-.59.3-.74.3-.74v-1.78l-.89.59-.89.59-.89.3-1.19.15-1.33-.15-1.33-.59-1.04-.74-1.04-.89-.74-1.33-.44-1.48-.44-1.78v-3.86l.44-1.78.44-1.48.89-1.19.89-1.04,1.19-.59,1.19-.44,1.48-.15h1.04l1.04.3.89.59.74.59v-1.19h4.15v15.27l-.15,1.93-.3,1.63-.74,1.48-.3.59-.59.59-.44.44-.59.44-1.48.59-1.63.44-1.93.15-1.5-3.24ZM128.78,256.38l-.44.15-.44.3-.3.3-.3.44-.15.44v1.03l.15.59.3.44.3.3.44.3.44.15.59.15.59.15,1.04-.15,1.04-.44.59-.59.59-.59v-2.37l-.74-.3-.74-.3-.89-.15h-1.48l-.59.15ZM128.04,264.39l-1.04-.15-1.04-.44-.89-.59-.89-.89-.59-1.04-.44-1.19-.15-1.48.15-1.48.44-1.19.74-.89.89-.74,1.04-.59,1.04-.3,1.19-.3h2.08l1.04.15.89.3.74.3v-1.63l-.15-.59-.3-.44-.3-.3-.44-.3-.59-.15-1.19-.15-1.19.15-1.19.15-1.04.44-.89.44-1.63-2.82,1.48-.74,1.48-.59,1.63-.3h3.11l1.33.3,1.19.59,1.04.59.74.89.59.89.3,1.19.15,1.33v11.27h-4.15v-1.33l-.89.74-1.19.59-1.04.3-.89.15-1.17-.15ZM171.49,250.6l-.59.15-.59.3-.44.44-.3.44-.3.59-.3.74v.74h6.23l-.15-1.33-.3-.59-.3-.44-.44-.44-.59-.44-.59-.15-.74-.15-.6.14ZM170.9,264.39l-1.63-.59-1.33-.74-1.04-.89-1.04-1.33-.59-1.48-.44-1.63-.15-1.93.15-1.93.44-1.63.59-1.48.89-1.33,1.19-1.04,1.19-.74,1.48-.44,1.63-.15,1.48.15,1.33.44,1.19.74,1.04,1.04.89,1.19.59,1.48.3,1.78.15,1.93v1.19h-10.38l.3,1.19.3.89.59.59.44.44.74.3.44.15,1.04.15,1.04-.15.89-.3.74-.44.59-.59,2.67,2.67-.74.59-.59.59-.74.44-.74.3-1.48.59-1.63.15-1.79-.17ZM211.39,250.6l-.59.15-.44.3-.44.44-.44.44-.3.59-.15.74v.74h6.23l-.3-1.33-.15-.59-.3-.44-.44-.44-.59-.44-.59-.15-.74-.15-.76.14ZM210.94,264.39l-1.63-.59-1.33-.74-1.19-.89-.89-1.33-.74-1.48-.3-1.63-.15-1.93.15-1.93.3-1.63.74-1.48.89-1.33,1.04-1.04,1.33-.74,1.48-.44,1.48-.15,1.63.15,1.33.44,1.19.74,1.04,1.04.74,1.19.59,1.48.44,1.78.15,1.93v1.19h-10.38l.15,1.19.44.89.44.59.59.44.59.3.59.15.89.15,1.04-.15.89-.3.74-.44.74-.59,2.52,2.67-.59.59-.74.59-.59.44-.74.3-1.63.59-1.63.15-1.61-.17ZM198.19,264.38l-1.04-.44-.74-.44-.59-.74-.44-.74-.3-.89-.15-.89-.15-.89v-8.15h-2.52v-3.85h2.52v-4.3l4.15-2.08v6.37h3.86v3.85h-3.86v7.11l.15,1.04.3.59.3.3.3.15.74.15h.74l.59-.15,1.19-.59-.44,3.85-.74.44-.89.15-.89.15-1.04.15-1.05-.15ZM186.32,264.38l-1.04-.44-.74-.44-.59-.74-.45-.74-.3-.89-.15-.89-.15-.89v-8.15h-2.52v-3.85h2.52v-4.3l4.15-2.08v6.37h3.56v3.85h-3.56v7.11l.15,1.04.3.59.3.3.3.15.74.15h.74l.59-.15,1.19-.59-.44,3.85-.74.44-.89.15-.89.15-1.04.15-1.04-.15ZM221.92,264.09v-16.75h4.15v1.48l.74-.89.89-.44,1.04-.44h1.78l.89.15.74.44.74.3-1.19,4.15-.59-.44-.59-.3-.74-.15h-1.48l-.59.15-.44.3-.44.44-.3.59-.3.59-.15.89v9.93h-4.16ZM40.54,240.82h4.15v4.15h-4.15v-4.15ZM73.47,247.34h4.15v16.75h-4.15v-16.75ZM73.47,240.82h4.15v4.15h-4.15v-4.15ZM187.36,280.24l-.44.3-.44.44-.44.59-.3.74-.3,1.19v2.67l.3,1.19.3.89.44.74.44.44.59.3.45.15h1.63l.74-.44.59-.59.59-.59v-6.52l-.44-.59-.74-.44-.74-.44-1.04-.15h-.59l-.6.12ZM187.66,293.73l-1.48-.15-1.19-.44-1.19-.74-.89-1.04-.74-1.19-.59-1.63-.3-1.63-.15-2.08.15-1.93.3-1.63.59-1.48.74-1.19.89-1.04,1.19-.74,1.33-.44,1.48-.15.89.15,1.04.3.89.44.89.74v-6.08l4.15-2.07v23.72h-4.15v-1.33l-.89.74-1.04.59-.89.3h-1.03ZM40.84,293.43v-16.75h4.15v1.48l.74-.89.89-.59.89-.3,1.19-.15.74.15.89.15.74.3.74.44-1.19,4-.59-.3-.74-.3-.59-.15-.74-.15-.74.15-.59.15-.59.3-.3.44-.44.44-.15.74-.15.74v10.08h-4.16v.02ZM13.85,293.43l-1.78-6.97-1.04-3.71-.89,3.85-1.78,6.82h-3.56l-.15-.15L.21,277.25v-.59h3.99l1.63,6.23.74,4.15.59-2.22.45-2.08,1.78-6.08h3.56l1.63,6.08,1.04,4.3.89-4.3,1.48-6.08h4.15l-4.75,16.75h-3.54s0,.02,0,.02ZM29.27,280.54l-.59.44-.59.44-.3.74-.3.89-.15.89-.15,1.04.15,1.04.15,1.04.3.74.3.74.59.59.59.44.59.15.74.15.74-.15.59-.15.59-.44.59-.59.3-.74.3-.74.3-1.04v-2.08l-.3-.89-.3-.89-.3-.74-.59-.44-.59-.44-.59-.3h-1.48l-.59.3ZM28.97,293.58l-1.48-.44-1.19-.74-1.19-1.04-.89-1.33-.74-1.48-.3-1.63-.15-1.93.15-1.78.3-1.63.74-1.63.89-1.19,1.19-1.04,1.19-.74,1.48-.59,1.63-.15,1.63.15,1.48.59,1.19.74,1.19,1.04.89,1.19.74,1.63.3,1.63.15,1.78-.15,1.93-.3,1.63-.74,1.48-.89,1.33-1.19,1.04-1.19.74-1.48.44-1.63.15-1.63-.15ZM161.11,293.43v-16.75h4.15v1.48l.89-.89.89-.59.89-.3,1.04-.15.89.15.89.15.74.3.59.44-1.04,4-.59-.3-.74-.3-.74-.15-.74-.15-.59.15-.59.15-.59.3-.44.44-.3.44-.15.74-.15.74-.15,1.04v9.04h-4.16v.02ZM134.27,293.43l-1.93-6.97-.89-3.71-.89,3.85-1.93,6.82h-3.56v-.15l-4.75-16.6h4.3l1.48,6.23.89,4.15.44-2.22.59-2.08,1.78-6.08h3.41l1.78,6.08,1.04,4.3.89-4.3,1.48-6.08h4.15l-4.75,16.75h-3.53ZM149.55,280.54l-.59.44-.44.44-.44.74-.3.89-.15.89v2.08l.15,1.04.3.74.44.74.44.59.59.44.74.15.74.15.74-.15.59-.15.59-.44.45-.59.44-.74.3-.74.15-1.04v-2.08l-.15-.89-.3-.89-.44-.74-.45-.44-.59-.44-.59-.3h-1.48l-.74.3ZM149.4,293.58l-1.48-.44-1.33-.74-1.04-1.04-.89-1.33-.74-1.48-.45-1.63-.15-1.93.15-1.78.45-1.63.74-1.48.89-1.33,1.04-1.04,1.33-.74,1.48-.59,1.63-.15,1.48.15,1.48.59,1.33.74,1.04,1.04,1.04,1.33.59,1.48.44,1.63.15,1.78-.15,1.93-.44,1.63-.59,1.48-1.04,1.33-1.04,1.04-1.33.74-1.48.44-1.48.15-1.63-.15ZM63.53,293.43l-3.56-7.86-2.08,2.82v5.04h-4.15v-21.64l4.15-2.08v13.34l1.48-2.08,3.26-4.3h4.89l-4.45,5.48,5.04,11.27h-4.58ZM88.89,293.43v-10.23l-.15-.89-.3-.74-.3-.44-.44-.44-.45-.3-.59-.3h-1.48l-.74.3-.44.3-.44.44-.44.59-.15.59-.15.89-.15.89v9.34h-4.15v-16.75h4.15v1.33l.89-.74,1.04-.59,1.04-.3,1.33-.15,1.33.15,1.33.44,1.04.59.89.74.59,1.19.44,1.33.3,1.48.15,1.78v9.49h-4.15ZM102.09,280.24l-.59.3-.44.44-.45.59-.3.74-.15,1.19-.15,1.19.15,1.48.15,1.19.3.89.45.74.59.44.44.3.59.15h1.48l.74-.44.74-.59.44-.59v-6.52l-.44-.59-.59-.44-.89-.44-1.04-.15h-.44l-.59.12ZM100.61,296.99h.15l1.78-.15,1.33-.3.89-.59.74-.59.3-.59.3-.74v-1.92l-.74.74-1.04.44-.89.44h-1.04l-1.48-.15-1.33-.44-1.04-.74-1.04-1.04-.74-1.19-.44-1.63-.3-1.78-.15-1.93.15-1.93.3-1.63.59-1.48.74-1.19.89-1.04,1.19-.74,1.19-.44,1.48-.15,1.04.15,1.04.3.89.44.74.74v-1.19h4.15v15.12l-.15,1.93-.3,1.78-.59,1.48-.44.59-.44.44-.59.59-.59.44-1.48.59-1.63.44-1.93.15-1.51-3.23ZM70.65,276.68h4.15v16.75h-4.15v-16.75ZM70.65,270.16h4.15v4.15h-4.15v-4.15ZM174.16,293.43v-21.64l4.15-2.08v23.72h-4.15ZM1.69,218.13v-94.27h53.54l12.46,21.64H29.86v15.56h34.26v19.86H29.86v15.56h47.31v21.64H1.69ZM125.22,218.13v-37.2l33.07-57.07h-31l-16.02,30.83-15.87-30.83h-31.28l32.92,57.07v37.2h28.18Z"/>
</svg>