<?xml version="1.0" encoding="UTF-8"?>
<svg xmlns="http://www.w3.org/2000/svg" version="1.1" xmlns:cc="http://creativecommons.org/ns#" xmlns:dc="http://purl.org/dc/elements/1.1/" xmlns:inkscape="http://www.inkscape.org/namespaces/inkscape" xmlns:rdf="http://www.w3.org/1999/02/22-rdf-syntax-ns#" xmlns:sodipodi="http://sodipodi.sourceforge.net/DTD/sodipodi-0.dtd" xmlns:svg="http://www.w3.org/2000/svg" viewBox="0 0 100 100">
  <!-- Generator: Adobe Illustrator 29.7.1, SVG Export Plug-In . SVG Version: 2.1.1 Build 8)  -->
  <defs>
    <style>
      .st0 {
        fill: #fff;
      }
    </style>
  </defs>
  <g id="svg3009" inkscape:version="0.48.2 r9819">
    <sodipodi:namedview id="namedview3011" bordercolor="#666666" borderopacity="1" fit-margin-bottom="0.1" fit-margin-left="0.1" fit-margin-right="0.1" fit-margin-top="0.1" gridtolerance="10" guidetolerance="10" inkscape:current-layer="g3017" inkscape:cx="574.39154" inkscape:cy="-78.418282" inkscape:pageopacity="0" inkscape:pageshadow="2" inkscape:window-height="1028" inkscape:window-maximized="1" inkscape:window-width="1920" inkscape:window-x="-8" inkscape:window-y="-8" inkscape:zoom="0.67425131" objecttolerance="10" pagecolor="#ffffff" showgrid="false"/>
    <g id="g3017" inkscape:groupmode="layer" inkscape:label="c02716792">
      <g id="g3061">
        <g id="g3021">
          <path id="path3023" class="st0" d="M99.9,50C99.9,22.44,77.56.1,50,.1c-.75,0-1.5.02-2.24.05l-10.21,28.05h8.89c5.29,0,8.14,4.07,6.33,9.05l-12.59,34.6h-10.57s13.51-37.09,13.51-37.09h-7.95l-13.51,37.09h-10.58l15.89-43.64h0L36.53,1.94C15.51,7.82.1,27.11.1,50s16.34,43.32,38.32,48.55l9.26-25.45h0l16.34-44.89h19.47c5.29,0,8.14,4.07,6.33,9.05l-11.06,30.39c-.84,2.32-3.55,4.21-6.01,4.21h-14.03l-10.2,28.03c.49.01.99.02,1.48.02,27.56,0,49.9-22.34,49.9-49.9" inkscape:connector-curvature="0"/>
        </g>
        <g id="g3025">
          <path id="path3027" class="st0" d="M80.19,34.74h-7.95l-11.13,30.53h7.95l11.13-30.53" inkscape:connector-curvature="0"/>
        </g>
      </g>
    </g>
  </g>
</svg>