<?xml version="1.0" encoding="UTF-8"?>
<svg id="Layer_1" xmlns="http://www.w3.org/2000/svg" version="1.1" viewBox="0 0 236.37 78.46">
  <!-- Generator: Adobe Illustrator 29.7.1, SVG Export Plug-In . SVG Version: 2.1.1 Build 8)  -->
  <defs>
    <style>
      .st0 {
        fill: #fff;
      }
    </style>
  </defs>
  <path class="st0" d="M216.71,66.32c-12.51.09-24.35.18-27.66-.11-6.68-.58-11.15-4.95-11.66-11.38-.35-4.22-.35-7.72-.02-11.04.61-6.26,5.85-12.23,11.69-12.51,2.09-.11,7.69-.1,17.82-.06l29.49.06v-12.23s-23.49-.03-30.55-.06c-9.48-.04-14.25-.05-17.27.06-6.65.25-12.22,2.62-16.55,7.02-4.1,4.15-6.54,10.76-6.91,17.45-.21,3.61-.27,8.32,0,11.12.68,7.19,3.01,12.83,6.91,16.79,4.17,4.25,10.52,6.93,16.55,7.02,4.95.06,47.82,0,47.82,0v-12.23s-13.02.05-19.65.11ZM83.58,19.69v12.22h29.1v46.31h12.28V31.91h29.1v-12.22h-70.48ZM70.83,42.8c-.09-6.58-2.41-12.23-6.91-16.79-4.69-4.77-11.86-6.76-16.55-7.01-4.08-.23-20.14-.16-23.91,0-5.31.23-9.19,1.81-11.13,3.26-.02.01-.04,0-.04-.02V0H0v78.44h12.27s-.24-32.11.03-35.6c.49-6.22,5.2-11.1,11.21-11.62,4.82-.41,19.29-.3,23.83.01,6.23.43,10.83,5.3,11.2,11.86.12,2.42,0,35.36,0,35.36h12.3s.03-32.81,0-35.64Z"/>
</svg>