<?xml version="1.0" encoding="UTF-8"?>
<svg id="svg4419" xmlns="http://www.w3.org/2000/svg" viewBox="0 0 298 196.51">
  <defs>
    <style>
      .cls-1 {
        fill: #fff;
      }
    </style>
  </defs>
  <path id="path4423" class="cls-1" d="M87.8,83.35v48.12h-15.32v-60.49l31.62.03c13.43,0,18.01,9.47,18.01,18.08v42.38h-15.29v-42.3c0-3.6-1.87-5.82-6.37-5.82h-12.66ZM191.96,82.63c-5.24,0-9.29,2.69-10.98,6.35-1,2.19-1.35,3.88-1.47,6.56h23.57c-.3-6.56-3.28-12.91-11.12-12.91M179.52,105.96c0,7.83,4.87,13.6,13.57,13.6,6.77,0,10.13-1.88,14.04-5.77l9.46,9.03c-6.06,5.98-12.41,9.61-23.62,9.61-14.66,0-28.7-8-28.7-31.3,0-19.91,12.25-31.18,28.35-31.18s25.75,13.2,25.75,30.48v5.52h-38.86M151.34,131.4c-12.48,0-17.77-8.69-17.77-17.27v-59.62h15.29v16.48h11.53v12.36h-11.53v29.82c0,3.51,1.66,5.46,5.31,5.46h6.22v12.76h-9.05M58.85,62.63h-15.42v-14.65h15.42v14.65ZM58.89,132.11c-11.55-1.11-15.48-8.12-15.48-16.2l.02-44.92h15.46v61.12h0ZM242.72,130.82c-11.53-1.11-15.44-8.11-15.44-16.18V45.89h15.44v84.93ZM296.68,55.83c-13.99-68.2-146.39-72.52-231.72-20.57v5.74C150.21-2.82,271.12-2.56,282.13,60.26c3.68,20.77-8.02,42.43-28.93,54.88v16.29c25.16-9.21,50.97-39.06,43.48-75.6M141.56,175.16c-58.9,5.44-120.27-3.1-128.86-49.13-4.2-22.69,6.13-46.74,19.84-61.68v-7.99C7.86,78.01-5.53,105.41,2.18,137.79c9.84,41.52,62.52,65.05,142.92,57.23,31.81-3.1,73.44-13.33,102.39-29.22v-22.57c-26.26,15.64-69.73,28.57-105.92,31.92"/>
  <path id="path4425" class="cls-1" d="M260.56,50.46c0-.75-.44-.99-1.44-.99h-.96v2.12c.14,0,.84.03.96.03,1,0,1.44-.33,1.44-1.03v-.12h0ZM262.07,55.71h-1.14c-.1,0-.19-.06-.24-.15l-1.56-2.64c-.03-.05-.16-.12-.22-.12h-.7v2.62c0,.14-.1.29-.28.29h-1.03c-.13,0-.26-.15-.26-.29v-6.63c0-.38.15-.54.47-.59.36-.05,1.36-.08,1.89-.08,1.9,0,3.05.56,3.05,2.35v.12c0,1.1-.55,1.69-1.4,1.97l1.62,2.73c.01.06.05.13.05.19,0,.11-.06.23-.25.23M259.35,46.92c-2.81,0-5.09,2.32-5.09,5.12s2.28,5.09,5.09,5.09,5.1-2.29,5.1-5.09-2.3-5.12-5.1-5.12M259.35,58.18c-3.42,0-6.15-2.76-6.15-6.14s2.73-6.14,6.15-6.14,6.16,2.76,6.16,6.14-2.78,6.14-6.16,6.14"/>
</svg>