<?xml version="1.0" encoding="UTF-8"?>
<svg id="Layer_1" xmlns="http://www.w3.org/2000/svg" version="1.1" viewBox="0 0 147.22 262.92">
  <!-- Generator: Adobe Illustrator 29.7.1, SVG Export Plug-In . SVG Version: 2.1.1 Build 8)  -->
  <defs>
    <style>
      .st0 {
        fill: #fff;
      }
    </style>
  </defs>
  <path class="st0" d="M26.04,262.92H.57c-.42,0-.69-.43-.52-.81l22.84-49.24c.06-.13-.03-.27-.17-.27H.67c-.37,0-.67-.3-.67-.67v-1.24c0-.37.3-.67.67-.67h25.47c.42,0,.69.43.52.81l-22.83,49.24c-.06.13.03.27.17.27h22.05c.37,0,.67.3.67.67v1.24c0,.37-.3.67-.67.67Z"/>
  <g>
    <g>
      <path class="st0" d="M47,112.21c1.51-1.61,3.03-3.21,4.56-4.8.82-.86,1.64-1.71,2.46-2.57l7.1-7.29c3.13-3.2,6.29-6.37,9.45-9.55,1.63-1.63,3.25-3.26,4.88-4.9,1.72-1.69,3.43-3.38,5.14-5.07,3.11-3.08,6.22-6.15,9.36-9.2,4.41-4.28,9.54-9.24,14.71-14.06l.14.13c-4.85,5.15-9.83,10.27-14.12,14.65-3.06,3.13-6.15,6.23-9.23,9.33-1.7,1.71-3.4,3.41-5.09,5.12-1.64,1.61-3.27,3.22-4.9,4.83-3.19,3.15-6.39,6.31-9.61,9.44l-7.32,7.07c-.85.8-1.69,1.61-2.54,2.41-1.61,1.53-3.23,3.07-4.86,4.58l-.13-.13Z"/>
      <path class="st0" d="M104.73,54.84c-4.65,4.94-9.38,9.81-14.12,14.65-4.74,4.85-9.55,9.63-14.33,14.45-4.83,4.76-9.64,9.54-14.5,14.27l-7.31,7.07c-2.47,2.33-4.91,4.68-7.4,6.99,2.31-2.48,4.68-4.91,7.02-7.37l7.1-7.29c4.74-4.85,9.55-9.63,14.33-14.45,4.84-4.75,9.64-9.55,14.5-14.27,4.87-4.72,9.75-9.43,14.71-14.06Z"/>
      <path class="st0" d="M91.63,86.78c.83-2.6,1.75-5.14,2.87-8.15.99-2.69,2.07-5.39,3.12-8.01,1.08-2.63,2.19-5.31,3.38-7.98l1.77-3.94c.22-.45.43-.9.64-1.35.4-.85.81-1.71,1.24-2.55l.18.07c-.28.9-.59,1.78-.89,2.67-.16.47-.33.95-.49,1.43l-1.49,4.05c-1.03,2.79-2.15,5.58-3.14,8.04-1.08,2.61-2.19,5.31-3.37,7.95-1.06,2.38-2.29,5.15-3.64,7.84l-.18-.07Z"/>
      <path class="st0" d="M91.72,86.8c.88-2.75,1.86-5.45,2.87-8.15.99-2.7,2.06-5.37,3.14-8.04,1.1-2.66,2.19-5.32,3.37-7.94l1.77-3.94c.63-1.3,1.22-2.61,1.87-3.89-.43,1.38-.92,2.73-1.38,4.1l-1.49,4.05c-.99,2.7-2.06,5.37-3.14,8.04-1.1,2.66-2.19,5.32-3.37,7.94-1.17,2.63-2.35,5.25-3.64,7.83Z"/>
      <path class="st0" d="M91.66,86.73c2.25-2.02,4.59-3.94,6.6-5.59,2.22-1.83,4.54-3.62,6.78-5.36,2.11-1.61,4.51-3.43,6.93-5.16l3.52-2.51c.42-.28.83-.56,1.24-.84.78-.53,1.56-1.07,2.36-1.57l.12.15c-.69.63-1.41,1.24-2.12,1.85-.38.33-.77.66-1.15.99l-3.33,2.75c-2.14,1.76-4.25,3.4-6.78,5.36-2.25,1.71-4.57,3.47-6.93,5.15-2.11,1.52-4.57,3.28-7.11,4.93l-.12-.15Z"/>
      <path class="st0" d="M91.72,86.8c2.15-1.93,4.37-3.76,6.6-5.58,2.22-1.83,4.5-3.59,6.78-5.36,2.29-1.74,4.58-3.48,6.93-5.15l3.52-2.51c1.2-.8,2.37-1.64,3.59-2.42-1.07.97-2.18,1.89-3.26,2.84l-3.33,2.75c-2.22,1.83-4.5,3.59-6.78,5.35-2.29,1.74-4.58,3.48-6.93,5.15-2.34,1.68-4.68,3.35-7.11,4.92Z"/>
      <path class="st0" d="M119.75,74.98c-6-1.79-12.02-3.72-17.2-5.39-3.68-1.18-7.34-2.41-11-3.64-2.03-.68-4.07-1.36-6.1-2.03-1.94-.67-3.87-1.34-5.81-2.01-3.74-1.29-7.48-2.58-11.21-3.9l-8.48-3.04c-.97-.36-1.94-.72-2.9-1.07-1.85-.68-3.7-1.36-5.54-2.07l.06-.18c1.87.55,3.73,1.13,5.59,1.71,1.01.31,2.02.63,3.03.93l8.58,2.75c3.75,1.21,7.49,2.46,11.24,3.71,1.96.65,3.91,1.31,5.87,1.96,2.02.7,4.03,1.4,6.05,2.09,3.66,1.26,7.32,2.52,10.97,3.82,5.14,1.83,11.12,3.96,16.93,6.18l-.06.18Z"/>
      <path class="st0" d="M119.77,74.89c-5.76-1.72-11.48-3.54-17.2-5.39-5.72-1.84-11.4-3.78-17.1-5.67-5.67-1.97-11.36-3.89-17.02-5.9l-8.48-3.04c-2.81-1.05-5.64-2.06-8.44-3.15,2.88.85,5.74,1.76,8.62,2.64l8.58,2.75c5.72,1.85,11.4,3.78,17.1,5.67,5.67,1.97,11.36,3.89,17.02,5.91,5.66,2.01,11.31,4.04,16.93,6.18Z"/>
      <path class="st0" d="M91.67,86.72c.74-.4,1.49-.78,2.25-1.15.39-.19.78-.39,1.17-.59l3.46-1.63c2.37-1.11,4.83-2.16,7-3.1,2.32-.96,4.71-1.96,7.1-2.86,2.67-1.02,4.91-1.85,7.21-2.59l.07.17c-2.35,1.25-4.79,2.39-6.89,3.36-2.32,1.09-4.7,2.11-7,3.1-2.17.9-4.63,1.93-7.1,2.86l-3.58,1.35c-.42.14-.83.29-1.24.43-.79.28-1.59.56-2.39.81l-.07-.17Z"/>
      <path class="st0" d="M119.9,74.89c-2.26,1.2-4.57,2.29-6.88,3.36-2.31,1.08-4.65,2.09-7,3.1-2.35.98-4.71,1.96-7.1,2.86l-3.58,1.35c-1.21.41-2.4.86-3.63,1.24,1.13-.61,2.28-1.15,3.42-1.74l3.46-1.63c2.31-1.08,4.65-2.09,7-3.09,2.35-.98,4.71-1.96,7.1-2.86,2.38-.91,4.77-1.81,7.21-2.59Z"/>
      <path class="st0" d="M47.03,112.19c.97-.41,1.95-.78,2.93-1.16.52-.2,1.04-.4,1.56-.61l4.53-1.66c3.12-1.14,6.31-2.21,9.11-3.15,3-.98,6.1-1.99,9.2-2.91,2.79-.84,6.04-1.8,9.29-2.63l.06.18c-2.81,1.15-5.64,2.2-9.03,3.42-3.01,1.1-6.1,2.14-9.08,3.14-2.85.93-6.04,1.97-9.23,2.92l-4.62,1.37c-.54.15-1.08.3-1.62.45-1.01.28-2.02.56-3.04.81l-.06-.18Z"/>
      <path class="st0" d="M83.68,100.17c-2.98,1.22-6,2.33-9.02,3.42-3.02,1.1-6.07,2.13-9.11,3.15-3.06,1-6.11,1.99-9.19,2.91l-4.62,1.37c-1.55.42-3.1.87-4.66,1.26,1.49-.62,2.99-1.18,4.49-1.77l4.53-1.66c3.02-1.1,6.07-2.12,9.11-3.15,3.06-1,6.11-1.99,9.19-2.91,3.08-.93,6.16-1.84,9.28-2.63Z"/>
      <path class="st0" d="M83.63,100.25c-3.71-2.17-7.39-4.49-10.55-6.48-2.26-1.43-4.5-2.89-6.73-4.35-1.22-.79-2.43-1.59-3.65-2.38-1.16-.78-2.32-1.56-3.48-2.34-2.26-1.52-4.53-3.04-6.77-4.59l-5.07-3.54c-.57-.42-1.14-.82-1.72-1.24-1.1-.79-2.21-1.59-3.3-2.4l.1-.16c1.17.68,2.33,1.38,3.49,2.09.61.37,1.21.74,1.82,1.1l5.24,3.29c2.31,1.46,4.59,2.95,6.88,4.44,1.17.76,2.34,1.53,3.51,2.28,1.21.82,2.41,1.63,3.62,2.44,2.22,1.49,4.43,2.97,6.62,4.5,3.06,2.12,6.62,4.6,10.09,7.18l-.1.16Z"/>
      <path class="st0" d="M83.68,100.17c-3.56-2.09-7.06-4.28-10.54-6.48-3.49-2.2-6.92-4.48-10.39-6.72-3.42-2.31-6.85-4.58-10.25-6.93l-5.07-3.54c-1.67-1.21-3.36-2.4-5.01-3.64,1.79,1.04,3.54,2.13,5.31,3.19l5.24,3.29c3.49,2.2,6.92,4.48,10.38,6.72,3.41,2.31,6.86,4.58,10.25,6.93,3.39,2.35,6.77,4.71,10.08,7.18Z"/>
      <path class="st0" d="M47.02,112.2c1.17-.76,2.36-1.5,3.55-2.23.63-.39,1.27-.79,1.9-1.18l5.51-3.32c2.43-1.45,4.88-2.87,7.33-4.29,1.26-.73,2.52-1.46,3.77-2.19,1.32-.74,2.64-1.48,3.96-2.22,2.42-1.36,4.83-2.72,7.27-4.04,3.4-1.85,7.37-4,11.37-6.01l.09.17c-3.78,2.43-7.64,4.75-10.96,6.73-2.38,1.42-4.78,2.81-7.17,4.2-1.31.76-2.62,1.52-3.93,2.28-1.27.71-2.54,1.42-3.81,2.13-2.47,1.39-4.93,2.77-7.42,4.13l-5.66,3.05c-.66.34-1.32.69-1.98,1.03-1.24.65-2.48,1.3-3.74,1.93l-.1-.17Z"/>
      <path class="st0" d="M91.72,86.8c-3.61,2.32-7.28,4.53-10.96,6.73-3.68,2.2-7.4,4.32-11.1,6.48-3.74,2.09-7.46,4.21-11.22,6.26l-5.66,3.05c-1.9.98-3.79,2-5.71,2.95,1.8-1.17,3.63-2.28,5.45-3.42l5.51-3.32c3.68-2.2,7.4-4.32,11.1-6.48,3.74-2.08,7.46-4.21,11.22-6.26,3.76-2.05,7.53-4.08,11.37-6.01Z"/>
      <path class="st0" d="M83.6,100.23c-3-4.09-5.9-8.28-8.39-11.88-1.78-2.58-3.53-5.18-5.28-7.79-.95-1.42-1.91-2.84-2.86-4.25-.9-1.38-1.8-2.75-2.7-4.12-1.76-2.68-3.51-5.36-5.24-8.06l-3.89-6.14c-.44-.71-.87-1.42-1.31-2.12-.84-1.35-1.68-2.71-2.49-4.08l.16-.1c.94,1.27,1.85,2.56,2.77,3.84.49.69.98,1.38,1.47,2.06l4.15,5.97c1.82,2.63,3.6,5.28,5.38,7.94.92,1.37,1.84,2.74,2.76,4.1.94,1.45,1.89,2.9,2.84,4.34,1.71,2.61,3.42,5.21,5.09,7.84,2.92,4.57,5.34,8.42,7.69,12.34l-.16.11Z"/>
      <path class="st0" d="M83.68,100.17c-2.87-3.91-5.63-7.89-8.39-11.88-2.75-3.99-5.43-8.03-8.14-12.04-2.64-4.06-5.33-8.09-7.93-12.18l-3.89-6.14c-1.26-2.07-2.56-4.11-3.8-6.2,1.44,1.95,2.83,3.94,4.24,5.9l4.15,5.97c2.75,3.99,5.43,8.03,8.14,12.04,2.64,4.06,5.33,8.09,7.93,12.18,2.61,4.08,5.2,8.18,7.69,12.34Z"/>
      <path class="st0" d="M83.27,144.78c-2.63-2.24-5.24-4.51-7.85-6.78,0,0-3.33-2.9-4.36-3.79-1.42-1.27-2.84-2.53-4.27-3.8l-2.61-2.32c-1.76-1.56-3.51-3.13-5.25-4.71-3.49-3.17-7.23-6.58-10.91-10.07-.34-.32-.68-.64-1.02-.97l.13-.14c.34.28.68.55,1.02.83,3.65,2.97,7.22,5.98,11.46,9.58,1.76,1.49,3.5,3,5.25,4.51l2.6,2.26c1.48,1.29,2.96,2.57,4.44,3.86l4.34,3.86c2.6,2.31,5.21,4.62,7.78,6.96l.6.55-.2.03c-.36.05-.72.11-1.08.15h-.04s-.03-.02-.03-.02Z"/>
      <path class="st0" d="M84.41,144.55c-.36.06-.72.11-1.08.15-2.8-2.38-5.57-4.79-8.34-7.21-.26-.23-.52-.45-.78-.68-1.03-.9-2.06-1.79-3.1-2.69-2.02-1.8-4.04-3.6-6.06-5.39-.27-.24-.54-.48-.81-.72-1.76-1.56-3.51-3.13-5.25-4.71-3.67-3.33-7.32-6.67-10.91-10.07-.34-.32-.68-.64-1.02-.97.34.27.68.55,1.02.83,3.87,3.14,7.67,6.36,11.46,9.58,1.76,1.49,3.5,3,5.24,4.51.28.24.55.48.83.72,2.07,1.8,4.14,3.6,6.21,5.4,1.1.98,2.19,1.95,3.29,2.93.25.22.51.45.76.67,2.7,2.4,5.4,4.79,8.07,7.22l.45.42Z"/>
      <path class="st0" d="M90.94,126.74c-1.22-.32-2.44-.66-3.66-1-.64-.18-1.28-.36-1.91-.54l-5.54-1.65c-3.77-1.13-7.62-2.37-11.02-3.47-3.59-1.19-7.31-2.42-10.94-3.72-4.06-1.43-7.46-2.66-10.85-3.99l.06-.18c3.88,1.03,7.77,2.19,11.11,3.2,3.74,1.12,7.44,2.32,11.02,3.47,3.56,1.18,7.25,2.4,10.94,3.71l5.44,1.94c.62.24,1.24.47,1.86.7,1.19.44,2.37.88,3.55,1.35l-.06.18Z"/>
      <path class="st0" d="M47.07,112.28c3.73.98,7.42,2.08,11.1,3.2,3.69,1.1,7.35,2.29,11.01,3.47,3.65,1.21,7.31,2.42,10.93,3.71l5.44,1.94c1.8.68,3.61,1.33,5.4,2.05-1.87-.48-3.71-1.03-5.57-1.54l-5.53-1.65c-3.69-1.1-7.35-2.29-11.01-3.47-3.65-1.21-7.31-2.42-10.93-3.71-3.63-1.28-7.26-2.58-10.85-3.99Z"/>
      <path class="st0" d="M54.33,142.83l1.1-1.69c1.93-2.97,3.93-5.96,5.86-8.85.96-1.44,1.92-2.88,2.88-4.32l.55-.82c.89-1.3,4.77-6.99,4.77-6.99,0,0,1.23-1.8,1.53-2.24l.64-.94c.77-1.12,1.54-2.24,2.32-3.35l4.76-6.79,1.49-2.08c.85-1.19,1.7-2.38,2.57-3.56.13-.18.8-1.1.8-1.1l.16.11s-.62,1.01-.76,1.24c-.74,1.19-1.48,2.36-2.23,3.54-.47.75-.95,1.5-1.42,2.25l-4.51,6.96c-.82,1.25-1.64,2.5-2.46,3.74l-3.3,4.95c-1.13,1.69-2.25,3.38-3.37,5.07l-.57.83c-.95,1.38-1.9,2.77-2.84,4.16-1.99,2.93-3.99,5.85-6.02,8.76l-.97,1.38-.98-.26Z"/>
      <path class="st0" d="M83.68,100.17c-.11.18-.22.37-.34.55-.14.23-.28.46-.42.68-1.21,1.94-2.44,3.86-3.65,5.79l-2.19,3.38-.51.79-1.81,2.79c-.82,1.25-1.64,2.5-2.46,3.74-.21.32-.42.63-.62.94h0c-.17.25-.33.51-.5.76-.21.31-.41.62-.62.93-1.64,2.46-3.29,4.92-4.93,7.39-.01.02-.03.04-.04.06-.17.25-.35.51-.52.76-2.95,4.31-5.87,8.64-8.86,12.92-.31.44-.62.89-.93,1.33-.26-.07-.53-.14-.79-.21.34-.53.69-1.05,1.03-1.58,2.87-4.42,5.82-8.78,8.74-13.17.14-.22.29-.43.43-.65.04-.06.08-.11.12-.17,1.6-2.33,3.18-4.66,4.77-6.99.21-.31.42-.62.64-.93.3-.43.6-.87.9-1.31.21-.31.43-.62.64-.94.77-1.12,1.54-2.24,2.32-3.35l2.01-2.86.54-.77,2.21-3.15c1.35-1.88,2.69-3.76,4.06-5.63.13-.18.26-.36.39-.54.13-.18.27-.37.41-.55Z"/>
      <path class="st0" d="M91.66,86.88c-3.66-2.88-7.25-5.87-10.33-8.45-2.21-1.85-4.38-3.72-6.56-5.6-1.19-1.03-2.38-2.05-3.57-3.07-1.14-1.01-2.28-2.02-3.42-3.03-2.19-1.93-4.38-3.87-6.54-5.83l-4.92-4.5c-.56-.53-1.11-1.05-1.67-1.57-1.07-1-2.13-1.99-3.18-3.02l.13-.14c1.14.89,2.27,1.8,3.39,2.72.6.49,1.21.98,1.81,1.47l5.13,4.27c2.24,1.88,4.46,3.79,6.68,5.71,1.15.99,2.3,1.98,3.45,2.97,1.18,1.05,2.35,2.09,3.53,3.13,2.15,1.9,4.31,3.8,6.43,5.74,2.99,2.71,6.45,5.87,9.78,9.08l-.13.14Z"/>
      <path class="st0" d="M91.72,86.8c-3.5-2.75-6.92-5.6-10.32-8.45-3.41-2.85-6.75-5.78-10.13-8.67-3.32-2.95-6.67-5.87-9.97-8.86l-4.92-4.5c-1.62-1.53-3.26-3.03-4.85-4.58,1.76,1.37,3.47,2.79,5.2,4.18l5.12,4.27c3.41,2.86,6.75,5.78,10.13,8.67,3.32,2.96,6.67,5.87,9.96,8.86,3.29,2.99,6.57,5.99,9.77,9.08Z"/>
      <path class="st0" d="M63.8,144.79c-.5-.07-1-.14-1.5-.22l-.24-.04s5.17-3.37,6.37-4.16c1.42-.89,2.83-1.79,4.24-2.68l2.41-1.53c1.5-.95,3-1.89,4.51-2.82l1.88-1.15c2.32-1.42,5.38-3.28,8.46-5.06,0,0,.72-.42.98-.57l.1.16-.96.68c-2.86,2.03-5.69,3.95-8.08,5.57l-1.83,1.23c-1.4.94-2.8,1.86-4.21,2.79l-3.08,2.01c-1.25.81-2.5,1.63-3.74,2.44-1.15.73-2.3,1.45-3.45,2.18l-1.84,1.16h-.03Z"/>
      <path class="st0" d="M90.97,126.65c-.21.15-.41.3-.62.45h0c-.11.08-.22.16-.33.23-2.67,1.9-5.37,3.74-8.08,5.57-.24.16-.47.32-.71.48-.37.25-.75.5-1.12.75-1.4.94-2.8,1.87-4.21,2.79-.3.19-.6.39-.89.58-1.98,1.29-3.96,2.57-5.93,3.87-1.75,1.1-3.5,2.22-5.25,3.33-.5-.07-1-.14-1.49-.22,2.05-1.34,4.11-2.68,6.16-4.02,1.92-1.21,3.83-2.42,5.74-3.63.3-.19.61-.39.91-.57,1.5-.95,3-1.89,4.51-2.82.38-.23.76-.47,1.14-.7.25-.15.49-.3.74-.45,2.8-1.71,5.62-3.41,8.46-5.06.07-.04.15-.08.22-.12.25-.15.5-.3.76-.44Z"/>
      <path class="st0" d="M91.63,86.83c-.35-1.21-.67-2.42-.98-3.63-.17-.63-.33-1.27-.5-1.9l-1.37-5.56c-.93-3.8-1.8-7.71-2.57-11.16-.78-3.65-1.6-7.42-2.32-11.22-.66-3.4-1.42-7.36-2.04-11.28l.19-.04c1.07,3.82,2.04,7.73,2.85,11.1.91,3.7,1.75,7.48,2.57,11.13.75,3.49,1.6,7.41,2.33,11.24l1.07,5.63c.11.65.22,1.3.34,1.95.22,1.23.43,2.47.62,3.71l-.19.04Z"/>
      <path class="st0" d="M81.94,42.06c1.04,3.68,1.95,7.39,2.85,11.1.91,3.71,1.74,7.43,2.57,11.16.8,3.73,1.6,7.46,2.32,11.21l1.07,5.63c.32,1.88.68,3.76.96,5.65-.53-1.84-.99-3.69-1.48-5.54l-1.37-5.56c-.91-3.71-1.74-7.43-2.57-11.16-.8-3.73-1.6-7.46-2.32-11.21-.73-3.74-1.44-7.5-2.04-11.27Z"/>
      <path class="st0" d="M104.73,54.94c-1.46,0-2.91-.04-4.37-.07-.77-.02-1.53-.03-2.3-.05l-6.66-.24c-2.94-.11-5.88-.27-8.82-.42-1.5-.08-3-.16-4.49-.23-1.57-.11-3.14-.21-4.71-.31-2.86-.18-5.73-.37-8.59-.59-4.01-.31-8.68-.69-13.28-1.19v-.19c4.67.03,9.34.2,13.34.36,2.88.11,5.75.26,8.63.41,1.56.08,3.12.16,4.68.24,1.51.1,3.02.2,4.52.3,2.93.19,5.85.38,8.77.6l6.64.54c.77.08,1.54.15,2.31.22,1.44.13,2.89.27,4.33.43v.19Z"/>
      <path class="st0" d="M51.53,51.74c4.45.03,8.89.19,13.33.36,4.44.17,8.87.44,13.31.65,4.43.3,8.87.56,13.29.9l6.64.54c2.21.22,4.43.4,6.64.65-2.22,0-4.44-.08-6.67-.12l-6.66-.24c-4.44-.17-8.87-.43-13.31-.65-4.43-.3-8.87-.55-13.29-.9-4.43-.34-8.86-.71-13.28-1.19Z"/>
      <path class="st0" d="M42.41,72.76c2.08-.27,4.16-.51,6.24-.76,1.11-.13,2.22-.26,3.33-.39l9.58-1.04c4.19-.44,8.38-.85,12.57-1.25,2.2-.21,4.4-.42,6.6-.64,2.29-.19,4.57-.39,6.86-.6,4.11-.36,8.22-.72,12.33-1.04,5.79-.46,12.53-.97,19.22-1.35l.02.19c-6.67.85-13.38,1.57-19.14,2.18-4.1.44-8.21.83-12.31,1.23-2.29.22-4.57.44-6.86.67-2.16.18-4.32.37-6.48.57-4.24.37-8.47.75-12.71,1.08l-9.6.73c-1.1.07-2.19.14-3.29.22-2.11.14-4.22.29-6.33.4l-.02-.19Z"/>
      <path class="st0" d="M119.13,65.79c-6.37.81-12.75,1.51-19.14,2.18-6.38.68-12.78,1.26-19.17,1.89-6.4.55-12.79,1.14-19.19,1.64l-9.6.73c-3.2.2-6.4.45-9.61.62,3.19-.42,6.38-.76,9.56-1.15l9.57-1.04c6.38-.68,12.78-1.26,19.17-1.89,6.4-.54,12.79-1.14,19.19-1.64,6.4-.5,12.8-.99,19.21-1.35Z"/>
      <path class="st0" d="M90.9,126.72c-4.4-4.53-8.74-9.17-12.45-13.17-2.66-2.86-5.3-5.76-7.93-8.65-1.43-1.57-2.86-3.15-4.3-4.72-1.35-1.51-2.69-3.02-4.04-4.53-2.68-2.99-5.35-5.99-8-9.01l-5.96-6.83c-.69-.81-1.38-1.61-2.07-2.42-1.27-1.49-2.55-2.98-3.8-4.49l.14-.13c1.39,1.42,2.76,2.86,4.12,4.29.72.75,1.43,1.5,2.15,2.25l6.18,6.62c2.7,2.91,5.37,5.84,8.04,8.78,1.39,1.53,2.79,3.06,4.19,4.59,1.42,1.6,2.85,3.2,4.28,4.8,2.6,2.9,5.19,5.81,7.76,8.74,3.61,4.12,7.8,8.92,11.83,13.73l-.14.13Z"/>
      <path class="st0" d="M90.97,126.65c-4.21-4.33-8.34-8.74-12.45-13.17-4.11-4.42-8.15-8.91-12.23-13.36-4.01-4.51-8.06-8.99-12.04-13.53l-5.96-6.83c-1.96-2.3-3.94-4.58-5.87-6.9,2.11,2.16,4.18,4.36,6.27,6.54l6.18,6.62c4.11,4.43,8.15,8.91,12.23,13.36,4.01,4.51,8.06,8.99,12.04,13.53,3.98,4.54,7.95,9.1,11.83,13.73Z"/>
      <path class="st0" d="M82.09,134.88l-13.47-20.52-13.26-20.65c-3.55-5.6-7.68-12.12-11.7-18.67-.31-.51-1.31-2.14-1.31-2.14l.16-.1,1.28,1.86c4.25,6.21,8.49,12.56,12.44,18.49l13.47,20.51,13.26,20.65,6,9.49-.79.17-6.07-9.1Z"/>
      <path class="st0" d="M88.8,143.75c-.2.04-.4.09-.6.13l-6.04-9.04-.95-1.45-.43-.65-7.41-11.29h0s-.93-1.41-.93-1.41h0s-.78-1.18-.78-1.18h0s-.57-.87-.57-.87l-2.4-3.66-4.57-7.11-.6-.94-1.33-2.07-.52-.81-2.01-3.13-.42-.65-3.82-5.94c-3.93-6.2-7.85-12.41-11.7-18.67-.31-.51-.63-1.02-.94-1.53-.13-.2-.25-.41-.38-.61.14.2.27.4.41.6.29.42.58.84.87,1.27h0c4.2,6.13,8.33,12.31,12.44,18.49l3.76,5.73.44.67,2.17,3.3.54.82,1.46,2.22.62.94,4.49,6.84,2.13,3.32.56.86,1.7,2.64.88,1.37h0s6.65,10.36,6.65,10.36l.4.63.94,1.47,5.93,9.38Z"/>
    </g>
    <path class="st0" d="M52.29,52.44c4.51-4.08,10.25-9.28,14.76-13.37.4-.36-3.33-.42-3.68-.1-4.51,4.08-8.35,7.56-12.86,11.65-.4.36,1.43,2.14,1.78,1.82h0Z"/>
    <path class="st0" d="M64.71,40.22c5.62.84,11.24,1.68,16.85,2.52.92.14,2.94-2.14,1.56-2.35-5.62-.84-11.24-1.68-16.85-2.52-.92-.14-2.94,2.14-1.56,2.35h0Z"/>
    <path class="st0" d="M73.61,0C32.96,0,0,32.96,0,73.61c0,30.78,18.89,57.14,45.7,68.14.68.28,1.36.55,2.05.8,1.85.7,3.74,1.32,5.66,1.87.24.07.48.14.72.2,1.94.53,3.91.98,5.91,1.36.46.09.91.17,1.37.24,3.97.66,8.05,1.01,12.2,1.01s7.83-.31,11.61-.91h0c.31-.05.63-.1.94-.15,1.06-.18,2.11-.39,3.16-.61.18-.04.35-.08.53-.12,1.06-.24,2.11-.5,3.14-.78.69-.19,1.37-.38,2.05-.59,30.2-9.17,52.18-37.24,52.18-70.44,0-40.66-32.96-73.61-73.61-73.61ZM94.51,141.51c-.67.21-1.35.4-2.03.59-1.26.35-2.55.66-3.84.94-.2.04-.39.09-.59.13-1.24.26-2.49.48-3.75.67-.36.05-.71.11-1.07.15-3.15.43-6.36.65-9.62.65s-6.53-.23-9.7-.66c-.49-.07-.99-.14-1.48-.22-2.37-.38-4.69-.87-6.97-1.47-.26-.07-.52-.14-.78-.21-2.26-.62-4.47-1.36-6.64-2.2-.68-.26-1.36-.54-2.03-.82C20.51,128.27,2.58,102.99,2.58,73.61c0-19.58,7.97-37.34,20.83-50.2.2-.2.4-.4.61-.6.61-.6,1.23-1.18,1.86-1.75,1.26-1.15,2.56-2.25,3.91-3.31.63-.5,1.27-.98,1.91-1.45.3-.22.59-.43.89-.65,2.1-1.49,4.28-2.87,6.53-4.12.47-.26.94-.52,1.42-.77h0c.31-.16.62-.32.93-.48.62-.32,1.25-.62,1.89-.93.32-.15.63-.3.95-.44.64-.29,1.28-.57,1.93-.84.73-.31,1.47-.6,2.21-.88.25-.09.49-.18.74-.28.33-.12.67-.24,1-.36.67-.23,1.34-.46,2.01-.67.68-.22,1.36-.42,2.04-.61,1.03-.29,2.06-.56,3.11-.81.7-.16,1.4-.32,2.1-.46.35-.07.71-.14,1.06-.21.53-.1,1.06-.19,1.6-.28.7-.12,1.41-.22,2.12-.31.36-.05.71-.09,1.07-.13.36-.04.71-.08,1.07-.12.3-.03.6-.06.9-.09.26-.02.52-.04.79-.07.23-.02.46-.04.69-.05.5-.03,1.01-.06,1.51-.09.51-.02,1.01-.04,1.52-.06.61-.02,1.22-.02,1.84-.02s1.23,0,1.84.02c.51.01,1.02.03,1.52.06.51.02,1.01.05,1.51.09.23.02.46.03.69.05.26.02.52.04.79.07.3.03.6.06.9.09.36.04.71.08,1.07.12.36.04.71.09,1.07.13.71.1,1.42.2,2.12.31.53.09,1.07.18,1.6.28.36.07.71.14,1.06.21.7.14,1.4.3,2.1.46,1.04.25,2.08.52,3.11.81.68.19,1.36.4,2.04.61.68.21,1.35.44,2.01.67.33.12.67.24,1,.36.25.09.5.18.74.28.74.28,1.47.57,2.21.88.65.27,1.29.55,1.93.84.32.15.64.29.95.44.63.3,1.26.61,1.89.93.31.16.62.32.93.48.71.38,1.42.77,2.12,1.17.7.4,1.39.81,2.07,1.23.46.28.91.57,1.36.86.45.29.89.59,1.33.89s.88.61,1.31.92c.43.31.87.63,1.29.95s.85.65,1.27.98c1.34,1.06,2.65,2.16,3.91,3.31.63.57,1.25,1.16,1.86,1.75.2.2.41.4.61.6,12.86,12.86,20.83,30.62,20.83,50.2,0,31.9-21.14,58.95-50.14,67.9Z"/>
    <g>
      <path class="st0" d="M89.7,126.96c-.04-.25.04-.49.23-.7.05-.05.08-.08.11-.1.09-.08.21-.16.33-.22.32-.15.64-.22.92-.22.46,0,.78.18.9.5l.03.1s.01.07.01.1c.91,5.22,1.81,10.48,2.72,15.74l.04.21-.2.06c-.68.21-1.36.41-2.05.6l-.25.07-2.78-16.13Z"/>
      <path class="st0" d="M122.49,80.79c.17-.35.16-1.04.08-1.3l-1.16-4.08c-.05-.18-.07-.32-.09-.41,0-.02,0-.04,0-.06l1.2-.74c.17-.11.64-.39.5-.8l-2.63-7.96c-.06-.17-.24-.44-.82-.44-.54,0-1.3.25-1.59.65-.11.16-.15.33-.09.5l2.5,7.55s-1.22.75-1.22.75c-.18.11-.62.38-.5.79l.66,2.29.66,2.25-2.48,3.12c-.2.26-.46,1.18-.48,1.29-.07.36-.3,1.39-.07,1.39,1.03-.14,1.78-.12,2.1-.5l3.45-4.29Z"/>
      <path class="st0" d="M47.69,140.78c-.69-.27-1.38-.54-2.06-.83l-.15-.06.31-27.19c.04-3.98-.67-8.57-1.35-13.02-.34-2.19-.66-4.27-.9-6.28l-2.38-20.19c-.03-.28.04-.5.21-.68.35-.39.99-.57,1.43-.57.51,0,.84.22.88.59h-.01s.01,0,.01,0l2.51,21.31c.23,1.93.55,3.96.86,5.92.59,3.76,1.21,7.65,1.28,11.39v.83s0,1.1,0,1.1l-.24.13h.24s-.32,27.66-.32,27.66l-.32-.12Z"/>
      <path class="st0" d="M42.19,73.81c-.44,0-.78-.14-.95-.4-.1-.15-.18-.4-.02-.76l9.1-21.11c.22-.51.89-.75,1.43-.75.44,0,.78.15.95.4.1.15.18.4.02.76l-9.1,21.11c-.22.51-.89.75-1.43.75h0Z"/>
      <path class="st0" d="M90.37,127.34c-.47,0-.62-.19-.66-.35l-7.29-26.48c-.03-.13,0-.26.09-.38.27-.36,1.19-.64,1.76-.64.47,0,.62.19.66.35l7.29,26.48c.03.13,0,.26-.09.38-.27.36-1.19.64-1.76.64h0Z"/>
      <path class="st0" d="M83.3,100.96c-.42,0-.71-.12-.84-.34-.07-.12-.12-.33.05-.61l8.04-13.36c.25-.41,1.41-.54,1.98-.54.42,0,.71.12.84.34.07.12.12.33-.05.61l-8.2,13.62c-.25.41-1.25.29-1.82.29h0Z"/>
      <path class="st0" d="M90.53,88.8c-.63,0-.09-1.55-.05-1.69.17-.55.61-1,1.3-1.08l25.7-3.14c.1-.01.07.35.07.42,0,.44,0,.86-.02,1.11,0,.11-.04.49-.13,1.08l-26.85,3.29h-.03Z"/>
      <path class="st0" d="M50.94,52.44c-.5,0-.64-.2-.68-.37l-8.51-40.55c-.02-.1-.02-.24.11-.4.31-.38,1.22-.62,1.73-.62s.64.2.68.37l8.51,40.55c.02.1.02.24-.11.4-.31.38-1.22.62-1.73.62h0Z"/>
      <path class="st0" d="M64.85,40.52c-.39,0-.7-.13-.89-.38l-22.07-28.35c-.2-.25-.24-.55-.1-.82.23-.48.93-.76,1.46-.76.39,0,.7.14.89.38l22.07,28.35c.2.26.24.54.1.82-.23.48-.93.76-1.47.76h0Z"/>
      <path class="st0" d="M64.91,40.38c-.53,0-.94-.2-1.05-.51-.07-.2-.05-.51.42-.87l35.64-27.7c.24-.19.59-.29.97-.29.53,0,.94.2,1.05.51.07.2.05.51-.42.87l-35.64,27.7c-.24.19-.59.29-.97.29h0Z"/>
      <path class="st0" d="M81.86,42.81c-.46,0-.92-.13-1.06-.38-.08-.14-.24-.27-.04-.59l18.79-30.22c.27-.44.97-.64,1.5-.64.46,0,.79.14.93.39.08.14.13.37-.07.68l-18.79,30.22c-.27.44-.97.64-1.5.64l.24-.1Z"/>
      <path class="st0" d="M105.4,56.03c-.41,0-.84-.11-1.17-.31-5.18-3.08-23.28-13.03-23.46-13.13-.14-.21-.14-.27-.13-.43.04-.55.69-1.11,1.28-1.11.15,0,.29.03.42.1,5.21,2.69,17.81,9.78,23.42,13.11.63.43.88.84.76,1.21-.11.35-.54.56-1.12.56h0Z"/>
      <path class="st0" d="M118.45,66.41c-.19,0-.34-.04-.45-.13l-14.52-11.02.03-.23c.13-.38,1.27-.85,1.88-.85.19,0,.34.04.45.13l14.52,11.02-.03.23c-.13.38-1.27.85-1.88.85h0Z"/>
    </g>
  </g>
  <path class="st0" d="M11.13,202.29c-3.01-.08-5.62-1.15-7.77-3.19-2.23-2.12-3.37-4.87-3.37-8.18v-37.96c0-.32.26-.59.59-.59h1.4c.32,0,.59.26.59.59v37.96c0,2.6.87,4.79,2.6,6.49,1.65,1.63,3.66,2.49,5.99,2.56.32,0,.57.27.57.59v1.14c0,.32-.26.59-.59.59h-.02Z"/>
  <path class="st0" d="M27.77,202.29c-3.01-.08-5.62-1.15-7.77-3.19-2.23-2.12-3.37-4.87-3.37-8.18v-37.96c0-.32.26-.59.59-.59h1.4c.33,0,.59.26.59.59v37.96c0,2.6.87,4.79,2.6,6.49,1.65,1.63,3.66,2.49,5.98,2.56.32,0,.58.27.58.59v1.14c0,.32-.26.59-.59.59h-.02Z"/>
  <path class="st0" d="M44.29,202.29c-4.35,0-8.13-1.56-11.23-4.65-3.11-3.08-4.68-6.83-4.68-11.14s1.58-8.05,4.68-11.14c3.11-3.08,6.89-4.65,11.23-4.65,2.84,0,5.59.76,8.19,2.27,2.11,1.23,3.72,2.8,4.8,4.67.02.04.06.06.1.06s.12-.02.12-.12v-6.29c0-.32.26-.59.59-.59h1.4c.33,0,.59.26.59.59v30.39c0,.32-.26.59-.59.59h-1.4c-.33,0-.59-.26-.59-.59v-6.37c0-.09-.08-.12-.12-.12s-.08.02-.1.06c-1.21,1.97-2.88,3.59-4.96,4.81-2.49,1.46-5.19,2.21-8.03,2.21ZM44.35,173.3c-3.61,0-6.78,1.1-9.42,3.79-2.64,2.69-3.98,5.88-3.98,9.49s1.34,6.78,3.98,9.42,5.82,3.98,9.45,3.98,6.78-1.34,9.35-3.98c2.58-2.64,3.76-5.82,3.76-9.46s-1.19-6.82-3.79-9.49c-2.6-2.66-5.75-3.75-9.35-3.75Z"/>
  <path class="st0" d="M106.66,202.3c-.32,0-.59-.26-.59-.59v-20.05c0-2.47-.82-4.26-2.44-5.9-1.62-1.64-3.59-2.47-5.86-2.47s-4.33.87-6.1,2.57c-1.77,1.7-2.66,3.41-2.66,5.66v20.19c0,.32-.26.59-.59.59h-1.4c-.32,0-.59-.26-.59-.59v-20.19c0-2.3-.82-4.02-2.44-5.7-1.62-1.68-3.6-2.53-5.89-2.53s-4.32.86-6.03,2.57-2.57,3.41-2.57,5.66v20.19c0,.32-.26.59-.59.59h-1.4c-.32,0-.59-.26-.59-.59v-30.41c0-.32.26-.59.59-.59h1.4c.32,0,.59.26.59.59v3.44c0,.09.07.12.12.12.04,0,.07-.01.09-.04.85-.99,1.98-1.89,3.36-2.66,1.76-.98,3.62-1.48,5.52-1.48s3.76.67,5.51,1.99c1.5,1.14,2.67,2.59,3.48,4.31.03.07.09.07.11.07h0s.08,0,.1-.07c.72-1.76,1.93-3.23,3.57-4.35,1.9-1.29,4.24-1.95,6.95-1.95s5.15,1,7.21,2.96c2.06,1.97,3.1,4.67,3.1,8.01v20.05c0,.32-.26.59-.59.59h-1.4Z"/>
  <path class="st0" d="M131.44,202.29c-4.35,0-8.13-1.56-11.23-4.65-3.11-3.08-4.68-6.83-4.68-11.14s1.57-8.05,4.68-11.14c3.11-3.08,6.88-4.65,11.23-4.65,2.84,0,5.59.76,8.19,2.27,2.11,1.23,3.72,2.8,4.8,4.67.02.04.06.06.1.06s.12-.02.12-.12v-6.3c0-.32.26-.59.59-.59h1.4c.32,0,.59.26.59.59v30.4c0,.32-.26.59-.59.59h-1.4c-.32,0-.59-.26-.59-.59v-6.37c0-.09-.08-.12-.12-.12s-.08.02-.1.06c-1.21,1.97-2.88,3.59-4.96,4.81-2.49,1.46-5.18,2.21-8.02,2.21ZM131.51,173.3c-3.61,0-6.78,1.11-9.42,3.79-2.64,2.69-3.98,5.88-3.98,9.49s1.34,6.78,3.98,9.42c2.64,2.64,5.82,3.98,9.45,3.98s6.77-1.34,9.35-3.98c2.58-2.64,3.76-5.82,3.76-9.46s-1.19-6.82-3.79-9.49c-2.6-2.66-5.75-3.76-9.35-3.76Z"/>
  <path class="st0" d="M120.1,262.92c-7.02,0-13.18-2.68-18.31-7.98-5.13-5.29-7.74-11.56-7.74-18.64s2.64-13.3,7.84-18.48c5.2-5.18,11.53-7.8,18.81-7.8s13.59,2.61,18.75,7.77c5.16,5.16,7.77,11.38,7.77,18.51s-2.59,13.41-7.7,18.68c-5.11,5.27-11.31,7.94-18.41,7.94h-1.01ZM120.67,212.59c-6.61,0-12.34,2.04-17.04,6.77-4.7,4.73-7.01,10.47-7.01,17.07s2.31,12.36,7.01,17.11c4.7,4.75,10.42,6.8,17,6.8s12.3-2.05,17-6.8c4.7-4.75,7.01-10.5,7.01-17.11s-2.29-12.35-6.97-17.07c-4.68-4.72-10.4-6.77-17-6.77Z"/>
  <path class="st0" d="M59.89,262.92c-7.02,0-13.18-2.68-18.31-7.98-5.13-5.29-7.74-11.56-7.74-18.64s2.64-13.3,7.84-18.48c5.2-5.18,11.53-7.8,18.81-7.8s13.59,2.61,18.75,7.77,7.77,11.38,7.77,18.51-2.59,13.41-7.7,18.68c-5.11,5.27-11.31,7.94-18.41,7.94h-1.02ZM60.47,212.59c-6.6,0-12.34,2.04-17.04,6.77-4.7,4.73-7.01,10.47-7.01,17.07s2.31,12.36,7.01,17.11c4.7,4.75,10.42,6.8,17,6.8s12.3-2.05,17-6.8c4.7-4.75,7.01-10.5,7.01-17.11s-2.29-12.35-6.97-17.07c-4.68-4.72-10.4-6.77-17-6.77Z"/>
</svg>