<?xml version="1.0" encoding="UTF-8"?>
<svg id="Layer_1" xmlns="http://www.w3.org/2000/svg" version="1.1" xmlns:cc="http://creativecommons.org/ns#" xmlns:dc="http://purl.org/dc/elements/1.1/" xmlns:rdf="http://www.w3.org/1999/02/22-rdf-syntax-ns#" viewBox="0 0 124.27 45.26">
  <!-- Generator: Adobe Illustrator 29.7.1, SVG Export Plug-In . SVG Version: 2.1.1 Build 8)  -->
  <defs>
    <style>
      .st0 {
        fill: #fff;
      }
    </style>
  </defs>
  <path class="st0" d="M69.4,13.7h-4.34v10.04c0,2.58-1.06,4.64-4.17,4.64-3.08.03-3.97-2.09-3.97-4.77v-9.9h-4.34v11c0,3.18,1.13,7.72,7.09,7.75,3.28.03,4.9-1.56,5.66-2.98v2.42h4.07V13.7"/>
  <path class="st0" d="M71.12,31.88h4.34v-10.03c0-2.55,1.06-4.6,4.14-4.64,3.05,0,3.94,2.09,3.94,4.8v9.87h4.34v-10.96c0-3.21-1.13-7.75-7.05-7.78-3.25-.03-4.87,1.56-5.66,2.98.03-.86.03-1.62.03-2.42h-4.07v18.18"/>
  <path class="st0" d="M89.54,31.88h4.34V13.7h-4.34v18.18ZM89.54,11.25h4.34v-3.88h-4.34v3.88"/>
  <path class="st0" d="M98.42,31.88h4.34v-14.84h3.11l-1.29-3.35h-1.83v-6.33h-4.34v6.33h-3.01v3.34h3.01v14.84"/>
  <path class="st0" d="M110.06,38.24h4.64l9.57-24.54h-4.64l-4.37,12.09-4.44-12.09h-4.64l6.86,17.49-2.98,7.06"/>
  <path class="st0" d="M28.79,22.63l7.92-13.68,3.83,13.68-3.83,13.67-7.92-13.67ZM24.93,24.85l7.92,13.67-13.79-3.53-9.97-10.14h15.84ZM32.85,6.73l-7.92,13.68h-15.84l9.97-10.14,13.79-3.53h0ZM44.15,17.97L39.32,0l-18.03,4.82-2.67,4.69-5.42-.04L0,22.63l13.2,13.16h0l5.41-.04,2.67,4.69,18.03,4.82,4.83-17.97-2.74-4.65,2.74-4.65"/>
</svg>