<?xml version="1.0" encoding="UTF-8"?>
<svg id="Layer_1" xmlns="http://www.w3.org/2000/svg" version="1.1" viewBox="0 0 1000 239.25">
  <!-- Generator: Adobe Illustrator 29.7.1, SVG Export Plug-In . SVG Version: 2.1.1 Build 8)  -->
  <defs>
    <style>
      .st0 {
        fill: #fff;
      }
    </style>
  </defs>
  <path class="st0" d="M472.78,146.13l-12.89,35.82c0,1.44-1.43,1.44-1.43,1.44h-20.06q-1.43,0-1.43-1.44c11.46-30.08,28.65-81.66,41.55-116.05,0-1.43,1.43-4.29,1.43-11.46q0-1.43,1.43-1.43h27.22c1.43-1.43,1.43,0,1.43,0,14.32,41.55,31.52,85.96,45.84,127.51q0,1.43-1.43,1.43h-22.93q-1.43,0-1.43-1.43l-12.9-35.82h-44.41v1.43ZM512.89,126.07c-4.3-12.89-14.33-40.11-17.19-54.44-2.87,12.89-11.46,35.82-17.19,54.44h34.38ZM568.77,134.67c0-28.65,21.49-51.58,55.86-51.58,4.31,0,8.6,0,11.47,1.43v-42.98q0-1.43,1.43-1.43h21.49q1.43,0,1.43,1.43v130.37q0,1.44-1.43,1.44c-12.9,5.72-27.23,10.03-40.11,10.03-30.09,1.43-50.14-14.32-50.14-48.71h0ZM634.67,104.58c-2.87-1.43-7.16-1.43-11.46-1.43-18.62,0-30.08,11.47-30.08,31.52,0,22.92,12.89,31.52,28.65,31.52,4.29,0,10.02-1.44,14.33-1.44v-60.17h-1.44ZM780.8,133.24c0,31.51-20.06,51.57-48.72,51.57-34.38,0-48.7-25.79-48.7-50.14,0-30.09,20.05-50.14,50.14-50.14,30.08-1.43,47.28,21.49,47.28,48.72h0ZM707.74,133.24c0,20.05,8.59,32.95,24.34,32.95,12.9,0,22.93-8.6,22.93-32.95,0-18.63-7.16-32.96-24.36-32.96-12.9,1.43-22.92,12.89-22.92,32.96ZM823.78,41.55q1.43,0,1.43,1.43v45.84c7.16-2.86,14.33-4.29,21.49-4.29,27.23,0,44.42,20.06,44.42,45.85,0,34.38-27.23,55.87-58.75,55.87-10.02,0-20.05-1.43-30.08-4.29-1.43,0-1.43-1.43-1.43-1.43V42.98q0-1.43,1.43-1.43h21.49ZM842.41,103.15c-5.72,0-11.46,1.43-15.75,2.87v58.73c2.87,1.44,7.16,1.44,11.46,1.44,14.33,0,31.52-11.46,31.52-34.39-1.44-18.62-12.9-28.65-27.22-28.65ZM936.97,138.96c0,15.77,10.02,25.79,30.08,25.79,7.16,0,15.75-1.43,24.36-4.29,0,0,1.43,0,1.43,1.44v15.75q0,1.43-1.43,2.87c-7.16,4.29-17.2,5.72-30.09,5.72-35.82,0-50.15-24.34-50.15-50.15,0-28.65,17.2-51.57,47.29-51.57s41.54,22.92,41.54,41.55c0,8.6-1.43,12.89-1.43,12.89h-61.6ZM968.48,123.2c7.16,0,8.6-1.43,8.6-1.43v-2.87c0-5.73-4.29-18.62-20.06-18.62-12.89,0-20.05,10.02-21.49,22.92h32.95Z"/>
  <path class="st0" d="M170.49,0l100.29,239.25V0h-100.29ZM0,0v239.25L100.29,0H0ZM91.69,190.55h45.85l20.06,48.7h41.55l-64.47-151.86-42.98,103.16Z"/>
</svg>