<?xml version="1.0" encoding="UTF-8"?>
<svg xmlns="http://www.w3.org/2000/svg" version="1.1" xmlns:cc="http://creativecommons.org/ns#" xmlns:dc="http://purl.org/dc/elements/1.1/" xmlns:inkscape="http://www.inkscape.org/namespaces/inkscape" xmlns:rdf="http://www.w3.org/1999/02/22-rdf-syntax-ns#" xmlns:sodipodi="http://sodipodi.sourceforge.net/DTD/sodipodi-0.dtd" xmlns:svg="http://www.w3.org/2000/svg" viewBox="0 0 229.01 82.65">
  <!-- Generator: Adobe Illustrator 29.7.1, SVG Export Plug-In . SVG Version: 2.1.1 Build 8)  -->
  <defs>
    <style>
      .st0, .st1 {
        fill: #fff;
      }

      .st1 {
        isolation: isolate;
        opacity: .6;
      }
    </style>
  </defs>
  <g id="svg8" inkscape:version="0.92.3 (2405546, 2018-03-11)">
    <sodipodi:namedview id="base" bordercolor="#666666" borderopacity="1.0" fit-margin-bottom="0.5" fit-margin-left="0.5" fit-margin-right="0.5" fit-margin-top="0.5" inkscape:current-layer="layer1" inkscape:cx="20.37634" inkscape:cy="-9.8246854" inkscape:document-units="px" inkscape:pageopacity="0" inkscape:pageshadow="2" inkscape:window-height="1001" inkscape:window-maximized="1" inkscape:window-width="1920" inkscape:window-x="-9" inkscape:window-y="-9" inkscape:zoom="3.959798" pagecolor="#00ffff" showgrid="false" units="px"/>
    <g id="layer1-7" inkscape:label="Layer 1">
      <g id="g1072">
        <g id="g3049">
          <g id="text3111">
            <g id="g3366">
              <path id="path3368" class="st0" d="M15.45,77.43l-4.11-15.14h-.05l-4.16,15.14h-2.5L0,59.41h2.45l3.53,14.99h.05l4.04-14.99h2.6l3.99,14.99h.05l3.66-14.99h2.4l-4.82,18.02h-2.5Z" inkscape:connector-curvature="0"/>
              <path id="path3370" class="st0" d="M32.48,76.59c-.98.74-2.21,1.11-3.69,1.11-1.04,0-1.95-.17-2.71-.5-.77-.34-1.41-.81-1.93-1.41-.52-.61-.91-1.33-1.17-2.17-.26-.84-.41-1.76-.44-2.75,0-.99.15-1.9.45-2.73.3-.82.73-1.54,1.27-2.15.55-.61,1.19-1.08,1.94-1.41.75-.34,1.57-.5,2.46-.5,1.16,0,2.12.24,2.89.72.77.48,1.38,1.09,1.84,1.83.46.74.78,1.55.96,2.42.18.88.25,1.71.21,2.5h-9.77c-.02.57.05,1.11.2,1.63s.39.97.73,1.36c.34.4.77.71,1.29.95s1.14.35,1.84.35c.91,0,1.65-.21,2.23-.63.58-.42.96-1.06,1.15-1.92h2.12c-.29,1.46-.92,2.57-1.89,3.31h0ZM31.97,68.22c-.19-.45-.45-.85-.78-1.17s-.72-.59-1.16-.78c-.45-.19-.94-.29-1.48-.29s-1.06.1-1.5.29c-.45.19-.83.46-1.15.8-.32.34-.57.73-.76,1.17-.19.45-.29.92-.33,1.43h7.5c-.03-.5-.15-.98-.34-1.44h0Z" inkscape:connector-curvature="0"/>
              <path id="path3372" class="st0" d="M51.62,66.65c-.54-.45-1.26-.68-2.17-.68-.77,0-1.42.14-1.94.43-.52.29-.94.66-1.25,1.14-.31.47-.53,1.01-.67,1.63-.13.61-.2,1.25-.2,1.91,0,.61.07,1.19.21,1.77.14.57.37,1.08.67,1.53.3.45.7.8,1.19,1.07.49.27,1.07.4,1.74.4,1.06,0,1.89-.28,2.49-.83.6-.56.96-1.34,1.1-2.35h2.2c-.24,1.62-.84,2.86-1.8,3.74-.97.88-2.28,1.31-3.95,1.31-.99,0-1.87-.16-2.64-.48-.77-.32-1.41-.77-1.92-1.36s-.9-1.29-1.16-2.11c-.26-.82-.39-1.71-.39-2.69s.13-1.89.38-2.74c.25-.85.64-1.59,1.15-2.22s1.16-1.13,1.93-1.49c.77-.36,1.67-.54,2.7-.54.74,0,1.43.09,2.08.27s1.22.45,1.72.82c.5.37.9.84,1.22,1.4s.52,1.23.61,2.01h-2.22c-.17-.82-.52-1.46-1.06-1.92h0Z" inkscape:connector-curvature="0"/>
              <path id="path3374" class="st0" d="M59.32,64.38v2.75h.05c.52-1.06,1.16-1.84,1.92-2.35s1.72-.74,2.88-.71v2.27c-.86,0-1.59.12-2.2.35-.61.24-1.09.58-1.46,1.03-.37.45-.64,1.01-.81,1.65-.17.65-.25,1.39-.25,2.23v5.81h-2.15v-13.05h2.02Z" inkscape:connector-curvature="0"/>
              <path id="path3376" class="st0" d="M74.56,76.59c-.98.74-2.21,1.11-3.69,1.11-1.04,0-1.95-.17-2.71-.5-.77-.34-1.41-.81-1.93-1.41-.52-.61-.91-1.33-1.17-2.17s-.41-1.76-.44-2.75c0-.99.15-1.9.45-2.73.3-.82.73-1.54,1.27-2.15.55-.61,1.19-1.08,1.94-1.41.75-.34,1.57-.5,2.46-.5,1.16,0,2.12.24,2.89.72s1.38,1.09,1.84,1.83c.46.74.78,1.55.96,2.42.18.88.25,1.71.21,2.5h-9.77c-.02.57.05,1.11.2,1.63.15.51.39.97.73,1.36.34.4.77.71,1.29.95.52.24,1.14.35,1.84.35.91,0,1.65-.21,2.23-.63.58-.42.96-1.06,1.15-1.92h2.12c-.29,1.46-.92,2.57-1.89,3.31h0ZM74.04,68.22c-.19-.45-.45-.85-.78-1.17-.33-.33-.72-.59-1.16-.78-.45-.19-.94-.29-1.48-.29s-1.06.1-1.5.29c-.45.19-.83.46-1.15.8-.32.34-.57.73-.76,1.17-.19.45-.29.92-.33,1.43h7.5c-.03-.5-.15-.98-.34-1.44h0Z" inkscape:connector-curvature="0"/>
              <path id="path3378" class="st0" d="M90.44,77.38c-.37.22-.88.33-1.54.33-.56,0-1-.16-1.33-.47-.33-.31-.49-.82-.49-1.53-.59.71-1.27,1.22-2.06,1.53s-1.63.47-2.54.47c-.59,0-1.15-.07-1.68-.2-.53-.13-.99-.35-1.38-.63-.39-.29-.69-.66-.92-1.12-.23-.46-.34-1.02-.34-1.68,0-.74.13-1.35.38-1.82s.58-.85,1-1.15c.41-.29.88-.52,1.41-.67.53-.15,1.07-.28,1.63-.38.59-.12,1.15-.21,1.68-.27.53-.06,1-.14,1.4-.25s.72-.27.96-.48c.24-.21.35-.52.35-.92,0-.47-.09-.85-.27-1.14-.18-.29-.4-.5-.68-.66s-.59-.25-.93-.3-.69-.08-1.02-.08c-.91,0-1.67.17-2.27.52-.61.35-.93,1-.98,1.96h-2.15c.03-.81.2-1.49.5-2.04s.71-1.01,1.21-1.35c.5-.34,1.08-.59,1.73-.74.65-.15,1.34-.23,2.08-.23.59,0,1.17.04,1.75.13.58.08,1.11.26,1.58.52.47.26.85.63,1.14,1.1s.43,1.08.43,1.84v6.7c0,.5.03.87.09,1.11.06.23.26.35.59.35.19,0,.4-.03.66-.1v1.67ZM86.95,70.69c-.27.2-.62.35-1.06.44-.44.09-.9.17-1.38.23-.48.06-.96.13-1.45.2-.49.07-.93.2-1.31.36-.39.17-.7.41-.95.72-.24.31-.37.73-.37,1.27,0,.35.07.65.21.89.14.24.33.44.56.59.23.15.49.26.8.33s.62.1.96.1c.71,0,1.31-.1,1.82-.29.5-.19.92-.44,1.24-.73s.56-.61.71-.95c.15-.34.23-.67.23-.97v-2.18h0Z" inkscape:connector-curvature="0"/>
              <path id="path3380" class="st0" d="M98.01,64.38v1.89h-2.6v8.1c0,.25.02.45.06.61.04.15.12.27.24.35s.28.14.49.16.48.04.82.04h.98v1.89h-1.64c-.56,0-1.03-.04-1.43-.11s-.72-.21-.96-.42c-.24-.2-.42-.49-.54-.86-.12-.37-.18-.86-.18-1.46v-8.3h-2.22v-1.89h2.22v-3.91h2.15v3.91h2.6Z" inkscape:connector-curvature="0"/>
              <path id="path3382" class="st0" d="M109.62,76.59c-.98.74-2.21,1.11-3.69,1.11-1.04,0-1.95-.17-2.71-.5-.77-.34-1.41-.81-1.93-1.41-.52-.61-.91-1.33-1.17-2.17-.26-.84-.41-1.76-.44-2.75,0-.99.15-1.9.45-2.73.3-.82.73-1.54,1.27-2.15.55-.61,1.19-1.08,1.94-1.41.75-.34,1.57-.5,2.46-.5,1.16,0,2.12.24,2.89.72s1.38,1.09,1.84,1.83c.46.74.78,1.55.96,2.42.18.88.25,1.71.22,2.5h-9.77c-.02.57.05,1.11.2,1.63s.39.97.73,1.36c.34.4.77.71,1.29.95s1.14.35,1.84.35c.91,0,1.65-.21,2.23-.63.58-.42.96-1.06,1.15-1.92h2.12c-.29,1.46-.92,2.57-1.89,3.31h0ZM109.1,68.22c-.19-.45-.45-.85-.78-1.17-.33-.33-.72-.59-1.16-.78-.45-.19-.94-.29-1.48-.29s-1.06.1-1.5.29c-.45.19-.83.46-1.15.8-.32.34-.57.73-.76,1.17-.19.45-.29.92-.33,1.43h7.5c-.04-.5-.15-.98-.34-1.44h0Z" inkscape:connector-curvature="0"/>
              <path id="path3384" class="st0" d="M128.75,66.65c-.54-.45-1.26-.68-2.17-.68-.77,0-1.42.14-1.94.43-.52.29-.94.66-1.25,1.14-.31.47-.53,1.01-.67,1.63-.13.61-.2,1.25-.2,1.91,0,.61.07,1.19.21,1.77.14.57.37,1.08.67,1.53.3.45.7.8,1.19,1.07.49.27,1.07.4,1.74.4,1.06,0,1.89-.28,2.49-.83.6-.56.96-1.34,1.1-2.35h2.2c-.24,1.62-.84,2.86-1.8,3.74-.97.88-2.29,1.31-3.95,1.31-.99,0-1.87-.16-2.64-.48-.77-.32-1.41-.77-1.92-1.36s-.9-1.29-1.16-2.11-.39-1.71-.39-2.69.13-1.89.38-2.74c.25-.85.64-1.59,1.15-2.22.51-.63,1.16-1.13,1.93-1.49.77-.36,1.67-.54,2.7-.54.74,0,1.43.09,2.08.27.65.18,1.22.45,1.72.82.5.37.9.84,1.22,1.4.32.56.52,1.23.61,2.01h-2.22c-.17-.82-.52-1.46-1.06-1.92h0Z" inkscape:connector-curvature="0"/>
              <path id="path3386" class="st0" d="M136.65,59.41v6.89h.05c.17-.4.4-.74.71-1.02.3-.28.64-.5,1.02-.68.38-.18.77-.31,1.19-.39.41-.08.81-.13,1.2-.13.86,0,1.57.12,2.14.35.57.24,1.04.56,1.39.98.35.42.6.92.74,1.5.14.58.21,1.22.21,1.93v8.58h-2.15v-8.83c0-.81-.24-1.45-.71-1.92-.47-.47-1.12-.71-1.94-.71-.66,0-1.22.1-1.7.3-.48.2-.88.49-1.2.86-.32.37-.56.8-.72,1.3-.16.5-.24,1.04-.24,1.63v7.37h-2.14v-18.02h2.15Z" inkscape:connector-curvature="0"/>
              <path id="path3388" class="st0" d="M157.78,76.59c-.98.74-2.21,1.11-3.69,1.11-1.04,0-1.95-.17-2.71-.5-.77-.34-1.41-.81-1.93-1.41-.52-.61-.91-1.33-1.17-2.17s-.41-1.76-.44-2.75c0-.99.15-1.9.45-2.73.3-.82.73-1.54,1.27-2.15.55-.61,1.19-1.08,1.94-1.41.75-.34,1.57-.5,2.46-.5,1.16,0,2.12.24,2.89.72.77.48,1.38,1.09,1.84,1.83.46.74.78,1.55.96,2.42.18.88.25,1.71.21,2.5h-9.77c-.02.57.05,1.11.2,1.63.15.51.39.97.73,1.36.34.4.77.71,1.29.95.52.24,1.14.35,1.84.35.91,0,1.65-.21,2.23-.63.58-.42.96-1.06,1.15-1.92h2.12c-.29,1.46-.92,2.57-1.89,3.31h0ZM157.26,68.22c-.19-.45-.45-.85-.78-1.17-.33-.33-.72-.59-1.16-.78-.45-.19-.94-.29-1.48-.29s-1.06.1-1.5.29c-.45.19-.83.46-1.15.8-.32.34-.57.73-.76,1.17-.19.45-.29.92-.33,1.43h7.5c-.03-.5-.15-.98-.34-1.44h0Z" inkscape:connector-curvature="0"/>
              <path id="path3390" class="st0" d="M164.11,64.38v1.92h.05c.98-1.48,2.38-2.22,4.22-2.22.81,0,1.54.17,2.2.5s1.12.91,1.39,1.72c.44-.71,1.01-1.25,1.73-1.64.72-.39,1.5-.58,2.36-.58.66,0,1.25.07,1.78.21.53.14.98.37,1.36.67s.67.69.88,1.17c.21.48.32,1.06.32,1.73v9.57h-2.15v-8.56c0-.4-.03-.78-.1-1.14s-.19-.66-.38-.92c-.19-.26-.44-.47-.77-.62-.33-.15-.75-.23-1.27-.23-1.06,0-1.89.3-2.5.91-.61.61-.91,1.41-.91,2.42v8.13h-2.14v-8.56c0-.42-.04-.81-.11-1.16-.08-.35-.21-.66-.39-.92s-.43-.46-.74-.61c-.31-.14-.71-.21-1.2-.21-.62,0-1.16.13-1.6.38-.45.25-.81.56-1.08.91s-.48.72-.61,1.1-.19.69-.19.95v8.13h-2.15v-13.05h2.02Z" inkscape:connector-curvature="0"/>
              <path id="path3392" class="st0" d="M183.75,62.03v-2.63h2.15v2.63h-2.15ZM185.89,64.38v13.05h-2.15v-13.05h2.15Z" inkscape:connector-curvature="0"/>
              <path id="path3394" class="st0" d="M190.87,74.51c.2.33.47.59.79.78.33.19.7.33,1.11.42.41.08.84.13,1.27.13.34,0,.69-.03,1.06-.08s.71-.14,1.02-.28c.31-.13.57-.33.77-.59.2-.26.3-.59.3-1,0-.56-.21-.98-.63-1.26-.42-.29-.95-.52-1.58-.69-.63-.18-1.32-.34-2.06-.48-.74-.14-1.43-.35-2.06-.61-.63-.26-1.16-.63-1.58-1.1-.42-.47-.63-1.13-.63-1.97,0-.66.15-1.22.44-1.69.29-.47.67-.85,1.14-1.15.46-.29.98-.51,1.56-.66.58-.14,1.16-.21,1.73-.21.74,0,1.42.06,2.04.19.62.13,1.17.35,1.65.66.48.31.86.73,1.15,1.26.29.53.45,1.19.5,1.98h-2.15c-.03-.42-.14-.77-.33-1.05-.19-.28-.42-.5-.71-.67-.29-.17-.6-.29-.95-.37-.35-.08-.69-.11-1.05-.11-.32,0-.64.03-.97.08-.33.05-.63.14-.9.27-.27.13-.49.29-.66.5-.17.21-.25.48-.25.82,0,.37.13.68.39.92.26.24.59.45,1,.61.4.16.86.29,1.36.4.51.11,1.01.22,1.51.34.54.12,1.06.26,1.58.43.51.17.97.39,1.36.67.4.28.72.63.96,1.05.24.42.37.94.37,1.56,0,.79-.16,1.45-.49,1.97-.33.52-.76.94-1.29,1.26-.53.32-1.13.54-1.79.67-.67.13-1.33.19-1.98.19-.72,0-1.41-.08-2.07-.23-.66-.15-1.24-.4-1.74-.74-.51-.34-.91-.8-1.21-1.36-.3-.56-.47-1.25-.5-2.06h2.15c.02.47.13.87.33,1.2h0Z" inkscape:connector-curvature="0"/>
              <path id="path3396" class="st0" d="M207.42,64.38v1.89h-2.6v8.1c0,.25.02.45.06.61.04.15.12.27.24.35s.28.14.49.16c.21.03.48.04.82.04h.98v1.89h-1.64c-.56,0-1.03-.04-1.43-.11-.4-.08-.72-.21-.96-.42s-.42-.49-.54-.86-.18-.86-.18-1.46v-8.3h-2.22v-1.89h2.22v-3.91h2.15v3.91h2.6Z" inkscape:connector-curvature="0"/>
              <path id="path3398" class="st0" d="M211.74,64.38v2.75h.05c.52-1.06,1.16-1.84,1.92-2.35.76-.5,1.72-.74,2.88-.71v2.27c-.86,0-1.59.12-2.2.35-.61.24-1.09.58-1.46,1.03-.37.45-.64,1.01-.81,1.65-.17.65-.25,1.39-.25,2.23v5.81h-2.15v-13.05h2.02Z" inkscape:connector-curvature="0"/>
              <path id="path3400" class="st0" d="M223.33,79.17c-.25.64-.5,1.18-.74,1.62-.24.44-.51.8-.81,1.07s-.62.48-.98.61c-.36.13-.78.19-1.25.19-.25,0-.5-.02-.76-.05-.25-.03-.5-.09-.73-.18v-1.97c.19.08.4.16.64.21.24.06.45.09.62.09.44,0,.8-.11,1.1-.32.29-.21.52-.51.67-.9l.88-2.2-5.17-12.97h2.42l3.81,10.68h.05l3.66-10.68h2.27l-5.68,14.79Z" inkscape:connector-curvature="0"/>
            </g>
          </g>
        </g>
        <g id="g3087">
          <g id="g3089">
            <g id="g3091">
              <path id="path3093" class="st0" d="M82.04,1.23h22.83c8.38,0,12.21,5.59,12.21,10.7,0,3.68-1.41,6.05-5.21,8.26,4.79,1.77,7.39,4.96,7.39,9.88,0,5.89-4.28,12.14-14.36,12.14h-22.87V1.23ZM94.51,32.95h8.26c2.94,0,4.27-2.1,4.27-3.97,0,.86.38-3.4-3.85-3.4h-8.68v7.36ZM94.54,17.36h6.64c3.04,0,4.24-1.41,4.24-3.49,0-.48-.15-3.15-3.37-3.15,1.47,0-7.51,0-7.51,0,0,0,0,6.64,0,6.64Z" inkscape:connector-curvature="0"/>
              <path id="path3095" class="st0" d="M132.25,1.23h13.2l15.04,40.93h-13.55l-1.98-6.13h-12.65l-1.68,6.1h-13.45L132.25,1.23ZM138.31,13.37l-3.49,13.67h7.45l-3.97-13.67Z" inkscape:connector-curvature="0"/>
              <path id="path3097" class="st0" d="M181.55,13.4h12.59C194.13,6.45,188.91,0,176.5,0,162.89,0,158.67,7.51,158.67,13.01c0,8.86,10.85,11.22,11.18,11.33,1.62.51,8.35,2.31,10.03,2.91,1.46.52,2.85,1.69,2.85,3.24,0,2.39-2.85,3.54-5.22,3.54-1.52,0-6.64-.5-6.64-5.93h-13.01c0,7.21,4.96,15.27,18.87,15.27,15.35,0,18.56-9.16,18.56-14.03,0-3.97-2.25-8.38-7.45-10.48-3.12-1.26-8.31-2.37-10.91-3.13-1.31-.38-5.68-1.27-5.68-3.94,0-3.42,5.63-2.98,4.81-2.98,2.55,0,5.47,1.43,5.47,4.57h0Z" inkscape:connector-curvature="0"/>
              <polygon id="polygon3099" class="st0" points="228.86 1.22 228.86 12.03 210 12.03 210 19.24 226.82 19.24 226.82 29.58 209.94 29.58 209.94 42.2 197.38 42.2 197.44 1.22 228.86 1.22"/>
            </g>
            <path id="path3101" class="st1" d="M.08,1.23v40.98h40.98V1.23H.08ZM28.45,29.6h-15.76v-15.76h15.76v15.76Z" inkscape:connector-curvature="0"/>
            <rect id="rect3103" class="st1" x="53.67" y="13.84" width="15.76" height="15.76"/>
          </g>
        </g>
      </g>
    </g>
  </g>
</svg>