<?xml version="1.0" encoding="UTF-8"?>
<svg id="Layer_1" xmlns="http://www.w3.org/2000/svg" version="1.1" viewBox="0 0 1000 475.71">
  <!-- Generator: Adobe Illustrator 29.7.1, SVG Export Plug-In . SVG Version: 2.1.1 Build 8)  -->
  <defs>
    <style>
      .st0 {
        fill: #fff;
      }
    </style>
  </defs>
  <path class="st0" d="M418.81,0c-44.35-.67-83.72,35.19-83.72,87.09v233.69c.05,8.41-6.24,15.87-15.38,15.87h-73.05c-158.07.19-143.95-202.08-9.4-202.27,59.81-.08,80.72,0,80.72,0v-56.67h-83.59c-52.38.08-92.03,20.03-118.71,49.77-26.67,29.74-40.33,69.34-40.31,108.7.02,37.89,12.94,77.22,39.94,107.02,27,29.8,68.04,50.19,124.77,50.19h137.88c7.97,0,14.73-6.75,14.73-14.62V93.26c-.09-14.93,7.66-26.93,20.11-30.91h0c12.08-3.84,25.34,1.16,33.34,12.54l.04.05.03.05c19.38,31.75,67.79,109.64,111.53,179.85,21.87,35.11,42.56,68.29,57.88,92.84,7.66,12.27,13.97,22.39,18.41,29.5,4.4,7.06,6.85,10.98,7.12,11.42,3.23,4.56,7.28,6.27,10.67,5.21h0c1.92-.6,3.43-1.95,4.56-4.17s1.8-5.31,1.8-9.02V93.3c-.05-14.88,7.65-26.91,20.14-30.86,12-3.85,25.31,1.16,33.23,12.54l.03.04.03.05c19.42,31.73,67.86,109.62,111.6,179.83,43.72,70.17,82.81,132.77,83.42,133.75,0,0,0,0,0,0,3.16,4.53,7.48,6.34,11.08,5.2,1.95-.62,3.51-2,4.67-4.22s1.86-5.29,1.86-8.97V1.76h-57.18v221.26s-35.41-60.04-95.77-163.68c-59.06-101.52-170.51-59.56-170.55,27.8v135.84s-34.56-60.09-94.88-163.72C481.84,18.03,449.16.47,418.81,0ZM244.72,1.76c-328.58-.04-325.46,468.08,4.43,468.29h128.9c55.47.04,91.09-32.86,91.05-93.5v-118.57s72.29,119.86,100.66,166.78c48.27,79.77,165.07,64.09,164.77-35.56v-131.13s72.29,119.82,100.7,166.8c48.27,79.75,165.07,64.05,164.78-35.62V1.76h-57.09v378.9h0c.04,17.91-10,27.92-19.56,30.94h0c-11.67,3.72-24.36-1.26-32.25-12.56l-.03-.04-.03-.04c-1.63-2.61-156.35-250.37-195.04-313.67-3.21-4.56-7.91-6.43-12.08-5.11-4.33,1.39-7.08,5.97-7.08,13.11v287.28h0c.05,17.98-9.82,27.96-19.34,31.03h0s0,0,0,0c-11.49,3.61-23.98-1.35-31.82-12.65l-.02-.03-.02-.03c-.31-.49-2.81-4.48-7.27-11.62-4.46-7.14-10.8-17.29-18.47-29.58-15.35-24.59-36.07-57.81-57.94-92.92-43.73-70.19-92.04-147.92-111.36-179.56-3.21-4.55-7.95-6.39-12.13-5.07h0c-4.38,1.39-7.16,5.97-7.12,13.06h0v285.57c0,18.33-15.02,33.26-33.37,33.26h-137.88c-62.73,0-108.67-22.77-138.8-56.18s-44.49-77.34-44.54-119.66c-.04-43.91,15.17-88.12,45.02-121.41,29.85-33.29,74.39-55.61,132.59-55.69h83.63V1.76h-73.26Z"/>
</svg>