<?xml version="1.0" encoding="UTF-8"?>
<svg id="Layer_1" xmlns="http://www.w3.org/2000/svg" version="1.1" viewBox="0 0 594.5 486">
  <!-- Generator: Adobe Illustrator 29.7.1, SVG Export Plug-In . SVG Version: 2.1.1 Build 8)  -->
  <defs>
    <style>
      .st0 {
        fill: #fff;
      }
    </style>
  </defs>
  <path class="st0" d="M349.1,122.6c-3.8,13.9-7.7,29-12.1,46.4-7.3,29.1-21.1,104.5-25.3,154.3-2.2,1-8.7,1.9-11.8,1.9-10.1,0-21.9-6.2-22.6-22.2-1-19.8,10.6-93,28.1-160.8.6-2.1,1.1-4.2,1.7-6.3-22.5,7.7-43.4,15.9-62.2,23.9-7,30.8-16.3,77.9-19.8,124.6-.7.7-7.3,1.7-10.6,1.7-12,0-20.4-8-20.3-21.6.1-26.6,6-61.5,11.1-86.7-25.3,12.3-44.3,23-55,29.4-1.9-3.6-2.5-9.4-2-12.2.6-4,3-12.8,12.6-19.5,15.7-10.8,32.9-21.4,51.8-31.5,9.7-39.6,22.9-79.8,33.9-103.6,7.1-15.4,16.2-21.2,31.8-21.2,4.1,0,9.7,1,12.7,1.9-14.1,30.6-27.3,67-37.5,103.2,19.3-8.4,40.2-16.4,63-23.9,11.1-38.6,21-66.2,30.3-83.7,5.8-11,15.4-15.4,24.1-16.4,7.7-.9,14.4.1,20.4,1.7-14.4,34.4-23.9,59.9-32.1,86,15.6-4.1,32-8.1,49.3-11.7,9.4-2,43.3-8,49.5,24.9-38.1,3.8-74.9,11.7-109,21.4ZM199.9,369.3c-5.9,0-11.8,5.4-11.8,11.6,0,4.5,3.2,7.7,7.6,7.7,5.9,0,11.9-5.5,11.9-11.6.1-4.6-3.3-7.7-7.7-7.7ZM159.2,374.6c-3.3,16.3-13.9,67.6-13.9,67.6-.7,2.8-4.5,17.6,11,17.6h2.3l20.3-98.4s-16.4-2.9-19.7,13.2ZM183.3,408.8c-3.4,15.9-6.9,33.4-6.9,33.4-.7,2.8-4.5,17.6,11.1,17.6h2.3l13.2-64c-.7.1-16.3-2.7-19.7,13ZM138.5,417.6c0,13.6-5.5,26.5-15.1,34.3-6,5-14.1,8-23.1,8-14.4,0-24.7-7.8-24.7-22.9,0-13.5,5.5-26.4,15.1-34.1,6.1-5,14.1-8,23.2-8,14.2-.1,24.6,7.5,24.6,22.7ZM121.1,417.7c0-6.7-2.6-11.5-9.4-11.5-4.3,0-8.1,2.5-10.9,6.1-5.3,6.7-8,17.4-8,24.7,0,6.8,2.7,11.6,9.6,11.6,4.3,0,7.8-2.5,10.7-6.1,5.3-6.8,8-17.6,8-24.8ZM444.8,370.3c-2.6,12-14.9,71.9-14.9,71.9-.7,3.5-4.2,17.6,11,17.6h2.3l21-102.1c-4-.6-16.6-.6-19.4,12.6ZM505.2,394.8c-8.2,0-15.2,3.7-19.6,8.7,0,0-.6-12.5-17-7.5,3,8.7,1.3,11.8-2,29.3l-3.5,17c-.6,2.9-4.5,17.6,11,17.6h2.3l6.1-29.5c1.7-7.9,4.9-22.9,16.8-22.9,5.9,0,9,3.7,7.1,12.8l-4.5,22c-.7,2.8-4.5,17.6,11,17.6h2.3l8.3-40.3c3.7-17.3-5.3-24.8-18.3-24.8ZM60,371.1c-.7,3.7-2.5,11.9-5.3,25.3l-28.6,5.7,8.4-40.6c-2.6-.5-16.8-1.6-19.6,13.1-.9,4.6-14,67.6-14,67.6-.7,3.3-4.5,17.6,11,17.6h2.4l8.3-39.9,28.6-5.7c-2.8,13.7-5.8,28-5.8,28-.7,2.8-4.5,17.6,11,17.6h2.3l21.1-102.1c-.1,0-16.4-2.9-19.8,13.4ZM575.3,394.8c-8.2,0-15.2,3.7-19.6,8.7,0,0-.6-12.5-17-7.5,3,8.7,1.3,11.8-2,29.3l-3.5,17c-.6,2.9-4.5,17.6,11.1,17.6h2.3l6.1-29.5c1.7-7.9,4.9-22.9,16.8-22.9,5.9,0,9,3.7,7.1,12.8l-4.5,22c-.7,2.8-4.5,17.6,11,17.6h2.3l8.3-40.3c3.6-17.3-5.4-24.8-18.4-24.8ZM252.5,406.7c-.9-.5-3.1-1-5-1-13.2,0-23.9,16.2-23.9,31.2,0,7.3,3.5,11.4,9.2,11.4,4.1,0,7-1.6,9.3-4.1,2.3-2.7,3.9-6.7,4.9-11.4l5.5-26.1ZM278.7,361.4l-20.3,98.4h-2.3c-5.2,0-9.7-1.9-11.2-6.6-3.6,3.8-9.7,6.6-17.4,6.6-13,0-21.5-8.7-21.5-22.5,0-22.5,17.6-42.5,42.3-42.5,2.5,0,5,.2,6.4.6-.2.7,2.7-12.7,4.2-20.5,3.2-15.9,18.4-13.6,19.8-13.5ZM338.7,400.7l-12.2,59.1h-2.3c-5.2,0-9.7-1.8-11.2-6.6-3.5,3.8-9.7,6.6-17.4,6.6-13,0-20.8-8.5-20.8-22.4,0-23.7,18.7-42.7,42.3-42.7,8.1.1,15,2.4,21.6,6ZM320.6,406.6c-1.1-.5-2.3-1-3.9-1-15,0-24.5,18.1-24.5,31.3,0,7.3,2.9,11.2,8.7,11.2,4.1,0,7.2-1.6,9.5-4.1,2.3-2.7,3.8-6.7,4.8-11.4l5.4-26ZM389.8,409.5c3.5-16.3,20-13.5,20-13.5l-11.6,54.5c-2.3,11-5.4,18.7-10.5,24.4-6.2,6.9-15.8,11.1-28.1,11.1-14.3,0-25-6.4-25-17.3,0-7.3,4.6-12.6,14.6-15-2.6-2.9-4.3-6.6-4.3-11.2,0-3.2.7-7.1,1.6-10.9,0,0,.7-3,4.5-21,3.9-18,20.2-14.7,20.2-14.7l-7.6,36.2c-.7,3.1-4,15,6.7,15,12.1,0,14.9-15,16.5-22.9-.2,0-.5,1.6,3-14.7ZM380.2,453.7c-3.3,3-9.2,4.5-15.8,5.3-9.3,1.1-15.6,2.6-15.6,9.1,0,5,5,7.8,10.9,7.8,4.8,0,9.2-1.7,12.4-4.8,3.3-3.2,5.7-7.8,6.9-12.8l1.2-4.6Z"/>
</svg>