<?xml version="1.0" encoding="UTF-8"?>
<svg id="Layer_1" xmlns="http://www.w3.org/2000/svg" version="1.1" viewBox="0 0 1000 400">
  <!-- Generator: Adobe Illustrator 29.7.1, SVG Export Plug-In . SVG Version: 2.1.1 Build 8)  -->
  <defs>
    <style>
      .st0 {
        fill: #fff;
      }
    </style>
  </defs>
  <path class="st0" d="M0-.5v83h55.94v236H1.53v82h194.65v-82h-55.94V82.5h54.41V-.5H0ZM842.14.5l-64.73,182.89L711.87.5h-157.85v82h55.94v236h-54.41v82h138.71v-228.16l82.66,228.08,1.68.04,81.17-228.12v228.16h140.23v-82h-55.94V82.5h54.41V.5h-156.33ZM222.23.5v82h55.94v236h-55.94v82h211.52c37.53,0,65.86-27.37,65.86-27.37h0l22.27-25.89c6.31-6.27,9.92-27.33,9.92-27.33h0l2.3-25.86c0-12.93-5.35-27.41-5.35-27.41h0l-11.52-25.85c-5.74-13.33-23.75-27.37-23.75-27.37h0v-25.86s18.01-14.04,23.75-27.37h0l11.52-25.86s5.35-14.47,5.35-27.41h0l-2.3-25.86s-3.62-21.06-9.92-27.33h0l-22.27-25.89S471.28.5,433.75.5h-211.52ZM362.46,82.5h81.99v76h-81.99v-76ZM362.46,242.5h81.99v76h-81.99v-76Z"/>
</svg>