<?xml version="1.0" encoding="UTF-8"?>
<svg xmlns="http://www.w3.org/2000/svg" version="1.1" xmlns:cc="http://creativecommons.org/ns#" xmlns:dc="http://purl.org/dc/elements/1.1/" xmlns:inkscape="http://www.inkscape.org/namespaces/inkscape" xmlns:rdf="http://www.w3.org/1999/02/22-rdf-syntax-ns#" xmlns:sodipodi="http://sodipodi.sourceforge.net/DTD/sodipodi-0.dtd" xmlns:svg="http://www.w3.org/2000/svg" viewBox="0 0 500 105">
  <!-- Generator: Adobe Illustrator 29.7.1, SVG Export Plug-In . SVG Version: 2.1.1 Build 8)  -->
  <defs>
    <style>
      .st0 {
        fill: #fff;
      }
    </style>
  </defs>
  <g id="svg2" inkscape:version="0.91 r13725">
    <sodipodi:namedview id="base" bordercolor="#666666" borderopacity="1.0" fit-margin-bottom="5" fit-margin-left="10" fit-margin-right="10" fit-margin-top="5" inkscape:current-layer="layer1" inkscape:cx="172.36641" inkscape:cy="217.38017" inkscape:document-units="px" inkscape:pageopacity="0.0" inkscape:pageshadow="2" inkscape:window-height="1017" inkscape:window-maximized="1" inkscape:window-width="1920" inkscape:window-x="1016" inkscape:window-y="-8" inkscape:zoom="1.4" pagecolor="#ffffff" showgrid="false" units="px"/>
    <g id="layer1" inkscape:groupmode="layer" inkscape:label="Layer 1">
      <g id="g23944">
        <g id="g13605">
          <path id="path13607" class="st0" d="M209.97,23.33c-8.94,0-19.1,4.14-25.31,12.44v-.02s0,0,0,0v-11.12s-21.31,0-21.31,0v77.63h21.31v-44.17c0-7.95,6.16-16.4,17.58-16.4,8.82,0,17.95,6.14,17.95,16.4v44.17h21.32v-48.12c0-17.86-12.77-30.81-31.53-30.81" inkscape:connector-curvature="0"/>
        </g>
        <g id="g13609">
          <path id="path13611" class="st0" d="M393.01,24.64l-19.27,52.88-19.27-52.88h-24.35l31.94,77.61h23.36l31.94-77.61h-24.35Z" inkscape:connector-curvature="0"/>
        </g>
        <g id="g13613">
          <path id="path13615" class="st0" d="M99.7,48.02c3.63-4.87,9.41-7.74,16.4-7.74,7.68,0,13.51,4.39,16.52,10.86l-37.24,15.45c-1.02-7.93,1.01-14.13,4.32-18.58M140.65,78.4c-8.97,6.64-14.1,8.22-22.28,8.22-7.36,0-13.13-2.29-17.19-6.3l54.5-22.61c-1.19-8.43-4.39-15.95-9.31-21.68-7.16-8.32-17.76-12.72-30.66-12.72-23.44,0-41.12,17.29-41.12,40.13s17.72,40.13,43.46,40.13c14.43,0,29.18-6.84,36.08-14.83l-13.48-10.36Z" inkscape:connector-curvature="0"/>
        </g>
        <g id="g13617">
          <path id="path13619" class="st0" d="M72.56,82.69H24.11V1.41H2.5v100.85h70.06v-19.57Z" inkscape:connector-curvature="0"/>
        </g>
        <g id="g13621">
          <path id="path13623" class="st0" d="M455.64,41.59c-11.91,0-20.55,9.02-20.55,21.86s9.16,21.86,20.83,21.86,20.55-9.27,20.55-21.86-9.15-21.86-20.83-21.86M455.64,103.57c-23.31,0-41.58-17.37-41.58-40.12s18.39-40.12,41.87-40.12,41.58,17.37,41.58,40.12-18.39,40.12-41.86,40.12" inkscape:connector-curvature="0"/>
        </g>
        <g id="g13625">
          <path id="path13627" class="st0" d="M291.51,41.59c-11.91,0-20.54,9.02-20.54,21.86s9.15,21.86,20.83,21.86,20.54-9.27,20.54-21.86-9.15-21.86-20.83-21.86M291.51,103.57c-23.31,0-41.58-17.37-41.58-40.12s18.39-40.12,41.87-40.12,41.58,17.37,41.58,40.12-18.39,40.12-41.87,40.12" inkscape:connector-curvature="0"/>
        </g>
      </g>
    </g>
  </g>
</svg>