<?xml version="1.0" encoding="UTF-8"?>
<svg id="Layer_1" xmlns="http://www.w3.org/2000/svg" version="1.1" viewBox="0 0 219.04 45.53">
  <!-- Generator: Adobe Illustrator 29.7.1, SVG Export Plug-In . SVG Version: 2.1.1 Build 8)  -->
  <defs>
    <style>
      .st0, .st1, .st2 {
        fill: #fff;
      }

      .st1 {
        stroke-linejoin: round;
        stroke-width: .44px;
      }

      .st1, .st2 {
        stroke: #fff;
      }

      .st2 {
        stroke-miterlimit: 10;
        stroke-width: .09px;
      }
    </style>
  </defs>
  <g>
    <path class="st0" d="M58.69,12.01h1.71V1.08h-1.71V0h5.96c.8,0,1.62.07,2.23.37,1.28.58,2.1,1.88,2.1,3.56,0,1.81-.93,3.2-2.38,3.72-.61.2-1.23.26-1.94.26h-2.96v4.1h1.71v1.08h-4.73s0-1.08,0-1.08ZM64.53,6.8c.61,0,1.14-.07,1.58-.26.97-.39,1.54-1.32,1.54-2.61,0-1.19-.5-2.05-1.36-2.49-.46-.21-1.08-.32-1.77-.32h-2.83v5.68h2.83Z"/>
    <path class="st0" d="M75.22,3.5c2.74,0,4.95,2.09,4.95,4.86s-2.21,4.95-4.95,4.95-4.93-2.12-4.93-4.95c0-2.77,2.21-4.86,4.93-4.86ZM75.22,12.18c2.01,0,3.65-1.64,3.65-3.82s-1.64-3.72-3.65-3.72-3.63,1.6-3.63,3.72c0,2.18,1.64,3.82,3.63,3.82Z"/>
    <path class="st0" d="M81.08,3.72h3.87v1.04h-1.4l1.96,6.29c.11.34.15.73.15.73h.04s.06-.39.15-.73l2.35-7.3h1.25l2.35,7.3c.09.34.15.73.15.73h.04s.04-.39.13-.73l1.97-6.29h-1.4v-1.04h3.87v1.04h-1.21l-2.66,8.32h-1.36l-2.31-7.02c-.11-.34-.17-.74-.17-.74h-.06s-.06.41-.17.74l-2.31,7.02h-1.38l-2.66-8.32h-1.19v-1.04Z"/>
    <path class="st0" d="M102.13,3.5c2.59,0,3.93,1.99,3.93,4.32,0,.22-.06.6-.06.6h-7.19c.06,2.4,1.69,3.76,3.63,3.76,1.71,0,2.85-1.12,2.85-1.12l.58.95s-1.34,1.3-3.46,1.3c-2.79,0-4.9-2.01-4.9-4.9,0-3.07,2.09-4.91,4.62-4.91ZM104.74,7.48c-.07-1.97-1.27-2.92-2.64-2.92-1.56,0-2.92,1.02-3.22,2.92h5.86Z"/>
    <path class="st0" d="M107.86,12.04h1.45v-6.87c0-.28-.15-.41-.41-.41h-1.27v-1.04h1.77c.78,0,1.14.32,1.14,1.06v.63c0,.39-.04.71-.04.71h.04c.47-1.41,1.51-2.49,2.96-2.49.26,0,.52.06.52.06v1.25s-.24-.04-.48-.04c-2.1,0-2.96,2.36-2.96,4.23v2.92h1.45v1.04h-4.17s0-1.05,0-1.05Z"/>
    <path class="st0" d="M119.72,3.5c2.59,0,3.93,1.99,3.93,4.32,0,.22-.06.6-.06.6h-7.19c.06,2.4,1.69,3.76,3.63,3.76,1.71,0,2.85-1.12,2.85-1.12l.58.95s-1.34,1.3-3.46,1.3c-2.79,0-4.9-2.01-4.9-4.9,0-3.07,2.08-4.91,4.62-4.91ZM122.33,7.48c-.07-1.97-1.27-2.92-2.64-2.92-1.56,0-2.92,1.02-3.22,2.92h5.86Z"/>
    <path class="st0" d="M129.63,3.5c2.23,0,3.05,1.82,3.05,1.82h.04s-.06-.32-.06-.73V1.04h-1.68V0h2.94v11.64c0,.28.15.41.41.41h1.04v1.04h-1.54c-.8,0-1.12-.35-1.12-1.02v-.17c0-.37.07-.58.07-.58h-.04s-.8,1.99-3.29,1.99-4.06-2.01-4.06-4.9c0-2.98,1.73-4.92,4.23-4.92ZM129.66,12.18c1.56,0,3.03-1.12,3.03-3.76,0-1.92-.97-3.76-2.96-3.76-1.68,0-3.03,1.38-3.03,3.76,0,2.29,1.21,3.76,2.96,3.76Z"/>
    <path class="st0" d="M142.34,1.04h-1.68V0h2.94v4.62c0,.45-.06.78-.06.78h.04s.82-1.9,3.2-1.9c2.51,0,4.08,2.01,4.08,4.91s-1.77,4.9-4.23,4.9c-2.25,0-3.09-1.92-3.09-1.92h-.04s.06.34.06.78v.91h-1.23V1.04h0ZM146.55,12.18c1.66,0,3.03-1.38,3.03-3.76s-1.23-3.76-2.98-3.76c-1.56,0-3.03,1.12-3.03,3.78,0,1.88.99,3.74,2.98,3.74Z"/>
    <path class="st0" d="M154.1,15.88c.84,0,1.43-.67,1.79-1.49l.52-1.25-3.35-8.38h-1.23v-1.04h3.93v1.04h-1.36l2.46,6.39c.11.35.15.67.15.67h.06s.06-.32.19-.67l2.46-6.39h-1.36v-1.04h3.87v1.04h-1.23l-3.98,10.05c-.54,1.34-1.56,2.18-2.87,2.18-1.06,0-1.77-.56-1.77-.56l.48-1.01s.54.45,1.25.45Z"/>
  </g>
  <g>
    <g>
      <path class="st0" d="M57.97,41.21h3.31l1.65-20.19h-3.38v-3.9h9.09l6.22,15.78c.47,1.38.67,2.32.67,2.32h.08s.2-.94.71-2.32l6.18-15.78h9.09v3.9h-3.35l1.61,20.19h3.31v3.86h-11.46v-3.86h3.11l-1.02-14.09c-.08-.98.12-2.6.12-2.6h-.12s-.32,1.53-.67,2.48l-5.35,12.87h-4.41l-5.35-12.87c-.35-.94-.63-2.48-.63-2.48h-.16s.2,1.61.12,2.6l-1.02,14.09h3.15v3.86h-11.49v-3.86Z"/>
      <path class="st0" d="M117.89,28.73h-3.07v-3.74h3.23v-5.47h4.86v5.47s4.55,0,4.55,0v3.74h-4.57v8.46c0,3.42,2.6,3.9,4.01,3.9.55,0,.9-.04.9-.04v4.09s-.63.12-1.54.12c-2.83,0-8.38-.83-8.38-7.56v-8.97h0Z"/>
      <path class="st0" d="M128.88,41.32h2.91v-12.6h-3.11v-3.74h8.11v16.33h2.87v3.74h-10.79v-3.74h0Z"/>
      <path class="st0" d="M137.91,24.99h10.48v3.74h-2.24l3.46,9.92c.39,1.02.51,2.2.51,2.2h.12s.12-1.18.47-2.2l3.5-9.92h-2.28v-3.74h9.64v3.74h-2.4l-6.14,16.33h-5.75l-6.1-16.33h-3.27v-3.74h0Z"/>
      <path class="st0" d="M171.15,24.51c5.79,0,8.93,4.21,8.93,9.53,0,.59-.12,1.69-.12,1.69h-13.9c.32,3.7,2.99,5.59,6.02,5.59,3.27,0,5.82-2.13,5.82-2.13l1.93,3.54s-3.07,2.8-8.11,2.8c-6.65,0-10.79-4.8-10.79-10.51,0-6.18,4.17-10.51,10.2-10.51ZM174.93,32.78c-.08-2.76-1.77-4.41-3.9-4.41-2.56,0-4.37,1.77-4.84,4.41h8.74Z"/>
      <path class="st0" d="M182.76,41.79h3.19v3.27h-3.19v-3.27Z"/>
      <path class="st0" d="M188.57,42.86h3.35v-15.39h-3.54v-2.2h6.22v17.59h3.35v2.2h-9.37v-2.2h0ZM191.75,17.39h3.03v3.35h-3.03v-3.35Z"/>
      <path class="st0" d="M208.57,24.79c5.79,0,10.47,4.41,10.47,10.27s-4.68,10.47-10.47,10.47-10.43-4.49-10.43-10.47c0-5.86,4.68-10.27,10.43-10.27ZM208.57,43.13c4.25,0,7.71-3.46,7.71-8.07s-3.46-7.87-7.71-7.87-7.68,3.39-7.68,7.87c0,4.6,3.46,8.07,7.68,8.07Z"/>
    </g>
    <rect class="st0" x="131.72" y="16.55" width="5.05" height="5.05"/>
    <rect class="st0" x="120.03" y="24.98" width="28.35" height="3.75"/>
    <path class="st0" d="M104.2,24.51c6.14,0,11.06,4.37,11.06,10.51s-4.92,10.51-11.02,10.51-11.06-4.33-11.06-10.51c0-6.14,4.92-10.51,11.02-10.51ZM104.24,41.28c3.23,0,5.94-2.52,5.94-6.26s-2.72-6.26-5.94-6.26-5.98,2.56-5.98,6.26c0,3.74,2.72,6.26,5.98,6.26Z"/>
  </g>
  <g>
    <path class="st0" d="M34.07.2H15.47c-1.99,0-4.43,1.41-5.42,3.13L.75,19.44c-.99,1.72-.99,4.54,0,6.26l9.3,16.11c.99,1.72,3.43,3.13,5.42,3.13h18.6c1.99,0,4.43-1.41,5.42-3.13l9.3-16.11c.99-1.72.99-4.54,0-6.26L39.5,3.33c-1-1.72-3.44-3.13-5.42-3.13h0Z"/>
    <g>
      <polyline class="st1" points="10.6 33.73 17.46 30.54 14.68 13.95 18.09 17.61 13.32 30.54 20.05 33.73"/>
      <polyline class="st1" points="38.25 13.95 30.73 10.75 26.87 29.44 25.02 25.63 23.25 29.44 19.37 10.75 11.9 13.95"/>
      <polyline class="st1" points="35.46 13.91 32.6 30.66 39.58 33.8"/>
      <polyline class="st1" points="30.73 10.75 36.72 30.52 29.95 33.66"/>
      <line class="st1" x1="19.37" y1="10.75" x2="13.32" y2="30.54"/>
      <circle class="st2" cx="11.9" cy="10.75" r=".56"/>
      <circle class="st2" cx="19.37" cy="10.75" r=".56"/>
      <circle class="st2" cx="30.73" cy="10.75" r=".56"/>
      <circle class="st2" cx="38.2" cy="10.75" r=".56"/>
      <circle class="st2" cx="10.6" cy="30.54" r=".56"/>
      <circle class="st2" cx="20.05" cy="30.54" r=".56"/>
      <circle class="st2" cx="10.6" cy="33.73" r=".56"/>
      <circle class="st2" cx="20.05" cy="33.73" r=".56"/>
      <circle class="st2" cx="30.1" cy="30.54" r=".56"/>
      <circle class="st2" cx="39.55" cy="30.54" r=".56"/>
      <circle class="st2" cx="30.1" cy="33.73" r=".56"/>
      <circle class="st2" cx="39.55" cy="33.73" r=".56"/>
      <circle class="st2" cx="25.02" cy="25.63" r=".56"/>
      <circle class="st2" cx="32.66" cy="30.54" r=".56"/>
      <circle class="st2" cx="36.8" cy="30.54" r=".56"/>
      <circle class="st2" cx="23.25" cy="29.44" r=".56"/>
      <circle class="st2" cx="26.87" cy="29.44" r=".56"/>
      <circle class="st2" cx="13.32" cy="30.54" r=".56"/>
      <circle class="st2" cx="17.46" cy="30.54" r=".56"/>
      <circle class="st2" cx="11.9" cy="13.95" r=".56"/>
      <circle class="st2" cx="14.68" cy="13.95" r=".56"/>
      <circle class="st2" cx="35.47" cy="13.95" r=".56"/>
      <circle class="st2" cx="38.25" cy="13.95" r=".56"/>
      <circle class="st2" cx="18.34" cy="17.71" r=".56"/>
      <circle class="st2" cx="31.74" cy="17.71" r=".56"/>
      <polygon class="st1" points="10.6 33.73 20.05 33.73 20.05 30.54 17.46 30.54 18.34 17.71 23.25 29.44 26.87 29.44 31.74 17.71 32.66 30.54 30.1 30.54 30.1 33.73 39.55 33.73 39.55 30.54 36.8 30.54 35.47 13.95 38.25 13.95 38.2 10.75 30.73 10.75 25.02 25.63 19.37 10.75 11.9 10.75 11.9 13.95 14.68 13.95 13.32 30.54 10.6 30.54 10.6 33.73"/>
      <polyline class="st1" points="11.9 10.75 14.68 13.95 19.37 10.75 18.34 17.71 25.02 25.63 31.74 17.71 30.73 10.75 35.47 13.95 38.2 10.75"/>
      <polyline class="st1" points="10.6 30.54 20.05 33.73 17.46 30.54 13.32 30.54 10.6 33.73 20.05 30.54"/>
      <polyline class="st1" points="39.55 30.54 30.1 33.73 32.66 30.54 36.8 30.54 31.74 17.71 35.47 13.95"/>
      <polyline class="st1" points="30.1 30.54 39.55 33.73 36.8 30.54"/>
    </g>
  </g>
</svg>