<?xml version="1.0" encoding="UTF-8"?>
<svg id="Layer_1" xmlns="http://www.w3.org/2000/svg" version="1.1" viewBox="0 0 268.35 40.89">
  <!-- Generator: Adobe Illustrator 29.7.1, SVG Export Plug-In . SVG Version: 2.1.1 Build 8)  -->
  <defs>
    <style>
      .st0 {
        fill: #fff;
      }
    </style>
  </defs>
  <g id="g3">
    <g id="g5">
      <path id="path7" class="st0" d="M256.76,40.18h11.59L256.39.71h-16.47s-11.96,39.47-11.96,39.47h11.59l2.11-7.31h12.97l2.12,7.31M244.18,24.1l3.95-13.64h.07l3.95,13.64h-7.96Z"/>
      <path id="path9" class="st0" d="M57.86,40.89c11.9,0,17.65-2.1,18.47-12.84.19-2.56.23-5.18.23-7.61,0-2.42-.04-5.05-.23-7.6-.81-10.74-6.57-12.84-18.47-12.84s-17.65,2.09-18.46,12.84c-.2,2.56-.24,5.18-.24,7.6,0,2.43.04,5.06.24,7.61.81,10.74,6.56,12.84,18.46,12.84M50.37,20.44c0-2.17.05-3.45.1-4.4.3-6.09,2.71-6.8,7.38-6.8s7.08.71,7.38,6.8c.05.95.1,2.23.1,4.4s-.06,3.46-.1,4.41c-.3,6.09-2.7,6.8-7.38,6.8s-7.08-.71-7.38-6.8c-.05-.95-.1-2.23-.1-4.41Z"/>
      <polyline id="polyline11" class="st0" points="0 .73 0 10.57 11.8 10.57 11.8 40.2 23.6 40.2 23.6 10.57 35.4 10.57 35.4 .73 0 .73"/>
      <polyline id="polyline13" class="st0" points="181.09 40.18 181.09 .71 169.89 .71 169.89 40.18 181.09 40.18"/>
      <polyline id="polyline15" class="st0" points="136.02 15.12 136.02 .71 124.89 .71 124.89 40.18 136.02 40.18 136.02 24.96 148.96 24.96 148.96 40.18 160.1 40.18 160.1 .71 148.96 .71 148.96 15.12 136.02 15.12"/>
      <g id="g17">
        <path id="path19" class="st0" d="M217.93,19.55c4.96-1.27,6.42-4.23,6.42-8.52,0-8.67-5.46-10.32-13.22-10.32h-20.11v39.47h21.11c9.72,0,12.99-4.19,12.99-10.62,0-4.49-1.03-8.45-7.18-10M202.15,23.97h7.72c3.12,0,3.77,1.37,3.77,3.59s-1.22,3.59-3.77,3.59h-7.72v-7.18ZM202.15,9.74h7.72c2.02,0,3.26.96,3.26,3.26,0,1.97-1.23,3.18-3.26,3.18h-7.72s0-6.44,0-6.44Z"/>
        <path id="path21" class="st0" d="M83.05,27.23h10.62c.01,1.91.25,3.19,1.18,3.9,1.06.8,2,1.06,5.14,1.06s6.33,0,6.33-3.72c0-2.93-1.85-3.6-5.26-3.78-8.46-.45-11.52-.69-14.67-3.03-2.15-1.6-3.26-4.7-3.26-8.9,0-7.14,2.49-9.65,6.09-11.4,3.71-1.8,18.27-1.8,22.19,0,4.93,2.27,5.07,7.18,5.07,11.74h-10.59c-.02-2.32-.54-2.98-.97-3.41-1.1-.98-2.67-1.18-4.93-1.18-2.74,0-5.9.12-5.9,3.45,0,2.54,1.1,3.6,3.97,3.78,3.96.25,11.75.5,14.53,2.14,3.89,2.3,4.9,5.42,4.9,10.51,0,7.35-2.63,9.51-6.29,11.12-4.22,1.87-18.33,1.87-22.91-.14-5.13-2.24-5.23-6.7-5.23-12.13"/>
      </g>
    </g>
  </g>
</svg>