<?xml version="1.0" encoding="UTF-8"?>
<svg xmlns="http://www.w3.org/2000/svg" version="1.1" xmlns:cc="http://creativecommons.org/ns#" xmlns:dc="http://purl.org/dc/elements/1.1/" xmlns:inkscape="http://www.inkscape.org/namespaces/inkscape" xmlns:rdf="http://www.w3.org/1999/02/22-rdf-syntax-ns#" xmlns:sodipodi="http://sodipodi.sourceforge.net/DTD/sodipodi-0.dtd" xmlns:svg="http://www.w3.org/2000/svg" viewBox="0 0 1000 232.81">
  <!-- Generator: Adobe Illustrator 29.7.1, SVG Export Plug-In . SVG Version: 2.1.1 Build 8)  -->
  <defs>
    <style>
      .st0 {
        fill: #fff;
      }
    </style>
  </defs>
  <g id="svg3809" inkscape:version="0.92.4 (5da689c313, 2019-01-14)">
    <sodipodi:namedview id="namedview3811" bordercolor="#111111" borderopacity="1" fit-margin-bottom="0" fit-margin-left="0" fit-margin-right="0" fit-margin-top="0" gridtolerance="10" guidetolerance="10" inkscape:current-layer="svg3809" inkscape:cx="450.37058" inkscape:cy="178.14986" inkscape:pageopacity="0" inkscape:pageshadow="2" inkscape:window-height="1017" inkscape:window-maximized="1" inkscape:window-width="1920" inkscape:window-x="1912" inkscape:window-y="-8" inkscape:zoom="1.0484102" objecttolerance="10" pagecolor="#ffffff" showgrid="false"/>
    <ellipse id="ellipse3779" class="st0" cx="881.19" cy="18.9" rx="18.92" ry="18.45"/>
    <path id="path3783" class="st0" d="M76.55,176.52l-55.57-55.57L1.81,140.11c-1.92,1.92-2.15,3.35-1.45,5.75l9.1,35.44c.96,3.83,2.88,5.75,6.71,6.71l35.44,9.1c2.39.72,3.83.49,5.75-1.45l19.17-19.17h0l.02.02ZM85.65,176.52l19.17,19.17c1.92,1.92,3.35,2.15,5.75,1.45l35.44-9.1c3.83-.96,5.75-2.88,6.71-6.71l9.1-35.44c.72-2.39.49-3.83-1.45-5.75l-19.17-19.17-55.57,55.57h0l.02-.02ZM85.65,56.28l55.57,55.57,19.17-19.17c1.92-1.92,2.15-3.35,1.45-5.75l-9.1-35.44c-.96-3.83-2.88-5.75-6.71-6.71l-35.44-9.1c-2.39-.72-3.83-.49-5.75,1.45l-19.17,19.17h0l-.02-.02ZM76.55,56.28l-19.17-19.17c-1.92-1.92-3.35-2.15-5.75-1.45l-35.44,9.1c-3.83.96-5.75,2.88-6.71,6.71L.38,86.92c-.72,2.39-.49,3.83,1.45,5.75l19.17,19.17,55.57-55.57h0l-.02.02Z" inkscape:connector-curvature="0"/>
    <path id="path3785" class="st0" d="M709.21,80.93h-29.47v86.68c0,4.51-3.66,8.17-8.17,8.17h-22.97v-94.85h-26.8l-35.57,100.85c-14.38,40.47-28.5,51.03-53.65,51.03-4.79,0-12.46-.96-20.13-2.39l6.79-22.28h10.95c12.1,0,18.46-3.76,22.64-14.3,4.16-10.54,4.27-12.18,4.3-12.29l-42.64-124.56h27.02c3.58,0,6.76,2.34,7.81,5.77l24.1,78.31,25.39-77.36c1.68-4.79,3.83-6.71,8.63-6.71h41.18v-3.35c0-35.21,16.29-53.65,47.2-53.65,4.79,0,15.63.86,22.09,2.31l-6.83,22.37h-9.05c-12.3,0-22.28,9.98-22.28,22.28v10.07h36.73l-7.26,23.94h0v-.05Z" inkscape:connector-curvature="0"/>
    <path id="path3787" class="st0" d="M318.96,140.1l-23.94-77.85c-1.19-4.07-2.88-5.28-6.94-5.28h-22.75c-4.07,0-5.75,1.19-6.94,5.28l-24.2,77.85-21.56-83.11h-34.25l34.5,113.55c1.19,4.07,2.88,5.28,6.94,5.28h23.71c4.07,0,5.75-1.19,6.94-5.28l25.15-80,25.39,80c1.19,4.07,2.88,5.28,6.94,5.28h21.32c4.07,0,5.75-1.19,6.94-5.28l34.5-113.55h-29.95l-21.79,83.11h-.03Z" inkscape:connector-curvature="0"/>
    <rect id="rect3789" class="st0" x="865.62" y="56.99" width="31.14" height="118.81"/>
    <path id="path3791" class="st0" d="M469.69,63.69l-.72,13.67c-7.43-17.72-22.51-22.77-40.24-22.77-32.57,0-52.93,29.46-52.93,61.79s20.36,61.79,52.93,61.79c17.72,0,32.82-5.04,40.24-22.77l.72,13.67c0,4.56,2.15,6.71,5.99,6.71h24.92V56.99h-24.92c-3.83,0-5.99,2.15-5.99,6.71ZM437.58,153.34c-19.64,0-30.87-16.37-30.87-36.95s11.22-36.95,30.87-36.95,30.87,16.37,30.87,36.95-11.22,36.95-30.87,36.95Z" inkscape:connector-curvature="0"/>
    <path id="path3793" class="st0" d="M808.51,63.69l-.72,13.67c-7.43-17.72-22.51-22.77-40.24-22.77-32.57,0-52.93,29.46-52.93,61.79s20.36,61.79,52.93,61.79c17.72,0,32.82-5.04,40.24-22.77l.72,13.67c0,4.56,2.15,6.71,5.99,6.71h24.92V56.99h-24.92c-3.83,0-5.99,2.15-5.99,6.71ZM776.4,153.34c-19.64,0-30.87-16.37-30.87-36.95s11.22-36.95,30.87-36.95,30.87,16.37,30.87,36.95-11.22,36.95-30.87,36.95Z" inkscape:connector-curvature="0"/>
    <path id="path3795" class="st0" d="M991.86,55.79c-18.45,0-31.61,5.66-37.36,27.7l-.49-19.8c0-4.56-2.15-6.71-5.99-6.71h-24.92v118.81h31.14v-59.4c0-20.83,11.97-34.25,32.57-34.25h5.62l7.56-24.86c-2.91-1.24-5.99-1.49-8.14-1.49Z" inkscape:connector-curvature="0"/>
  </g>
</svg>